<svg width="420" height="421" viewBox="0 0 420 421" fill="none" xmlns="http://www.w3.org/2000/svg">
<g opacity="0.8">
<path d="M350.86 44.0456C325.282 28.136 294.622 26.4056 267.607 39.6524C244.6 50.9 226.699 70.0268 203.666 81.2828C172.2 96.68 137.651 105.097 105.84 119.847C74.0292 134.598 43.5792 157.714 32.172 190.878C18.732 230.047 23.4528 276.104 44.0076 311.913C77.4228 370.117 143.699 390.789 207.505 390.033C342.334 388.446 411.785 225.15 389.785 107.793C384.98 82.3664 373.271 57.9812 350.86 44.0456Z" fill="#2E73B8"/>
<path opacity="0.7" d="M350.86 44.0456C325.282 28.136 294.622 26.4056 267.607 39.6524C244.6 50.9 226.699 70.0268 203.666 81.2828C172.2 96.68 137.651 105.097 105.84 119.847C74.0292 134.598 43.5792 157.714 32.172 190.878C18.732 230.047 23.4528 276.104 44.0076 311.913C77.4228 370.117 143.699 390.789 207.505 390.033C342.334 388.446 411.785 225.15 389.785 107.793C384.98 82.3664 373.271 57.9812 350.86 44.0456Z" fill="white"/>
<path d="M101.312 261.127L94.2564 262.404L92.8704 254.76L84.4872 256.28L85.8732 263.924L78.8256 265.201L80.3964 273.878L87.444 272.601L88.83 280.245L97.2132 278.733L95.8272 271.081L102.883 269.804L101.312 261.127Z" stroke="#2E73B8" stroke-linecap="round" stroke-linejoin="round"/>
<path d="M171.755 144.031L164.993 141.645L167.58 134.321L159.55 131.481L156.962 138.806L150.2 136.421L147.269 144.737L154.022 147.122L151.435 154.455L159.466 157.286L162.061 149.961L168.815 152.347L171.755 144.031Z" stroke="#2E73B8" stroke-linecap="round" stroke-linejoin="round"/>
<path d="M342.308 231.576L335.975 234.927L332.338 228.056L324.803 232.038L328.44 238.909L322.106 242.261L326.231 250.056L332.564 246.704L336.202 253.567L343.736 249.585L340.099 242.714L346.433 239.363L342.308 231.576Z" stroke="#2E73B8" stroke-linecap="round" stroke-linejoin="round"/>
<path d="M71.8451 242.916C74.6843 242.916 76.9859 240.614 76.9859 237.775C76.9859 234.936 74.6843 232.634 71.8451 232.634C69.006 232.634 66.7043 234.936 66.7043 237.775C66.7043 240.614 69.006 242.916 71.8451 242.916Z" stroke="#2E73B8" stroke-linecap="round" stroke-linejoin="round"/>
<path d="M151.922 169.046C151.922 169.315 151.842 169.579 151.693 169.802C151.543 170.026 151.331 170.201 151.082 170.304C150.834 170.407 150.56 170.434 150.296 170.381C150.032 170.328 149.79 170.199 149.599 170.009C149.409 169.818 149.279 169.576 149.227 169.312C149.174 169.048 149.201 168.774 149.304 168.526C149.407 168.277 149.582 168.064 149.805 167.915C150.029 167.765 150.292 167.686 150.561 167.686C150.922 167.686 151.269 167.829 151.524 168.084C151.779 168.339 151.922 168.685 151.922 169.046Z" stroke="#2E73B8" stroke-linecap="round" stroke-linejoin="round"/>
<path d="M89.6532 145.703C89.6532 146.653 89.3714 147.582 88.8434 148.372C88.3155 149.162 87.5651 149.778 86.6871 150.142C85.8091 150.505 84.843 150.601 83.911 150.415C82.979 150.23 82.1228 149.772 81.4509 149.1C80.7789 148.428 80.3213 147.572 80.1359 146.64C79.9505 145.708 80.0457 144.742 80.4093 143.864C80.773 142.986 81.3888 142.236 82.179 141.708C82.9691 141.18 83.8981 140.898 84.8484 140.898C86.122 140.9 87.3428 141.407 88.2434 142.308C89.144 143.208 89.651 144.429 89.6532 145.703Z" stroke="#2E73B8" stroke-linecap="round" stroke-linejoin="round"/>
<path d="M301.358 210.786C301.358 211.324 301.199 211.85 300.9 212.298C300.601 212.745 300.176 213.094 299.678 213.3C299.181 213.506 298.634 213.56 298.106 213.455C297.578 213.35 297.093 213.091 296.712 212.71C296.332 212.329 296.072 211.844 295.967 211.317C295.862 210.789 295.916 210.241 296.122 209.744C296.328 209.247 296.677 208.822 297.125 208.523C297.572 208.224 298.098 208.064 298.637 208.064C299.359 208.064 300.051 208.351 300.561 208.861C301.072 209.372 301.358 210.064 301.358 210.786Z" stroke="#2E73B8" stroke-linecap="round" stroke-linejoin="round"/>
<path d="M273.848 127.836C277.212 127.836 279.938 125.109 279.938 121.746C279.938 118.382 277.212 115.656 273.848 115.656C270.485 115.656 267.758 118.382 267.758 121.746C267.758 125.109 270.485 127.836 273.848 127.836Z" stroke="#2E73B8" stroke-linecap="round" stroke-linejoin="round"/>
<path d="M236.351 176.488C236.67 176.967 246.305 178.891 251.303 186.157C254.211 190.331 256.65 194.813 258.577 199.521C258.577 199.521 266.935 204.494 271.219 208.593C275.503 212.692 280.61 218.135 284.55 220.991C288.49 223.847 296.596 229.265 298.637 235.608C298.637 235.608 286.482 268.897 283.046 276.255C279.611 283.613 271.135 299.229 271.135 299.229L256.015 363.464H168.311L165.32 341.431C165.32 341.431 138.44 336.155 127.21 326.311C127.21 326.311 126.151 301.951 130.847 280.22C135.542 258.489 151.511 213.305 162.33 199.504C162.33 199.504 179.609 191.239 194.855 188.584C194.855 188.584 204.75 180.764 211.226 179.932C217.703 179.101 236.351 176.488 236.351 176.488Z" fill="white"/>
<path d="M166.505 351.36C174.292 352.847 181.079 354.132 189.008 354.039C196.938 353.947 205.036 352.166 211.52 347.622C212.773 346.579 214.193 345.755 215.72 345.186C219.164 344.22 222.575 346.496 225.994 347.555C230.328 348.899 235.082 348.26 239.333 346.647C243.583 345.035 247.405 342.523 251.194 340.02C250.634 347.748 250.452 355.49 250.648 363.246L256.049 363.464L269.884 302.589C269.884 302.589 246.221 330.074 234.688 338.281L212.562 332.586C212.562 332.586 210.479 334.316 206.094 335.19C206.094 335.19 204.086 342.909 192.797 342.926C181.507 342.943 165.32 341.431 165.32 341.431L166.505 351.36Z" fill="#2E73B8"/>
<path opacity="0.5" d="M166.505 351.36C174.292 352.847 181.079 354.132 189.008 354.039C196.938 353.947 205.036 352.166 211.52 347.622C212.773 346.579 214.193 345.755 215.72 345.186C219.164 344.22 222.575 346.496 225.994 347.555C230.328 348.899 235.082 348.26 239.333 346.647C243.583 345.035 247.405 342.523 251.194 340.02C250.634 347.748 250.452 355.49 250.648 363.246L256.049 363.464L269.884 302.589C269.884 302.589 246.221 330.074 234.688 338.281L212.562 332.586C212.562 332.586 210.479 334.316 206.094 335.19C206.094 335.19 204.086 342.909 192.797 342.926C181.507 342.943 165.32 341.431 165.32 341.431L166.505 351.36Z" fill="white"/>
<path d="M143.833 237.775C143.833 237.775 133.56 287.646 134.081 304.773C134.081 304.773 148.042 300.859 157.786 304.773C157.786 304.773 141.204 302.925 134.064 310.527C126.924 318.129 148.898 338.104 192.864 334.047C192.864 334.047 201.634 336.794 206.086 335.181C206.086 335.181 204.893 343.128 192.788 342.918C180.734 342.439 145.471 342.145 127.201 326.319C127.21 326.328 124.908 280.48 143.833 237.775Z" fill="#2E73B8"/>
<path opacity="0.6" d="M143.833 237.775C143.833 237.775 133.56 287.646 134.081 304.773C134.081 304.773 148.042 300.859 157.786 304.773C157.786 304.773 141.204 302.925 134.064 310.527C126.924 318.129 148.898 338.104 192.864 334.047C192.864 334.047 201.634 336.794 206.086 335.181C206.086 335.181 204.893 343.128 192.788 342.918C180.734 342.439 145.471 342.145 127.201 326.319C127.21 326.328 124.908 280.48 143.833 237.775Z" fill="white"/>
<path d="M164.842 247.334C164.842 247.334 167.874 269.418 172.771 274.038C177.668 278.658 200.491 277.146 209.53 282.127C209.53 282.127 218.039 267.385 233.428 258.162L212.562 291.014L194.527 286.755L172.511 283.395L170.663 287.646H167.353C167.353 287.646 166.984 264.075 164.842 247.334Z" fill="#2E73B8"/>
<path opacity="0.5" d="M164.842 247.334C164.842 247.334 167.874 269.418 172.771 274.038C177.668 278.658 200.491 277.146 209.53 282.127C209.53 282.127 218.039 267.385 233.428 258.162L212.562 291.014L194.527 286.755L172.511 283.395L170.663 287.646H167.353C167.353 287.646 166.984 264.075 164.842 247.334Z" fill="white"/>
<path d="M251.101 202.352C260.534 207.905 261.593 214.163 263.533 218.631C258.628 219.606 253.554 220.647 249.505 223.579C244.465 227.241 241.735 233.306 239.618 239.195C237.616 244.767 235.933 250.449 234.578 256.213C239.138 247.976 245.619 240.962 253.47 235.767C257.998 232.777 263.592 230.366 268.758 232.055C264.424 233.894 259.518 236.381 258.602 241.001C258.422 241.768 258.454 242.569 258.695 243.319C259.468 245.495 262.172 246.083 264.222 247.141C268.22 249.199 270.304 253.861 270.48 258.38C270.656 262.899 269.27 267.267 267.901 271.543C266.697 275.289 265.493 279.036 264.289 282.782C262.752 287.57 261.19 292.425 258.409 296.625C255.629 300.825 251.454 304.345 246.49 305.168C244.414 305.569 242.266 305.325 240.332 304.471C238.867 303.674 237.504 302.701 236.275 301.573C230.32 296.763 223.162 293.673 215.578 292.635C225.338 299.087 229.958 310.805 234.007 321.783C232.148 318.529 229.469 315.818 226.237 313.921C225.409 313.344 224.424 313.034 223.415 313.031C220.76 313.241 219.92 316.626 218.324 318.743C216.409 321.263 212.906 322.161 209.765 321.758C206.623 321.355 203.734 319.885 200.911 318.398L165.203 299.985L162.683 307.545C162.683 307.545 191.125 330.225 234.704 338.247C234.704 338.247 263.012 315.878 273.042 296.046C283.072 276.213 298.654 235.566 298.654 235.566C298.654 235.566 292.95 224.763 283.172 219.127C283.172 219.127 275.873 215.675 274.336 211.407C272.798 207.14 259.081 199.773 259.081 199.773C259.081 199.773 260.862 204.326 251.101 202.352Z" fill="#2E73B8"/>
<path opacity="0.6" d="M251.101 202.352C260.534 207.905 261.593 214.163 263.533 218.631C258.628 219.606 253.554 220.647 249.505 223.579C244.465 227.241 241.735 233.306 239.618 239.195C237.616 244.767 235.933 250.449 234.578 256.213C239.138 247.976 245.619 240.962 253.47 235.767C257.998 232.777 263.592 230.366 268.758 232.055C264.424 233.894 259.518 236.381 258.602 241.001C258.422 241.768 258.454 242.569 258.695 243.319C259.468 245.495 262.172 246.083 264.222 247.141C268.22 249.199 270.304 253.861 270.48 258.38C270.656 262.899 269.27 267.267 267.901 271.543C266.697 275.289 265.493 279.036 264.289 282.782C262.752 287.57 261.19 292.425 258.409 296.625C255.629 300.825 251.454 304.345 246.49 305.168C244.414 305.569 242.266 305.325 240.332 304.471C238.867 303.674 237.504 302.701 236.275 301.573C230.32 296.763 223.162 293.673 215.578 292.635C225.338 299.087 229.958 310.805 234.007 321.783C232.148 318.529 229.469 315.818 226.237 313.921C225.409 313.344 224.424 313.034 223.415 313.031C220.76 313.241 219.92 316.626 218.324 318.743C216.409 321.263 212.906 322.161 209.765 321.758C206.623 321.355 203.734 319.885 200.911 318.398L165.203 299.985L162.683 307.545C162.683 307.545 191.125 330.225 234.704 338.247C234.704 338.247 263.012 315.878 273.042 296.046C283.072 276.213 298.654 235.566 298.654 235.566C298.654 235.566 292.95 224.763 283.172 219.127C283.172 219.127 275.873 215.675 274.336 211.407C272.798 207.14 259.081 199.773 259.081 199.773C259.081 199.773 260.862 204.326 251.101 202.352Z" fill="white"/>
<path d="M248.102 125.03C248.102 125.03 250.009 102.795 240.425 100.67C230.84 98.5448 225.456 89.75 225.456 89.75L191.453 99.242L186.178 119.688L189.538 130.036C189.538 130.036 190.243 139.638 190.378 144.384C190.512 149.13 190.378 152.784 193.973 158.546C197.568 164.308 200.911 170.029 208.681 175.01V188.106C208.681 188.106 203.876 202.125 206.531 210.727C206.531 210.727 208.118 212.407 212.503 209.887C216.888 207.367 235.645 194.834 242.189 181.747L244.222 148.474C244.222 148.474 249.623 149.314 251.95 144.392C255.368 139.579 255.234 133.968 253.907 129.398C252.58 124.828 246.868 127.785 246.868 127.785L248.102 125.03Z" fill="#999999"/>
<path d="M209.051 157.63C210.012 156.583 211.197 155.766 212.518 155.24C213.838 154.714 215.26 154.491 216.678 154.59C216.678 154.59 220.769 148.13 225.078 149.314C225.078 149.314 226.405 156.16 221.239 158.857C214.519 162.36 209.051 157.63 209.051 157.63Z" fill="#737373"/>
<path d="M196.417 96.4111C196.417 96.4111 188.278 107.104 188.748 118.251C189.218 129.398 190.84 137.302 190.369 145.904C189.899 154.506 198.971 168.912 208.27 174.716C215.216 179.059 223.927 178.32 230.689 173.876C238.249 168.836 242.407 159.781 243.928 151.087C244.079 150.247 244.196 149.407 244.28 148.5" stroke="#263238" stroke-linecap="round" stroke-linejoin="round"/>
<path d="M208.27 174.725C208.27 174.725 209.588 186.77 208.27 190.895C206.816 195.422 205.061 205.964 206.59 210.727C208.118 215.49 236.72 195.473 242.248 181.739C242.248 181.739 243.012 155.052 244.919 148.382" stroke="#263238" stroke-linecap="round" stroke-linejoin="round"/>
<path d="M207.48 157.336C207.48 157.336 220.492 161.016 225.817 147.584" stroke="#263238" stroke-linecap="round" stroke-linejoin="round"/>
<path d="M208.53 177.622C208.53 177.622 211.302 186.216 217.283 186.728C223.264 187.24 238.224 175.254 243.323 161.133V154.069C243.323 154.069 239.123 172.549 226.825 175.909C214.528 179.269 208.774 174.993 208.774 174.993L208.53 177.622Z" fill="#263238"/>
<path d="M225.07 149.314C219.29 148.911 216.67 154.59 216.67 154.59C215.245 154.416 213.8 154.603 212.467 155.135C211.134 155.666 209.957 156.524 209.042 157.63C210.466 158.908 212.217 159.764 214.099 160.106C215.981 160.447 217.921 160.259 219.702 159.562C226.271 157.278 225.07 149.314 225.07 149.314Z" stroke="#263238" stroke-linecap="round" stroke-linejoin="round"/>
<path d="M210.58 123.98C210.651 126.645 210.533 129.312 210.227 131.96C209.916 134.337 208.816 136.614 207.9 138.848C207.06 140.881 205.657 144.006 206.825 146.148C208.152 148.575 212.562 146.148 212.562 146.148" stroke="#263238" stroke-linecap="round" stroke-linejoin="round"/>
<path d="M215.275 145.644C216.762 145.845 218.87 145.644 219.29 143.065" stroke="#263238" stroke-linecap="round" stroke-linejoin="round"/>
<path d="M220.08 120.771C221.517 119.4 223.428 118.635 225.414 118.635C227.401 118.635 229.311 119.4 230.748 120.771" stroke="#263238" stroke-width="2" stroke-linecap="round" stroke-linejoin="round"/>
<path d="M203.129 122.871C203.129 122.871 199.189 117.831 194.032 122.871" stroke="#263238" stroke-width="2" stroke-linecap="round" stroke-linejoin="round"/>
<path d="M241.189 135.614C241.189 135.614 245.683 124.82 251.546 127.138C255.587 128.743 255.83 135.715 253.688 140.578C251.546 145.442 250.471 150.398 243.331 147.626" stroke="#263238" stroke-linecap="round" stroke-linejoin="round"/>
<path d="M241.987 133.959C241.987 133.959 237.67 132.431 236.872 125.417C236.074 118.403 240.374 111.38 238.778 106.34C237.182 101.3 224.608 103.82 221.743 95.0337C221.743 95.0337 212.302 102.073 194.023 100.561C194.023 100.561 190.168 107.13 189.496 111.145C188.596 117.423 188.618 123.799 189.563 130.07C189.563 130.289 189.638 130.499 189.68 130.717C190.991 137.555 184.464 121.41 184.64 114.513C184.817 107.617 180.659 98.8557 186.077 92.3289C191.495 85.8021 211.361 81.9801 215.275 78.9141C219.19 75.8481 226.8 84.0129 235.595 87.0201C244.39 90.0273 251.681 93.6141 250.572 106.088C249.463 118.562 250.631 120.234 250.681 126.803C250.681 126.819 246.616 125.291 241.987 133.959Z" fill="#263238"/>
<path d="M225.431 129.86C225.431 131.54 224.784 132.934 223.978 132.934C223.171 132.934 222.533 131.557 222.533 129.86C222.533 128.163 223.18 126.794 223.978 126.794C224.776 126.794 225.431 128.18 225.431 129.86Z" fill="#263238"/>
<path d="M203.129 129.86C203.129 131.54 202.482 132.934 201.684 132.934C200.886 132.934 200.239 131.557 200.239 129.86C200.239 128.163 200.886 126.794 201.684 126.794C202.482 126.794 203.129 128.18 203.129 129.86Z" fill="#263238"/>
<path d="M220.08 133.959C220.08 133.959 223.079 137.143 226.876 137.597" stroke="#263238" stroke-linecap="round" stroke-linejoin="round"/>
<path d="M199.651 137.597C199.651 137.597 205.136 137.21 206.371 133.959" stroke="#263238" stroke-linecap="round" stroke-linejoin="round"/>
<path d="M212.402 212.768C216.485 210.172 221.886 211.147 226.355 212.986C228.808 214.003 231.143 215.28 233.587 216.346C234.796 216.881 236.042 217.324 237.317 217.674C240.383 218.472 239.282 214.666 239.106 212.961C238.854 210.517 238.678 208.064 238.384 205.636C238.263 205.134 238.322 204.605 238.552 204.141C238.853 203.767 239.275 203.509 239.744 203.41C245.129 201.73 250.933 202.47 256.544 202.57C257.054 202.631 257.57 202.534 258.023 202.293C258.863 201.747 258.77 200.512 258.544 199.538C256.603 191.239 249.757 182.982 242.315 178.832" stroke="#263238" stroke-linecap="round" stroke-linejoin="round"/>
<path d="M208.74 180.176C205.036 181.722 201.23 183.326 198.038 185.695C196.88 186.54 195.813 187.502 194.855 188.568C194.083 189.303 193.597 190.288 193.486 191.348C193.506 191.841 193.637 192.324 193.868 192.76C194.099 193.196 194.425 193.574 194.821 193.868C195.385 194.332 196.006 194.722 196.669 195.027C198.215 195.758 200.029 196.472 200.684 198.026C200.844 198.352 200.902 198.717 200.852 199.076C200.769 199.391 200.607 199.68 200.382 199.916C199.105 201.47 196.854 202.671 197.022 204.679C197.131 206.233 198.702 207.199 200.096 207.888C201.491 208.577 203.12 209.291 203.599 210.777" stroke="#263238" stroke-linecap="round" stroke-linejoin="round"/>
<path d="M186.808 101.409C187.354 98.0494 190.865 95.8822 194.242 95.3362C197.618 94.7902 201.088 95.3362 204.49 95.0422C207.335 94.761 210.087 93.8724 212.559 92.4363C215.031 91.0002 217.166 89.0501 218.82 86.7178" stroke="white" stroke-linecap="round" stroke-linejoin="round"/>
<path d="M190.63 91.9677C196.728 88.3641 205.296 92.1105 211.243 88.2633C212.926 87.0381 214.391 85.5388 215.578 83.8281" stroke="white" stroke-linecap="round" stroke-linejoin="round"/>
<path d="M268.422 229.82C246.582 234.18 238.434 250.249 238.434 250.249L212.562 290.997" stroke="#263238" stroke-linecap="round" stroke-linejoin="round"/>
<path d="M249.959 225.419C251.771 223.74 253.824 222.341 256.049 221.269" stroke="#263238" stroke-linecap="round" stroke-linejoin="round"/>
<path d="M234.688 256.179C234.688 256.179 237.443 241.463 245.356 230.618" stroke="#263238" stroke-linecap="round" stroke-linejoin="round"/>
<path d="M167.353 287.579C167.353 287.579 166.219 242.496 162.313 235.608" stroke="#263238" stroke-linecap="round" stroke-linejoin="round"/>
<path d="M258.577 199.521C258.577 199.521 271.177 207.081 276.772 214.188C282.366 221.294 295.588 226.015 298.612 235.608C298.612 235.608 281.198 290.477 262.954 310.309C244.709 330.141 234.662 338.281 234.662 338.281C234.662 338.281 190.772 330.654 162.305 306.747L172.486 283.353C172.486 283.353 201.188 286.982 212.537 291.014C223.885 295.046 234.662 319.465 234.662 319.465" stroke="#263238" stroke-linecap="round" stroke-linejoin="round"/>
<path d="M212.562 291.014C212.562 291.014 232.655 294.92 239.182 304.068" stroke="#263238" stroke-linecap="round" stroke-linejoin="round"/>
<path d="M270.379 300.422L256.049 363.464H168.311L165.32 341.431" stroke="#263238" stroke-linecap="round" stroke-linejoin="round"/>
<path d="M206.094 335.19C201.247 345.119 194.855 342.926 194.855 342.926C145.421 344.799 127.21 326.328 127.21 326.328C127.21 326.328 124.69 300.347 134.408 265.285C144.127 230.223 162.33 199.521 162.33 199.521C170.402 194.154 188.412 189.962 193.494 188.853L194.855 188.568" stroke="#263238" stroke-linecap="round" stroke-linejoin="round"/>
<path d="M194.88 342.926C194.88 342.926 192.268 342.498 192.931 325.177" stroke="#263238" stroke-linecap="round" stroke-linejoin="round"/>
<path d="M163.666 307.856C163.666 307.856 151.318 303.505 136.021 314.089" stroke="#263238" stroke-linecap="round" stroke-linejoin="round"/>
<path d="M138.793 304.068C138.793 304.068 154.972 299.255 162.313 306.966" stroke="#263238" stroke-linecap="round" stroke-linejoin="round"/>
<path d="M160.566 306.529L162.666 307.579L170.663 287.604C170.663 287.604 162.38 286.252 149.26 302.59C153.357 302.637 157.326 304.02 160.566 306.529Z" fill="#999999" stroke="#263238" stroke-miterlimit="10"/>
<path d="M192.906 325.177V334.056C192.906 334.056 204.221 337.416 212.596 332.586L192.906 325.177Z" fill="#999999" stroke="#263238" stroke-miterlimit="10"/>
<path d="M254.234 202.478C254.243 202.642 254.226 202.807 254.184 202.965C253.831 204.351 245.204 236.918 217.594 251.408C217.353 251.537 217.085 251.603 216.812 251.601C216.437 251.601 216.073 251.475 215.777 251.244C215.482 251.012 215.272 250.688 215.182 250.324C215.092 249.959 215.127 249.575 215.281 249.233C215.435 248.89 215.699 248.609 216.031 248.435C241.231 235.221 250.11 205.107 250.883 202.335L254.234 202.478Z" fill="#263238"/>
<path d="M194.821 193.843C190.456 203.812 188.101 214.545 187.891 225.427C187.891 226.309 187.891 227.208 187.891 228.123C187.891 228.35 187.891 228.577 187.891 228.804C187.641 228.812 187.391 228.837 187.144 228.879C186.235 229.023 185.353 229.306 184.531 229.719C184.531 228.484 184.531 227.283 184.531 226.099C184.892 207.249 190.52 194.422 193.519 188.878L194.88 188.593C194.108 189.327 193.622 190.313 193.511 191.373C193.536 191.855 193.666 192.326 193.892 192.753C194.119 193.18 194.436 193.552 194.821 193.843Z" fill="#263238"/>
<path d="M227.9 243.831C229.866 246.561 228.253 251.097 224.288 253.962C220.324 256.826 215.519 256.927 213.545 254.197C211.571 251.467 213.184 246.931 217.148 244.067C221.113 241.202 225.96 241.101 227.9 243.831Z" fill="white" stroke="#263238" stroke-linecap="round" stroke-linejoin="round"/>
<path d="M223.012 242.21C224.406 244.142 223.264 247.351 220.492 249.376C217.72 251.4 214.284 251.476 212.932 249.544C211.579 247.612 212.68 244.403 215.452 242.378C218.224 240.354 221.617 240.287 223.012 242.21Z" fill="white" stroke="#263238" stroke-linecap="round" stroke-linejoin="round"/>
<path d="M200.81 276.306C200.453 276.544 200.017 276.636 199.594 276.562C199.171 276.489 198.791 276.256 198.534 275.912C198.277 275.568 198.162 275.138 198.212 274.712C198.262 274.285 198.473 273.893 198.803 273.618C198.946 273.5 204.582 268.704 202.112 252.551C201.902 251.181 201.634 249.72 201.272 248.183C200.206 243.285 198.559 237.086 195.191 232.534C194.39 231.333 193.292 230.359 192.005 229.705C190.717 229.052 189.283 228.742 187.841 228.804C187.59 228.812 187.341 228.838 187.093 228.88C186.184 229.023 185.303 229.306 184.481 229.72C181.972 231.016 180.067 233.24 179.172 235.919L178.87 236.759C176.965 241.91 175.407 247.183 174.208 252.542C172.864 259.136 172.41 266.049 174.796 270.88C175.435 272.205 176.345 273.381 177.468 274.332C178.591 275.282 179.902 275.986 181.314 276.398C181.693 276.523 182.016 276.779 182.224 277.119C182.432 277.46 182.511 277.864 182.449 278.258C182.386 278.652 182.185 279.011 181.882 279.271C181.578 279.53 181.192 279.673 180.793 279.674C180.616 279.674 180.441 279.646 180.272 279.59C178.435 279.039 176.733 278.112 175.273 276.868C173.812 275.625 172.626 274.092 171.788 272.366C169.1 266.931 169.453 259.531 170.814 252.542C172.021 246.795 173.655 241.145 175.703 235.641L176.005 234.801C176.666 232.802 177.772 230.979 179.24 229.47C180.708 227.961 182.5 226.806 184.481 226.091C185.166 225.853 185.872 225.679 186.589 225.57C187.018 225.511 187.429 225.469 187.866 225.444C189.832 225.39 191.781 225.83 193.533 226.723C195.285 227.617 196.785 228.936 197.896 230.56C201.642 235.6 203.423 242.261 204.557 247.485C204.952 249.283 205.254 250.971 205.481 252.567C208.135 270.678 201.138 276.071 200.81 276.306Z" fill="#263238" stroke="#263238" stroke-miterlimit="10"/>
<path d="M179.617 279.38C179.617 279.38 185.707 281.9 187.253 279.38C188.798 276.86 187.547 275.676 185.438 275.474C183.337 275.367 181.231 275.367 179.13 275.474L179.617 279.38Z" fill="#263238" stroke="#263238" stroke-miterlimit="10"/>
<path d="M182.414 278.54C182.305 278.877 182.091 279.17 181.804 279.379C181.518 279.587 181.173 279.699 180.818 279.699C180.641 279.699 180.466 279.671 180.298 279.615C178.461 279.064 176.758 278.137 175.298 276.894C173.837 275.65 172.651 274.117 171.814 272.391C169.126 266.957 169.478 259.556 170.839 252.567H174.199C172.855 259.161 172.402 266.075 174.787 270.905C175.426 272.23 176.337 273.406 177.46 274.357C178.583 275.307 179.893 276.012 181.306 276.423C181.518 276.488 181.716 276.595 181.887 276.737C182.058 276.879 182.199 277.053 182.302 277.25C182.405 277.447 182.468 277.663 182.488 277.884C182.507 278.105 182.482 278.328 182.414 278.54Z" fill="white" stroke="#263238" stroke-linecap="round" stroke-linejoin="round"/>
<path d="M195.199 274.483C194.946 274.784 194.759 275.134 194.651 275.512C194.542 275.89 194.514 276.286 194.569 276.675C194.737 277.251 195.101 277.749 195.598 278.084C196.096 278.418 196.695 278.568 197.291 278.507C198.484 278.348 199.575 277.749 200.348 276.827C201.188 275.886 204.103 269.729 201.407 270.787C199.45 271.526 196.51 272.778 195.199 274.483Z" fill="#263238" stroke="#263238" stroke-miterlimit="10"/>
<path d="M200.81 276.305C200.453 276.543 200.017 276.635 199.594 276.562C199.171 276.489 198.791 276.256 198.534 275.912C198.277 275.568 198.162 275.138 198.212 274.711C198.262 274.284 198.473 273.893 198.803 273.618C198.946 273.5 204.582 268.703 202.112 252.55H205.472C208.135 270.677 201.138 276.07 200.81 276.305Z" fill="white" stroke="#263238" stroke-linecap="round" stroke-linejoin="round"/>
<path opacity="0.2" d="M215.88 127.836C215.88 127.836 226.456 122.342 236.174 127.836C236.174 127.836 236.334 135.942 232.663 139.276C231.361 140.461 225.397 140.662 223.138 140.461C213.965 139.629 215.88 127.836 215.88 127.836Z" fill="white"/>
<path opacity="0.2" d="M209.244 127.836C209.244 127.836 198.668 122.342 188.958 127.836C188.958 127.836 188.798 135.942 192.461 139.276C193.763 140.461 199.735 140.662 201.986 140.461C211.159 139.629 209.244 127.836 209.244 127.836Z" fill="white"/>
<path d="M215.88 127.836C215.88 127.836 226.456 122.342 236.174 127.836C236.174 127.836 236.334 135.942 232.663 139.276C231.361 140.461 225.397 140.662 223.138 140.461C213.965 139.629 215.88 127.836 215.88 127.836Z" stroke="#263238" stroke-miterlimit="10"/>
<path d="M209.244 127.836C209.244 127.836 198.668 122.342 188.958 127.836C188.958 127.836 188.798 135.942 192.461 139.276C193.763 140.461 199.735 140.662 201.986 140.461C211.159 139.629 209.244 127.836 209.244 127.836Z" stroke="#263238" stroke-miterlimit="10"/>
<path d="M209.244 127.836C209.244 127.836 211.613 126.097 215.88 127.836" stroke="#263238" stroke-miterlimit="10"/>
<path d="M236.174 127.836L240.593 129.886" stroke="#263238" stroke-miterlimit="10"/>
<path d="M67.0488 385.825L98.1372 356.458H344.879L363.56 385.825H67.0488Z" fill="white" stroke="#263238" stroke-linecap="round" stroke-linejoin="round"/>
<path d="M363.56 385.825H67.0488V393.729H363.56V385.825Z" fill="#263238" stroke="#263238" stroke-linecap="round" stroke-linejoin="round"/>
<path d="M121.167 129.436C131.044 119.558 131.044 103.544 121.167 93.6668C111.29 83.7895 95.2754 83.7895 85.3981 93.6668C75.5208 103.544 75.5208 119.558 85.3981 129.436C95.2754 139.313 111.29 139.313 121.167 129.436Z" fill="white" stroke="#263238" stroke-linecap="round" stroke-linejoin="round"/>
<path d="M124.32 107.675C124.32 109.368 123.789 111.019 122.802 112.394C121.815 113.77 120.422 114.802 118.818 115.345L107.52 119.15L93.7692 123.795C91.7435 124.461 89.5367 124.299 87.6298 123.345C85.7228 122.391 84.2703 120.722 83.5886 118.701C82.907 116.681 83.0516 114.473 83.9909 112.559C84.9302 110.644 86.5881 109.179 88.6032 108.482L101.094 104.282L113.644 100.082C114.858 99.6734 116.151 99.5592 117.418 99.7485C118.685 99.9379 119.889 100.425 120.931 101.171C121.972 101.917 122.822 102.899 123.41 104.037C123.997 105.175 124.307 106.436 124.312 107.717L124.32 107.675Z" fill="white"/>
<path d="M124.32 107.675C124.32 109.369 123.789 111.019 122.802 112.395C121.815 113.77 120.422 114.802 118.818 115.345L107.52 119.15C107.219 113.584 104.94 108.308 101.094 104.273L113.644 100.073C114.858 99.6651 116.151 99.5509 117.418 99.7402C118.685 99.9296 119.889 100.417 120.931 101.163C121.972 101.908 122.822 102.89 123.41 104.029C123.997 105.167 124.307 106.428 124.312 107.709L124.32 107.675Z" fill="#2E73B8"/>
<path d="M124.32 107.675C124.32 109.368 123.789 111.019 122.802 112.394C121.815 113.77 120.422 114.802 118.818 115.345L107.52 119.15L93.7692 123.795C91.7435 124.461 89.5367 124.299 87.6298 123.345C85.7228 122.391 84.2703 120.722 83.5886 118.701C82.907 116.681 83.0516 114.473 83.9909 112.559C84.9302 110.644 86.5881 109.179 88.6032 108.482L101.094 104.282L113.644 100.082C114.858 99.6734 116.151 99.5592 117.418 99.7485C118.685 99.9379 119.889 100.425 120.931 101.171C121.972 101.917 122.822 102.899 123.41 104.037C123.997 105.175 124.307 106.436 124.312 107.717L124.32 107.675Z" stroke="#263238" stroke-linecap="round" stroke-linejoin="round"/>
<path d="M107.52 119.15C107.263 113.574 104.978 108.283 101.094 104.273" stroke="#263238" stroke-linecap="round" stroke-linejoin="round"/>
<path d="M121.615 104.66C122.146 105.554 122.413 106.578 122.388 107.617" stroke="white" stroke-linecap="round" stroke-linejoin="round"/>
<path d="M104.286 105.5L114.366 102.14C115.27 101.83 116.232 101.724 117.182 101.83C118.132 101.936 119.046 102.251 119.86 102.753" stroke="white" stroke-linecap="round" stroke-linejoin="round"/>
<path d="M275.136 77.2388C288 71.7943 294.014 56.9524 288.57 44.0885C283.125 31.2246 268.283 25.2101 255.42 30.6546C242.556 36.0991 236.541 50.9409 241.986 63.8048C247.43 76.6687 262.272 82.6833 275.136 77.2388Z" fill="white" stroke="#263238" stroke-linecap="round" stroke-linejoin="round"/>
<path d="M274 64.5332L251.941 57.1496C250.107 56.533 248.593 55.2134 247.731 53.4808C246.87 51.7481 246.731 49.7443 247.346 47.9096C247.963 46.0755 249.283 44.5612 251.015 43.6996C252.748 42.838 254.752 42.6996 256.586 43.3148L278.645 50.69C280.478 51.3085 281.991 52.6284 282.852 54.3605C283.713 56.0925 283.853 58.0953 283.24 59.93C282.623 61.7644 281.304 63.2792 279.571 64.1422C277.839 65.0051 275.835 65.1458 274 64.5332Z" fill="#2E73B8"/>
<path d="M257.838 56.5618L261.534 47.7334" stroke="#263238" stroke-linecap="round" stroke-linejoin="round"/>
<path d="M269.993 60.602L273.672 51.7988" stroke="#263238" stroke-linecap="round" stroke-linejoin="round"/>
<path d="M260.887 57.0826C261.3 57.0826 261.635 56.7479 261.635 56.335C261.635 55.9221 261.3 55.5874 260.887 55.5874C260.474 55.5874 260.14 55.9221 260.14 56.335C260.14 56.7479 260.474 57.0826 260.887 57.0826Z" fill="#263238"/>
<path d="M268.237 58.5357C268.237 58.6835 268.193 58.8281 268.111 58.951C268.029 59.074 267.912 59.1698 267.776 59.2264C267.639 59.283 267.489 59.2978 267.344 59.2689C267.199 59.2401 267.066 59.1689 266.961 59.0643C266.856 58.9598 266.785 58.8266 266.756 58.6815C266.728 58.5365 266.742 58.3862 266.799 58.2496C266.856 58.113 266.951 57.9962 267.074 57.9141C267.197 57.8319 267.342 57.7881 267.49 57.7881C267.688 57.7881 267.878 57.8669 268.018 58.0071C268.159 58.1473 268.237 58.3374 268.237 58.5357Z" fill="#263238"/>
<path d="M263.785 50.4298C264.198 50.4298 264.533 50.0951 264.533 49.6822C264.533 49.2693 264.198 48.9346 263.785 48.9346C263.372 48.9346 263.038 49.2693 263.038 49.6822C263.038 50.0951 263.372 50.4298 263.785 50.4298Z" fill="#263238"/>
<path d="M271.026 51.8155C271.026 51.9633 270.982 52.1079 270.9 52.2308C270.818 52.3538 270.701 52.4496 270.564 52.5062C270.428 52.5627 270.278 52.5776 270.133 52.5487C269.987 52.5199 269.854 52.4487 269.75 52.3441C269.645 52.2396 269.574 52.1063 269.545 51.9613C269.516 51.8163 269.531 51.666 269.588 51.5294C269.644 51.3928 269.74 51.276 269.863 51.1939C269.986 51.1117 270.131 51.0679 270.278 51.0679C270.477 51.0679 270.667 51.1466 270.807 51.2868C270.947 51.427 271.026 51.6172 271.026 51.8155Z" fill="#263238"/>
<path d="M274 64.5332L251.941 57.1496C250.107 56.533 248.593 55.2134 247.731 53.4808C246.87 51.7481 246.731 49.7443 247.346 47.9096C247.963 46.0755 249.283 44.5612 251.015 43.6996C252.748 42.838 254.752 42.6996 256.586 43.3148L278.645 50.69C280.478 51.3085 281.991 52.6284 282.852 54.3605C283.713 56.0925 283.853 58.0953 283.24 59.93C282.623 61.7644 281.304 63.2792 279.571 64.1422C277.839 65.0051 275.835 65.1458 274 64.5332Z" stroke="#263238" stroke-linecap="round" stroke-linejoin="round"/>
<path d="M169.798 77.8641C183.766 77.8641 195.09 66.5403 195.09 52.5717C195.09 38.6031 183.766 27.2793 169.798 27.2793C155.829 27.2793 144.505 38.6031 144.505 52.5717C144.505 66.5403 155.829 77.8641 169.798 77.8641Z" fill="white" stroke="#263238" stroke-linecap="round" stroke-linejoin="round"/>
<path d="M184.288 53.2186V63.5842C184.288 66.2134 182.608 68.347 180.55 68.347H159.046C156.979 68.347 155.308 66.2134 155.308 63.5842V53.2186C155.308 50.5894 156.988 48.4558 159.046 48.4558H162.582V42.4414H176.862V48.4558H180.524C182.608 48.4558 184.288 50.5894 184.288 53.2186Z" fill="white" stroke="#263238" stroke-linecap="round" stroke-linejoin="round"/>
<path d="M184.279 54.4111H155.308V60.8371H184.279V54.4111Z" fill="#2E73B8" stroke="#263238" stroke-miterlimit="10"/>
<path d="M164.556 35.4019H175.174C176.372 35.4019 177.522 35.878 178.369 36.7255C179.217 37.573 179.693 38.7225 179.693 39.9211V44.6167H160.028V39.9211C160.028 39.3269 160.146 38.7385 160.373 38.1897C160.601 37.6409 160.935 37.1423 161.355 36.7225C161.776 36.3028 162.275 35.9701 162.824 35.7435C163.373 35.5168 163.962 35.4008 164.556 35.4019Z" fill="#2E73B8" stroke="#263238" stroke-miterlimit="10"/>
<path d="M163.464 35.6875V44.6167" stroke="#263238" stroke-linecap="round" stroke-linejoin="round"/>
<path d="M168.109 35.4019V44.6167" stroke="#263238" stroke-linecap="round" stroke-linejoin="round"/>
<path d="M172.754 35.4019V44.6167" stroke="#263238" stroke-linecap="round" stroke-linejoin="round"/>
<path d="M177.4 35.9229V44.6169" stroke="#263238" stroke-linecap="round" stroke-linejoin="round"/>
<path d="M104.999 190.84C107.258 177.055 97.9158 164.049 84.1312 161.789C70.3466 159.529 57.34 168.872 55.0802 182.656C52.8204 196.441 62.1632 209.448 75.9478 211.707C89.7324 213.967 102.739 204.625 104.999 190.84Z" fill="white" stroke="#263238" stroke-linecap="round" stroke-linejoin="round"/>
<path d="M92.8696 193.273C95.6244 187.447 91.8366 179.878 84.4093 176.365C76.9819 172.853 68.7277 174.728 65.9728 180.553C63.218 186.378 67.0058 193.948 74.4331 197.46C81.8605 200.973 90.1147 199.098 92.8696 193.273Z" fill="#2E73B8" stroke="#263238" stroke-linecap="round" stroke-linejoin="round"/>
<path d="M93.7882 191.292C96.3724 185.827 92.4464 178.55 85.019 175.037C77.5917 171.525 69.4757 173.107 66.8914 178.572C64.3071 184.036 68.2332 191.314 75.6605 194.826C83.0879 198.339 91.2039 196.756 93.7882 191.292Z" fill="#2E73B8" stroke="#263238" stroke-linecap="round" stroke-linejoin="round"/>
<path d="M84.6301 177.455L75.4489 190.365" stroke="#263238" stroke-linecap="round" stroke-linejoin="round"/>
<path d="M79.1028 175.363C80.3332 175.529 81.5454 175.81 82.7232 176.203" stroke="white" stroke-linecap="round" stroke-linejoin="round"/>
<path d="M70.9465 187.517C70.9465 187.517 66.2593 182.385 70.8373 177.437C71.8937 176.361 73.2696 175.654 74.7601 175.421" stroke="white" stroke-linecap="round" stroke-linejoin="round"/>
<path d="M371.416 190.855C373.676 177.07 364.333 164.063 350.549 161.804C336.764 159.544 323.758 168.887 321.498 182.671C319.238 196.456 328.581 209.462 342.365 211.722C356.15 213.982 369.157 204.639 371.416 190.855Z" fill="white" stroke="#263238" stroke-linecap="round" stroke-linejoin="round"/>
<path d="M360.973 189.298C360.78 189.575 360.587 189.861 360.385 190.138C356.597 195.388 350.759 200.285 346.433 201.251V201.184C342.233 200.243 336.58 195.581 332.791 190.491C332.581 190.214 332.38 189.928 332.186 189.651C328.541 184.426 327.004 178.941 331.061 176.673C339.31 172.07 346.433 181.94 346.433 181.94C346.433 181.94 353.573 172.145 361.805 176.74C365.753 178.941 364.4 184.199 360.973 189.298Z" fill="#2E73B8" stroke="#263238" stroke-miterlimit="10"/>
<path d="M360.973 189.298C360.78 189.576 360.587 189.861 360.385 190.138H358.302L355.916 193.288L354.295 183.948L351.775 190.298H345.82L342.77 195.38L340.418 185.09L337.386 190.458H332.791C332.581 190.18 332.38 189.895 332.186 189.618H336.899L340.754 182.788L343.123 193.162L345.366 189.424H351.246L354.606 180.823L356.404 191.205L357.874 189.265L360.973 189.298Z" fill="white"/>
<path d="M322.106 137.126C336.075 137.126 347.399 125.802 347.399 111.833C347.399 97.8648 336.075 86.541 322.106 86.541C308.138 86.541 296.814 97.8648 296.814 111.833C296.814 125.802 308.138 137.126 322.106 137.126Z" fill="white" stroke="#263238" stroke-linecap="round" stroke-linejoin="round"/>
<path d="M320.208 100.141C320.452 100.687 318.931 101.896 316.848 102.846C314.765 103.795 312.816 104.122 312.572 103.568C312.329 103.014 313.841 101.812 315.932 100.863C318.024 99.9141 319.956 99.6201 320.208 100.141Z" fill="white" stroke="#263238" stroke-linecap="round" stroke-linejoin="round"/>
<path d="M331.59 123.602L324.022 127.264L317.234 113.287L312.547 103.627L320.116 99.9561L324.685 109.381L331.59 123.602Z" fill="white" stroke="#263238" stroke-linecap="round" stroke-linejoin="round"/>
<path d="M313.95 106.508L317.234 104.988L313.95 106.508Z" fill="#2E73B8"/>
<path d="M313.95 106.508L317.234 104.988" stroke="#263238" stroke-linecap="round" stroke-linejoin="round"/>
<path d="M315.378 109.549L318.662 108.028L315.378 109.549Z" fill="#2E73B8"/>
<path d="M315.378 109.549L318.662 108.028" stroke="#263238" stroke-linecap="round" stroke-linejoin="round"/>
<path d="M326.92 125.862L330.826 130.986L328.877 124.913L326.92 125.862Z" fill="white" stroke="#263238" stroke-linecap="round" stroke-linejoin="round"/>
<path d="M331.59 123.602C329.818 125.376 327.557 126.581 325.097 127.063L324.022 127.264L317.234 113.287L324.685 109.381L331.59 123.602Z" fill="#2E73B8" stroke="#263238" stroke-miterlimit="10"/>
<path d="M318.662 115.941L321.754 114.513" stroke="#263238" stroke-linecap="round" stroke-linejoin="round"/>
<path d="M320.359 119.192L323.392 117.806L320.359 119.192Z" fill="#2E73B8"/>
<path d="M320.359 119.192L323.392 117.806" stroke="#263238" stroke-linecap="round" stroke-linejoin="round"/>
<path d="M315.168 102.35L312.774 96.9657L314.656 95.8989L317.234 101.351L315.168 102.35Z" fill="white" stroke="#263238" stroke-linecap="round" stroke-linejoin="round"/>
<path d="M319.276 95.2434L318.704 93.9834L308.624 98.4942L309.196 99.7542C309.431 100.292 311.875 99.7038 314.664 98.4606C317.453 97.2174 319.511 95.7726 319.276 95.2434Z" fill="white" stroke="#263238" stroke-linecap="round" stroke-linejoin="round"/>
<path d="M318.704 93.9836C318.469 93.4544 316.016 94.034 313.236 95.2772C310.456 96.5204 308.389 97.9652 308.624 98.4944C308.86 99.0236 311.312 98.444 314.093 97.1924C316.873 95.9408 318.94 94.5128 318.704 93.9836Z" fill="white" stroke="#263238" stroke-linecap="round" stroke-linejoin="round"/>
</g>
</svg>
