<svg width="420" height="420" viewBox="0 0 420 420" fill="none" xmlns="http://www.w3.org/2000/svg">
<g opacity="0.8">
<path d="M181.894 73.626C187.823 69.3979 194.808 66.8944 202.073 66.3933C209.338 65.8921 216.6 67.4128 223.054 70.7868C226.347 72.5452 229.555 74.4296 232.68 76.44C254.436 90.5688 270.875 110.552 285.945 130.822C293.051 140.372 300.073 150.36 302.669 161.692C304.105 167.95 304.139 174.409 303.719 180.785C301.77 210.319 290.094 239.081 271.631 263.222C264.012 273.185 255.15 282.484 244.348 289.472C233.545 296.461 220.643 301.048 207.48 300.98C196.787 300.93 186.48 297.62 176.4 294.412C132.955 280.535 114.702 208.102 115.248 177.559C115.766 155.581 123.261 134.338 136.651 116.903C136.651 116.903 159.021 90.1572 181.894 73.626Z" fill="#2E73B8"/>
<path opacity="0.9" d="M181.894 73.626C187.823 69.3979 194.808 66.8944 202.073 66.3933C209.338 65.8921 216.6 67.4128 223.054 70.7868C226.347 72.5452 229.555 74.4296 232.68 76.44C254.436 90.5688 270.875 110.552 285.945 130.822C293.051 140.372 300.073 150.36 302.669 161.692C304.105 167.95 304.139 174.409 303.719 180.785C301.77 210.319 290.094 239.081 271.631 263.222C264.012 273.185 255.15 282.484 244.348 289.472C233.545 296.461 220.643 301.048 207.48 300.98C196.787 300.93 186.48 297.62 176.4 294.412C132.955 280.535 114.702 208.102 115.248 177.559C115.766 155.581 123.261 134.338 136.651 116.903C136.651 116.903 159.021 90.1572 181.894 73.626Z" fill="white"/>
<path d="M210 358.689C299.95 358.689 372.868 354.431 372.868 349.18C372.868 343.928 299.95 339.671 210 339.671C120.051 339.671 47.1328 343.928 47.1328 349.18C47.1328 354.431 120.051 358.689 210 358.689Z" fill="#F5F5F5"/>
<path d="M60.0507 166.32C60.1347 173.275 63.0663 180.6 69.1227 184.053C70.9335 185.068 72.9361 185.694 75.0027 185.892C81.5967 186.522 88.1487 182.406 91.2903 176.568C94.4319 170.73 94.4319 163.523 92.2395 157.248C90.0471 150.973 80.3787 136.105 72.5583 141.288C64.7379 146.471 59.9415 157.08 60.0507 166.32Z" fill="#2E73B8"/>
<path opacity="0.7" d="M60.0507 166.32C60.1347 173.275 63.0663 180.6 69.1227 184.053C70.9335 185.068 72.9361 185.694 75.0027 185.892C81.5967 186.522 88.1487 182.406 91.2903 176.568C94.4319 170.73 94.4319 163.523 92.2395 157.248C90.0471 150.973 80.3787 136.105 72.5583 141.288C64.7379 146.471 59.9415 157.08 60.0507 166.32Z" fill="white"/>
<path d="M63.8969 174.418C63.7685 174.417 63.6435 174.377 63.5395 174.301C63.4355 174.226 63.3578 174.12 63.3173 173.998C62.3493 170.859 61.8816 167.588 61.9313 164.304C61.9697 159.666 63.4362 155.152 66.1313 151.377C66.2249 151.245 66.3668 151.156 66.5259 151.13C66.685 151.103 66.8483 151.14 66.9797 151.234C67.1112 151.327 67.2 151.469 67.2268 151.628C67.2536 151.788 67.2161 151.951 67.1225 152.082C64.561 155.647 63.1591 159.915 63.1073 164.304C63.0558 167.46 63.5037 170.604 64.4345 173.62C64.4822 173.774 64.4675 173.94 64.3937 174.083C64.3198 174.226 64.1927 174.334 64.0397 174.384C63.9941 174.403 63.946 174.414 63.8969 174.418Z" fill="#2E73B8"/>
<path d="M72.9186 183.826C72.8685 183.834 72.8175 183.834 72.7674 183.826C70.9383 183.334 69.2413 182.442 67.7988 181.215C66.3563 179.987 65.2044 178.455 64.4262 176.728C64.3904 176.657 64.3689 176.579 64.363 176.5C64.3571 176.42 64.3669 176.34 64.3919 176.265C64.4168 176.189 64.4564 176.119 64.5085 176.059C64.5605 175.998 64.6239 175.949 64.695 175.913C64.7662 175.877 64.8437 175.856 64.9231 175.85C65.0026 175.844 65.0824 175.854 65.1581 175.879C65.2338 175.904 65.3038 175.943 65.3641 175.995C65.4245 176.047 65.474 176.111 65.5098 176.182C66.2128 177.752 67.2556 179.147 68.5629 180.265C69.8703 181.384 71.4096 182.198 73.0698 182.65C73.224 182.695 73.3547 182.798 73.4346 182.937C73.5144 183.077 73.5372 183.242 73.4982 183.397C73.4592 183.521 73.3821 183.629 73.278 183.706C73.1739 183.783 73.0481 183.825 72.9186 183.826Z" fill="#2E73B8"/>
<path d="M76.6497 184.279C76.5703 184.279 76.4917 184.264 76.4183 184.233C76.3449 184.203 76.2782 184.158 76.2221 184.102C76.1659 184.046 76.1214 183.979 76.091 183.906C76.0606 183.833 76.0449 183.754 76.0449 183.675C76.0449 183.595 76.0606 183.516 76.091 183.443C76.1214 183.37 76.1659 183.303 76.2221 183.247C76.2782 183.191 76.3449 183.146 76.4183 183.116C76.4917 183.085 76.5703 183.07 76.6497 183.07C83.8653 183.07 88.2501 178.811 89.6697 170.419C89.6985 170.26 89.7883 170.118 89.9201 170.024C90.0519 169.93 90.2152 169.891 90.3753 169.915C90.5342 169.944 90.6753 170.034 90.7681 170.166C90.8609 170.298 90.8978 170.462 90.8709 170.621C89.3589 179.559 84.4365 184.279 76.6497 184.279Z" fill="#2E73B8"/>
<path d="M90.6187 168.303H90.5683C90.4888 168.296 90.4113 168.274 90.3403 168.238C90.2693 168.202 90.2063 168.151 90.1547 168.091C90.1032 168.03 90.0642 167.959 90.0401 167.883C90.0159 167.807 90.007 167.727 90.0139 167.648C90.0979 166.589 90.1483 165.464 90.1483 164.288C90.1175 160.957 89.2909 157.683 87.7375 154.737C87.6955 154.666 87.6687 154.587 87.6587 154.505C87.6487 154.423 87.6558 154.34 87.6794 154.262C87.7031 154.183 87.7429 154.109 87.7963 154.047C87.8496 153.984 87.9154 153.933 87.9895 153.897C88.0607 153.856 88.1395 153.83 88.221 153.821C88.3025 153.811 88.385 153.819 88.4636 153.842C88.5422 153.866 88.6151 153.905 88.678 153.958C88.7409 154.011 88.7925 154.076 88.8295 154.149C90.4635 157.259 91.3277 160.716 91.3495 164.229C91.3495 165.413 91.3075 166.572 91.2151 167.664C91.2196 167.746 91.2076 167.827 91.1798 167.904C91.152 167.981 91.1089 168.051 91.0532 168.111C90.9975 168.17 90.9302 168.218 90.8556 168.251C90.7809 168.284 90.7003 168.302 90.6187 168.303Z" fill="#2E73B8"/>
<path d="M87.2841 153.367C87.1824 153.367 87.0823 153.342 86.9929 153.293C86.9034 153.245 86.8274 153.175 86.7717 153.09C85.3382 150.774 83.4492 148.774 81.2193 147.21C81.153 147.166 81.0961 147.109 81.0518 147.043C81.0074 146.977 80.9766 146.903 80.961 146.825C80.9454 146.747 80.9453 146.667 80.9608 146.589C80.9763 146.511 81.0071 146.436 81.0513 146.37C81.0946 146.303 81.1509 146.245 81.2169 146.2C81.283 146.155 81.3574 146.124 81.4357 146.108C81.5141 146.093 81.5948 146.093 81.6731 146.109C81.7513 146.125 81.8255 146.157 81.8913 146.202C84.2513 147.852 86.2517 149.964 87.7713 152.41C87.8148 152.477 87.8445 152.552 87.8587 152.631C87.873 152.709 87.8714 152.79 87.8543 152.868C87.8371 152.946 87.8046 153.02 87.7586 153.086C87.7126 153.151 87.6541 153.207 87.5865 153.25C87.4987 153.317 87.394 153.357 87.2841 153.367Z" fill="#2E73B8"/>
<path d="M69.4508 149.125C69.3288 149.126 69.2096 149.089 69.1087 149.021C69.0078 148.952 68.93 148.855 68.8855 148.741C68.841 148.628 68.8318 148.503 68.8592 148.385C68.8867 148.266 68.9494 148.158 69.0392 148.075C71.5592 145.698 74.3396 144.337 76.6496 144.337C77.8561 144.361 79.0429 144.648 80.1272 145.177C80.2731 145.246 80.3856 145.371 80.44 145.523C80.4943 145.675 80.4861 145.842 80.417 145.988C80.3479 146.134 80.2237 146.246 80.0717 146.301C79.9197 146.355 79.7523 146.347 79.6064 146.278C78.6881 145.811 77.6791 145.55 76.6496 145.513C74.6504 145.513 72.1808 146.757 69.8708 148.932C69.7614 149.049 69.6106 149.118 69.4508 149.125Z" fill="#2E73B8"/>
<path d="M65.4098 170.134C65.268 170.134 65.1307 170.085 65.0217 169.994C64.9127 169.904 64.839 169.778 64.8134 169.638C64.5024 167.929 64.3506 166.194 64.3598 164.456C64.3598 155.014 71.8442 147.916 76.691 147.916C78.1208 147.981 79.5071 148.428 80.7062 149.21C80.7752 149.251 80.8352 149.306 80.8828 149.371C80.9304 149.435 80.9646 149.509 80.9834 149.587C81.0022 149.665 81.0052 149.747 80.9922 149.826C80.9792 149.905 80.9505 149.981 80.9078 150.05C80.824 150.189 80.6886 150.289 80.5312 150.328C80.3737 150.368 80.2071 150.343 80.0678 150.26C79.0676 149.593 77.9078 149.204 76.7078 149.134C72.323 149.134 65.5946 156.005 65.5946 164.464C65.5858 166.128 65.7292 167.79 66.023 169.428C66.0375 169.507 66.0364 169.587 66.0198 169.665C66.0032 169.743 65.9713 169.817 65.926 169.882C65.8807 169.948 65.823 170.004 65.756 170.047C65.689 170.09 65.6142 170.12 65.5358 170.134H65.4098Z" fill="#2E73B8"/>
<path d="M69.8198 178.66C69.6793 178.662 69.5427 178.614 69.4334 178.526C67.6453 176.952 66.3233 174.919 65.6114 172.646C65.5836 172.571 65.5712 172.491 65.5748 172.411C65.5785 172.331 65.5981 172.253 65.6326 172.181C65.6671 172.109 65.7157 172.044 65.7755 171.992C65.8354 171.939 65.9053 171.898 65.981 171.873C66.1326 171.821 66.2983 171.831 66.4427 171.9C66.5871 171.969 66.6987 172.092 66.7538 172.242C67.4036 174.296 68.5999 176.134 70.2146 177.56C70.3096 177.64 70.3775 177.747 70.4092 177.868C70.4409 177.988 70.4347 178.115 70.3915 178.232C70.3484 178.348 70.2704 178.449 70.168 178.519C70.0657 178.59 69.9442 178.627 69.8198 178.626V178.66Z" fill="#2E73B8"/>
<path d="M76.6916 180.995C75.0882 181.013 73.4974 180.71 72.0128 180.105C71.8749 180.034 71.769 179.913 71.7163 179.768C71.6635 179.622 71.668 179.462 71.7286 179.319C71.7893 179.176 71.9017 179.062 72.0432 178.999C72.1848 178.936 72.345 178.929 72.4916 178.979C73.8206 179.539 75.2492 179.825 76.6916 179.819C86.3684 179.819 87.8132 170.218 87.8132 164.497C87.8132 164.337 87.8769 164.183 87.9903 164.07C88.1037 163.956 88.2576 163.893 88.418 163.893C88.5784 163.893 88.7322 163.956 88.8456 164.07C88.9591 164.183 89.0228 164.337 89.0228 164.497C89.0396 175.123 84.6464 180.995 76.6916 180.995Z" fill="#2E73B8"/>
<path d="M88.2671 162.851C88.1199 162.852 87.9775 162.798 87.8674 162.701C87.7573 162.603 87.6872 162.468 87.6707 162.322C87.1094 158.354 85.2238 154.692 82.3199 151.931C82.2619 151.876 82.2155 151.81 82.1831 151.737C82.1507 151.663 82.133 151.585 82.131 151.505C82.1271 151.343 82.1875 151.187 82.2989 151.07C82.4102 150.953 82.5635 150.885 82.725 150.881C82.8865 150.877 83.0429 150.937 83.1599 151.049C86.2857 153.992 88.3177 157.911 88.9223 162.162C88.9329 162.241 88.9278 162.321 88.9074 162.398C88.8869 162.475 88.8515 162.547 88.8031 162.61C88.7547 162.674 88.6944 162.727 88.6254 162.766C88.5565 162.806 88.4804 162.832 88.4015 162.842L88.2671 162.851Z" fill="#2E73B8"/>
<path d="M76.7411 177.702C70.6007 177.702 66.7871 172.662 66.7871 164.598C66.8185 161.348 67.9295 158.201 69.9455 155.652C69.9946 155.589 70.0556 155.537 70.125 155.497C70.1944 155.458 70.2709 155.433 70.3501 155.423C70.4292 155.413 70.5095 155.419 70.5864 155.44C70.6633 155.462 70.7352 155.498 70.7981 155.547C70.861 155.596 70.9136 155.657 70.9529 155.727C70.9922 155.796 71.0174 155.872 71.0272 155.952C71.0369 156.031 71.031 156.111 71.0097 156.188C70.9884 156.265 70.9522 156.337 70.9031 156.4C69.0551 158.75 68.0468 161.651 68.0387 164.64C68.0387 172.082 71.3063 176.526 76.7747 176.526C78.2987 176.566 79.8043 176.186 81.1259 175.426C81.2481 175.402 81.3746 175.416 81.4887 175.465C81.6028 175.515 81.6991 175.598 81.7647 175.704C81.8303 175.81 81.8623 175.933 81.8562 176.057C81.8501 176.182 81.8063 176.301 81.7307 176.4C80.2189 177.285 78.4924 177.735 76.7411 177.702Z" fill="#2E73B8"/>
<path d="M83.6714 174.418C83.5419 174.416 83.4159 174.375 83.3102 174.3C83.183 174.205 83.0985 174.063 83.0749 173.906C83.0514 173.749 83.0906 173.589 83.1842 173.46C84.6794 171.419 85.4774 168.362 85.4774 164.607C85.4774 158.038 80.1854 152.712 76.7414 152.712C75.4748 152.804 74.2667 153.282 73.2806 154.082C73.1504 154.172 72.9901 154.209 72.8335 154.184C72.6769 154.159 72.536 154.074 72.4406 153.947C72.3936 153.884 72.3598 153.811 72.3411 153.734C72.3224 153.657 72.3192 153.577 72.3317 153.499C72.3442 153.421 72.3722 153.346 72.414 153.279C72.4557 153.211 72.5105 153.153 72.575 153.107C73.7704 152.143 75.2412 151.584 76.775 151.511C80.6894 151.511 86.7206 157.139 86.7206 164.615C86.7206 168.63 85.8806 171.94 84.2006 174.183C84.1396 174.264 84.0591 174.328 83.9665 174.369C83.8739 174.41 83.7723 174.427 83.6714 174.418Z" fill="#2E73B8"/>
<path d="M72.012 172.36C71.9258 172.359 71.8408 172.34 71.7625 172.304C71.6843 172.268 71.6147 172.215 71.5584 172.15C70.0464 170.47 69.2148 167.816 69.2148 164.741C69.2148 159.533 73.4148 155.073 76.7748 155.073C77.3993 155.08 78.0161 155.211 78.5892 155.459C78.6689 155.489 78.7415 155.535 78.8021 155.595C78.8627 155.655 78.91 155.727 78.9409 155.806C78.9718 155.885 78.9856 155.97 78.9815 156.055C78.9774 156.14 78.9553 156.223 78.9168 156.299C78.8874 156.373 78.8434 156.441 78.7875 156.497C78.7316 156.554 78.6648 156.599 78.5912 156.63C78.5176 156.66 78.4386 156.676 78.3589 156.675C78.2792 156.675 78.2005 156.658 78.1272 156.627C77.7011 156.437 77.2413 156.334 76.7748 156.324C74.2548 156.324 70.4244 159.962 70.4244 164.783C70.4244 167.555 71.1468 169.907 72.4572 171.386C72.5595 171.505 72.6115 171.659 72.6021 171.816C72.5927 171.973 72.5227 172.119 72.4068 172.226C72.2961 172.317 72.1556 172.365 72.012 172.36Z" fill="#2E73B8"/>
<path d="M76.7837 174.418C75.7773 174.425 74.7798 174.228 73.8521 173.838C73.7214 173.763 73.623 173.642 73.5758 173.499C73.5285 173.356 73.5358 173.2 73.596 173.062C73.6563 172.923 73.7655 172.812 73.9026 172.749C74.0397 172.686 74.1952 172.676 74.3393 172.721C75.1123 173.048 75.9446 173.211 76.7837 173.2C82.5209 173.2 83.1425 167.32 83.1425 164.741C83.1196 163.41 82.8203 162.099 82.2636 160.89C81.7068 159.681 80.9048 158.601 79.9085 157.719C79.7915 157.614 79.7199 157.467 79.7089 157.31C79.6979 157.154 79.7484 156.999 79.8497 156.879C79.9557 156.763 80.1018 156.693 80.258 156.682C80.4142 156.671 80.5686 156.72 80.6897 156.82C81.8231 157.811 82.7339 159.03 83.3622 160.399C83.9905 161.767 84.3222 163.252 84.3353 164.758C84.3521 170.797 81.5297 174.418 76.7837 174.418Z" fill="#2E73B8"/>
<path d="M76.8343 171.125C74.3143 171.125 72.4159 169.445 71.7943 166.69C71.7674 166.608 71.7581 166.521 71.7669 166.436C71.7757 166.35 71.8025 166.267 71.8456 166.192C71.8886 166.118 71.9468 166.053 72.0165 166.002C72.0862 165.952 72.1658 165.916 72.2501 165.899C72.3344 165.881 72.4215 165.881 72.5057 165.899C72.59 165.917 72.6694 165.953 72.739 166.004C72.8085 166.055 72.8665 166.12 72.9093 166.194C72.952 166.269 72.9785 166.352 72.9871 166.438C73.4491 168.647 74.8435 169.907 76.8007 169.907C79.7239 169.907 80.7655 167.311 80.7655 164.867C80.7677 164.706 80.8332 164.552 80.948 164.439C81.0628 164.326 81.2175 164.262 81.3787 164.262C81.5391 164.262 81.6929 164.326 81.8063 164.439C81.9197 164.553 81.9835 164.707 81.9835 164.867C82.0171 168.681 79.9843 171.125 76.8343 171.125Z" fill="#2E73B8"/>
<path d="M72.2382 165.48C72.0756 165.48 71.9196 165.416 71.8046 165.301C71.6896 165.186 71.625 165.03 71.625 164.867C71.625 161.356 74.4138 158.634 76.8162 158.634C78.6642 158.634 80.6466 160.239 81.5286 162.456C81.5587 162.53 81.5738 162.609 81.5732 162.689C81.5725 162.769 81.5561 162.848 81.5249 162.921C81.4937 162.994 81.4482 163.061 81.3912 163.117C81.3342 163.172 81.2667 163.216 81.1926 163.246C81.042 163.302 80.8757 163.297 80.7285 163.233C80.5813 163.168 80.4646 163.05 80.403 162.901C79.7226 161.221 78.1434 159.844 76.8162 159.844C75.027 159.844 72.843 162.162 72.843 164.884C72.8387 165.042 72.7733 165.193 72.6606 165.304C72.5479 165.415 72.3965 165.478 72.2382 165.48Z" fill="#2E73B8"/>
<path d="M76.8751 167.832C76.4943 167.853 76.1132 167.796 75.7552 167.665C75.3972 167.533 75.0697 167.33 74.7928 167.068C74.5158 166.806 74.2953 166.49 74.1445 166.14C73.9938 165.789 73.916 165.412 73.916 165.031C73.916 164.649 73.9938 164.272 74.1445 163.922C74.2953 163.571 74.5158 163.255 74.7928 162.993C75.0697 162.731 75.3972 162.528 75.7552 162.397C76.1132 162.265 76.4943 162.208 76.8751 162.229C77.0355 162.229 77.1893 162.293 77.3027 162.406C77.4161 162.52 77.4799 162.674 77.4799 162.834C77.4799 162.995 77.4161 163.148 77.3027 163.262C77.1893 163.375 77.0355 163.439 76.8751 163.439C76.5591 163.437 76.2497 163.529 75.9861 163.704C75.7225 163.878 75.5167 164.127 75.3946 164.418C75.2725 164.71 75.2397 165.031 75.3003 165.341C75.3609 165.651 75.5123 165.936 75.7352 166.16C75.958 166.384 76.2424 166.537 76.5522 166.6C76.862 166.662 77.1834 166.631 77.4755 166.51C77.7676 166.39 78.0174 166.185 78.1931 165.922C78.3689 165.66 78.4627 165.351 78.4627 165.035C78.4652 164.816 78.4217 164.599 78.3348 164.397C78.248 164.196 78.1198 164.016 77.9587 163.867C77.8536 163.753 77.7953 163.603 77.7953 163.447C77.7953 163.292 77.8536 163.142 77.9587 163.027C78.0714 162.918 78.222 162.858 78.3787 162.858C78.5354 162.858 78.6859 162.918 78.7987 163.027C79.2137 163.409 79.5036 163.908 79.6301 164.458C79.7567 165.008 79.7141 165.583 79.5079 166.108C79.3016 166.633 78.9414 167.083 78.4746 167.4C78.0077 167.717 77.456 167.885 76.8919 167.882L76.8751 167.832Z" fill="#2E73B8"/>
<path d="M119.261 132.661L90.4824 148.646L90.8903 149.38L119.668 133.395L119.261 132.661Z" fill="#2E73B8"/>
<path d="M187.228 100.203L158.533 84.2936H95.3066V83.4536H158.752L187.631 99.4724L187.228 100.203Z" fill="#2E73B8"/>
<path d="M92.3503 92.9794H58.1875L61.1863 80.5054H89.3431L92.3503 92.9794Z" fill="#2E73B8"/>
<path opacity="0.3" d="M92.3503 92.9794H58.1875L61.1863 80.5054H89.3431L92.3503 92.9794Z" fill="white"/>
<path d="M75.2656 56.4058C72.7556 56.408 70.3489 57.4061 68.574 59.181C66.7992 60.9559 65.8011 63.3625 65.7988 65.8726C65.7988 71.1058 75.2656 84.8902 75.2656 84.8902C75.2656 84.8902 84.7408 71.1058 84.7408 65.8726C84.7386 63.361 83.7393 60.9531 81.9626 59.178C80.1859 57.4029 77.7771 56.4058 75.2656 56.4058ZM75.2656 70.5598C74.4113 70.5598 73.5762 70.3063 72.866 69.8315C72.1558 69.3567 71.6024 68.6819 71.2759 67.8925C70.9493 67.1031 70.8643 66.2345 71.0316 65.3967C71.1989 64.559 71.6109 63.7897 72.2156 63.1862C72.8203 62.5827 73.5904 62.1721 74.4285 62.0065C75.2665 61.8409 76.1349 61.9276 76.9237 62.2556C77.7125 62.5837 78.3863 63.1384 78.8597 63.8495C79.3331 64.5607 79.5849 65.3963 79.5832 66.2506C79.5832 66.8172 79.4715 67.3782 79.2544 67.9016C79.0373 68.4249 78.7192 68.9003 78.3181 69.3006C77.9171 69.7009 77.4411 70.0181 76.9173 70.2342C76.3935 70.4502 75.8322 70.5609 75.2656 70.5598Z" fill="#2E73B8"/>
<path d="M59.3379 88.1828L63.9579 88.1744L84.8235 84.5876H90.3339L90.1323 83.7476L84.7479 83.756L63.8823 87.3428H59.5395L59.3379 88.1828Z" fill="white"/>
<path d="M354.799 60.2783H318.049V97.0283H354.799V60.2783Z" fill="#2E73B8"/>
<path opacity="0.3" d="M354.799 60.2783H318.049V97.0283H354.799V60.2783Z" fill="white"/>
<path d="M351.398 63.6719H321.443V93.6263H351.398V63.6719Z" fill="#F5F5F5"/>
<path d="M342.543 75.541C342.579 76.7402 342.347 77.9322 341.864 79.0306C341.382 80.1291 340.661 81.1063 339.754 81.8914C338.895 82.5972 337.817 82.9829 336.705 82.9829C335.593 82.9829 334.515 82.5972 333.656 81.8914C332.749 81.1063 332.028 80.1291 331.545 79.0306C331.063 77.9322 330.831 76.7402 330.867 75.541C330.867 71.4334 331.606 68.0986 336.705 68.0986C341.804 68.0986 342.543 71.3998 342.543 75.541Z" fill="#2E73B8"/>
<path d="M348.163 91.56V93.66H325.248V91.56C325.248 87.57 327.566 84.8904 331.699 84.378L332.48 84.3276C332.792 84.3276 333.091 84.2037 333.312 83.9832C333.533 83.7626 333.656 83.4635 333.656 83.1516V81.8916C334.516 82.5974 335.594 82.9831 336.706 82.9831C337.818 82.9831 338.895 82.5974 339.755 81.8916V83.16C339.755 83.4719 339.879 83.771 340.099 83.9916C340.32 84.2121 340.619 84.336 340.931 84.336L341.712 84.3864C345.845 84.84 348.163 87.5448 348.163 91.56Z" fill="#2E73B8"/>
<path d="M225.775 81.7824L225.363 81.0432L254.251 65.0244H310.262V65.8644H254.469L225.775 81.7824Z" fill="#2E73B8"/>
<path d="M347.987 157.5H352.237C348.617 161.272 343.401 164.993 338.445 168.756L335.085 171.226L335.009 171.276L331.733 168.538C327.533 164.917 323.14 161.137 320.023 157.383H326.332L329.095 147.899L333.22 166.077L337.059 156.769L339.453 161.961L342.267 152.88L345.408 161.751L347.987 157.5Z" fill="#2E73B8"/>
<path opacity="0.3" d="M347.987 157.5H352.237C348.617 161.272 343.401 164.993 338.445 168.756L335.085 171.226L335.009 171.276L331.733 168.538C327.533 164.917 323.14 161.137 320.023 157.383H326.332L329.095 147.899L333.22 166.077L337.059 156.769L339.453 161.961L342.267 152.88L345.408 161.751L347.987 157.5Z" fill="white"/>
<path d="M353.135 155.686H347.431L345.642 158.634L342.207 148.932L339.267 158.407L336.999 153.485L333.479 162.011L329.195 143.17L325.591 155.568H319.199C315.293 150.528 313.982 145.555 319.031 141.145C325.348 135.618 332.664 140.767 336.369 144.111C340.275 141.011 348.851 134.669 355.428 142.918C358.763 147.059 356.772 151.57 353.135 155.686Z" fill="#2E73B8"/>
<path d="M310.262 157.441H281.064L280.971 157.382L230.865 129.595L231.268 128.856L281.282 156.601H310.262V157.441Z" fill="#2E73B8"/>
<path d="M212.939 325.038L219.718 326.332L223.574 306.432L214.829 305.391L212.939 325.038Z" fill="#FFC2BC"/>
<path d="M221.129 325.08L212.132 322.283C211.962 322.23 211.778 322.238 211.614 322.308C211.449 322.377 211.315 322.502 211.234 322.661L207.21 329.641C207.055 329.918 207.007 330.242 207.075 330.552C207.143 330.861 207.323 331.135 207.58 331.321C207.674 331.388 207.779 331.439 207.89 331.472C211.057 332.48 212.561 332.909 216.509 334.152C218.953 334.908 225.799 338.352 229.302 338.352C232.805 338.352 233.502 334.698 232.049 334.354C225.715 332.8 223.59 328.415 222.229 325.954C221.984 325.536 221.591 325.224 221.129 325.08Z" fill="#263238"/>
<path opacity="0.2" d="M223.574 306.441L221.676 316.21L213.855 315.571L214.83 305.391L223.574 306.441Z" fill="black"/>
<path d="M217.912 152.2C221.348 152.771 224.002 151.477 225.85 154.476C226.463 155.476 227.286 159.97 227.622 161.154C231.822 175.905 240.558 225.263 238.064 252.773C235.838 277.284 225.766 311.245 225.766 311.245L212.192 312.531C212.192 312.531 217.332 260.509 217.895 240.24C218.861 205.548 204.203 149.915 204.203 149.915L217.912 152.2Z" fill="#263238"/>
<path d="M227.951 313.841L210.975 313.06L211.512 306.214L228.447 307.701L227.951 313.841Z" fill="#2E73B8"/>
<path opacity="0.2" d="M214.267 168.546L210.672 178.273C213.351 191.285 217.677 214.141 217.938 237.418C222.953 218.686 216.72 177.551 214.267 168.546Z" fill="black"/>
<path d="M186.496 321.409L194.241 322.887L197.861 303.391L189.436 302.072L186.496 321.409Z" fill="#FFC2BC"/>
<path d="M194.367 322.14L186.53 317.722C186.392 317.639 186.228 317.613 186.071 317.649C185.914 317.685 185.778 317.78 185.69 317.915L180.902 324.719C180.712 325.014 180.64 325.37 180.701 325.715C180.761 326.061 180.95 326.371 181.23 326.584L181.364 326.668C184.111 328.163 185.522 328.734 188.924 330.691C191.058 331.926 196.383 335.614 199.315 337.26C202.246 338.907 204.582 335.219 203.515 334.27C198.651 329.91 196.324 325.954 195.308 323.266C195.132 322.794 194.8 322.397 194.367 322.14Z" fill="#263238"/>
<path opacity="0.2" d="M189.386 302.282L197.769 303.887L195.929 313.79L187.865 312.261L189.386 302.282Z" fill="black"/>
<path d="M212.3 149.268C212.3 149.268 221.969 183.397 213.98 239.4C211.095 263.617 205.534 287.439 197.399 310.43L187.428 305.76C187.428 305.76 190.074 261.349 192.149 243.356C196.407 206.506 190.023 176.156 189.167 160.331C189.013 158.087 189.715 155.868 191.132 154.121C192.549 152.373 194.575 151.228 196.802 150.914L212.3 149.268Z" fill="#263238"/>
<path d="M199.356 311.833L185.051 309.002L185.362 303.173L201.355 306.214L199.356 311.833Z" fill="#2E73B8"/>
<path d="M197.736 325.668C197.966 325.556 198.152 325.369 198.265 325.139C198.326 325.042 198.363 324.932 198.372 324.818C198.381 324.703 198.361 324.589 198.315 324.484C197.862 323.543 195.039 323.224 194.72 323.182C194.691 323.177 194.661 323.181 194.634 323.193C194.607 323.205 194.585 323.224 194.569 323.249C194.551 323.276 194.541 323.308 194.541 323.341C194.541 323.374 194.551 323.406 194.569 323.434C195.207 324.274 196.459 325.769 197.442 325.702C197.541 325.708 197.64 325.697 197.736 325.668ZM195.081 323.593C196.047 323.728 197.769 324.089 198.046 324.668C198.073 324.719 198.087 324.775 198.087 324.832C198.087 324.889 198.073 324.946 198.046 324.996C197.994 325.114 197.912 325.216 197.81 325.294C197.707 325.372 197.586 325.423 197.458 325.441C196.879 325.441 196.022 324.761 195.098 323.56L195.081 323.593Z" fill="#2E73B8"/>
<path d="M197.172 323.106C197.56 322.974 197.892 322.713 198.113 322.367C198.184 322.229 198.208 322.071 198.179 321.919C198.15 321.766 198.07 321.628 197.953 321.527C197.859 321.423 197.743 321.341 197.614 321.288C197.485 321.234 197.345 321.209 197.205 321.216C196.071 321.275 194.643 323.139 194.585 323.215C194.573 323.24 194.566 323.267 194.566 323.295C194.566 323.322 194.573 323.35 194.585 323.375C194.59 323.404 194.605 323.43 194.626 323.451C194.647 323.472 194.673 323.486 194.702 323.492C195.544 323.558 196.39 323.425 197.172 323.106ZM196.802 321.686C196.935 321.626 197.077 321.589 197.222 321.577C197.318 321.57 197.414 321.585 197.503 321.622C197.592 321.658 197.671 321.715 197.735 321.787C197.793 321.84 197.834 321.909 197.852 321.986C197.87 322.062 197.864 322.142 197.835 322.215C197.55 322.795 195.937 323.232 195.021 323.215C195.511 322.604 196.116 322.096 196.802 321.72V321.686Z" fill="#2E73B8"/>
<path d="M224.7 327.944C225.302 328.186 225.968 328.215 226.59 328.028C226.757 327.967 226.906 327.866 227.026 327.734C227.146 327.603 227.233 327.444 227.278 327.272C227.319 327.182 227.335 327.082 227.325 326.983C227.315 326.884 227.278 326.79 227.22 326.709C226.564 325.869 222.868 326.466 222.44 326.533C222.407 326.538 222.377 326.555 222.354 326.579C222.331 326.603 222.317 326.634 222.314 326.668C222.307 326.701 222.311 326.736 222.324 326.768C222.338 326.799 222.36 326.826 222.39 326.844C223.12 327.289 223.894 327.658 224.7 327.944ZM226.59 326.709C226.717 326.737 226.834 326.801 226.926 326.894C226.946 326.932 226.957 326.973 226.957 327.016C226.957 327.059 226.946 327.101 226.926 327.138C226.891 327.265 226.826 327.383 226.737 327.481C226.648 327.578 226.537 327.654 226.413 327.701C225.514 328.062 223.792 327.256 222.885 326.768C224.103 326.562 225.347 326.562 226.564 326.768L226.59 326.709Z" fill="#2E73B8"/>
<path d="M222.365 326.861H222.432C223.524 326.727 226.061 325.609 226.195 324.702C226.195 324.509 226.145 324.232 225.725 324.047C224.045 323.249 222.365 326.466 222.239 326.617C222.227 326.644 222.221 326.672 222.221 326.701C222.221 326.73 222.227 326.759 222.239 326.785C222.271 326.824 222.316 326.85 222.365 326.861ZM225.49 324.341L225.616 324.391C225.91 324.526 225.893 324.652 225.876 324.694C225.801 325.273 223.944 326.256 222.718 326.517C223.155 325.786 224.356 323.997 225.49 324.341Z" fill="#2E73B8"/>
<path d="M281.566 119.44C281.566 119.44 282.205 114.744 282.776 114.912C283.347 115.08 287.774 114.223 289.765 113.845C290.372 113.737 290.997 113.786 291.579 113.988L296.082 115.55C296.361 115.645 296.592 115.844 296.727 116.106C296.862 116.367 296.889 116.671 296.804 116.953L295.964 119.641C295.906 119.858 295.786 120.052 295.619 120.202C295.452 120.351 295.245 120.448 295.023 120.481L289.815 121.178C289.384 121.236 288.945 121.213 288.522 121.111L281.566 119.44Z" fill="#FFC2BC"/>
<path d="M279.468 114.744L285.676 112.434C285.676 112.434 288.868 115.097 287.809 117.911C286.751 120.725 285.247 121.01 285.247 121.01C285.247 121.01 282.727 123.094 279.182 121.01C275.638 118.927 279.468 114.744 279.468 114.744Z" fill="#2E73B8"/>
<path d="M224.389 103.127C230.462 105.067 245.993 110.25 253.318 113.081C256.678 114.391 270.429 113.551 276.385 113.921C277.917 114.18 279.408 114.64 280.82 115.29L279.98 119.826C279.98 119.826 279.14 121.892 277.267 122.262C270.278 123.648 252.949 125.026 249.227 124.093C238.417 121.388 220.373 116.533 219.029 113.778C216.988 109.704 219.718 101.64 224.389 103.127Z" fill="#2E73B8"/>
<path opacity="0.2" d="M237.854 121.094L227.858 117.869C227.859 116.53 227.792 115.193 227.656 113.862C231.596 118.154 237.854 121.094 237.854 121.094Z" fill="black"/>
<path d="M128.956 128.293C128.956 128.293 128.318 123.597 127.747 123.765C127.175 123.933 122.707 123.077 120.758 122.699C120.151 122.586 119.525 122.635 118.943 122.841L114.441 124.404C114.162 124.498 113.931 124.697 113.796 124.959C113.661 125.221 113.633 125.525 113.719 125.807L114.559 128.495C114.622 128.704 114.744 128.891 114.911 129.033C115.078 129.174 115.282 129.265 115.499 129.293L120.716 129.998C121.145 130.056 121.58 130.033 122.001 129.931L128.956 128.293Z" fill="#FFC2BC"/>
<path d="M133.601 122.127H126.167C126.167 122.127 123.479 124.152 124.882 126.84C125.572 128.32 126.762 129.51 128.242 130.2L133.794 128.789C137.465 125.076 133.601 122.127 133.601 122.127Z" fill="#2E73B8"/>
<path d="M192.545 113.669C192.122 114.416 191.507 115.037 190.764 115.467C189.73 116.181 188.656 116.834 187.547 117.424C181.431 120.784 171.083 125.034 163.968 127.857C160.406 129.268 143.043 130.175 135.937 129.721C134.047 129.604 132.93 127.663 132.93 127.663L131.477 123.287C132.785 122.457 134.197 121.805 135.677 121.347C141.557 120.187 155.249 119.221 158.424 117.483C165.32 113.711 180.037 106.563 185.799 103.816C190.243 101.733 194.04 109.36 192.545 113.669Z" fill="#2E73B8"/>
<path opacity="0.2" d="M218.484 102.161L211.68 114.366C211.68 114.366 197.719 101.909 197.467 101.909L200.768 101.716L203.792 104.236L210.999 110.175L215.325 101.892L218.484 102.161Z" fill="black"/>
<path opacity="0.2" d="M188.276 129.603C188.218 127.537 187.781 120.624 187.537 117.432C188.647 116.842 189.721 116.189 190.754 115.475C191.435 117.717 188.327 131.67 188.276 129.603Z" fill="black"/>
<path d="M215.342 101.858L211.016 110.141L203.809 104.202C204.678 104.922 205.697 105.438 206.792 105.712C207.887 105.987 209.029 106.012 210.136 105.788C211.242 105.563 212.283 105.093 213.184 104.413C214.085 103.733 214.822 102.86 215.342 101.858Z" fill="#263238"/>
<path d="M215.342 101.858C214.823 102.86 214.086 103.733 213.185 104.413C212.284 105.093 211.242 105.563 210.136 105.787C209.03 106.012 207.888 105.986 206.793 105.712C205.698 105.438 204.679 104.922 203.809 104.202L200.785 101.682C204.095 98.5823 203.263 89.9975 202.39 85.2935L211.268 90.1403C211.764 95.3651 210.16 100.548 215.342 101.858Z" fill="#FFC2BC"/>
<path opacity="0.2" d="M204.875 93.3154C204.875 93.3154 206.656 100.539 212.301 99.7834C212.301 99.7834 211.99 99.9514 211.461 96.5998C211.144 94.4728 211.082 92.3156 211.276 90.1738C211.276 90.1738 205.253 90.3418 204.875 93.3154Z" fill="black"/>
<path d="M198.507 82.5722C201.691 89.7458 202.875 92.8454 207.983 95.2226C215.66 98.8094 223.758 93.341 222.792 85.3778C221.952 78.1958 216.87 67.6874 208.604 67.4354C205.767 67.3425 203.01 68.3794 200.937 70.3182C198.865 72.257 197.646 74.9393 197.55 77.7758C197.491 79.4274 197.819 81.0699 198.507 82.5722Z" fill="#FFC2BC"/>
<path d="M197.777 89.7792C210.73 88.368 201.742 74.466 212.72 68.4852C209.864 63.4452 201.8 62.832 192.972 69.5604C185.462 75.2808 197.777 89.7792 197.777 89.7792Z" fill="#263238"/>
<path d="M203.716 66.6708C203.716 66.6708 217.828 70.8708 219.945 76.314C219.945 76.314 220.491 64.9488 215.476 64.6548C210.462 64.3608 201.272 63.3444 203.716 66.6708Z" fill="#263238"/>
<path d="M198.482 90.5773C199.653 91.5538 201.163 92.0278 202.682 91.8961C204.673 91.7029 204.958 89.7457 203.799 88.2337C202.766 86.8645 200.439 85.3609 198.759 86.2597C198.465 86.4279 198.207 86.6523 198 86.9203C197.793 87.1882 197.64 87.4943 197.551 87.8211C197.462 88.148 197.439 88.4891 197.482 88.8251C197.525 89.1611 197.633 89.4853 197.802 89.7793C197.974 90.0876 198.205 90.3589 198.482 90.5773Z" fill="#FFC2BC"/>
<path d="M210.394 80.4887C210.612 81.0767 211.116 81.4379 211.502 81.3287C211.889 81.2195 212.032 80.5811 211.805 79.9847C211.578 79.3883 211.091 79.0355 210.704 79.1447C210.318 79.2539 210.175 79.8923 210.394 80.4887Z" fill="#263238"/>
<path d="M217.139 77.9773C217.366 78.5737 217.853 78.9265 218.256 78.8173C218.659 78.7081 218.785 78.0781 218.55 77.4733C218.315 76.8685 217.844 76.5241 217.45 76.6333C217.055 76.7425 216.887 77.3725 217.139 77.9773Z" fill="#263238"/>
<path d="M215.736 79.6655C216.776 80.8321 217.972 81.8497 219.29 82.6895C219.065 83.019 218.771 83.2956 218.429 83.5002C218.087 83.7047 217.704 83.8322 217.307 83.8739L215.736 79.6655Z" fill="#EC837E"/>
<path d="M219.039 86.621C219.057 86.6107 219.073 86.5967 219.086 86.5798C219.099 86.5629 219.108 86.5436 219.112 86.523C219.117 86.5024 219.117 86.4811 219.113 86.4604C219.109 86.4396 219.101 86.42 219.089 86.4026C219.059 86.3766 219.02 86.3623 218.98 86.3623C218.94 86.3623 218.901 86.3766 218.871 86.4026C217.613 87.2902 216.074 87.6848 214.545 87.5114C214.511 87.4912 214.47 87.4842 214.432 87.492C214.393 87.4997 214.358 87.5216 214.335 87.5534C214.308 87.5802 214.293 87.6164 214.293 87.6542C214.293 87.692 214.308 87.7283 214.335 87.755C215.99 88.0008 217.677 87.5942 219.039 86.621Z" fill="#263238"/>
<path d="M207.993 76.1543C208.035 76.1684 208.081 76.1711 208.125 76.1623C208.169 76.1535 208.211 76.1333 208.245 76.1039C208.552 75.8268 208.922 75.6274 209.322 75.5221C209.722 75.4169 210.142 75.409 210.546 75.499C210.616 75.514 210.689 75.5036 210.752 75.4698C210.815 75.4359 210.864 75.3808 210.891 75.3143C210.906 75.2835 210.915 75.25 210.917 75.2157C210.919 75.1814 210.914 75.1471 210.902 75.1149C210.89 75.0826 210.872 75.0531 210.848 75.0282C210.825 75.0032 210.796 74.9834 210.765 74.9699C210.279 74.8555 209.772 74.8599 209.288 74.9827C208.804 75.1055 208.357 75.3431 207.984 75.6754C207.925 75.7178 207.883 75.7803 207.866 75.8513C207.849 75.9224 207.858 75.9971 207.892 76.0619C207.914 76.103 207.95 76.1356 207.993 76.1543Z" fill="#263238"/>
<path d="M218.4 73.1642C218.449 73.144 218.491 73.1105 218.523 73.0675C218.554 73.0244 218.572 72.9736 218.576 72.9206C218.581 72.8802 218.577 72.8393 218.566 72.8003C218.554 72.7613 218.535 72.725 218.509 72.6936C218.483 72.6623 218.451 72.6364 218.415 72.6177C218.379 72.599 218.339 72.5877 218.299 72.5846C217.72 72.5187 217.134 72.5944 216.592 72.8051C216.049 73.0158 215.565 73.3552 215.182 73.7942C215.128 73.8505 215.098 73.9258 215.098 74.0042C215.098 74.0825 215.128 74.1578 215.182 74.2142C215.214 74.2393 215.25 74.258 215.288 74.2691C215.327 74.2802 215.367 74.2835 215.407 74.2788C215.447 74.2741 215.486 74.2615 215.521 74.2418C215.556 74.222 215.586 74.1955 215.611 74.1638C215.934 73.8079 216.337 73.534 216.787 73.3646C217.237 73.1952 217.72 73.1351 218.198 73.1894C218.266 73.2068 218.338 73.1978 218.4 73.1642Z" fill="#263238"/>
<path d="M227.833 161.456C227.53 161.255 199.273 162.582 190.99 162.733C188.109 163.002 187.874 159.163 188.529 158.735L226.791 158.533H226.833L227.11 158.122C227.523 158.769 227.877 159.452 228.169 160.163C228.242 160.388 228.249 160.629 228.189 160.859C228.13 161.088 228.006 161.295 227.833 161.456Z" fill="#2E73B8"/>
<path opacity="0.2" d="M227.833 161.456C227.53 161.255 199.273 162.582 190.99 162.733C188.109 163.002 187.874 159.163 188.529 158.735L226.791 158.533H226.833L227.11 158.122C227.523 158.769 227.877 159.452 228.169 160.163C228.242 160.388 228.249 160.629 228.189 160.859C228.13 161.088 228.006 161.295 227.833 161.456Z" fill="black"/>
<path d="M243.6 280.4H243.549C243.494 280.394 243.441 280.377 243.393 280.35C243.345 280.323 243.302 280.286 243.269 280.242C243.235 280.198 243.21 280.148 243.197 280.094C243.183 280.041 243.18 279.985 243.188 279.93L244.028 273.008C244.033 272.953 244.05 272.898 244.076 272.849C244.103 272.8 244.14 272.757 244.184 272.722C244.228 272.688 244.278 272.662 244.333 272.648C244.387 272.634 244.443 272.631 244.499 272.639C244.609 272.653 244.709 272.711 244.776 272.799C244.844 272.887 244.874 272.999 244.86 273.109L244.02 280.031C244.007 280.133 243.958 280.227 243.88 280.296C243.803 280.364 243.703 280.401 243.6 280.4Z" fill="#2E73B8"/>
<path d="M245.279 266.549H245.228C245.173 266.543 245.12 266.525 245.071 266.498C245.022 266.471 244.98 266.435 244.945 266.391C244.911 266.347 244.885 266.297 244.871 266.243C244.856 266.19 244.852 266.134 244.859 266.078L245.447 261.307C246.884 249.583 247.37 237.762 246.9 225.96C246.897 225.905 246.904 225.85 246.922 225.799C246.94 225.747 246.969 225.699 247.005 225.659C247.042 225.618 247.087 225.585 247.137 225.562C247.186 225.538 247.24 225.525 247.295 225.523C247.35 225.521 247.405 225.53 247.457 225.549C247.509 225.568 247.556 225.597 247.597 225.634C247.637 225.672 247.67 225.717 247.693 225.767C247.716 225.817 247.729 225.871 247.732 225.926C248.21 237.771 247.724 249.634 246.278 261.4L245.699 266.171C245.687 266.274 245.637 266.369 245.56 266.439C245.483 266.508 245.383 266.548 245.279 266.549Z" fill="#2E73B8"/>
<path d="M184.338 248.699L183.498 248.581C183.498 248.447 185.321 235.603 185.615 225.624C185.926 214.996 185.373 204.36 183.96 193.822L184.8 193.712C186.221 204.29 186.782 214.964 186.48 225.632C186.169 235.67 184.355 248.564 184.338 248.699Z" fill="#2E73B8"/>
<path d="M183.959 193.822C183.497 190.369 182.943 186.959 182.279 183.683L183.119 183.523C183.758 186.816 184.32 190.243 184.799 193.713L183.959 193.822Z" fill="#2E73B8"/>
<path d="M181.44 179.29C180.902 176.904 180.23 174.099 179.34 171.31L180.18 171.049C181.079 173.872 181.751 176.703 182.288 179.105L181.44 179.29Z" fill="#2E73B8"/>
</g>
</svg>
