<svg width="48" height="48" viewBox="0 0 48 48" fill="none" xmlns="http://www.w3.org/2000/svg">
<g clip-path="url(#clip0_1340_120668)">
<rect width="48" height="48" rx="24" fill="#2EB83C"/>
<path d="M16 26L22 32L32 18M48 24C48 27.1517 47.3792 30.2726 46.1731 33.1844C44.967 36.0962 43.1992 38.742 40.9706 40.9706C38.742 43.1992 36.0962 44.967 33.1844 46.1731C30.2726 47.3792 27.1517 48 24 48C20.8483 48 17.7274 47.3792 14.8156 46.1731C11.9038 44.967 9.25804 43.1992 7.02944 40.9706C4.80083 38.742 3.033 36.0962 1.82689 33.1844C0.620778 30.2726 -4.69644e-08 27.1517 0 24C9.48488e-08 17.6348 2.52856 11.5303 7.02944 7.02944C11.5303 2.52856 17.6348 0 24 0C30.3652 0 36.4697 2.52856 40.9706 7.02944C45.4714 11.5303 48 17.6348 48 24Z" stroke="white" stroke-width="3.5" stroke-linecap="round" stroke-linejoin="round"/>
</g>
<defs>
<clipPath id="clip0_1340_120668">
<rect width="48" height="48" rx="24" fill="white"/>
</clipPath>
</defs>
</svg>
