<svg width="331" height="301" viewBox="0 0 331 301" fill="none" xmlns="http://www.w3.org/2000/svg">
<g opacity="0.9">
<path d="M330.828 0H0.0507641V300.884H330.828V0Z" fill="#EBEBEB"/>
<path d="M321.901 68.513H213.955C213.955 68.513 224.66 38.2164 241.124 38.2164C257.589 38.2164 262.759 59.1372 262.759 59.1372C262.759 59.1372 273.871 47.7669 283.002 47.7669C292.133 47.7669 300.07 62.7914 300.07 62.7914C300.07 62.7914 312.98 54.7114 321.901 68.513Z" fill="white"/>
<path d="M107.009 116.833H8.67249C8.67249 116.833 22.1165 85.7067 36.5158 83.7559C50.9151 81.805 57.8689 106.89 57.8689 106.89C57.8689 106.89 67.1548 98.0233 74.4598 98.0233C81.7648 98.0233 87.3981 109.67 87.3981 109.67C87.3981 109.67 101.994 101.707 107.009 116.833Z" fill="white"/>
<path d="M134.852 38.2165H68.4752C68.4752 38.2165 79.8822 15.6651 92.2446 15.3303C104.607 14.9955 111.125 32.4076 111.125 32.4076C111.125 32.4076 130.371 16.3931 134.852 38.2165Z" fill="white"/>
<path d="M212.486 92.1999H167.673C167.673 92.1999 175.371 76.9716 183.73 76.7532C192.088 76.5348 196.471 88.2691 196.471 88.2691C196.471 88.2691 209.452 77.4666 212.486 92.1999Z" fill="white"/>
<path d="M330.816 157.204V300.126C327.656 300.243 324.705 300.33 322.275 300.359H319.465C317.639 300.359 315.181 300.359 312.441 300.243C303.282 299.966 290.569 299.253 285.329 298.015C284.851 297.923 284.381 297.792 283.924 297.622H283.741C283.485 297.525 283.248 297.382 283.039 297.2C282.73 296.88 283.039 293.036 283.966 286.689C284.43 283.34 285.034 279.279 285.75 274.678C286.242 271.519 286.804 268.083 287.408 264.487L287.576 263.453C287.787 262.201 287.998 260.92 288.223 259.61C288.588 257.397 288.981 255.111 289.374 252.767C289.487 252.185 289.585 251.588 289.684 250.977C290.217 247.89 290.779 244.702 291.369 241.441C291.454 240.917 291.552 240.392 291.636 239.854C292.493 235.093 293.378 230.201 294.291 225.295L294.502 224.174C294.909 221.947 295.331 219.705 295.752 217.448C295.752 217.215 295.851 216.968 295.893 216.72C296.132 215.453 296.37 214.172 296.623 212.891C298.407 203.515 300.262 194.081 302.116 185.04C302.116 184.72 302.242 184.4 302.313 184.08C302.903 181.168 303.488 178.343 304.069 175.606L304.195 175.024C306.035 166.376 307.834 158.282 309.548 151.133C309.66 150.697 309.758 150.274 309.857 149.852C311.57 142.733 313.2 136.633 314.647 131.974C316.557 125.86 318.187 122.205 319.367 122.016C319.398 122.002 319.432 121.994 319.465 121.994C319.499 121.994 319.533 122.002 319.564 122.016C320.308 122.133 321.236 123.647 322.373 126.296C324.439 131.421 327.009 140.855 329.819 152.647C329.917 153.026 330.002 153.404 330.086 153.798C330.254 154.773 330.535 155.981 330.816 157.204Z" fill="#455A64"/>
<path d="M329.974 153.594C327.024 155.05 324.06 156.505 321.138 157.961C321.686 180.178 321.728 202.423 321.953 224.64C321.953 229.008 322.023 233.273 322.051 237.583C324.861 235.806 327.811 234.118 330.817 232.516V234.671C327.909 236.127 324.973 237.481 322.051 238.689C322.108 246.987 322.145 255.286 322.164 263.584C325.048 261.74 327.933 259.911 330.817 258.096V259.552L322.164 264.793C322.164 265.885 322.164 266.962 322.164 268.054C323.681 267.195 326.898 265.681 330.803 263.919V265.579C327.977 266.771 325.093 267.81 322.164 268.694C322.164 279.254 322.197 289.809 322.262 300.359V300.869H320.632V300.374L320.253 281.346C316.329 279.57 312.447 277.711 308.607 275.77C302.052 272.518 295.58 269.063 289.193 265.404C288.589 265.069 287.999 264.72 287.409 264.37L286.004 263.511L285.007 262.929C284.557 262.667 285.007 262.012 285.4 262.23L286.032 262.536L287.634 263.337L289.038 264.007C295.5 267.18 301.939 270.412 308.354 273.703C312.372 275.76 316.381 277.832 320.38 279.919C320 261.502 319.607 243.086 319.368 224.596C319.242 214.056 319.073 203.501 318.919 192.946C313.299 190.34 307.75 187.559 302.201 184.778L299.94 183.657C299.448 183.41 299.94 182.696 300.361 182.915L302.398 183.817C307.919 186.249 313.44 188.68 318.905 191.257V187.646C313.861 183.716 309.071 179.406 304.196 175.344C303.213 174.514 302.229 173.714 301.232 172.928C301.007 172.753 301.232 172.374 301.443 172.549C302.398 173.292 303.353 174.005 304.323 174.762C309.183 178.46 314.156 182.041 318.876 185.885C318.666 168.676 318.581 151.454 318.975 134.245C319.059 130.169 319.172 126.078 319.326 122.001C319.324 121.943 319.341 121.885 319.374 121.838C319.407 121.79 319.454 121.756 319.509 121.739C319.54 121.725 319.573 121.717 319.607 121.717C319.641 121.717 319.674 121.725 319.705 121.739C319.76 121.756 319.807 121.79 319.84 121.838C319.873 121.885 319.89 121.943 319.888 122.001C320.071 125.059 320.225 128.116 320.38 131.188C320.773 139.574 321.073 147.964 321.279 156.36C324.173 155.05 327.024 153.681 329.89 152.356L331 151.847V153.099L329.974 153.594Z" fill="#37474F"/>
<path d="M246.538 300.869H174.682C174.766 300.214 174.85 299.529 174.948 298.801C175.314 296.094 175.777 292.891 176.353 289.251C177.266 283.267 178.418 276.148 179.753 268.287C179.837 267.777 179.922 267.267 180.02 266.743C180.329 264.851 180.666 262.914 181.003 260.92L181.172 259.944C181.242 259.595 181.298 259.231 181.354 258.882L181.481 258.227C181.776 256.509 182.085 254.776 182.394 253.015C182.492 252.418 182.605 251.835 182.703 251.238C183.476 246.871 184.276 242.503 185.105 238.019L185.316 236.854C185.316 236.665 185.316 236.491 185.428 236.301C186.145 232.4 186.833 228.454 187.62 224.509C187.76 223.81 187.901 223.053 188.027 222.412C188.73 218.685 189.432 214.944 190.191 211.231C192.031 201.87 193.899 192.64 195.74 184.007C196.358 181.095 196.967 178.3 197.566 175.621C197.861 174.296 198.142 173 198.437 171.719C198.985 169.302 199.519 166.944 200.067 164.687C200.151 164.294 200.235 163.901 200.333 163.523C204.548 145.572 208.327 133.255 210.518 132.949H210.715C212.822 133.299 216.334 144.596 220.38 161.397C222.15 168.676 224.005 177.062 225.901 185.987L226.027 186.554C226.608 189.34 227.193 192.164 227.783 195.028C227.854 195.362 227.924 195.683 227.98 196.003C228.823 200.079 229.652 204.229 230.481 208.407C232.967 220.986 235.397 233.914 237.603 246.114C239.148 254.703 240.581 262.929 241.817 270.427C241.944 271.169 242.07 271.883 242.183 272.64C242.295 273.397 242.393 273.877 242.492 274.489L242.66 275.508C244.234 285.044 245.47 293.124 246.257 298.889C246.369 299.559 246.453 300.243 246.538 300.869Z" fill="#455A64"/>
<path d="M245.139 274.037C244.324 274.532 243.509 275.013 242.695 275.493C234.266 280.414 225.654 284.971 216.888 289.164C214.528 290.28 212.159 291.382 209.78 292.469L209.611 300.898H207.813C207.813 293.881 207.813 286.859 207.813 279.832C205.714 279.222 203.647 278.503 201.618 277.677C195.212 275.188 186.165 271.242 179.703 268.316C176.893 267.006 174.519 265.914 173.199 265.244C172.637 264.953 173.03 263.934 173.634 264.181C175.039 264.734 177.273 265.637 179.97 266.773C186.306 269.408 195.17 273.193 201.379 276.032C204.273 277.357 206.591 278.463 207.813 279.162C207.813 278.085 207.813 276.993 207.813 275.915L200.663 271.548L191.138 265.812C188.146 264.021 185.041 262.303 182.007 260.527L181.122 259.988C180.799 259.814 180.476 259.61 180.167 259.421C178.762 258.591 177.357 257.732 176.107 256.829C175.741 256.596 175.362 256.334 174.997 256.072C174.379 255.65 173.775 255.198 173.185 254.747C172.918 254.543 173.072 253.961 173.438 254.121C174.337 254.514 175.236 254.922 176.121 255.373C176.556 255.577 176.978 255.795 177.413 256.028C178.818 256.742 180.11 257.484 181.431 258.27L183.875 259.755C186.263 261.211 188.638 262.754 191.012 264.123C194.173 266.045 197.319 268.01 200.452 269.946C202.925 271.499 205.383 273.067 207.827 274.649C207.827 266.35 207.865 258.052 207.94 249.754C204.203 248.196 200.452 246.42 196.701 244.512L196.083 244.207L194.917 243.581C191.546 241.805 188.216 239.912 184.999 237.976C183.875 237.291 182.751 236.622 181.656 235.937C181.375 235.763 181.571 235.224 181.895 235.355L185.21 236.811C186.179 237.233 187.163 237.67 188.132 238.121C190.646 239.286 193.175 240.494 195.662 241.761L196.912 242.416C197.502 242.707 198.078 243.013 198.654 243.319C201.815 244.993 204.905 246.769 207.883 248.633C207.883 244.265 207.884 240.014 207.982 235.69C208.179 216.24 208.235 196.775 208.614 177.324C208.614 174.558 208.726 171.792 208.797 169.026C205.875 167.57 202.91 166.114 199.96 164.658C197.376 163.406 194.805 162.154 192.262 160.815C191.911 160.626 192.164 159.985 192.543 160.131C195.142 161.179 197.685 162.329 200.227 163.494C203.037 164.818 205.945 166.187 208.839 167.497C209.134 156.04 209.555 144.582 210.244 133.139C210.245 133.079 210.263 133.021 210.295 132.972C210.328 132.923 210.373 132.885 210.426 132.862H210.623C210.677 132.883 210.724 132.921 210.757 132.971C210.789 133.02 210.806 133.079 210.806 133.139C211.297 146.839 211.452 160.567 211.41 174.296C211.41 181.867 211.339 189.452 211.255 197.022C215.975 193.12 220.948 189.597 225.809 185.899C226.778 185.157 227.733 184.443 228.689 183.672C228.899 183.497 229.124 183.89 228.899 184.065C227.902 184.851 226.919 185.652 225.935 186.467C221.004 190.529 216.27 194.838 211.241 198.784C211.241 199.992 211.241 201.186 211.241 202.394C216.706 199.817 222.227 197.386 227.748 194.94L229.785 194.038C230.262 193.819 230.698 194.547 230.206 194.795L227.944 195.916C222.325 198.682 216.846 201.463 211.227 204.083C211.072 214.624 210.904 225.179 210.777 235.719C210.702 240.572 210.628 245.459 210.553 250.38C210.328 263.919 210.066 277.454 209.766 290.984C212.192 289.703 214.627 288.436 217.071 287.184C225.5 282.826 233.971 278.565 242.484 274.401L244.198 273.557L244.718 273.295C245.195 273.12 245.589 273.775 245.139 274.037Z" fill="#37474F"/>
<path d="M45.0764 297.884C44.6138 298.236 44.0809 298.475 43.5171 298.583C42.7261 298.803 41.9242 298.978 41.1149 299.107C37.7574 299.675 32.686 300.112 27.5444 300.418C24.1869 300.621 20.7451 300.767 17.6405 300.869C15.6878 300.942 13.8756 300.985 12.2882 301H8.9447C7.17464 301 4.91288 301 2.37018 300.869H0.0522475V153.958C3.95762 137.827 7.35725 126.937 9.39423 126.602H9.5909C11.7403 126.951 15.3787 138.991 19.551 156.52C19.6353 156.898 19.7196 157.277 19.8179 157.656C21.6723 165.575 23.639 174.558 25.6198 184.065C25.8305 185.128 26.0553 186.19 26.2801 187.268C26.2801 187.501 26.3784 187.734 26.4205 187.967C26.9403 190.544 27.4741 193.15 27.9939 195.785C28.2608 197.08 28.5278 198.376 28.7806 199.686C28.8649 200.138 28.9632 200.574 29.0475 201.026C30.045 206.136 31.0424 211.319 32.0257 216.458L32.2786 217.797C32.9389 221.248 33.571 224.684 34.2032 228.09L34.4139 229.226C34.6527 230.565 34.9056 231.89 35.1444 233.215C36.1278 238.616 37.055 243.886 37.954 248.953C38.0383 249.521 38.1367 250.088 38.249 250.642C38.3614 251.195 38.4317 251.748 38.53 252.287C38.53 252.447 38.53 252.592 38.6003 252.753C38.8672 254.281 39.1341 255.781 39.3869 257.251C39.4525 257.746 39.5368 258.232 39.6398 258.707C43.4047 281.011 45.7226 297.215 45.0764 297.884Z" fill="#455A64"/>
<path d="M46.0075 255.824L45.3894 256.145C44.0549 256.8 42.046 257.732 39.6578 258.824L36.5953 260.207C35.1905 260.862 33.6452 261.531 32.0859 262.201C25.4271 265.113 18.1923 268.126 14.0902 269.48C13.3457 269.728 12.6854 269.932 12.1937 270.063C12.1937 273.528 12.1937 277.007 12.1937 280.472C12.1937 281.229 12.1937 281.928 12.1937 282.714V283.937C12.1937 285.699 12.1937 287.446 12.1937 289.207V300.985H10.5923V300.84C10.5361 297.695 10.4752 294.55 10.4096 291.406C10.4164 291.289 10.4164 291.173 10.4096 291.056C10.4096 288.319 10.3113 285.597 10.2551 282.86C10.2551 282.714 10.2551 282.569 10.2551 282.423L8.85029 281.768C5.88614 280.429 2.93605 279.016 0 277.575V275.77C3.42774 277.531 6.84142 279.293 10.2411 281.084C9.87581 263.104 9.48247 245.109 9.2577 227.115C9.2577 225.426 9.2577 223.737 9.2577 222.048C9.2577 217.288 9.13126 212.512 9.06102 207.752C9.06102 207.373 9.06102 206.995 9.06102 206.616L8.97674 200.793C8.97674 199.235 8.97673 197.692 8.90649 196.134C5.95639 194.765 3.03439 193.339 0.126428 191.912V190.456C3.0578 191.766 5.98916 193.111 8.92054 194.489V190.966C5.92829 188.622 3.04843 186.147 0.16857 183.686V182.478C3.11867 184.691 6.05473 186.846 8.90649 189.248C8.65363 168.443 8.58338 147.639 9.34198 126.849C9.34592 126.794 9.36351 126.741 9.39304 126.695C9.42258 126.65 9.46305 126.612 9.51055 126.587H9.70722C9.75924 126.607 9.80434 126.643 9.83685 126.69C9.86935 126.736 9.8878 126.792 9.88986 126.849C10.5501 138.03 10.9716 149.226 11.2947 160.422C14.1043 159.14 16.9139 157.801 19.7235 156.505C22.196 155.37 24.6825 154.249 27.2252 153.23C27.5905 153.07 27.8433 153.71 27.4921 153.899C25.0197 155.195 22.5051 156.418 19.9904 157.641C17.0965 159.097 14.2026 160.451 11.3509 161.936C11.6178 172.636 11.7583 183.337 11.8706 194.038V198.769C11.8706 201.754 11.8706 204.724 11.8706 207.708C11.8706 208.13 11.8706 208.538 11.8706 208.96C11.8706 213.706 11.9128 218.443 11.9971 223.169C11.9971 224.465 11.9971 225.761 11.9971 227.057C11.9971 231.264 11.9971 235.486 12.0814 239.693C14.7505 238.019 17.518 236.432 20.3417 234.918C23.1653 233.404 26.0592 231.934 28.9531 230.551C30.7091 229.721 32.4792 228.906 34.2352 228.134L37.4663 226.678C37.7894 226.532 37.972 227.071 37.691 227.246L34.4459 229.226C33.2519 229.939 32.0578 230.682 30.8356 231.337C27.2814 233.39 23.6149 235.355 19.9202 237.16C17.3166 238.441 14.7083 239.63 12.0954 240.727C12.0954 248.841 12.1282 256.945 12.1937 265.04L15.2141 263.118C19.6533 260.284 24.1206 257.494 28.616 254.747C31.7206 252.855 34.8252 250.831 37.9861 248.924L39.6437 247.977C40.8519 247.293 42.06 246.638 43.2962 246.027L45.2208 245.124L45.7687 244.891C46.134 244.731 46.2745 245.299 46.0075 245.502C45.7406 245.706 45.4878 245.895 45.2349 246.056C44.0127 246.973 42.7624 247.832 41.47 248.647C40.6833 249.142 39.8966 249.637 39.0818 250.103L38.267 250.598C35.0079 252.534 31.6785 254.354 28.4334 256.29C23.9239 259.013 19.4004 261.721 14.905 264.458L12.0954 266.132C12.0954 267.195 12.0954 268.258 12.0954 269.32C12.6011 269.029 13.3176 268.665 14.1886 268.228C18.5013 266.117 26.6773 262.551 33.7857 259.493L36.9606 258.168C37.7754 257.819 38.548 257.484 39.2925 257.193C41.779 256.145 43.8722 255.286 45.2489 254.733L45.4737 254.645C46.1621 254.558 46.5554 255.548 46.0075 255.824Z" fill="#37474F"/>
<path d="M293.023 295.613C290.747 297.957 264.35 299.005 254.756 299.005C245.161 299.005 218.75 297.957 216.488 295.613C214.227 293.269 246.186 111.417 254.756 111.417C263.325 111.417 295.284 293.24 293.023 295.613Z" fill="#37474F"/>
<path d="M294.019 250.394C292.979 250.918 291.349 251.704 289.326 252.651L287.191 253.626L286.053 254.15L277.568 257.965L275.868 258.692C272.272 260.221 268.676 261.721 265.557 262.958C262.973 264.028 260.338 264.961 257.662 265.753C257.662 276.847 257.695 287.936 257.76 299.02C257.76 299.646 257.76 300.287 257.76 300.913H256.075C256.075 300.287 256.075 299.661 256.075 299.035C255.953 292.367 255.822 285.704 255.681 279.046C252.155 277.444 248.657 275.799 245.173 274.081L244.274 273.644L242.251 272.64C235.087 269.058 228.063 265.249 221.179 261.211C220.308 260.716 219.451 260.207 218.594 259.755C218.131 259.479 218.594 258.794 219.002 259.027L221.362 260.192C228.245 263.56 235.105 266.991 241.942 270.485C246.55 272.834 251.144 275.207 255.723 277.604C255.386 261.284 255.035 244.964 254.796 228.643L254.67 219.573C254.529 208.494 254.347 197.415 254.192 186.336C248.278 183.584 242.434 180.658 236.604 177.746L234.258 176.567C233.738 176.32 234.188 175.563 234.693 175.781L236.829 176.727C242.631 179.304 248.432 181.837 254.164 184.56V180.775C248.882 176.625 243.909 172.039 238.711 167.832C237.69 166.968 236.651 166.124 235.592 165.299C235.368 165.124 235.592 164.716 235.817 164.891L238.838 167.235C243.937 171.122 249.177 174.82 254.122 178.882C254.01 168.953 253.925 159.009 253.953 149.08C253.953 141.549 254.033 134.022 254.192 126.5C254.291 121.594 254.417 116.687 254.6 111.781C254.6 111.719 254.619 111.659 254.654 111.61C254.69 111.56 254.739 111.523 254.796 111.505C254.827 111.49 254.861 111.483 254.895 111.483C254.929 111.483 254.962 111.49 254.993 111.505C255.05 111.523 255.099 111.56 255.135 111.61C255.17 111.659 255.189 111.719 255.19 111.781C255.471 116.425 255.695 121.055 255.892 125.699C256.229 133.081 256.454 140.476 256.651 147.887C259.685 146.431 262.677 145.062 265.698 143.665C268.367 142.442 271.036 141.233 273.761 140.141C274.169 139.981 274.435 140.666 274.056 140.855C271.387 142.311 268.69 143.577 265.979 144.888C262.874 146.343 259.755 147.901 256.693 149.503V151.148C257.227 173.932 257.269 196.76 257.508 219.573C257.508 221.515 257.508 223.456 257.508 225.397C257.508 228.003 257.508 230.609 257.508 233.215C262.476 230.131 267.592 227.308 272.834 224.756C275.644 223.3 278.453 222.048 281.263 220.811C282.274 220.345 283.286 219.908 284.297 219.471L284.733 219.282C285.084 219.122 285.281 219.704 284.986 219.894L284.283 220.316C283.356 220.898 282.429 221.451 281.474 222.019C278.467 223.825 275.377 225.601 272.23 227.275C267.369 229.896 262.396 232.327 257.437 234.394C257.493 243.129 257.526 251.864 257.536 260.6C260.682 258.576 263.829 256.581 267.004 254.602C267.173 254.485 267.341 254.369 267.524 254.267L268.437 253.699C270.685 252.243 272.946 250.904 275.208 249.521C278.144 247.73 281.066 245.852 284.044 244.032L285.267 243.304L286.109 242.809C287.88 241.804 289.664 240.829 291.49 239.897C292.206 239.548 292.895 239.213 293.667 238.893C294.061 238.718 294.215 239.329 293.934 239.548C293.049 240.218 292.15 240.873 291.223 241.484C289.551 242.634 287.823 243.726 286.081 244.76L285.59 245.051L284.03 245.968C281.038 247.715 278.004 249.404 275.068 251.166L269.87 254.296L266.695 256.218L257.55 261.764C257.55 262.9 257.55 264.036 257.55 265.186C258.954 264.341 262.045 262.914 265.768 261.24C268.198 260.134 270.923 258.94 273.719 257.732L275.405 256.989L283.946 253.349L285.969 252.505L286.798 252.156L289.523 251.02C291.139 250.35 292.487 249.812 293.457 249.433C294.187 249.026 294.566 250.088 294.019 250.394Z" fill="#455A64"/>
<path d="M81.7834 300.869H17.6538C15.7011 300.942 13.8889 300.985 12.3015 301H8.95803C8.95803 301 8.95803 300.898 8.95803 300.84C9.37947 298.015 9.85711 294.9 10.3628 291.537C10.3628 291.377 10.3628 291.231 10.3628 291.071C10.7421 288.712 11.1355 286.252 11.571 283.675L11.7395 282.583C11.866 281.899 11.9784 281.215 12.0908 280.516C12.6808 277.007 13.2989 273.324 13.9592 269.524C14.0294 269.146 14.0996 268.753 14.1558 268.374C14.3806 267.137 14.5913 265.87 14.8161 264.603L15.0689 263.22C16.4738 254.936 18.1033 246.172 19.7751 237.262L20.1965 234.962C20.6648 232.477 21.1331 229.983 21.6013 227.479C22.4302 223.111 23.2731 218.744 24.13 214.449C24.2002 214.041 24.2845 213.634 24.3688 213.24C25.2398 208.873 26.1108 204.505 26.9958 200.138L27.2065 199.119C27.4313 198.027 27.6561 196.935 27.8668 195.857C28.2742 193.965 28.6675 192.087 29.0468 190.238C29.1024 190.037 29.1446 189.833 29.1733 189.626C29.4964 188.17 29.8054 186.715 30.1145 185.259C30.4938 183.497 30.8731 181.75 31.2524 180.047C37.0121 153.841 42.2942 134.376 45.1319 133.94H45.3426C47.5622 134.333 51.2709 146.314 55.5416 163.989L56.0473 166.114C56.0473 166.201 56.0473 166.289 56.0473 166.376C56.1316 166.697 56.2018 167.017 56.2861 167.337C57.6909 173.35 59.166 179.93 60.6551 186.889C62.3549 194.824 64.0828 203.253 65.7826 211.843C65.7826 212.149 65.9091 212.469 65.9653 212.775L66.176 213.808C66.176 214.158 66.3024 214.507 66.3727 214.856C67.2296 219.224 68.0865 223.592 68.9154 227.959C69.8847 233.04 70.84 238.15 71.725 243.115C71.8093 243.522 71.8795 243.93 71.9498 244.338C72.8067 248.967 73.6215 253.524 74.4222 257.965L74.7172 259.697C75.0825 261.677 75.4196 263.628 75.7568 265.521C75.8692 266.132 75.9675 266.729 76.0659 267.326C76.4873 269.743 76.8947 272.116 77.288 274.416C77.3864 274.969 77.4707 275.508 77.569 276.046L78.0747 279.046L78.2433 280.079C78.4119 281.04 78.5664 281.986 78.721 282.991C78.721 283.297 78.8193 283.602 78.8755 283.908C79.5077 287.752 80.0836 291.362 80.6034 294.696C81.1934 296.88 81.5025 298.947 81.7834 300.869Z" fill="#37474F"/>
<path d="M84.6154 272.858L82.6627 273.819L80.8927 274.663L77.788 276.119L75.3999 277.226L74.4165 277.662L70.7921 279.279L69.2327 279.963C65.7628 281.419 62.2087 283.006 58.8933 284.33C55.4355 285.813 51.9045 287.106 48.3151 288.203C48.3151 292.425 48.3151 296.647 48.3151 300.869H44.9436L41.1084 299.064C37.0626 297.123 33.0495 295.147 29.0692 293.138C24.3865 290.712 19.7038 288.184 15.0211 285.553C14.0799 285.029 13.1246 284.491 12.2115 283.923C12.0278 283.832 11.8495 283.73 11.6777 283.617L10.2728 282.816L9.0366 282.103C8.97189 282.066 8.91884 282.011 8.88392 281.944C8.84899 281.877 8.8337 281.8 8.83993 281.724C8.84683 281.653 8.87026 281.584 8.90822 281.523C8.94619 281.463 8.9976 281.412 9.05815 281.377C9.11869 281.341 9.18661 281.321 9.25619 281.318C9.32577 281.315 9.39499 281.33 9.45805 281.36L11.8041 282.525C11.932 282.568 12.0546 282.627 12.1693 282.7C13.3915 283.282 14.6137 283.894 15.8218 284.505C20.3641 286.737 24.8922 289.004 29.4064 291.304C34.0891 293.672 38.7718 296.099 43.4545 298.583L46.1658 300.039C45.8707 285.48 45.5617 270.805 45.3229 256.189C45.3229 255.766 45.3229 255.344 45.3229 254.922L45.1964 246.187C45.1964 245.881 45.1964 245.561 45.1964 245.255C45.1964 244.644 45.1964 244.017 45.1964 243.406C45.1964 242.94 45.1964 242.46 45.1964 241.95C45.1964 240.494 45.1964 239.038 45.1964 237.583L45.07 228.498C45.07 226.664 45.07 224.829 45.07 223.009C45.07 222.791 45.07 222.587 45.07 222.383C45.0044 217.802 44.9389 213.226 44.8733 208.655C39.6053 206.223 34.4215 203.632 29.2237 201.04L27.2991 200.079L24.925 198.9C24.4052 198.638 24.925 197.881 25.3746 198.114L27.5099 199.06L28.9147 199.701C34.2389 202.045 39.5491 204.389 44.8031 206.878V203.093C39.521 198.958 34.5339 194.431 29.3502 190.165L26.6248 187.952L26.2877 187.675C26.0629 187.501 26.2877 187.108 26.4843 187.253L29.4907 189.568C34.5901 193.455 39.8301 197.168 44.789 201.215C44.6767 192.402 44.6158 183.594 44.6064 174.791C44.6064 173.554 44.6064 172.331 44.6064 171.079C44.6064 158.747 44.8031 146.431 45.2386 134.114C45.2432 134.052 45.2639 133.992 45.2985 133.941C45.3331 133.89 45.3803 133.849 45.4352 133.823H45.646C45.7009 133.849 45.7481 133.89 45.7827 133.941C45.8173 133.992 45.838 134.052 45.8427 134.114C46.531 145.834 46.9665 157.568 47.2475 169.317C47.2475 169.608 47.2475 169.914 47.2475 170.205C50.2819 168.749 53.2741 167.395 56.2944 165.998L57.4885 165.459C59.7503 164.425 62.0261 163.421 64.344 162.547C64.7373 162.373 65.0043 163.057 64.625 163.261C61.9699 164.717 59.2726 165.983 56.5754 167.293L51.7709 169.623C50.2678 170.365 48.7787 171.079 47.2896 171.894C47.2896 172.214 47.2896 172.52 47.2896 172.84C47.6549 188.287 47.7953 203.734 47.9218 219.18V224.203L48.0482 238.864V239.606C48.0482 240.378 48.0482 241.149 48.0482 241.921C48.0482 246.449 48.0482 250.991 48.1465 255.519C53.7825 252.034 59.5977 248.87 65.5662 246.041C67.6828 245.071 69.7993 244.1 71.9159 243.129L75.3999 241.601C75.7511 241.455 75.9477 242.023 75.6527 242.212L72.1407 244.352C69.8508 245.735 67.5048 247.075 65.1166 248.385C59.5937 251.484 53.9096 254.264 48.0903 256.713C48.1465 265.448 48.184 274.183 48.2027 282.918C51.9676 280.516 55.7325 278.114 59.5255 275.755L60.3122 275.26L60.6634 275.042C62.1665 274.11 63.6697 273.178 65.1869 272.261L65.8752 271.839L66.1983 271.635C69.4294 269.67 72.6464 267.588 75.9337 265.637C77.5633 264.676 79.2209 263.744 80.9067 262.885C81.5389 262.565 82.1851 262.245 82.8313 261.954L84.3204 261.284C84.7138 261.109 84.8683 261.721 84.5873 261.939C84.0113 262.376 83.4213 262.813 82.8173 263.22C82.2132 263.628 81.5389 264.123 80.8927 264.531C79.3755 265.564 77.8161 266.511 76.2427 267.442C73.4331 269.16 70.4268 270.791 67.561 272.48L66.5636 273.062L65.7347 273.557L62.2087 275.683L60.9724 276.425C60.6493 276.614 60.3262 276.804 60.0172 277.007L48.2027 284.141C48.2027 285.291 48.2027 286.427 48.2027 287.562C50.029 286.529 54.1872 284.651 59.104 282.409L66.971 278.973L73.6579 276.119L77.5773 274.474L80.977 273.018L82.7611 272.29L84.2361 271.693C84.798 271.504 85.2335 272.567 84.6154 272.858Z" fill="#455A64"/>
<path d="M203.65 295.613C201.388 297.957 174.978 299.064 165.327 299.064C155.676 299.064 129.322 298.015 127.06 295.672C124.798 293.328 156.814 111.417 165.327 111.417C173.84 111.417 205.912 293.24 203.65 295.613Z" fill="#37474F"/>
<path d="M204.652 250.394C203.247 251.107 200.817 252.258 197.81 253.626C193.793 255.461 188.763 257.688 183.945 259.741L182.091 260.512C181.739 260.658 181.388 260.818 181.037 260.949C176.696 262.754 172.721 264.312 170.079 265.186L168.309 265.71C168.309 276.803 168.342 287.892 168.408 298.976C168.408 299.602 168.408 300.243 168.408 300.869H166.722C166.722 300.243 166.722 299.617 166.722 298.991C166.6 292.323 166.469 285.66 166.329 279.002C154.542 273.659 142.967 267.704 131.756 261.168C130.885 260.673 130.028 260.163 129.171 259.712C128.708 259.435 129.171 258.751 129.579 258.984L131.939 260.148C143.458 265.797 154.912 271.621 166.301 277.619C166.104 268.097 165.893 258.562 165.725 249.04C165.565 241.276 165.434 233.54 165.331 225.834C165.331 224.276 165.331 222.733 165.331 221.175C165.331 220.651 165.331 220.127 165.331 219.603C165.275 214.944 165.209 210.285 165.135 205.626C165.135 205.16 165.135 204.695 165.135 204.17C165.064 198.769 164.98 193.382 164.91 187.996C164.91 187.428 164.91 186.86 164.91 186.292C162.1 184.982 159.291 183.633 156.481 182.245C153.418 180.789 150.37 179.217 147.322 177.703L144.976 176.524C144.456 176.276 144.905 175.519 145.411 175.737L149.752 177.674C154.823 179.901 159.881 182.143 164.882 184.516V180.731C159.6 176.582 154.627 171.996 149.429 167.788C148.399 166.925 147.359 166.08 146.31 165.255C146.085 165.08 146.31 164.673 146.549 164.848L149.555 167.177C154.669 171.064 159.895 174.777 164.84 178.824C164.765 173.583 164.718 168.342 164.699 163.1C164.699 161.645 164.699 160.189 164.699 158.733C164.699 143.068 164.699 127.403 165.331 111.752C165.335 111.691 165.356 111.633 165.391 111.584C165.426 111.535 165.473 111.498 165.528 111.476C165.559 111.461 165.592 111.454 165.626 111.454C165.66 111.454 165.694 111.461 165.725 111.476C165.779 111.498 165.827 111.535 165.862 111.584C165.897 111.633 165.917 111.691 165.921 111.752C166.638 123.778 167.073 135.803 167.326 147.858C170.36 146.402 173.353 145.033 176.373 143.636C179.042 142.413 181.711 141.204 184.437 140.112C184.844 139.952 185.111 140.636 184.732 140.826C182.063 142.282 179.365 143.548 176.654 144.859C173.549 146.314 170.431 147.872 167.368 149.474C167.453 152.909 167.523 156.331 167.593 159.767C167.593 161.222 167.593 162.809 167.663 164.323C167.804 172.903 167.907 181.483 167.972 190.063L168.057 200.254C168.057 200.822 168.057 201.375 168.057 201.928C168.057 207.752 168.155 213.648 168.225 219.501C168.225 220.432 168.225 221.35 168.225 222.281C168.225 222.645 168.225 223.009 168.225 223.388C168.225 226.61 168.225 229.837 168.225 233.069C170.515 231.613 172.875 230.245 175.249 228.935C179.464 226.605 183.762 224.436 188.089 222.442C189.396 221.83 190.716 221.233 192.023 220.665C193.329 220.098 194.341 219.632 195.493 219.137C195.844 218.977 196.054 219.559 195.745 219.748C194.593 220.462 193.427 221.204 192.233 221.874C190.744 222.776 189.213 223.664 187.682 224.538C184.184 226.547 180.658 228.469 176.991 230.23C174.083 231.686 171.147 233.026 168.211 234.249C168.267 242.314 168.3 250.389 168.309 258.474V260.396L175.109 256.072C175.474 255.824 175.853 255.592 176.233 255.373C178.396 253.917 180.573 252.636 182.765 251.282L185.982 249.317C189.002 247.482 192.023 245.532 195.085 243.668L196.04 243.1L197.066 242.503C199.451 241.112 201.909 239.858 204.427 238.747C204.82 238.573 204.975 239.184 204.694 239.402C202.812 240.858 200.831 242.154 198.808 243.406C198.443 243.639 198.091 243.872 197.726 244.076C197.361 244.28 197.15 244.44 196.855 244.6C196.693 244.712 196.524 244.815 196.349 244.906C192.851 246.987 189.325 248.938 185.827 251.02L182.442 253.058L177.511 255.97L176.204 256.771L168.309 261.575C168.309 262.711 168.309 263.846 168.309 264.996C168.703 264.763 169.223 264.501 169.827 264.196C172.187 263.002 175.98 261.284 180.25 259.377L182.091 258.576C187.331 256.276 193.048 253.845 197.544 251.966C200.353 250.787 202.741 249.826 204.202 249.244C204.792 249.026 205.214 250.088 204.652 250.394Z" fill="#455A64"/>
<path d="M312.435 300.869H259.446C259.516 300.286 259.6 299.646 259.684 298.947C260.387 293.706 261.651 285.611 263.267 276.017C263.267 275.639 263.407 275.246 263.463 274.853C263.744 273.237 264.025 271.591 264.32 269.903C264.32 269.495 264.475 269.073 264.545 268.651C264.868 266.772 265.205 264.851 265.556 262.914C265.669 262.303 265.767 261.692 265.88 261.08C266.175 259.42 266.484 257.746 266.793 256.057C266.891 255.504 267.003 254.936 267.102 254.383C267.102 254.194 267.172 254.005 267.214 253.815C267.256 253.626 267.312 253.248 267.369 252.956C268.928 244.425 270.628 235.602 272.328 227.115C272.496 226.27 272.665 225.426 272.847 224.596C274.505 216.385 276.191 208.582 277.778 201.695C277.919 201.113 278.045 200.531 278.186 199.963C278.256 199.672 278.312 199.395 278.382 199.119C278.579 198.26 278.79 197.415 278.986 196.6C281.796 184.778 284.367 176.858 285.87 176.625C285.916 176.611 285.965 176.611 286.011 176.625C286.755 176.727 287.738 178.707 288.82 182.1C290.955 188.389 293.667 199.57 296.504 212.673L297.094 215.497C297.094 215.643 297.094 215.788 297.193 215.934C297.628 217.972 298.05 220.039 298.485 222.15C298.485 222.383 298.584 222.631 298.64 222.864C302.067 239.723 305.523 258.358 308.15 273.659L308.614 275.77C308.895 277.4 309.162 278.987 309.429 280.516C309.429 280.778 309.429 281.025 309.541 281.273C310.876 289.353 311.887 296.021 312.351 300.272L312.435 300.869Z" fill="#455A64"/>
<path d="M311.275 280.225L309.477 281.273C304.017 284.466 298.449 287.451 292.774 290.227C290.301 291.43 287.815 292.6 285.314 293.735C285.314 294.973 285.314 296.196 285.244 297.433C285.244 297.637 285.244 297.841 285.244 298.045C285.244 298.991 285.244 299.923 285.244 300.869H283.923C283.923 299.792 283.923 298.729 283.923 297.651V284.505C280.51 283.632 269.875 279.075 263.273 276.061C261.179 275.086 259.48 274.285 258.51 273.79C258.103 273.586 258.384 272.829 258.833 273.004L263.469 274.896C270.283 277.808 281.086 282.409 283.923 284.01V281.593C279.863 279.118 275.761 276.658 271.687 274.198C269.285 272.742 266.771 271.373 264.326 269.917C262.314 268.752 260.367 267.469 258.496 266.074C258.299 265.914 258.412 265.491 258.693 265.608C260.704 266.501 262.661 267.522 264.551 268.665C266.925 270.121 269.257 271.577 271.575 273.033C275.719 275.551 279.821 278.143 283.923 280.778C283.923 274.673 283.947 268.578 283.993 262.492C281.268 261.357 278.543 260.076 275.86 258.693C275.171 258.343 274.455 257.979 273.823 257.615C272.151 256.727 270.493 255.795 268.878 254.834C268.456 254.602 268.035 254.354 267.613 254.092L267.206 253.859L264.748 252.403C264.537 252.272 264.748 251.879 264.916 251.981L267.361 253.044L268.527 253.568L269.931 254.223C271.786 255.067 273.64 255.97 275.48 256.916C276.169 257.266 276.885 257.63 277.531 258.008C279.737 259.173 281.9 260.425 283.965 261.721V255.14C283.965 254.514 283.965 253.903 283.965 253.277C283.965 252.927 283.965 252.578 283.965 252.228C283.965 250.117 283.965 248.006 283.965 245.895C283.965 245.226 283.965 244.556 283.965 243.901C283.965 241.455 283.965 239.024 284.036 236.622C284.036 231.177 284.12 225.732 284.19 220.287C284.19 220.01 284.19 219.734 284.19 219.442C284.26 214.07 284.345 208.698 284.485 203.326C282.35 202.205 280.172 201.157 277.995 200.094L277.18 199.686L276.815 199.526C275.312 198.784 273.823 198.07 272.348 197.27C272.095 197.139 272.277 196.658 272.558 196.775C274.047 197.386 275.522 198.027 276.983 198.696L277.307 198.842L278.192 199.25C280.299 200.225 282.406 201.215 284.513 202.161C284.64 197.342 284.794 192.523 285.005 187.705C285.145 184.104 285.323 180.517 285.539 176.946C285.541 176.901 285.555 176.859 285.58 176.823C285.605 176.786 285.64 176.758 285.679 176.742C285.725 176.727 285.774 176.727 285.82 176.742C285.859 176.757 285.893 176.786 285.915 176.822C285.938 176.859 285.949 176.902 285.946 176.946C286.059 179.945 286.143 182.929 286.213 185.928C286.494 198.565 286.438 211.202 286.283 223.781C289.318 221.262 292.507 218.962 295.653 216.603C296.089 216.269 296.538 215.948 296.974 215.599C297.676 215.075 298.379 214.536 299.067 213.983C299.236 213.852 299.39 214.143 299.236 214.274C298.505 214.842 297.831 215.439 297.072 216.036L295.513 217.331C292.436 219.923 289.43 222.602 286.269 225.077V227.726C288.924 226.46 291.608 225.251 294.305 224.058L298.407 222.252L299.882 221.597C300.233 221.437 300.556 221.961 300.191 222.15L298.561 222.966L294.094 225.179C291.495 226.474 288.896 227.741 286.255 228.964C286.185 233.521 286.115 238.092 286.059 242.649C286.059 243.319 286.059 243.988 286.059 244.658V247.57C286.059 249.113 286.059 250.656 286.059 252.199V252.403C286.059 253 286.059 253.612 286.059 254.208L285.932 262.594C285.932 262.915 285.932 263.249 285.932 263.57C285.876 267.268 285.81 270.965 285.735 274.663C285.623 280.691 285.501 286.723 285.37 292.76L292.661 288.975C298.224 286.121 303.806 283.321 309.407 280.574L311.036 279.773C311.317 279.555 311.598 280.035 311.275 280.225Z" fill="#37474F"/>
<path d="M109.37 300.869H56.3945C56.8441 297.171 57.701 291.406 58.8389 284.33C58.9513 283.69 59.0496 283.02 59.162 282.35C59.457 280.618 59.752 278.813 60.0611 276.949C60.0611 276.629 60.1735 276.323 60.2156 276.003C60.2578 275.682 60.314 275.464 60.3561 275.202C60.3628 275.091 60.3628 274.979 60.3561 274.867C60.6371 273.251 60.918 271.606 61.213 269.917C61.2833 269.495 61.3676 269.073 61.4378 268.651C62.2667 263.905 63.1657 258.911 64.107 253.815C64.107 253.524 64.2053 253.248 64.2615 252.956C64.5284 251.501 64.8234 249.914 65.1044 248.385C65.2449 247.599 65.3994 246.827 65.5399 246.041C66.6777 240.014 67.8578 233.914 69.0519 227.974C71.0889 217.783 73.1539 208.13 75.0785 199.963L75.2471 199.206C75.2517 199.172 75.2517 199.138 75.2471 199.104C75.7669 196.935 76.2586 194.897 76.7503 192.975C79.2368 183.191 81.3721 176.844 82.7066 176.64C82.7572 176.626 82.8106 176.626 82.8612 176.64C83.2405 176.64 83.69 177.266 84.1817 178.256C84.729 179.37 85.1985 180.523 85.5865 181.706C87.9044 188.36 90.9107 200.924 94.0154 215.57L94.0997 215.992C94.5351 218.03 94.9706 220.098 95.3921 222.209C95.3921 222.441 95.5045 222.689 95.5466 222.936C99.5363 242.387 103.512 264.239 106.209 280.545L106.336 281.302C107.825 289.746 108.864 296.661 109.37 300.869Z" fill="#455A64"/>
<path d="M108.236 280.225L106.424 281.288C98.5778 285.857 90.5133 290.011 82.2614 293.735C82.2614 296.108 82.1631 298.496 82.1209 300.869H80.8145C80.8145 298.816 80.8145 296.749 80.8145 294.696C80.8145 291.289 80.8145 287.868 80.8145 284.505C80.3509 284.389 79.7609 284.199 79.0585 283.952C76.6281 283.122 72.9194 281.623 69.1405 279.992L66.9771 278.973C64.898 278.07 62.875 277.182 61.0909 276.367L60.2902 276.003L59.644 275.697C57.8458 274.882 56.3848 274.241 55.5279 273.746C55.1064 273.542 55.4015 272.785 55.8369 272.96C56.8625 273.368 58.5061 274.037 60.4869 274.867L60.7819 274.984L62.3272 275.624L68.5786 278.289L70.8122 279.264C74.0011 280.72 76.9934 282.016 79.0163 282.991C79.8171 283.384 80.4211 283.704 80.9268 283.966C80.9268 283.18 80.9268 282.38 80.9268 281.579L78.5246 280.123C77.1198 279.279 75.7993 278.463 74.4226 277.633L72.6244 276.542L68.6769 274.168C68.0167 273.761 67.3423 273.368 66.668 272.989L65.2632 272.189C63.9427 271.431 62.6081 270.733 61.3017 269.903C59.2878 268.735 57.3412 267.447 55.4717 266.045C55.275 265.885 55.3874 265.462 55.6543 265.579C57.6704 266.472 59.6315 267.493 61.5264 268.636C63.1279 269.583 64.7013 270.573 66.2747 271.548L67.6795 272.392L68.5926 272.96C70.2924 273.994 71.9782 275.027 73.664 276.09L75.406 277.226C76.4034 277.852 77.3867 278.478 78.3561 279.118L80.9268 280.749C80.9268 278.725 80.9268 276.716 80.9268 274.693C80.9268 274.154 80.9268 273.63 80.9268 273.091C80.9268 270.179 80.9268 267.355 80.9268 264.487C80.9268 263.934 80.9268 263.395 80.9268 262.842V262.463C78.9226 261.629 76.9185 260.716 74.9143 259.726C71.2337 257.921 67.6233 255.912 64.1394 253.83L61.6809 252.374C61.4702 252.243 61.6107 251.85 61.8495 251.952L64.2939 253.015C67.7497 254.543 71.2337 256.218 74.6193 258.038C76.7827 259.202 78.8337 260.411 80.9268 261.692C80.9268 258.532 80.9268 255.359 80.9971 252.199C81.1657 235.879 81.1938 219.559 81.6012 203.253C79.4518 202.132 77.2743 201.084 75.1109 200.021L74.8862 199.905L73.3971 199.191C72.0766 198.536 70.7701 197.881 69.4636 197.197C69.1967 197.066 69.3793 196.585 69.6603 196.702C71.0651 197.27 72.4699 197.867 73.8045 198.478L75.3076 199.148C77.4148 200.123 79.522 201.113 81.6012 202.059C81.7136 197.294 81.8728 192.543 82.0788 187.807C82.0788 186.016 82.2193 184.24 82.3176 182.464C82.4019 180.6 82.5003 178.722 82.6126 176.858C82.6149 176.814 82.6293 176.771 82.6542 176.735C82.6791 176.699 82.7134 176.671 82.7531 176.655C82.8037 176.64 82.857 176.64 82.9076 176.655C82.947 176.67 82.9805 176.698 83.0033 176.735C83.026 176.772 83.0368 176.815 83.0341 176.858C83.0341 178.14 83.1184 179.421 83.1464 180.702C83.1464 182.391 83.2588 184.08 83.2869 185.768C83.5679 198.42 83.5117 211.086 83.2869 223.752C86.7568 220.84 90.4093 218.292 93.9775 215.584L96.0848 213.954C96.2533 213.823 96.4079 214.114 96.2393 214.245C95.5088 214.827 94.8345 215.41 94.0618 216.007C90.4515 218.991 86.9676 222.165 83.2729 225.048C83.2729 225.936 83.2729 226.809 83.2729 227.697C87.2766 225.79 91.3365 224.014 95.3824 222.223L96.8855 221.568C97.2367 221.408 97.5458 221.932 97.1946 222.121L95.5369 222.951C91.4629 224.975 87.389 227.028 83.2588 228.935C83.1465 236.68 83.02 244.425 82.9217 252.229C82.9217 255.475 82.8374 258.736 82.7812 261.983C82.7812 262.405 82.7812 262.827 82.7812 263.25L82.6126 272.436C82.6126 272.931 82.6126 273.426 82.6126 273.892C82.5003 280.181 82.3598 286.471 82.2333 292.818C90.1846 288.635 98.1873 284.578 106.242 280.647L107.885 279.832C108.279 279.555 108.559 280.036 108.236 280.225Z" fill="#37474F"/>
<path d="M124.99 183.41C160.785 221.495 207.284 256.552 225.42 252.956C252.041 247.686 314.246 141.583 317.013 138.293C323.827 130.096 263.167 99.2027 255.525 107.719C243.893 120.56 212.903 177.15 207.761 178.023C202.353 178.911 170.646 165.343 135.568 151.818C106.166 140.375 103.019 160.014 124.99 183.41Z" fill="#D3766A"/>
<path d="M323.846 120.749C320.544 135.89 302.099 164.12 295.131 169.157C288.163 174.194 240.807 143.286 239.964 134.304C239.122 125.321 254.012 75.2245 266.01 65.3392C278.007 55.4539 327.273 105.07 323.846 120.749Z" fill="#D3766A"/>
<path d="M256.861 85.5612C261.947 91.8796 272.005 102.464 272.637 101.794C272.216 102.522 264.995 115.144 271.317 121.579C277.877 128.276 285.028 117.212 285.477 116.542C285.281 117.357 282.85 128.189 288.722 131.872C298.781 138.336 305.805 111.024 314.234 106.38C314.234 106.38 323.463 120.4 323.815 120.749C323.815 120.749 330.951 94.9078 324.278 83.3774C323.328 81.6855 321.851 80.3798 320.088 79.6758C318.326 78.9717 316.385 78.9114 314.585 79.5048C314.585 79.5048 317.788 71.4393 312.97 66.1982C310.483 63.5194 304.147 65.2373 304.147 65.2373C304.147 65.2373 319.165 20.9936 306.704 18.8826C294.243 16.7716 281.67 65.2955 281.67 65.2955C281.67 65.2955 291.125 16.6842 278.664 14.7334C265.515 12.666 254.319 82.4019 256.861 85.5612Z" fill="#D3766A"/>
<path d="M304.289 65.0334C304.43 64.9315 304.289 64.6986 304.107 64.7859C290.958 71.9488 277.71 85.4155 272.091 101.809C271.894 102.376 272.26 103.075 272.527 102.449C277.092 91.8505 293.163 73.4047 304.289 65.0334Z" fill="#263238"/>
<path d="M285.449 117.838C291.546 102.347 301.815 90.4237 314.051 79.7668C314.219 79.6212 314.051 79.4028 313.854 79.4901C306.479 83.0133 299.356 90.6421 294.299 97.077C289.502 102.961 286.272 110.043 284.929 117.619C284.873 117.91 285.322 118.172 285.449 117.838Z" fill="#263238"/>
<path d="M314.234 106.38C312.469 107.821 310.994 109.606 309.892 111.636C308.684 113.572 307.546 115.596 306.422 117.634C304.232 121.784 301.679 125.717 298.794 129.383C297.266 131.413 295.194 132.933 292.838 133.75C291.513 134.039 290.136 133.924 288.872 133.421C287.608 132.917 286.512 132.045 285.715 130.911C284.31 128.762 283.552 126.228 283.538 123.632C283.538 122.904 283.538 122.176 283.538 121.434C282.435 122.658 281.15 123.69 279.731 124.491C278.131 125.421 276.265 125.736 274.463 125.379C272.71 124.969 271.115 124.026 269.883 122.671C268.751 121.351 267.912 119.789 267.427 118.096C266.941 116.403 266.82 114.62 267.073 112.873C267.987 105.084 274.266 96.349 274.266 96.349L274.336 98.8094C271.923 103.217 270.3 108.041 269.546 113.048C269.363 114.425 269.466 115.826 269.846 117.159C270.226 118.492 270.876 119.726 271.751 120.778C272.572 121.75 273.689 122.4 274.917 122.62C276.144 122.84 277.407 122.616 278.495 121.987C280.898 120.522 282.908 118.455 284.339 115.974L288.483 109.233L286.699 116.964C286.202 119.119 285.97 121.33 286.01 123.545C285.967 125.64 286.524 127.702 287.612 129.47C288.134 130.246 288.856 130.857 289.694 131.232C290.533 131.607 291.456 131.733 292.36 131.596C294.332 130.967 296.091 129.771 297.431 128.145C300.378 124.678 303.059 120.978 305.453 117.081C306.731 115.159 307.996 113.208 309.386 111.33C310.642 109.34 312.296 107.653 314.234 106.38Z" fill="#263238"/>
<path d="M241.063 125.306C241.063 125.306 229.557 60.5348 256.178 68.28C264.088 70.5803 293.94 89.8122 290.329 96.1016C285.665 104.225 271.758 98.6057 263.568 93.6412C263.568 93.6412 270.479 115.101 257.499 124.535C249.365 130.46 241.063 125.306 241.063 125.306Z" fill="#D3766A"/>
<path d="M253.939 67.785C257.145 68.3059 260.259 69.3115 263.183 70.7696C266.145 72.1407 269.013 73.7216 271.766 75.5011C277.35 78.9644 282.629 82.9299 287.542 87.3518C288.848 88.5313 289.984 89.8992 290.914 91.4137C291.451 92.2956 291.791 93.2902 291.911 94.3254C292.008 94.879 292.008 95.4461 291.911 95.9997C291.788 96.5478 291.584 97.073 291.307 97.5574C290.275 99.2691 288.693 100.548 286.84 101.168C285.134 101.701 283.351 101.918 281.572 101.809C278.211 101.556 274.918 100.704 271.837 99.2899C268.81 97.9743 265.88 96.4319 263.07 94.6748L264.7 93.219C265.392 95.6973 265.862 98.2364 266.105 100.804C266.358 103.355 266.358 105.926 266.105 108.476C265.838 111.024 265.209 113.516 264.237 115.872C263.284 118.21 261.906 120.336 260.177 122.132C261.634 120.158 262.76 117.943 263.506 115.581C264.217 113.221 264.614 110.772 264.686 108.302C264.79 105.867 264.649 103.427 264.265 101.022C263.908 98.6231 263.334 96.2639 262.551 93.976L261.567 91.1516L264.18 92.6075C266.938 94.1995 269.796 95.5955 272.736 96.7858C275.576 98.0112 278.588 98.7536 281.656 98.9842C284.55 99.1152 287.711 98.3436 288.947 96.0725C290.211 94.209 287.978 91.37 285.814 89.2153C283.504 86.9637 281.085 84.8354 278.566 82.8387C276.051 80.8004 273.508 78.7768 270.881 76.8987C265.543 73.4047 260.148 69.5903 253.939 67.785Z" fill="#263238"/>
<path d="M165.45 225.863L203.24 173.743C203.24 173.743 160.084 154.962 130.878 148.891C101.377 142.747 92.2314 151.148 119.4 181.444C147.047 212.381 165.45 225.863 165.45 225.863Z" fill="#2E73B8"/>
<path d="M158.187 213.444C159.03 211.988 160.084 210.751 160.997 209.426L163.975 205.35C165.989 202.603 168.035 199.876 170.114 197.168C174.244 191.767 178.36 186.336 182.589 180.993C183.755 179.537 184.921 178.081 186.115 176.626C187.309 175.17 188.742 173.714 189.992 172.258C190.063 172.156 190.189 172.258 190.119 172.389C189.135 173.757 188.264 175.213 187.309 176.596C186.354 177.979 185.286 179.406 184.247 180.789C182.196 183.507 180.131 186.215 178.051 188.913C173.935 194.212 169.833 199.526 165.619 204.724L162.079 209.091C160.842 210.547 159.662 212.236 158.3 213.619C158.286 213.619 158.131 213.546 158.187 213.444Z" fill="#263238"/>
<path d="M183.58 200.778L165.458 225.848C165.458 225.848 147.041 212.382 119.338 181.444C102.481 162.635 99.5868 152.327 106.864 148.586L183.58 200.778Z" fill="black"/>
<path d="M179.27 300.869H27.4516C27.4516 300.723 27.4516 300.563 27.5499 300.418C28.0369 298.049 28.5474 295.623 29.0812 293.138C29.2076 292.527 29.3481 291.915 29.4745 291.304C31.652 281.244 34.0683 270.616 36.5969 260.163L37.0605 258.27C37.4679 256.596 37.8894 254.922 38.2967 253.248L38.5356 252.345C38.7182 251.632 38.9008 250.889 39.0694 250.205C39.238 249.521 39.4487 248.749 39.6173 248.065C40.6287 244.163 41.6542 240.32 42.6798 236.578C43.4384 233.841 44.2016 231.162 44.9696 228.542C45.4472 226.896 45.9389 225.266 46.3744 223.679C46.3744 223.519 46.4727 223.359 46.5289 223.199C46.9504 221.845 47.3578 220.505 47.7792 219.195C49.9848 212.28 52.2044 206.092 54.3818 201.04C56.5593 195.989 58.7508 191.111 60.7878 186.846C69.3009 168.968 76.0581 158.951 81.4806 153.084C82.3376 152.152 83.1524 151.337 83.9391 150.595C86.252 148.372 88.8937 146.549 91.7638 145.193C92.7332 144.727 93.6463 144.364 94.4752 144.014C98.6388 142.514 103.006 141.708 107.413 141.627C114.437 141.292 121.181 142.107 123.527 143.082C124.636 143.577 126.336 145.485 128.486 148.353L129.371 149.605C129.89 150.362 130.438 151.177 130.986 152.021L131.099 152.167C135.264 158.712 138.991 165.547 142.253 172.622C143.658 175.708 145.062 178.838 146.158 181.881C146.917 183.89 147.563 185.856 148.181 187.705C150.204 194.285 152.747 202.977 155.556 212.818C156.146 214.886 156.75 217.011 157.354 219.18C159.981 228.498 162.777 238.602 165.559 248.764L168.143 258.299C168.284 258.853 168.438 259.406 168.579 259.945L168.874 261.007C169.141 262.026 169.408 263.046 169.689 264.065L169.942 265.026C172.189 273.411 174.325 281.579 176.249 289.091C177.078 292.367 177.879 295.511 178.623 298.496C178.918 299.413 179.101 300.141 179.27 300.869Z" fill="#2E73B8"/>
<path d="M128.906 148.92H85.961C86.7886 148.245 87.6515 147.618 88.5459 147.042H127.501C127.853 147.479 128.204 147.945 128.569 148.498L128.906 148.92Z" fill="black"/>
<path d="M134.488 157.685H77.7058C78.2115 157.029 78.7032 156.403 79.1949 155.807H133.378C133.758 156.389 134.123 157.044 134.488 157.685Z" fill="black"/>
<path d="M139.287 166.449H71.7581C72.1515 165.794 72.5448 165.168 72.9241 164.571H138.318C138.646 165.182 138.969 165.808 139.287 166.449Z" fill="black"/>
<path d="M143.466 175.213H66.7352C67.0724 174.573 67.4095 173.947 67.7467 173.335H142.609C142.904 173.961 143.185 174.587 143.466 175.213Z" fill="black"/>
<path d="M147.067 184.05H62.259C62.5681 183.41 62.8771 182.784 63.1862 182.172H146.295C146.534 182.725 146.772 183.351 147.067 184.05Z" fill="black"/>
<path d="M149.758 192.786H58.1227C58.4177 192.145 58.6986 191.519 58.9936 190.907H149.197C149.365 191.475 149.562 192.101 149.758 192.786Z" fill="black"/>
<path d="M152.335 201.521H54.3355C54.3355 201.375 54.4479 201.215 54.5181 201.069C54.7148 200.589 54.9255 200.123 55.1222 199.614H151.857C151.97 200.254 152.153 200.866 152.335 201.521Z" fill="black"/>
<path d="M154.893 210.256H50.9371C51.1619 209.615 51.3866 208.989 51.6255 208.378H154.415C154.528 209.018 154.71 209.659 154.893 210.256Z" fill="black"/>
<path d="M157.348 218.991H47.8989C48.0956 218.35 48.2923 217.724 48.503 217.113H156.884C156.996 217.797 157.179 218.423 157.348 218.991Z" fill="black"/>
<path d="M159.83 227.814H45.2113C45.408 227.183 45.5906 226.557 45.7592 225.936H159.31C159.479 226.562 159.703 227.188 159.83 227.814Z" fill="black"/>
<path d="M162.266 236.578H42.703C42.8856 235.952 43.0542 235.326 43.2368 234.7H161.747C161.915 235.326 162.084 235.952 162.266 236.578Z" fill="black"/>
<path d="M164.676 245.342H40.3641C40.5327 244.716 40.6872 244.09 40.8558 243.464H164.17L164.676 245.342Z" fill="black"/>
<path d="M167.063 254.107H38.1155C38.1858 253.83 38.2419 253.568 38.3122 253.291L38.551 252.389C38.5576 252.345 38.5576 252.301 38.551 252.258H166.529L167.063 254.107Z" fill="black"/>
<path d="M169.414 262.871H35.9573C36.0978 262.245 36.2523 261.619 36.4068 260.993H168.923V261.167C169.119 261.735 169.26 262.303 169.414 262.871Z" fill="black"/>
<path d="M171.757 271.635H33.8894C34.0439 271.009 34.1844 270.398 34.3249 269.772H171.266C171.434 270.398 171.603 271.009 171.757 271.635Z" fill="black"/>
<path d="M174.069 280.399H31.8742L32.2957 278.536H173.577C173.76 279.162 173.915 279.788 174.069 280.399Z" fill="black"/>
<path d="M176.341 289.178H29.9601C30.0865 288.567 30.227 287.926 30.3675 287.3H175.85C176.018 287.926 176.173 288.552 176.341 289.178Z" fill="black"/>
<path d="M178.543 297.943H28.06C28.2005 297.317 28.3269 296.691 28.4674 296.065H178.08L178.543 297.943Z" fill="black"/>
<path d="M123.691 192.291L146.084 190.529L150.059 218.656L140.141 226.285L126.472 220.782L123.691 192.291Z" fill="#2E73B8"/>
<path d="M123.691 192.291L146.084 190.529L150.059 218.656L140.141 226.285L126.472 220.782L123.691 192.291Z" fill="black"/>
<path d="M84.2999 178.227C84.0049 178.94 83.6818 179.683 83.3587 180.367C83.3176 180.467 83.2707 180.564 83.2182 180.658C82.9654 181.24 82.6844 181.837 82.3894 182.42C82.1225 182.988 81.8275 183.526 81.5465 184.079C80.7879 185.535 80.0293 186.991 79.2426 188.563C78.9617 189.058 78.6807 189.553 78.4138 190.019L76.8685 192.931C75.8992 194.736 74.9018 196.542 73.8622 198.376C73.7358 198.609 73.5953 198.827 73.4548 199.075C71.0854 203.268 68.6035 207.495 66.0093 211.755C64.7871 213.764 63.5368 215.774 62.2866 217.783C57.7631 224.916 53.071 232.036 48.2384 238.922L48.0699 239.155L47.9294 239.359L45.2462 243.187C44.6281 244.105 43.9819 245.022 43.3497 245.939L41.5235 248.56C40.5822 249.928 39.627 251.297 38.7138 252.651C38.6188 252.802 38.5156 252.948 38.4048 253.087L33.9796 259.435C33.3896 260.294 32.7855 261.153 32.1815 261.997C26.6465 269.874 21.1537 277.531 15.984 284.345L15.1692 285.393C14.214 286.645 13.2727 287.853 12.3596 289.033L10.6176 291.231L10.5333 291.348C7.72372 294.856 5.04054 297.972 2.52593 300.65H0.207999V207.344L3.53739 204.927L9.10043 200.865C10.0276 200.181 10.9548 199.497 11.9101 198.827L26.6044 188.068L26.9977 187.777L30.3974 185.302C35.2861 181.721 40.0625 178.227 44.5719 174.951L47.3815 172.942L51.8348 169.725L56.4004 166.434L57.5383 165.634L58.8026 164.731C62.3989 162.183 65.5879 160.116 68.4396 158.456C68.9313 158.165 69.409 157.888 69.8444 157.655C70.2997 157.374 70.7686 157.116 71.2492 156.884C73.8235 155.453 76.5544 154.349 79.3831 153.594C80.1164 153.401 80.8633 153.27 81.6168 153.2C82.6328 152.985 83.6842 153.028 84.6803 153.328C85.6764 153.627 86.5873 154.173 87.3343 154.918C90.748 158.762 88.4582 168.618 84.2999 178.227Z" fill="#D3766A"/>
<path d="M94.9793 159.927C94.0662 165.037 91.0599 172.229 85.6654 181.692C85.1737 182.595 84.6399 183.526 84.078 184.473L83.3334 185.739C82.926 186.423 82.5186 187.108 82.1253 187.792C79.7652 191.781 77.5082 195.557 75.3541 199.119C75.3501 199.148 75.3501 199.177 75.3541 199.206L74.9608 199.847C74.3708 200.837 73.7807 201.812 73.1907 202.758L73.1064 202.889C70.7182 206.82 68.4893 210.45 66.4195 213.779C56.4032 229.794 50.2923 238.776 49.7585 239.563L48.3537 238.937L48.1429 238.835L42.8328 236.534L35.2889 233.23L30.948 231.351L29.0656 230.522L21.873 227.392L0.14054 217.943V202.627C2.78158 200.662 5.75978 198.464 8.92061 196.149L11.7302 194.052C16.0992 190.864 20.8194 187.472 25.6519 184.065C27.525 182.716 29.4496 181.367 31.4257 180.018C35.7946 176.989 40.1917 173.99 44.4764 171.166L47.1455 169.404C50.0956 167.483 52.9614 165.663 55.7149 163.96C60.2946 161.15 64.5371 158.718 68.1896 156.855C73.2046 154.131 78.5083 152.02 83.9937 150.566C86.3839 149.895 88.8953 149.835 91.3128 150.391C94.6281 151.454 95.9767 154.54 94.9793 159.927Z" fill="#2E73B8"/>
<path d="M48.9018 224.378C47.4969 223.563 45.9938 222.922 44.5328 222.267L40.0374 220.17C37.003 218.715 33.9405 217.361 30.878 216.007C24.7531 213.313 18.6281 210.576 12.461 207.985C10.7611 207.271 9.06133 206.529 7.34746 205.888C5.63359 205.248 3.69497 204.622 1.89681 203.908C1.78443 203.908 1.74228 204.039 1.89681 204.083C3.39996 204.811 4.83287 205.655 6.33602 206.383C7.83916 207.111 9.41254 207.839 10.9578 208.553C14.0203 209.941 17.0875 211.295 20.1593 212.615C26.2 215.235 32.2548 217.885 38.3516 220.36L43.4792 222.427C45.2633 223.155 47.0474 223.999 48.8877 224.553C48.9158 224.582 49.0001 224.436 48.9018 224.378Z" fill="#263238"/>
<path d="M72.6094 207.694C72.6796 207.592 72.5251 207.461 72.4408 207.548C70.7297 209.203 69.1467 210.994 67.7066 212.906C68.2404 211.93 68.7883 210.984 69.3221 209.994C71.022 206.878 72.6656 203.734 74.3654 200.618C74.3738 200.597 74.3751 200.574 74.3691 200.552C74.3631 200.53 74.3501 200.51 74.3323 200.497C74.3145 200.484 74.2928 200.477 74.2708 200.478C74.2488 200.478 74.2277 200.487 74.2109 200.502C70.8674 205.728 67.3273 210.809 64.1524 216.123C60.9776 221.437 51.5091 236.636 49.7531 239.606C49.1772 239.431 48.4326 239.068 47.2245 238.645C47.0699 238.645 47.0418 238.835 47.2245 238.951C48.1414 239.736 49.1696 240.369 50.2729 240.829C50.5117 240.916 61.3147 224.159 66.4844 214.988C68.5635 212.585 70.6005 210.256 72.6094 207.694Z" fill="#263238"/>
<path d="M123.592 178.882C114.081 181.241 97.7294 166.231 91.2813 154.045C90.8318 153.201 92.054 144.378 93.0374 133.663C93.6133 127.112 94.105 119.803 94.091 113.106C94.091 111.723 134.676 123.21 134.676 123.21C134.676 123.21 130.728 137.273 130.827 148.964C130.838 149.883 130.932 150.8 131.108 151.701C131.108 151.832 131.108 151.992 131.108 152.167C131.993 157.306 132.765 176.611 123.592 178.882Z" fill="#D3766A"/>
<path d="M96.5859 113.193C98.4965 124.52 105.352 151.89 127 152.342C128.386 152.383 129.772 152.3 131.144 152.094C131.16 151.939 131.16 151.783 131.144 151.628C130.971 150.726 130.873 149.811 130.849 148.891C130.751 137.244 134.713 123.137 134.713 123.137C134.713 123.137 105.394 114.839 96.5859 113.193Z" fill="#263238"/>
<path d="M84.0777 68.9352C81.4507 84.28 94.0098 126.063 105.29 134.318C121.628 146.271 145.889 144.509 155.063 124.782C163.955 105.623 146.634 51.4648 134.3 44.2292C116.15 33.5868 87.941 46.2674 84.0777 68.9352Z" fill="#D3766A"/>
<path d="M122.087 92.1999C122.087 92.098 121.919 92.4037 121.961 92.5202C122.986 95.2718 123.703 98.6057 121.581 100.411C121.581 100.411 121.581 100.6 121.666 100.557C124.475 99.057 123.478 94.6457 122.087 92.1999Z" fill="#263238"/>
<path d="M118.715 90.1617C114.276 91.37 116.959 100.484 121.061 99.3482C125.163 98.2126 122.438 89.1426 118.715 90.1617Z" fill="#263238"/>
<path d="M138.523 86.2163C138.523 86.0998 138.776 86.2163 138.804 86.4055C139.549 89.2445 140.869 92.3746 143.595 92.5347C143.679 92.5347 143.721 92.6803 143.595 92.6949C140.49 93.2044 138.79 89.0407 138.523 86.2163Z" fill="#263238"/>
<path d="M140.023 82.5038C144.308 80.7713 147.328 89.7831 143.367 91.37C139.405 92.9569 136.483 83.9451 140.023 82.5038Z" fill="#263238"/>
<path d="M114.348 84.8332C115.499 84.3144 116.624 83.7362 117.719 83.1007C118.994 82.6624 120.094 81.8032 120.852 80.6549C121.02 80.2473 121.053 79.7935 120.947 79.3643C120.84 78.9351 120.599 78.5545 120.262 78.2818C119.517 77.8414 118.671 77.617 117.813 77.6324C116.955 77.6478 116.118 77.9023 115.387 78.3692C113.76 79.0601 112.441 80.359 111.693 82.0088C111.549 82.3962 111.515 82.8183 111.595 83.225C111.675 83.6318 111.867 84.006 112.146 84.3034C112.426 84.6008 112.782 84.8088 113.172 84.9027C113.562 84.9966 113.97 84.9725 114.348 84.8332Z" fill="#263238"/>
<path d="M142.156 74.5839C140.905 74.71 139.648 74.7635 138.391 74.7441C137.072 75.0029 135.707 74.798 134.514 74.1618C134.18 73.8832 133.943 73.4992 133.839 73.0682C133.735 72.6372 133.77 72.1828 133.938 71.7741C134.393 71.0205 135.034 70.4062 135.795 69.9943C136.555 69.5823 137.407 69.3876 138.265 69.4302C140.011 69.2331 141.765 69.7214 143.181 70.7987C143.489 71.0649 143.716 71.4177 143.835 71.8145C143.954 72.2113 143.959 72.6353 143.851 73.0353C143.742 73.4353 143.525 73.7943 143.224 74.0691C142.923 74.3438 142.552 74.5226 142.156 74.5839Z" fill="#263238"/>
<path d="M128.864 117.91C129.707 118.362 130.634 119.075 131.674 118.842C132.679 118.505 133.603 117.949 134.385 117.212C134.385 117.212 134.582 117.212 134.539 117.314C134.318 117.991 133.922 118.593 133.395 119.055C132.868 119.517 132.229 119.821 131.547 119.934C130.949 119.963 130.355 119.807 129.842 119.486C129.329 119.164 128.92 118.692 128.667 118.129C128.555 117.969 128.794 117.852 128.864 117.91Z" fill="#263238"/>
<path d="M129.234 108.564C130.253 109.463 131.44 110.134 132.722 110.532C134.004 110.931 135.352 111.049 136.68 110.879C137.838 110.748 138.973 110.449 140.051 109.991C140.265 109.919 140.472 109.826 140.669 109.714L141.231 109.437C141.37 109.361 141.481 109.241 141.547 109.093C141.613 108.946 141.63 108.781 141.597 108.622C141.597 108.52 141.526 108.433 141.484 108.345L141.414 108.098C140.824 105.914 139.658 102.682 139.658 102.682C140.543 102.828 144.982 103.425 144.575 102.304C141.274 93.088 137.551 82.8241 132.437 74.3801C132.402 74.325 132.348 74.285 132.287 74.2673C132.225 74.2496 132.16 74.2553 132.102 74.2835C132.044 74.3117 131.998 74.3605 131.972 74.421C131.946 74.4814 131.941 74.5496 131.96 74.613C134.769 83.5957 139.138 92.0106 142.13 100.993C140.546 100.758 138.938 100.758 137.354 100.993C137.087 101.168 139.728 107.21 139.911 108.273C139.918 108.306 139.918 108.341 139.911 108.375C136.525 109.947 133.547 109.685 129.417 108.375C129.164 108.142 129.01 108.345 129.234 108.564Z" fill="#263238"/>
<path d="M138.494 109.277C137.801 111.189 136.645 112.884 135.136 114.198C134.295 114.895 133.262 115.297 132.186 115.348C129.84 115.435 129.18 113.397 129.053 111.505C129.002 110.496 129.063 109.485 129.236 108.491C132.162 109.768 135.406 110.044 138.494 109.277Z" fill="#263238"/>
<path d="M135.134 114.169C134.293 114.865 133.26 115.268 132.184 115.319C129.838 115.406 129.178 113.368 129.051 111.476C131.454 111.01 134.249 111.927 135.134 114.169Z" fill="#FF98B9"/>
<path d="M90.2565 105.594C90.2565 105.594 75.3936 80.3492 76.7141 65.7177C77.3181 59.1081 85.9999 54.624 85.9999 54.624C85.9999 54.624 114.279 26.1036 144.552 47.8834C148.149 50.4603 156.957 58.6859 141.968 65.8051C127.372 72.7495 97.4491 66.0817 97.4491 66.0817C98.8727 76.7165 98.7543 87.5122 97.0979 98.1107C96.7366 99.8916 95.906 101.534 94.6982 102.855C93.4905 104.176 91.9529 105.124 90.2565 105.594Z" fill="#263238"/>
<path d="M96.969 102.653C96.969 102.653 85.7305 90.2345 80.2236 94.5584C74.7168 98.8823 84.4381 117.852 91.8555 119.526C92.7974 119.811 93.7851 119.896 94.7593 119.775C95.7335 119.654 96.6741 119.33 97.5245 118.823C98.3748 118.316 99.1174 117.636 99.7076 116.823C100.298 116.011 100.723 115.083 100.959 114.096L96.969 102.653Z" fill="#D3766A"/>
<path d="M83.1519 99.916C83.1258 99.916 83.1008 99.9267 83.0823 99.9458C83.0639 99.9649 83.0535 99.9909 83.0535 100.018C83.0535 100.045 83.0639 100.071 83.0823 100.09C83.1008 100.109 83.1258 100.12 83.1519 100.12C88.4058 101.474 91.6791 105.943 94.1796 110.544C92.4517 108.855 90.2883 108.112 88.0828 110.296C87.9563 110.413 88.0827 110.602 88.2513 110.558C89.0839 110.138 90.0218 109.997 90.9353 110.153C91.8489 110.31 92.693 110.756 93.3508 111.432C94.4413 112.574 95.4114 113.833 96.2447 115.188C96.5397 115.61 97.3124 115.188 97.0735 114.737C97.0709 114.698 97.0709 114.659 97.0735 114.62C96.2166 108.04 90.0354 99.6102 83.1519 99.916Z" fill="#263238"/>
<path d="M143.336 42.0308C138.701 42.4967 115.086 51.756 105.954 60.3601C96.8232 68.9643 83.1122 91.734 82.4238 92.9278C81.7355 94.1217 63.2763 55.0754 92.693 36.2947C124.723 15.7816 143.336 42.0308 143.336 42.0308Z" fill="#2E73B8"/>
<path d="M83.7 90.5984C83.7 90.5984 95.2054 54.2018 104.772 43.5012C114.339 32.8006 139.302 19.6542 157.972 21.2556C172.54 22.5077 147.268 50.3729 147.268 50.3729C146.521 49.0966 145.498 48.0186 144.278 47.2249C143.059 46.4312 141.677 45.9438 140.244 45.8015C131.253 45.3793 117.092 53.2264 109.534 59.2537C99.9818 66.8678 83.7 90.5984 83.7 90.5984Z" fill="#2E73B8"/>
<path d="M83.7 90.5984C83.7 90.5984 95.2054 54.2018 104.772 43.5012C114.339 32.8006 139.302 19.6542 157.972 21.2556C172.54 22.5077 147.268 50.3729 147.268 50.3729C146.521 49.0966 145.498 48.0186 144.278 47.2249C143.059 46.4312 141.677 45.9438 140.244 45.8015C131.253 45.3793 117.092 53.2264 109.534 59.2537C99.9818 66.8678 83.7 90.5984 83.7 90.5984Z" fill="black"/>
</g>
</svg>
