<svg width="200" height="200" viewBox="0 0 200 200" fill="none" xmlns="http://www.w3.org/2000/svg">
<path d="M31.544 0H31.144V54.212H31.544V0Z" fill="#C7C7C7"/>
<path d="M50.168 72.3602L48.656 75.6883H14.028L12.52 72.3602L27.26 62.1562H35.428L50.168 72.3602Z" fill="#EBEBEB"/>
<path d="M36.4523 52.3242L35.4283 62.1562H27.2603L26.2363 52.3242H36.4523Z" fill="#DBDBDB"/>
<path d="M50.1681 72.3604L48.6521 75.6884H14.0281L12.5161 72.3604H50.1681Z" fill="#DBDBDB"/>
<path d="M71.964 0H71.564V43.476H71.964V0Z" fill="#C7C7C7"/>
<path d="M90.5879 61.62L89.0759 64.952H54.4479L52.9399 61.62L67.6799 51.416H75.8479L90.5879 61.62Z" fill="#EBEBEB"/>
<path d="M76.8722 41.5879L75.8482 51.4159H67.6802L66.6562 41.5879H76.8722Z" fill="#DBDBDB"/>
<path d="M90.588 61.624L89.072 64.952H54.448L52.936 61.624H90.588Z" fill="#DBDBDB"/>
<path d="M19.4 89.3361L15.452 95.7001L17.412 96.9001C17.6867 97.0787 17.9068 97.3297 18.0479 97.6255C18.1891 97.9212 18.2459 98.2501 18.212 98.5761C18.1799 98.9391 18.1679 99.3037 18.176 99.6681C18.1873 99.9998 18.1065 100.328 17.9427 100.617C17.779 100.906 17.5385 101.143 17.248 101.304L15.248 102.388L18.8 109.004L20.8 107.92C21.0846 107.767 21.4057 107.696 21.7281 107.714C22.0505 107.731 22.3618 107.837 22.628 108.02C22.9547 108.248 23.2939 108.458 23.644 108.648C23.9284 108.805 24.1636 109.037 24.3233 109.32C24.4829 109.602 24.5608 109.924 24.548 110.248L24.476 112.54L31.964 112.772L32.032 110.472C32.0426 110.147 32.1431 109.831 32.3225 109.56C32.5019 109.289 32.7531 109.073 33.048 108.936C33.224 108.852 33.396 108.764 33.568 108.672C33.74 108.58 33.908 108.484 34.072 108.384C34.3481 108.214 34.6659 108.124 34.99 108.124C35.3142 108.124 35.632 108.214 35.908 108.384L37.872 109.584L41.816 103.22L39.852 102C39.577 101.822 39.3567 101.571 39.2155 101.275C39.0743 100.979 39.0177 100.65 39.052 100.324C39.0841 99.9623 39.0961 99.5991 39.088 99.2361C39.0772 98.9039 39.1586 98.5752 39.3231 98.2865C39.4876 97.9977 39.7288 97.7601 40.02 97.6001L42.0201 96.5161L38.48 89.9161L36.456 91.0001C36.1624 91.1537 35.8319 91.2227 35.5013 91.1994C35.1708 91.1761 34.8532 91.0614 34.584 90.8681C34.284 90.6601 33.972 90.4681 33.656 90.2961C33.3647 90.1441 33.1216 89.9138 32.9541 89.6311C32.7866 89.3484 32.7014 89.0246 32.708 88.6961L32.8 86.4001L25.316 86.1641L25.244 88.4641C25.2305 88.7925 25.1262 89.1107 24.9426 89.3832C24.7589 89.6558 24.5033 89.8721 24.204 90.0081C24.036 90.0841 23.872 90.1681 23.708 90.2561C23.544 90.3441 23.384 90.4361 23.228 90.5321C22.9471 90.7047 22.6238 90.7961 22.294 90.7961C21.9643 90.7961 21.641 90.7047 21.36 90.5321L19.4 89.3361ZM25.056 94.4881C26.0977 93.7407 27.3473 93.3385 28.6293 93.3377C29.9113 93.3369 31.1613 93.7377 32.2038 94.4838C33.2464 95.2299 34.029 96.2838 34.4419 97.4975C34.8548 98.7111 34.8772 100.024 34.5059 101.251C34.1347 102.478 33.3884 103.558 32.3719 104.339C31.3554 105.12 30.1198 105.563 28.8385 105.606C27.5572 105.649 26.2947 105.29 25.2281 104.578C24.1616 103.867 23.3447 102.84 22.892 101.64C22.415 100.376 22.3686 98.9898 22.7599 97.6967C23.1511 96.4035 23.9583 95.2756 25.056 94.4881Z" fill="#EBEBEB"/>
<path d="M183.6 27.1997C183.432 27.1015 183.295 26.9586 183.204 26.7869C183.113 26.6153 183.071 26.4217 183.084 26.2277C183.084 26.1197 183.084 26.0117 183.084 25.9037C183.084 25.7957 183.084 25.6837 183.084 25.5757C183.071 25.3818 183.113 25.1882 183.204 25.0166C183.295 24.8449 183.432 24.702 183.6 24.6037L184.772 23.9277L182.572 20.1077L181.384 20.7997C181.215 20.8966 181.023 20.9443 180.828 20.9372C180.634 20.9301 180.445 20.8686 180.284 20.7597C180.1 20.6437 179.912 20.5317 179.716 20.4317C179.543 20.3448 179.397 20.2118 179.295 20.0474C179.192 19.8829 179.138 19.6934 179.136 19.4997V18.1357H174.736V19.4837C174.731 19.6756 174.674 19.8625 174.57 20.0241C174.467 20.1856 174.32 20.3155 174.148 20.3997C173.952 20.4997 173.748 20.6117 173.58 20.7277C173.419 20.8366 173.23 20.8981 173.036 20.9052C172.841 20.9123 172.649 20.8646 172.48 20.7677L171.308 20.0917L169.104 23.9117L170.28 24.5917C170.451 24.6897 170.591 24.8341 170.683 25.0083C170.775 25.1825 170.815 25.3793 170.8 25.5757C170.8 25.6837 170.8 25.7917 170.8 25.8997C170.8 26.0077 170.8 26.1157 170.8 26.2237C170.813 26.4187 170.771 26.6134 170.679 26.7859C170.587 26.9584 170.449 27.1017 170.28 27.1997L169.104 27.8757L171.308 31.6957L172.476 31.0197C172.645 30.9232 172.837 30.8754 173.031 30.8817C173.225 30.8881 173.414 30.9483 173.576 31.0557C173.76 31.1773 173.951 31.2881 174.148 31.3877C174.321 31.4748 174.466 31.608 174.567 31.7725C174.669 31.937 174.723 32.1264 174.724 32.3197V33.6677H179.124V32.3157C179.126 32.1221 179.18 31.9325 179.283 31.7681C179.385 31.6036 179.531 31.4706 179.704 31.3837C179.9 31.2832 180.091 31.1724 180.276 31.0517C180.437 30.9442 180.625 30.8839 180.819 30.8776C181.013 30.8712 181.204 30.9191 181.372 31.0157L182.544 31.6917L184.744 27.8717L183.6 27.1997ZM176.944 29.5157C176.232 29.5157 175.536 29.3046 174.944 28.909C174.352 28.5135 173.891 27.9512 173.618 27.2934C173.346 26.6356 173.274 25.9117 173.413 25.2134C173.552 24.5151 173.895 23.8736 174.398 23.3702C174.902 22.8667 175.543 22.5238 176.242 22.3849C176.94 22.246 177.664 22.3173 178.322 22.5898C178.979 22.8623 179.542 23.3237 179.937 23.9157C180.333 24.5077 180.544 25.2037 180.544 25.9157C180.543 26.3892 180.45 26.8579 180.268 27.295C180.086 27.732 179.819 28.129 179.484 28.463C179.148 28.797 178.75 29.0616 178.312 29.2415C177.875 29.4215 177.405 29.5133 176.932 29.5117L176.944 29.5157Z" fill="#EBEBEB"/>
<path d="M84.368 127.544C84.2113 127.452 84.0811 127.321 83.99 127.164C83.8989 127.007 83.85 126.83 83.8479 126.648C83.8479 126.468 83.8479 126.292 83.8479 126.112C83.8285 125.932 83.8393 125.749 83.88 125.572C83.9242 125.395 84.0154 125.233 84.144 125.104C84.2797 124.985 84.4303 124.884 84.5919 124.804L85.524 124.26V124.28L83.3 120.472H83.352L82.128 121.192C81.9027 121.304 81.6455 121.335 81.4 121.28C81.1687 121.208 80.9491 121.103 80.7479 120.968L80.444 120.796C80.3318 120.737 80.2304 120.66 80.144 120.568C79.9666 120.384 79.8591 120.143 79.84 119.888V118.468L79.932 118.56L75.532 118.6L75.668 118.468V119.892C75.6553 120.096 75.5906 120.294 75.4799 120.466C75.3693 120.638 75.2165 120.78 75.0359 120.876L74.7359 121.056L74.4359 121.232C74.3198 121.305 74.1929 121.359 74.0599 121.392C73.7905 121.451 73.509 121.419 73.2599 121.3L72.02 120.592L72.2599 120.528L70.0719 124.356L70 124.088L71.24 124.8C71.4144 124.92 71.556 125.081 71.6517 125.27C71.7475 125.459 71.7943 125.669 71.788 125.88V126.232V126.58C71.7902 126.715 71.7713 126.85 71.732 126.98C71.6488 127.25 71.475 127.483 71.24 127.64L70 128.352L70.068 128.1L72.252 131.928L72.028 131.868L73.2719 131.168C73.5216 131.051 73.8034 131.021 74.0719 131.084C74.2004 131.118 74.323 131.17 74.4359 131.24L74.74 131.42L75.04 131.596C75.1564 131.66 75.2617 131.743 75.352 131.84C75.5321 132.037 75.6394 132.29 75.656 132.556V133.984L75.5479 133.876L79.9479 133.92L79.884 133.984V132.564C79.9029 132.315 80.0075 132.081 80.1799 131.9C80.3614 131.741 80.5632 131.606 80.78 131.5C80.9798 131.369 81.1964 131.265 81.424 131.192C81.6624 131.135 81.9134 131.165 82.132 131.276L83.3599 131.988H83.332L85.5479 128.176L84.368 127.544ZM84.368 127.544L85.54 128.216L83.352 132.04V132.06L82.12 131.36C81.9111 131.259 81.6735 131.233 81.4479 131.288C81.217 131.358 80.9984 131.463 80.8 131.6C80.5914 131.706 80.3988 131.84 80.228 132C80.0729 132.168 79.981 132.384 79.968 132.612V134.028V134.092H79.9039L75.5039 134.136H75.4V134V132.588C75.3834 132.38 75.2959 132.183 75.152 132.032C75.0792 131.957 74.9956 131.894 74.9039 131.844L74.5919 131.668L74.28 131.492C74.1922 131.439 74.0962 131.401 73.996 131.38C73.7949 131.335 73.5845 131.361 73.4 131.452L72.2 132.168L72.0599 132.252L71.976 132.108L69.756 128.3L69.664 128.14L69.824 128.048L71.024 127.34C71.1834 127.23 71.3006 127.069 71.356 126.884C71.3832 126.79 71.3967 126.693 71.396 126.596V126.236V125.876C71.3967 125.779 71.3832 125.682 71.356 125.588C71.3 125.404 71.1811 125.245 71.02 125.14L69.82 124.428L69.6479 124.332L69.7479 124.164L71.964 120.356L72.056 120.2L72.208 120.288L73.408 120.996C73.5865 121.084 73.7898 121.108 73.984 121.064C74.0819 121.044 74.1754 121.006 74.2599 120.952L74.5719 120.776L74.888 120.6C74.9768 120.553 75.0578 120.492 75.128 120.42C75.2695 120.273 75.3545 120.08 75.368 119.876V118.472V118.332H75.5L79.9 118.372H80V118.464V119.876C80.0146 120.096 80.1035 120.305 80.252 120.468C80.4201 120.627 80.61 120.762 80.8159 120.868C81.0043 121.003 81.212 121.108 81.432 121.18C81.6507 121.232 81.8806 121.208 82.084 121.112L83.32 120.42L83.352 120.4V120.432L85.54 124.26L84.6039 124.796C84.4431 124.874 84.2937 124.974 84.1599 125.092C84.0318 125.217 83.9405 125.375 83.896 125.548C83.8538 125.723 83.8417 125.905 83.8599 126.084C83.8599 126.264 83.8599 126.444 83.8599 126.62C83.8558 126.805 83.9006 126.988 83.9898 127.15C84.079 127.313 84.2095 127.448 84.368 127.544Z" fill="#EBEBEB"/>
<path d="M77.7123 129.86C77.0996 129.857 76.4971 129.703 75.9584 129.411C75.4198 129.119 74.9619 128.698 74.6254 128.186C74.289 127.674 74.0845 127.087 74.0302 126.476C73.9759 125.866 74.0736 125.252 74.3144 124.688C74.5552 124.125 74.9318 123.63 75.4104 123.248C75.8891 122.865 76.4549 122.607 77.0575 122.497C77.6602 122.386 78.2808 122.426 78.8641 122.614C79.4473 122.801 79.9751 123.13 80.4003 123.572C81.088 124.29 81.4621 125.253 81.4403 126.248C81.4082 127.211 81.0033 128.125 80.311 128.797C79.6186 129.468 78.6927 129.845 77.7283 129.848L77.7123 129.86ZM77.7123 129.86C78.1806 129.859 78.6442 129.765 79.0757 129.583C79.5071 129.401 79.8978 129.134 80.2247 128.799C80.5515 128.463 80.808 128.066 80.979 127.63C81.15 127.194 81.232 126.728 81.2203 126.26C81.1932 125.346 80.8114 124.479 80.1558 123.842C79.5002 123.205 78.6223 122.848 77.7083 122.848C76.7768 122.848 75.8835 123.218 75.2249 123.876C74.5663 124.535 74.1963 125.428 74.1963 126.36C74.1963 127.291 74.5663 128.184 75.2249 128.843C75.8835 129.502 76.7768 129.872 77.7083 129.872L77.7123 129.86Z" fill="#EBEBEB"/>
<path d="M12.3042 175.104L34.2282 175.008L56.1522 174.972L100 174.908L143.848 174.972L165.772 175.008L187.696 175.104L165.772 175.204L143.848 175.24L100 175.304L56.1522 175.24L34.2282 175.204L12.3042 175.104Z" fill="#263238"/>
<path d="M184.112 36.0039H117.792V103.036H184.112V36.0039Z" fill="#EBEBEB"/>
<path d="M148.284 31.9594C150.496 29.3634 154.284 28.7394 157.948 29.4794C161.612 30.2194 166 32.0674 166.4 38.1954C166.728 43.1714 165.2 48.0234 165.2 53.5754C165.2 59.1274 171.484 72.6514 161.428 79.2514C152.392 85.1794 134.084 79.7354 133.52 67.5314C133.076 57.8594 144.548 48.9154 145.756 45.0874C146.964 41.2594 145.86 34.7994 148.284 31.9594Z" fill="#263238"/>
<path d="M146.632 37.4199C146.564 40.1879 146.164 42.9879 145.032 45.5999C144.738 46.2615 144.355 46.8793 143.892 47.4359C143.448 47.9959 142.976 48.5239 142.504 49.0359C141.552 50.0719 140.612 51.0999 139.704 52.1679C137.901 54.2603 136.411 56.6034 135.28 59.1239C134.196 61.6562 133.601 64.3705 133.524 67.1239C133.411 65.7343 133.453 64.3364 133.648 62.9559C133.864 61.5683 134.222 60.2065 134.716 58.8919C135.758 56.2579 137.235 53.8174 139.084 51.6719C139.992 50.5879 140.956 49.5519 141.916 48.5279C142.876 47.5039 143.848 46.5279 144.444 45.3279C145.055 44.101 145.521 42.8069 145.832 41.4719C146.183 40.1393 146.45 38.786 146.632 37.4199Z" fill="#263238"/>
<path d="M166.148 42.376C166.08 45.2 165.9 48.02 165.976 50.824C166.009 52.2205 166.126 53.6137 166.328 54.996C166.536 56.356 166.944 57.716 167.284 59.092C167.624 60.468 167.928 61.864 168.152 63.272C168.369 64.6865 168.46 66.1174 168.424 67.548C168.359 68.9855 168.09 70.4064 167.624 71.768C167.087 73.1062 166.286 74.3225 165.268 75.344C166.16 74.2478 166.838 72.9941 167.268 71.648C167.641 70.3094 167.827 68.9255 167.82 67.536C167.707 64.7388 167.269 61.9643 166.516 59.268C166.196 57.896 165.788 56.536 165.592 55.092C165.408 53.6772 165.336 52.2501 165.376 50.824C165.461 47.9948 165.718 45.1736 166.148 42.376Z" fill="#263238"/>
<path d="M151.6 66.1239C142.4 76.2519 134.892 81.1159 127.492 81.1159C120.456 81.1159 105.424 64.0319 104.32 61.7799C103.368 59.8359 115.708 49.1999 117.604 50.5239C120.804 52.7399 131.068 65.5679 132.156 65.6279C133.244 65.6879 137.252 63.0399 146.904 58.5199C152.768 55.7799 158 59.1039 151.6 66.1239Z" fill="#F1B8AB"/>
<path d="M105.752 63.4638C104.4 61.9998 98.7242 54.6918 97.6002 52.3078C96.4762 49.9238 93.7522 42.8278 95.4922 41.7838C97.2322 40.7398 98.1922 42.7518 98.1922 42.7518C98.1922 42.7518 97.5162 39.5758 99.3642 38.6838C101.212 37.7918 102.604 40.9718 102.604 40.9718C102.604 40.9718 102.148 37.6598 104.052 36.8998C105.956 36.1398 106.828 39.5798 106.828 39.5798C106.828 39.5798 106.268 36.5678 108.1 36.6038C110.304 36.6478 110.708 42.3158 112.144 44.8558C112.468 45.4318 119.58 56.0558 119.58 56.0558L105.752 63.4638Z" fill="#F1B8AB"/>
<path d="M106.752 39.2877C107.06 43.4517 107.916 45.2237 110.352 48.5317C110.4 48.5957 110.316 48.6797 110.26 48.6197C107.568 45.5957 106.176 43.5317 106.54 39.2917C106.568 39.0837 106.736 39.0877 106.752 39.2877Z" fill="#263238"/>
<path d="M102.592 40.6437C103.288 44.9437 104.192 46.8717 106.508 50.5237C106.54 50.5757 106.456 50.6357 106.42 50.5877C103.856 47.1917 102.512 45.0997 102.38 40.7117C102.372 40.5117 102.56 40.4437 102.592 40.6437Z" fill="#263238"/>
<path d="M98.32 42.9353C99.296 47.0513 100.204 49.2073 102.9 52.4633C102.964 52.5433 102.856 52.6433 102.788 52.5713C99.716 49.5153 98.564 46.8313 98.2 42.9713C98.176 42.7153 98.26 42.6753 98.32 42.9353Z" fill="#263238"/>
<path d="M122.752 57.0717C122.752 57.0717 122.66 51.8357 122.112 49.5437C121.564 47.2517 116.4 39.4677 114.636 40.4917C112.384 41.8117 114.488 46.8917 115.836 49.2517C115.836 49.2517 110.636 52.3077 111.344 56.2837C112.052 60.2597 122.752 57.0717 122.752 57.0717Z" fill="#F1B8AB"/>
<path d="M114.136 41.0552C112.936 43.7432 114.936 46.7232 116.076 49.1032C116.095 49.1375 116.104 49.1756 116.105 49.2145C116.106 49.2533 116.097 49.2917 116.08 49.3265C116.063 49.3614 116.037 49.3916 116.006 49.4146C115.975 49.4377 115.939 49.453 115.9 49.4592C113.796 50.8872 111.248 53.5072 111.216 56.1872C111.216 56.2032 111.21 56.2184 111.199 56.2297C111.187 56.2409 111.172 56.2472 111.156 56.2472C111.14 56.2472 111.125 56.2409 111.114 56.2297C111.103 56.2184 111.096 56.2032 111.096 56.1872C110.74 53.3072 113.032 50.5232 115.432 49.1112C114.232 46.6832 112.364 43.6112 114.112 41.0312L114.136 41.0552Z" fill="#263238"/>
<path d="M135.736 62.6834L143.128 76.4754C143.128 76.4754 153.152 66.7434 154.752 62.6834C156.352 58.6234 154.628 55.6754 147.496 57.8474C143.422 59.0549 139.482 60.6753 135.736 62.6834Z" fill="#2E73B8"/>
<path d="M144.836 73.5996C144.472 72.8516 144.152 72.0796 143.772 71.3356C143.392 70.5916 143.012 69.8556 142.616 69.1276C141.816 67.6556 141.016 66.1796 140.184 64.7276C139.712 63.9276 139.216 63.1036 138.7 62.3276C138.68 62.2916 138.612 62.3276 138.632 62.3556C139.988 65.3916 141.632 68.2996 143.272 71.1876C143.748 72.0236 144.288 72.8196 144.784 73.6436C144.8 73.6636 144.856 73.6276 144.836 73.5996Z" fill="#263238"/>
<path d="M154.752 62.6832C153.152 66.7432 143.128 76.4752 143.128 76.4752L138.148 67.1992L154.576 58.1152C155.52 59.0992 155.508 60.7672 154.752 62.6832Z" fill="#263238"/>
<path d="M137.42 85.9036C137.42 85.9036 133.356 95.6316 134.792 103.032H179.6C178.144 82.9156 168.116 65.6276 162.192 60.0316C157.416 55.5196 152.388 55.9236 148.888 58.2316C148.064 58.7796 138.972 71.3436 137.988 73.3316C134.084 81.1756 137.42 85.9036 137.42 85.9036Z" fill="#2E73B8"/>
<path d="M149.2 57.6397C149.2 57.6397 146.4 65.6917 148.024 66.1117C152.064 67.1517 157.484 60.5557 157.808 59.8837C157.888 59.7117 158.248 55.2037 158.516 51.6957C158.688 49.4397 158.82 47.5957 158.82 47.5957L148.852 51.0157L149.172 57.1957L149.2 57.6397Z" fill="#F1B8AB"/>
<path d="M148.836 51.0157L149.156 57.1957C151.184 56.9117 155.644 55.8117 158.5 51.6957C158.672 49.4397 158.804 47.5957 158.804 47.5957L157.556 47.9957L148.836 51.0157Z" fill="#263238"/>
<path d="M141.412 42.3635C141.292 45.5035 141.604 48.0435 142.368 49.7315C143.023 51.1733 144.064 52.4054 145.377 53.2909C146.69 54.1764 148.222 54.6806 149.804 54.7475C151.004 54.7915 154.46 54.4755 156.96 52.5715C158.904 51.0915 160.076 48.4235 160.74 43.7315C162.26 33.0035 157.352 29.3955 152.516 28.9635C147.68 28.5315 141.812 31.5395 141.412 42.3635Z" fill="#F1B8AB"/>
<path d="M144.184 39.9715C144.436 39.9355 144.668 39.8635 144.912 39.8075C145.178 39.7836 145.429 39.6757 145.628 39.4995C145.679 39.431 145.705 39.3483 145.705 39.2635C145.705 39.1786 145.679 39.096 145.628 39.0275C145.504 38.9117 145.351 38.8311 145.185 38.7938C145.019 38.7566 144.846 38.7641 144.684 38.8155C144.34 38.8703 144.027 39.0513 143.808 39.3235C143.757 39.3864 143.726 39.4637 143.719 39.5449C143.713 39.6261 143.731 39.7073 143.772 39.7778C143.813 39.8483 143.874 39.9045 143.948 39.9392C144.022 39.9738 144.104 39.985 144.184 39.9715Z" fill="#263238"/>
<path d="M151.252 40.2397C151.007 40.1964 150.764 40.1403 150.524 40.0717C150.259 40.0496 150.009 39.9398 149.812 39.7597C149.762 39.6912 149.735 39.6085 149.735 39.5237C149.735 39.4388 149.762 39.3562 149.812 39.2877C149.938 39.1722 150.092 39.0924 150.259 39.0566C150.425 39.0207 150.599 39.03 150.76 39.0837C151.108 39.1392 151.422 39.3234 151.64 39.5997C151.691 39.6636 151.72 39.7414 151.725 39.8225C151.73 39.9036 151.71 39.9843 151.668 40.0538C151.625 40.1233 151.563 40.1783 151.489 40.2115C151.415 40.2447 151.332 40.2545 151.252 40.2397Z" fill="#263238"/>
<path d="M149.484 42.9434C149.484 42.9154 149.54 42.9794 149.54 43.0114C149.48 43.7434 149.54 44.6114 150.192 44.8754C150.192 44.8754 150.192 44.9194 150.192 44.9154C149.376 44.7634 149.312 43.6274 149.484 42.9434Z" fill="#263238"/>
<path d="M150.18 42.2034C151.38 42.1714 151.348 44.5514 150.244 44.5834C149.14 44.6154 149.2 42.2314 150.18 42.2034Z" fill="#263238"/>
<path d="M150.648 42.3354C150.852 42.4714 151.048 42.7114 151.304 42.7354C151.56 42.7594 151.816 42.5194 152.008 42.2794C152.028 42.2554 152.048 42.2794 152.048 42.3074C152.048 42.7634 151.872 43.2314 151.38 43.2954C150.888 43.3594 150.62 42.9434 150.508 42.4954C150.488 42.3994 150.564 42.2794 150.648 42.3354Z" fill="#263238"/>
<path d="M145.544 42.6319C145.544 42.6039 145.488 42.6679 145.488 42.6959C145.488 43.4359 145.412 44.2959 144.744 44.5279C144.724 44.5279 144.724 44.5719 144.744 44.5679C145.564 44.4559 145.684 43.3279 145.544 42.6319Z" fill="#263238"/>
<path d="M144.888 41.86C143.688 41.768 143.604 44.148 144.704 44.232C145.804 44.316 145.88 41.94 144.888 41.86Z" fill="#263238"/>
<path d="M144.4 41.9999C144.208 42.1199 144 42.3399 143.788 42.3479C143.576 42.3559 143.344 42.0879 143.188 41.8359C143.188 41.8079 143.152 41.8359 143.148 41.8599C143.12 42.3159 143.248 42.7919 143.684 42.8999C144.12 43.0079 144.388 42.6159 144.512 42.1679C144.52 42.0799 144.46 41.9519 144.4 41.9999Z" fill="#263238"/>
<path d="M149.412 48.672C149.24 48.852 149.072 49.096 148.808 49.128C148.534 49.13 148.262 49.0769 148.008 48.972C148.004 48.9677 147.997 48.9655 147.991 48.9659C147.985 48.9663 147.979 48.9692 147.974 48.974C147.97 48.9787 147.968 48.985 147.968 48.9914C147.969 48.9978 147.972 49.0037 147.976 49.008C148.087 49.1491 148.234 49.2578 148.402 49.3226C148.569 49.3873 148.751 49.4058 148.928 49.376C149.076 49.3298 149.207 49.2417 149.306 49.1224C149.405 49.0031 149.467 48.8578 149.484 48.704C149.487 48.6948 149.486 48.6852 149.481 48.6767C149.477 48.6683 149.47 48.6616 149.462 48.6577C149.453 48.6539 149.444 48.6533 149.434 48.6559C149.425 48.6585 149.418 48.6642 149.412 48.672Z" fill="#263238"/>
<path d="M146.4 45.9391C146.4 45.9391 146.224 47.0391 146.216 47.5591C146.216 47.6071 146.34 47.6311 146.516 47.6471C146.516 47.6471 146.516 47.6471 146.536 47.6471C146.978 47.7344 147.435 47.6993 147.858 47.5456C148.281 47.3919 148.654 47.1255 148.936 46.7751C148.972 46.7271 148.908 46.6711 148.86 46.7031C148.188 47.1409 147.393 47.3512 146.592 47.3031C146.56 47.1551 146.956 45.4311 146.872 45.4231C146.463 45.4485 146.059 45.5306 145.672 45.6671C145.972 43.3671 146.636 41.1351 146.896 38.8431C146.896 38.7631 146.788 38.7351 146.764 38.8071C145.9 41.0951 145.5 43.7351 145.128 46.0991C145.096 46.3991 146.176 46.0271 146.4 45.9391Z" fill="#263238"/>
<path d="M146.848 47.3756C147.104 47.7677 147.457 48.0873 147.872 48.3036C148.101 48.4127 148.358 48.449 148.608 48.4076C149.156 48.3076 149.208 47.8156 149.144 47.3876C149.105 47.1598 149.041 46.9371 148.952 46.7236C148.338 47.1599 147.601 47.3884 146.848 47.3756Z" fill="#263238"/>
<path d="M147.872 48.304C148.101 48.4131 148.358 48.4494 148.608 48.408C149.156 48.308 149.208 47.816 149.144 47.388C148.86 47.3753 148.58 47.4588 148.349 47.625C148.118 47.7912 147.95 48.0304 147.872 48.304Z" fill="#FF98B9"/>
<path d="M160.544 42.7675C159.364 42.8035 156.016 39.8595 155.408 34.2035C155.408 34.2035 156.308 39.2435 156.756 39.9515C157.204 40.6595 154.884 38.2915 154.328 33.7395C154.328 33.7395 151.968 35.7955 149.864 36.5955C147.76 37.3955 146.444 37.4995 146.264 37.3555C146.084 37.2115 149.176 35.9235 149.944 34.8595C149.944 34.8595 144.452 38.0595 141.828 38.4915C141.524 38.5395 142.036 33.8155 145.88 30.7755C149.724 27.7355 155.008 28.4955 156.904 30.0155C156.904 30.0155 158.976 30.1235 161.472 32.9435C163.968 35.7635 161.812 42.7275 160.544 42.7675Z" fill="#263238"/>
<path d="M158.988 44.4955C158.988 44.4955 161.184 41.0035 162.756 41.7715C164.328 42.5395 162.796 47.5195 161.032 48.2755C160.813 48.389 160.572 48.4567 160.326 48.4747C160.08 48.4927 159.832 48.4605 159.598 48.3801C159.365 48.2997 159.15 48.1728 158.966 48.007C158.783 47.8412 158.635 47.64 158.532 47.4155L158.988 44.4955Z" fill="#F1B8AB"/>
<path d="M162.28 43.1992C162.312 43.1992 162.316 43.2352 162.28 43.2472C161.044 43.8192 160.44 45.0232 160.032 46.2592C160.388 45.7712 160.884 45.4912 161.532 45.9072C161.564 45.9272 161.532 45.9832 161.5 45.9752C161.278 45.9208 161.044 45.9352 160.829 46.0167C160.615 46.0981 160.431 46.2427 160.3 46.4312C160.085 46.7546 159.902 47.099 159.756 47.4592C159.704 47.5752 159.496 47.5272 159.536 47.3952C159.535 47.3846 159.535 47.3738 159.536 47.3632C159.424 45.7472 160.564 43.4352 162.28 43.1992Z" fill="#263238"/>
<path d="M165.66 62.2275C170.092 67.3435 182.516 85.8635 179.636 90.8675C176.872 95.6675 170.604 97.0195 166.996 90.5715C164.4 85.9595 160.036 72.1995 158.952 65.5995C158.072 60.2555 161.564 57.4955 165.66 62.2275Z" fill="#F1B8AB"/>
<path d="M161.52 78.6231L176.208 73.2271C176.208 73.2271 167.964 61.9431 164.168 59.7951C160.372 57.6471 157.212 58.9431 158.372 66.3071C158.997 70.5095 160.052 74.6366 161.52 78.6231Z" fill="#2E73B8"/>
<path d="M173.6 71.1316C172.8 71.3916 172 71.5996 171.2 71.8716C170.4 72.1436 169.632 72.4196 168.856 72.7116C167.284 73.2956 165.716 73.8796 164.16 74.5076C163.288 74.8596 162.416 75.2396 161.564 75.6396C161.524 75.6396 161.54 75.7236 161.564 75.7116C164.764 74.7916 167.868 73.5676 170.956 72.3476C171.852 71.9916 172.712 71.5476 173.596 71.1916C173.656 71.1756 173.628 71.1196 173.6 71.1316Z" fill="#263238"/>
<path d="M162.348 78.28C162.057 78.3443 161.772 78.4326 161.496 78.544C161.096 77.676 160.148 73.86 159.928 72.88C159.488 70.928 159.128 68.956 158.668 67.004C158.668 66.948 158.56 66.964 158.568 67.004C158.704 68.088 158.872 69.168 159.06 70.24C158.86 69.728 158.66 69.212 158.504 68.688C158.506 68.6844 158.506 68.6804 158.506 68.6764C158.506 68.6724 158.504 68.6686 158.502 68.6653C158.5 68.6619 158.497 68.6592 158.493 68.6573C158.49 68.6554 158.486 68.6544 158.482 68.6544C158.478 68.6544 158.474 68.6554 158.471 68.6573C158.467 68.6592 158.464 68.6619 158.462 68.6653C158.46 68.6686 158.458 68.6724 158.458 68.6764C158.458 68.6804 158.458 68.6844 158.46 68.688C158.642 69.3389 158.865 69.9775 159.128 70.6C159.284 72.6 161.104 78.956 161.156 78.932C161.567 78.7454 161.968 78.5357 162.356 78.304C162.4 78.316 162.4 78.276 162.348 78.28Z" fill="#263238"/>
<path d="M155.084 40.6272L150.904 58.4712C150.724 58.9952 150.992 59.4152 151.504 59.4072L159.484 61.0312C159.764 61.0056 160.03 60.901 160.253 60.7296C160.475 60.5582 160.644 60.3271 160.74 60.0632L164.92 42.2192C165.1 41.6952 164.832 41.2752 164.32 41.2872L156.34 39.6592C156.061 39.6848 155.794 39.7894 155.572 39.9608C155.349 40.1322 155.18 40.3633 155.084 40.6272Z" fill="#A6A6A6"/>
<path d="M155.768 40.7278L151.6 58.5718C151.42 59.0958 151.688 59.5158 152.2 59.5078L160.18 61.1318C160.46 61.1065 160.726 61.0025 160.948 60.8318C161.171 60.6612 161.34 60.4309 161.436 60.1678L165.6 42.3238C165.78 41.7958 165.512 41.3798 165 41.3878L157.024 39.7598C156.745 39.7867 156.479 39.8919 156.257 40.0631C156.035 40.2343 155.866 40.4647 155.768 40.7278Z" fill="#DBDBDB"/>
<path d="M158.296 41.4952C158.3 41.6552 158.256 41.8127 158.169 41.9474C158.083 42.0821 157.958 42.1877 157.811 42.2505C157.663 42.3134 157.501 42.3307 157.344 42.3001C157.186 42.2696 157.042 42.1926 156.929 42.0791C156.816 41.9656 156.74 41.8209 156.71 41.6636C156.68 41.5063 156.699 41.3437 156.762 41.1968C156.826 41.0499 156.932 40.9255 157.067 40.8397C157.202 40.7538 157.36 40.7104 157.52 40.7152C157.726 40.7163 157.924 40.7989 158.069 40.9451C158.214 41.0912 158.296 41.289 158.296 41.4952Z" fill="#263238"/>
<path d="M169.128 92.1877C171.724 96.9877 178.596 94.2517 179.636 90.8677C182.076 82.9277 180.564 69.7277 179.108 62.3557C178.64 59.9837 162.528 62.3557 162.624 64.9197C162.736 68.0197 164.04 82.7477 169.128 92.1877Z" fill="#F1B8AB"/>
<path d="M178.928 65.8792C179.74 62.3813 179.789 58.7497 179.072 55.2312C178.224 51.3952 175.452 43.2592 164.308 39.6312C161.664 38.7672 157.284 39.4112 161.108 42.3872C163.812 44.5032 166.164 45.0272 167.508 46.5472C167.508 46.5472 162.036 48.0272 161.276 50.7072C160.611 53.053 160.112 55.443 159.784 57.8592C160.213 58.0198 160.651 58.1534 161.096 58.2592C160.861 60.5926 161.404 62.9383 162.64 64.9312L178.928 65.8792Z" fill="#F1B8AB"/>
<path d="M177.676 51.6996C176.02 50.4996 172.476 47.9476 168.84 46.8996C164.808 45.6996 156.732 44.5397 155.892 47.5197C155.276 49.7077 158.32 50.4317 158.32 50.4317C158.32 50.4317 154.88 50.6477 154.756 52.7436C154.644 54.6557 157.032 55.0757 157.032 55.0757C157.032 55.0757 154.968 55.5637 155.212 57.4277C155.508 59.6637 159.792 58.2716 162.052 60.2796C162.56 60.7196 177.676 51.6996 177.676 51.6996Z" fill="#F1B8AB"/>
<path d="M168.304 51.3519C166.56 50.4559 162.072 49.4439 158.384 50.3599C158.3 50.3599 158.272 50.4519 158.352 50.4519C161.692 50.3617 165.031 50.676 168.296 51.3879C168.316 51.3959 168.324 51.3599 168.304 51.3519Z" fill="#263238"/>
<path d="M167 55.3835C165.4 54.7675 160.74 53.9275 157.036 54.9835C156.952 55.0075 156.928 55.0835 157.008 55.0795C160.344 54.813 163.699 54.9284 167.008 55.4235C167.013 55.4224 167.018 55.4193 167.021 55.4148C167.024 55.4103 167.025 55.4048 167.024 55.3995C167.023 55.3942 167.02 55.3895 167.015 55.3865C167.011 55.3835 167.005 55.3824 167 55.3835Z" fill="#263238"/>
<path d="M167.656 88.8439C167.536 88.4439 167.42 88.0439 167.292 87.6799C167.028 86.8799 166.8 86.0799 166.568 85.2799C166.096 83.6799 165.644 82.0559 165.248 80.4239C164.458 77.171 163.858 73.8747 163.452 70.5519C163.34 69.6319 163.244 68.7119 163.144 67.7919C163.044 66.8719 163.012 65.9159 162.836 64.9919C162.836 64.9439 162.368 64.2399 162.184 63.8919C161.993 63.5299 161.826 63.1557 161.684 62.7719C161.385 61.9886 161.183 61.172 161.08 60.3399C161.078 60.3347 161.075 60.3302 161.07 60.3271C161.066 60.3239 161.06 60.3223 161.054 60.3223C161.049 60.3223 161.043 60.3239 161.039 60.3271C161.034 60.3302 161.031 60.3347 161.028 60.3399C160.977 61.2868 161.096 62.2353 161.38 63.1399C161.627 63.8966 162.052 64.5826 162.62 65.1399C162.62 65.2599 162.648 66.7399 162.696 67.5679C162.744 68.3959 162.82 69.2239 162.912 70.0479C163.1 71.7039 163.332 73.3559 163.624 74.9999C164.195 78.3254 164.989 81.6089 166 84.8279C166 84.8799 166.036 84.9319 166.052 84.9839C166.052 85.1039 166.052 85.2239 166.052 85.3439C166.058 85.6397 166.082 85.935 166.124 86.2279C166.206 86.8107 166.35 87.3832 166.552 87.9359C166.551 87.9407 166.55 87.9459 166.551 87.951C166.551 87.9562 166.553 87.961 166.556 87.9653C166.559 87.9695 166.563 87.973 166.568 87.9754C166.572 87.9778 166.577 87.979 166.582 87.979C166.588 87.979 166.593 87.9778 166.597 87.9754C166.602 87.973 166.606 87.9695 166.609 87.9653C166.612 87.961 166.614 87.9562 166.614 87.951C166.615 87.9459 166.614 87.9407 166.612 87.9359C166.471 87.3576 166.374 86.7692 166.324 86.1759L166.252 85.5679C166.472 86.2159 166.704 86.8639 166.932 87.5079C167.092 87.9559 167.256 88.3919 167.44 88.8279C167.624 89.2639 167.768 89.6879 167.984 90.0919C167.984 90.1239 168.048 90.0919 168.04 90.0679C167.94 89.6399 167.78 89.2479 167.656 88.8439Z" fill="#263238"/>
<path d="M117.792 103.031V92.2793L105.572 103.031H117.792Z" fill="#EBEBEB"/>
<path d="M54.9883 125.828C58.5083 141.144 65.7883 159.504 68.8963 162.484C72.8283 166.252 98.8403 173.164 100.136 173.304C103.336 173.628 109.788 150.504 106.364 150.004C101.164 149.252 82.2203 148.224 81.0883 147.06C79.9563 145.896 71.9163 135.76 63.7003 124.372C58.0283 116.504 52.8003 116.324 54.9883 125.828Z" fill="#AD6359"/>
<path d="M97.5601 172.056C97.9401 172.248 103.376 174.984 106.736 175.956C109.244 176.684 116.516 178.584 117.592 175.9C118.328 174.076 114.18 172.456 111.276 171.244C109.744 170.604 107.856 169.004 108.308 168.02C109.108 166.3 113.04 168.02 115.632 169.532C120.644 172.444 127.32 177.688 130.38 175.132C131.536 174.172 130.192 172.42 128.228 170.704C131.428 172.704 134.82 174.344 136.144 173.328C136.908 172.748 136.944 171.952 136.52 171.048C137.504 171.368 138.372 171.304 138.98 170.648C140.016 169.56 139.512 167.96 138.376 166.316C138.571 166.296 138.759 166.23 138.923 166.123C139.087 166.015 139.223 165.871 139.32 165.7C141.516 162.352 130.52 152.74 126.724 151.84C115.544 149.18 103.76 149.676 103.76 149.676C99.3681 153.2 97.5481 172.048 97.5601 172.056Z" fill="#AD6359"/>
<path d="M114 161.765C116.662 162.18 119.205 163.158 121.46 164.633C124.296 166.505 126.176 168.697 128.552 170.901C128.562 170.913 128.566 170.928 128.566 170.944C128.565 170.96 128.559 170.975 128.549 170.986C128.539 170.998 128.525 171.006 128.509 171.009C128.494 171.011 128.478 171.008 128.464 171.001C127.332 169.953 122.636 166.009 121.424 165.113C119.232 163.463 116.693 162.333 114 161.809C113.964 161.805 113.972 161.757 114 161.765Z" fill="#263238"/>
<path d="M116.084 157.016C119.024 157.816 122.036 158.616 124.764 160.024C127.748 161.544 130.084 164.024 132.364 166.424C133.745 167.856 135.093 169.323 136.408 170.824C136.46 170.888 136.376 170.988 136.32 170.924C133.989 168.46 131.589 166.06 129.12 163.724C126.834 161.555 124.143 159.859 121.2 158.732C119.52 158.088 117.792 157.58 116.064 157.068C116.04 157.06 116.052 157.008 116.084 157.016Z" fill="#263238"/>
<path d="M119.224 152.869C122.08 153.457 124.572 153.957 127.1 155.485C130.448 157.513 133.68 160.925 134.812 162.137C136.064 163.473 137.272 164.849 138.456 166.245C138.504 166.301 138.408 166.389 138.356 166.333C135.643 163.272 132.734 160.39 129.648 157.705C128.197 156.405 126.553 155.336 124.776 154.537C122.975 153.829 121.116 153.278 119.22 152.889C119.22 152.889 119.2 152.865 119.224 152.869Z" fill="#263238"/>
<path d="M101.96 148.756L93.9599 174.1C93.9599 174.1 72.2999 167.916 68.3599 163.648C64.4199 159.38 57.0959 137.34 54.9479 126.656C52.7999 115.972 58.1999 116.256 63.1639 122.972C68.1279 129.688 80.4879 146.032 81.1639 146.388C81.8399 146.744 101.96 148.756 101.96 148.756Z" fill="#2E73B8"/>
<path opacity="0.1" d="M101.96 148.756L93.9599 174.1C93.9599 174.1 72.2999 167.916 68.3599 163.648C64.4199 159.38 57.0959 137.34 54.9479 126.656C52.7999 115.972 58.1999 116.256 63.1639 122.972C68.1279 129.688 80.4879 146.032 81.1639 146.388C81.8399 146.744 101.96 148.756 101.96 148.756Z" fill="black"/>
<path d="M91.8804 162.841C92.8524 159.853 93.8444 156.873 94.7004 153.849C95.1884 152.133 95.6844 150.413 96.1564 148.693C96.1764 148.625 96.0684 148.589 96.0444 148.653C94.9524 151.613 93.8644 154.585 92.9084 157.593C91.9524 160.601 90.9804 163.593 90.0684 166.581C89.5524 168.293 89.0844 170.013 88.6724 171.753C88.6724 171.785 88.7204 171.805 88.7324 171.773C89.9244 168.849 90.9044 165.849 91.8804 162.841Z" fill="#263238"/>
<path d="M83.0363 170.616L82.0763 170.28C80.2723 169.636 78.4323 168.944 76.7003 168.236C76.4763 168.148 76.2563 168.056 76.0403 167.964C75.6923 167.82 75.3443 167.672 75.0083 167.524L74.5043 167.304L74.3243 167.224L73.8043 166.984C73.1163 166.668 72.4643 166.352 71.8563 166.032L71.4563 165.808C70.5059 165.319 69.6102 164.731 68.7843 164.052C68.7083 163.984 68.6323 163.916 68.5643 163.848C68.4963 163.78 68.4243 163.712 68.3643 163.648C64.4043 159.38 57.1003 137.34 54.9523 126.656L54.8803 126.288V126.208C54.7363 125.408 54.6083 124.392 54.5043 123.304C54.2043 117.988 56.7203 117.12 59.8283 119.456C67.5763 136.084 79.4443 163.56 83.0363 170.616Z" fill="#263238"/>
<path d="M71.8001 174.872L24.6001 175.12C24.6401 174.104 31.3601 144.384 36.7041 133.416C43.5561 119.352 47.1041 118.216 49.1961 117.464C51.8961 116.496 56.7041 116.976 57.8441 117.516C59.1401 118.12 63.2601 125.312 64.7361 130.588C67.6881 141.2 72.4641 174.224 71.8001 174.872Z" fill="#EBEBEB"/>
<path d="M46.7761 118.576C46.7761 118.576 52.7761 140.796 53.0761 142.272C53.5281 144.416 56.5201 175.008 56.5201 175.008L23.6201 175.12C23.6201 175.12 30.8001 146.8 36.1441 134.4C41.9761 120.8 46.7761 118.576 46.7761 118.576Z" fill="#2E73B8"/>
<g opacity="0.1">
<path d="M46.7761 118.576C46.7761 118.576 52.7761 140.796 53.0761 142.272C53.5281 144.416 56.5201 175.008 56.5201 175.008L23.6201 175.12C23.6201 175.12 30.8001 146.8 36.1441 134.4C41.9761 120.8 46.7761 118.576 46.7761 118.576Z" fill="black"/>
</g>
<path d="M58.2764 117.86C58.4524 118.568 63.9844 136.62 64.3684 141.12C64.7964 146.112 68.5804 175.12 68.5804 175.12H73.3804C73.3804 175.12 66.4324 133.444 64.5244 129.04C60.6204 120.052 58.2764 117.86 58.2764 117.86Z" fill="#2E73B8"/>
<path opacity="0.1" d="M58.2764 117.86C58.4524 118.568 63.9844 136.62 64.3684 141.12C64.7964 146.112 68.5804 175.12 68.5804 175.12H73.3804C73.3804 175.12 66.4324 133.444 64.5244 129.04C60.6204 120.052 58.2764 117.86 58.2764 117.86Z" fill="black"/>
<path d="M40.564 123.773C32.66 132.241 13.444 164.369 19.54 170.229C25.636 176.089 59.48 168.201 68.984 163.669C71.812 162.325 61.068 144.693 57.744 144.281C54.976 143.941 40.832 150.409 40.42 149.597C39.96 148.677 42.208 141.889 45.62 129.597C49.536 115.429 44.06 120.029 40.564 123.773Z" fill="#AD6359"/>
<path d="M71.792 138.593C78.664 137.633 80.592 138.445 85.948 134.557C89.472 132.005 92.616 133.161 90.604 137.213C87.316 143.845 78.708 146.941 75.404 147.157L71.792 138.593Z" fill="#AD6359"/>
<path d="M53.5361 145.2C53.5361 145.2 61.2601 140.912 68.4841 139.168C73.4761 137.968 84.6361 136.548 95.3161 147.568C97.8481 150.18 99.6041 155.7 93.9201 152.936C89.8801 150.972 87.9201 148.508 85.3561 147.792C85.3561 147.792 86.7561 155.076 84.0401 157.512C81.6664 159.641 79.144 161.598 76.4921 163.368C76.0561 162.958 75.6472 162.52 75.2681 162.056C75.2681 162.056 72.5161 164.092 67.3401 163.596L53.5361 145.2Z" fill="#AD6359"/>
<path d="M73.4362 138.801C75.8362 140.045 80.8402 142.769 84.1682 146.425C87.8682 150.489 93.8962 159.305 90.8682 162.025C88.6522 164.005 86.0682 160.825 86.0682 160.825C86.0682 160.825 87.7922 164.997 85.3962 166.345C83.2162 167.577 81.3522 165.009 81.3522 165.009C81.3522 165.009 81.9642 167.717 79.6322 168.497C76.8322 169.433 76.0082 163.601 72.3482 162.097C71.5122 161.737 73.4362 138.801 73.4362 138.801Z" fill="#AD6359"/>
<path d="M79.2284 149.601C81.2804 151.141 85.0484 155.833 86.0884 160.693C86.1124 160.805 86.0444 160.881 86.0004 160.785C84.1935 156.807 81.9101 153.064 79.2004 149.637C79.1684 149.601 79.2004 149.601 79.2284 149.601Z" fill="#263238"/>
<path d="M75.2361 153.452C76.8721 154.964 80.5401 159.972 81.4241 164.936C81.4441 165.048 81.3681 165.12 81.3321 165.02C79.7304 160.956 77.6733 157.085 75.2001 153.484C75.1761 153.46 75.2001 153.432 75.2361 153.452Z" fill="#263238"/>
<path d="M85.3562 147.744C87.5962 148.404 89.0522 149.504 90.9562 150.816C91.883 151.478 92.8458 152.089 93.8402 152.644C94.7522 153.136 96.1002 153.88 97.0682 153.108C97.6122 152.68 97.6042 151.908 97.4682 151.28C97.1947 150.371 96.7789 149.511 96.2362 148.732C96.2362 148.7 96.2642 148.664 96.2882 148.692C96.8121 149.402 97.2625 150.163 97.6322 150.964C97.8744 151.513 97.9455 152.122 97.8362 152.712C97.5042 153.944 96.0482 154.108 95.0362 153.768C94.4229 153.543 93.8334 153.258 93.2762 152.916C92.7322 152.604 92.2042 152.268 91.6762 151.916C90.6122 151.196 89.5922 150.416 88.5362 149.684C87.5103 148.995 86.4415 148.373 85.3362 147.82C85.3278 147.816 85.3211 147.809 85.3172 147.801C85.3133 147.793 85.3124 147.783 85.3148 147.774C85.3172 147.765 85.3226 147.757 85.3302 147.752C85.3377 147.746 85.3469 147.744 85.3562 147.744Z" fill="#263238"/>
<path d="M90.0483 155.625C89.4683 154.349 86.3283 149.029 85.3123 147.797C85.3086 147.791 85.307 147.783 85.3078 147.776C85.3087 147.769 85.3119 147.763 85.317 147.757C85.3221 147.752 85.3287 147.749 85.3358 147.748C85.343 147.747 85.3502 147.749 85.3563 147.753C87.1043 149.409 89.9083 153.805 90.5563 155.213C91.2043 156.621 91.9483 158.385 91.9483 159.933C91.9483 162.273 90.3963 162.733 89.8243 162.833C89.1398 162.957 88.4334 162.841 87.8243 162.505C87.1117 162.069 86.4963 161.492 86.0163 160.809C85.9923 160.777 86.0363 160.733 86.0643 160.765C86.8643 161.689 88.2243 162.597 89.4923 162.429C89.7736 162.402 90.0467 162.319 90.2954 162.186C90.5441 162.052 90.7634 161.869 90.9403 161.649C91.2869 161.086 91.4203 160.418 91.3163 159.765C91.1293 158.323 90.7006 156.924 90.0483 155.625Z" fill="#263238"/>
<path d="M53.5361 145.201L64.3681 168.001C64.3681 168.001 22.0001 177.513 18.3441 170.137C14.6881 162.761 31.1441 133.897 38.5561 125.489C47.1521 115.745 48.2481 119.061 46.3561 127.697C44.3561 136.737 40.5441 149.809 40.5441 149.809L53.5361 145.201Z" fill="#2E73B8"/>
<path opacity="0.1" d="M53.5361 145.201L64.3681 168.001C64.3681 168.001 22.0001 177.513 18.3441 170.137C14.6881 162.761 31.1441 133.897 38.5561 125.489C47.1521 115.745 48.2481 119.061 46.3561 127.697C44.3561 136.737 40.5441 149.809 40.5441 149.809L53.5361 145.201Z" fill="black"/>
<path d="M27.668 155.876C31.576 153.162 35.8673 151.047 40.4 149.6C41.684 149.2 42.98 148.82 44.276 148.448C44.316 148.448 44.332 148.5 44.276 148.512C42.0156 149.244 39.7999 150.107 37.64 151.096C35.4827 152.056 33.3494 153.055 31.24 154.092C30.04 154.68 28.872 155.324 27.696 155.952C27.6881 155.951 27.6808 155.947 27.6747 155.942C27.6686 155.936 27.664 155.93 27.6612 155.922C27.6584 155.914 27.6575 155.906 27.6587 155.898C27.6599 155.89 27.6631 155.883 27.668 155.876Z" fill="#263238"/>
<path d="M53.4243 145.141C53.2123 145.197 41.6243 149.025 41.2443 149.201C41.2923 149.025 43.3723 142.865 43.6843 141.961C43.7123 141.873 43.7403 141.781 43.7723 141.693C43.9803 141.293 44.1963 140.893 44.3923 140.493C44.6403 139.969 44.8883 139.437 45.1323 138.893H45.1083L44.3083 140.441C44.1843 140.677 44.0683 140.921 43.9523 141.165C44.1563 140.529 44.3523 139.889 44.5483 139.245C44.8603 138.225 45.1403 137.193 45.4163 136.161C45.4163 136.125 45.3763 136.117 45.3643 136.161C44.7483 137.957 44.0763 139.733 43.4563 141.529C42.8363 143.325 40.4523 149.929 40.4723 149.929C40.4923 149.929 53.2323 145.425 53.4803 145.325C53.4924 145.321 53.5036 145.315 53.5134 145.307C53.5231 145.299 53.5312 145.289 53.5371 145.278C53.5431 145.267 53.5468 145.255 53.548 145.242C53.5492 145.23 53.548 145.217 53.5443 145.205C53.5406 145.193 53.5346 145.182 53.5266 145.172C53.5186 145.162 53.5087 145.154 53.4975 145.148C53.4864 145.142 53.4742 145.138 53.4616 145.137C53.4491 145.136 53.4364 145.137 53.4243 145.141Z" fill="#263238"/>
<path d="M54.2043 160.001C53.0043 157.461 51.8403 154.905 50.5563 152.401C49.8243 150.981 49.1003 149.557 48.3563 148.145C48.3283 148.093 48.2323 148.145 48.2563 148.189C49.3523 150.789 50.4563 153.389 51.6723 155.945C52.8883 158.501 54.0723 161.025 55.3083 163.545C56.0123 164.977 56.7603 166.386 57.5523 167.773C57.5523 167.801 57.6163 167.773 57.6043 167.773C56.5963 165.125 55.4083 162.569 54.2043 160.001Z" fill="#263238"/>
<path d="M64.9161 168.353C64.4921 167.649 63.9561 166.641 63.5041 165.953C63.3841 165.773 63.2441 165.809 63.3401 165.997C63.6641 166.637 63.9321 167.353 64.2481 167.997C63.6561 168.117 63.0481 168.221 62.4641 168.345C61.7761 168.489 61.0921 168.637 60.4041 168.777C59.0547 169.043 57.7054 169.31 56.3561 169.577C53.6201 170.086 50.8734 170.534 48.1161 170.921C42.5922 171.729 37.03 172.251 31.4521 172.485C29.8921 172.541 28.3281 172.569 26.7681 172.549C25.2293 172.553 23.6913 172.478 22.1601 172.325C22.1161 172.325 22.1081 172.393 22.1601 172.401C23.4776 172.679 24.8151 172.853 26.1601 172.921C27.5721 172.989 28.9881 173.021 30.4041 173.005C33.2041 172.973 36.0321 172.789 38.8361 172.533C44.3961 172.021 49.9401 171.269 55.4361 170.297C56.9774 170.03 58.5147 169.741 60.0481 169.429C60.8241 169.273 61.5961 169.117 62.3681 168.945C63.1401 168.773 64.9881 168.473 64.9161 168.353Z" fill="#263238"/>
<path d="M58.2839 126.153C55.484 126.925 50.4719 122.785 48.4239 119.353C48.2839 119.117 48.5599 116.573 48.7479 113.465C48.8559 111.581 48.9279 109.465 48.8559 107.553C48.8559 107.153 61.028 110.041 61.028 110.041C61.028 110.041 59.9879 114.113 60.1319 117.465C60.1447 117.734 60.1822 118.002 60.2439 118.265C60.255 118.307 60.263 118.349 60.2679 118.393C60.5679 119.877 60.992 125.405 58.2839 126.153Z" fill="#AD6359"/>
<path d="M49.6001 107.601C50.2801 110.833 52.5921 118.613 59.0321 118.521C59.4451 118.517 59.8571 118.479 60.2641 118.409C60.2692 118.365 60.2692 118.32 60.2641 118.277C60.2047 118.013 60.1659 117.746 60.1481 117.477C60.0081 114.121 61.0441 110.045 61.0441 110.045C61.0441 110.045 52.2361 107.965 49.6001 107.601Z" fill="#263238"/>
<path d="M62.4802 101.781C62.3442 104.733 64.3362 107.221 66.9282 107.341C69.5202 107.461 71.7282 105.157 71.8602 102.205C71.9922 99.2527 70.0002 96.7647 67.4122 96.6487C64.8242 96.5327 62.6122 98.8287 62.4802 101.781Z" fill="#455A64"/>
<path d="M71.3845 102.368C71.5331 99.0842 69.317 96.3164 66.4348 96.186C63.5526 96.0556 61.0957 98.612 60.9472 101.896C60.7986 105.18 63.0147 107.947 65.8969 108.078C68.7791 108.208 71.236 105.652 71.3845 102.368Z" fill="#C7C7C7"/>
<path d="M50.4443 92.2368C48.3483 96.1888 48.2163 108.753 50.6803 112.041C54.2523 116.801 61.2723 118.549 65.6003 114.001C69.8123 109.577 69.6923 93.2008 66.8323 90.0928C62.6283 85.5048 53.5403 86.4008 50.4443 92.2368Z" fill="#AD6359"/>
<path d="M60.8922 101.948C60.8922 101.916 60.8243 101.992 60.8283 102.028C60.8723 102.872 60.7843 103.848 60.0283 104.144C60.0043 104.144 60.0083 104.196 60.0283 104.192C60.9643 104.04 61.0682 102.744 60.8922 101.948Z" fill="#263238"/>
<path d="M60.116 101.084C58.752 101.012 58.708 103.744 59.968 103.808C61.228 103.872 61.26 101.144 60.116 101.084Z" fill="#263238"/>
<path d="M65.6283 102.053C65.6283 102.021 65.6923 102.097 65.6923 102.129C65.6523 102.977 65.7483 103.953 66.4923 104.245C66.5163 104.245 66.4923 104.297 66.4923 104.293C65.5683 104.145 65.4523 102.849 65.6283 102.053Z" fill="#263238"/>
<path d="M66.4002 101.2C67.7602 101.116 67.8242 103.848 66.5602 103.924C65.2962 104 65.2562 101.248 66.4002 101.2Z" fill="#263238"/>
<path d="M58.8923 98.9007C59.2923 98.8807 59.6243 98.7967 60.0043 98.7407C60.4051 98.733 60.7921 98.5923 61.1043 98.3407C61.188 98.2443 61.2373 98.1229 61.2446 97.9955C61.2518 97.8681 61.2165 97.7419 61.1443 97.6367C60.9694 97.4526 60.7485 97.3185 60.5046 97.2482C60.2606 97.1779 60.0023 97.1739 59.7563 97.2367C59.235 97.2781 58.7482 97.5136 58.3923 97.8967C58.3177 97.9885 58.2711 98.0998 58.2581 98.2174C58.2451 98.335 58.2663 98.4538 58.319 98.5597C58.3717 98.6655 58.4538 98.754 58.5555 98.8145C58.6571 98.8749 58.7741 98.9049 58.8923 98.9007Z" fill="#263238"/>
<path d="M67.6839 99.2006C67.3188 99.1203 66.9582 99.0201 66.6039 98.9006C66.2105 98.8531 65.8436 98.6774 65.5599 98.4006C65.4882 98.295 65.4536 98.1685 65.4616 98.0411C65.4695 97.9137 65.5196 97.7925 65.6039 97.6966C65.7996 97.5327 66.0353 97.4237 66.2869 97.3808C66.5385 97.3379 66.797 97.3627 67.0359 97.4526C67.5474 97.5601 68.0008 97.8538 68.3079 98.2766C68.3678 98.3771 68.3978 98.4925 68.3945 98.6094C68.3912 98.7263 68.3547 98.8398 68.2893 98.9367C68.2238 99.0336 68.1321 99.1099 68.025 99.1566C67.9178 99.2034 67.7995 99.2186 67.6839 99.2006Z" fill="#263238"/>
<path d="M59.3482 109.793C59.5482 109.993 59.7482 110.269 60.0522 110.301C60.3667 110.298 60.6773 110.23 60.9642 110.101C60.9699 110.1 60.9759 110.1 60.9814 110.102C60.987 110.104 60.9918 110.107 60.9956 110.112C60.9993 110.116 61.0017 110.122 61.0025 110.128C61.0033 110.134 61.0025 110.14 61.0002 110.145C60.8775 110.31 60.7121 110.439 60.5218 110.517C60.3316 110.595 60.1235 110.62 59.9202 110.589C59.7482 110.541 59.5943 110.443 59.4776 110.308C59.3609 110.173 59.2867 110.006 59.2642 109.829C59.2522 109.781 59.3162 109.761 59.3482 109.793Z" fill="#263238"/>
<path d="M60.2802 107.272C60.4891 107.61 60.7657 107.902 61.0927 108.127C61.4198 108.353 61.79 108.509 62.1802 108.584C62.5204 108.657 62.8694 108.68 63.2162 108.652C63.2832 108.65 63.35 108.643 63.4162 108.632L63.6002 108.604C63.6455 108.597 63.6871 108.575 63.7189 108.542C63.7506 108.509 63.7707 108.466 63.7762 108.42C63.7782 108.391 63.7782 108.362 63.7762 108.332V108.256C63.8042 107.604 63.7762 106.612 63.7762 106.612C64.0122 106.736 65.2202 107.304 65.2042 106.964C65.0842 104.14 64.9482 101.004 64.2322 98.2243C64.2282 98.2067 64.2182 98.1909 64.2041 98.1796C64.1899 98.1683 64.1723 98.1621 64.1542 98.1621C64.1361 98.1621 64.1185 98.1683 64.1043 98.1796C64.0901 98.1909 64.0802 98.2067 64.0762 98.2243C64.0762 100.94 64.5722 103.636 64.6242 106.364C64.1958 106.157 63.7408 106.01 63.2722 105.928C63.1802 105.956 63.3962 107.844 63.3602 108.136C63.3611 108.147 63.3611 108.158 63.3602 108.168C62.2602 108.288 61.4402 107.944 60.3922 107.192C60.2962 107.148 60.2282 107.2 60.2802 107.272Z" fill="#263238"/>
<path d="M62.8362 108.313C62.4725 108.773 61.9957 109.132 61.4522 109.353C61.1523 109.464 60.8253 109.479 60.5162 109.397C59.8442 109.205 59.8362 108.597 59.9682 108.057C60.042 107.779 60.148 107.51 60.2842 107.257C61.0007 107.872 61.8948 108.242 62.8362 108.313Z" fill="#263238"/>
<path d="M61.4522 109.353C61.1523 109.464 60.8253 109.479 60.5162 109.397C59.8442 109.205 59.8362 108.597 59.9682 108.057C60.6922 108.145 61.4002 108.649 61.4522 109.353Z" fill="#FF98B9"/>
<path opacity="0.2" d="M48.8721 101.109C49.6961 100.977 51.6721 98.1887 52.5081 97.0807C53.3441 95.9727 53.8281 90.0327 53.9041 88.6807C52.4372 89.5102 51.2359 90.7392 50.4401 92.2247C49.5041 94.0007 48.9641 97.4927 48.8721 101.109Z" fill="#263238"/>
<path d="M64.1241 93.6007C63.6357 94.1365 63.0185 94.5386 62.3311 94.7689C61.6436 94.9992 60.9088 95.0501 60.1961 94.9167C59.4689 94.7829 58.788 94.4653 58.2181 93.9941C57.6482 93.5229 57.2083 92.9138 56.9401 92.2247C56.9401 92.1807 56.8601 92.2047 56.8761 92.2447C57.0924 92.9954 57.5096 93.6727 58.0828 94.2035C58.6559 94.7343 59.3631 95.0985 60.1281 95.2567C60.8882 95.3715 61.6651 95.2841 62.3807 95.0032C63.0962 94.7223 63.7251 94.2579 64.2041 93.6567C64.2069 93.6464 64.2064 93.6355 64.2027 93.6255C64.1991 93.6155 64.1924 93.6069 64.1837 93.6008C64.175 93.5947 64.1646 93.5914 64.1539 93.5914C64.1433 93.5914 64.1329 93.5946 64.1241 93.6007Z" fill="#263238"/>
<path d="M60.0599 82.9525C57.5919 82.9285 55.2879 84.2205 54.3319 85.8685C53.8009 86.8076 53.6035 87.8988 53.7719 88.9645C53.7719 89.0085 53.8639 89.0005 53.8599 88.9645C53.8392 88.0253 54.0715 87.0979 54.5324 86.2794C54.9934 85.461 55.6661 84.7816 56.4799 84.3125C57.371 83.7664 58.3767 83.4345 59.4178 83.3428C60.4589 83.2512 61.5071 83.4024 62.4799 83.7845C63.4281 84.1353 64.2196 84.8134 64.7119 85.6965C64.7599 85.7885 64.9439 85.7365 64.9079 85.6445C64.2839 84.0765 62.2879 82.9725 60.0599 82.9525Z" fill="#263238"/>
<path d="M74.1999 88.7488C73.8341 87.5197 73.0466 86.4588 71.9759 85.7528C70.4919 84.7688 68.7759 84.8528 67.0799 84.9728C67.0704 84.9728 67.0612 84.9766 67.0545 84.9834C67.0477 84.9901 67.0439 84.9993 67.0439 85.0088C67.0439 85.0184 67.0477 85.0275 67.0545 85.0343C67.0612 85.041 67.0704 85.0448 67.0799 85.0448C68.5279 84.9488 70.0039 84.9328 71.3079 85.6568C72.3934 86.2444 73.2415 87.1901 73.7079 88.3328C74.1519 89.5049 74.1576 90.7979 73.724 91.9739C73.2903 93.1498 72.4466 94.1296 71.3479 94.7328C70.7072 95.0638 70.0055 95.2605 69.2861 95.3107C68.5666 95.3609 67.8445 95.2636 67.1639 95.0248C67.1079 95.0048 67.0679 95.0808 67.1199 95.1048C68.0392 95.4671 69.0412 95.5665 70.0137 95.3917C70.9862 95.217 71.8908 94.775 72.6265 94.1154C73.3621 93.4557 73.8996 92.6044 74.1789 91.6566C74.4583 90.7088 74.4683 89.702 74.2079 88.7488H74.1999Z" fill="#263238"/>
<path d="M49.5523 94.6568C49.5523 94.6568 47.3683 90.1648 49.4163 87.6848C50.5763 86.2808 54.2483 86.6008 54.2483 86.6008C54.2483 86.6008 55.5083 84.5328 58.5803 83.9448C61.6523 83.3568 65.2763 85.2808 65.2763 85.2808C65.2763 85.2808 68.2603 83.7168 70.9403 85.3808C74.6803 87.7008 73.9923 93.4968 70.0803 95.2248C67.3363 96.4248 63.7603 93.9208 63.7603 93.9208C63.4043 93.9568 59.7163 95.9968 57.1083 92.6808C57.1083 92.6808 54.8203 94.5687 52.8803 93.1167C52.5503 93.6836 52.054 94.1353 51.4588 94.4107C50.8635 94.6862 50.198 94.7721 49.5523 94.6568Z" fill="#263238"/>
<path d="M51.1243 102.628C51.1243 102.628 49.0483 98.2281 47.0923 98.8841C45.1363 99.5401 46.2203 105.628 48.1803 106.772C48.4221 106.936 48.6947 107.05 48.9815 107.106C49.2683 107.162 49.5635 107.159 49.8493 107.098C50.1351 107.038 50.4057 106.919 50.6447 106.751C50.8838 106.583 51.0864 106.368 51.2403 106.12L51.1243 102.628Z" fill="#AD6359"/>
<path d="M47.4444 100.616C47.4124 100.616 47.3964 100.656 47.4444 100.672C48.8124 101.52 49.3524 103.02 49.6484 104.528C49.3084 103.908 48.7604 103.508 47.9444 103.9C47.9359 103.906 47.9294 103.914 47.9259 103.923C47.9223 103.933 47.9218 103.943 47.9245 103.953C47.9271 103.963 47.9328 103.971 47.9407 103.978C47.9486 103.984 47.9583 103.988 47.9684 103.988C48.2415 103.951 48.5194 103.999 48.7643 104.126C49.0091 104.253 49.2088 104.452 49.3364 104.696C49.5437 105.107 49.7073 105.539 49.8244 105.984C49.8724 106.128 50.1204 106.096 50.0964 105.936C50.0982 105.924 50.0982 105.912 50.0964 105.9C50.4324 104.032 49.4284 101.156 47.4444 100.616Z" fill="#263238"/>
<path d="M55.648 111.489L51.708 109.789L48.54 105.845L49.148 105.353L52.196 109.149L55.96 110.773L55.648 111.489Z" fill="#C7C7C7"/>
<path d="M55.2283 110.861C55.6283 109.713 58.8283 110.137 58.2483 111.873C57.6683 113.609 54.8403 112.001 55.2283 110.861Z" fill="#37474F"/>
<path d="M47.0319 98.7641C47.0319 98.7641 46.6039 92.3121 48.4919 88.7641C50.5959 84.8001 59.3159 81.0281 65.2919 85.2881C65.2919 85.2881 55.5839 83.5521 51.0599 89.0481C49.1559 91.3601 49.2039 98.9441 49.2039 98.9441L47.0319 98.7641Z" fill="#C7C7C7"/>
<path d="M47.9125 108.031C50.7975 108.002 53.1097 105.314 53.077 102.027C53.0443 98.7404 50.679 96.099 47.7941 96.1277C44.9091 96.1564 42.5968 98.8444 42.6295 102.131C42.6622 105.418 45.0275 108.06 47.9125 108.031Z" fill="#C7C7C7"/>
<path d="M51.5523 101.857C51.5803 104.813 49.5043 107.229 46.9123 107.253C44.3203 107.277 42.1923 104.905 42.1643 101.949C42.1363 98.9929 44.2123 96.5769 46.8043 96.5529C49.3963 96.5289 51.5243 98.9009 51.5523 101.857Z" fill="#455A64"/>
<path d="M60.22 118.192L57.4 125.312L48.528 116.36L46.04 119.256C46.04 119.256 54.74 133.5 54.792 132.856L57.692 126.716L61.94 130.96L61.54 120.264L60.22 118.192Z" fill="#EBEBEB"/>
<path d="M62.0444 125.661C61.9204 123.897 61.8484 122.117 61.6444 120.361C61.6444 120.301 61.5404 120.273 61.5244 120.361C61.1804 122.069 61.6884 128.809 61.6884 130.429H61.6684C61.4924 130.245 57.7324 126.697 57.6964 126.753C57.0684 127.729 54.9364 132.197 54.7924 132.605C53.4164 130.341 47.5924 121.425 45.9524 119.285C45.9444 119.271 45.9313 119.261 45.9159 119.257C45.9005 119.253 45.8842 119.255 45.8704 119.263C45.8566 119.271 45.8465 119.284 45.8424 119.299C45.8383 119.315 45.8404 119.331 45.8484 119.345C47.0484 121.745 54.6084 133.509 54.7124 133.477C55.8347 131.368 56.848 129.202 57.7484 126.989C58.3844 127.761 62.1764 131.769 62.1884 131.505C62.2436 129.556 62.1956 127.605 62.0444 125.661Z" fill="#263238"/>
<path d="M157.136 99.4718H144.764C143.565 99.4708 142.415 98.9938 141.566 98.1456C140.718 97.2974 140.241 96.1473 140.24 94.9478C140.24 93.748 140.717 92.5973 141.565 91.7489C142.414 90.9005 143.564 90.4238 144.764 90.4238H157.136C158.336 90.4238 159.487 90.9005 160.335 91.7489C161.184 92.5973 161.66 93.748 161.66 94.9478C161.66 95.5419 161.543 96.1302 161.316 96.6791C161.089 97.228 160.755 97.7267 160.335 98.1468C159.915 98.5669 159.416 98.9001 158.867 99.1275C158.319 99.3548 157.73 99.4718 157.136 99.4718Z" fill="#455A64"/>
<path d="M147.468 94.8675C147.477 94.7244 147.524 94.5862 147.604 94.4675L147.716 94.3035L147.952 94.0675L148.228 93.8675C148.608 93.6256 149.032 93.4611 149.476 93.3835C150.5 93.1795 151.553 93.1795 152.576 93.3835C153.015 93.4584 153.433 93.6203 153.808 93.8595C153.904 93.9235 154 93.9955 154.092 94.0635L154.324 94.2955C154.385 94.3832 154.441 94.474 154.492 94.5675C154.531 94.6637 154.563 94.7626 154.588 94.8635H152.56C152.545 94.8655 152.529 94.8623 152.515 94.8544C152.501 94.8464 152.49 94.8342 152.484 94.8195C152.429 94.7119 152.346 94.6209 152.244 94.5556C152.142 94.4903 152.025 94.453 151.904 94.4475C151.314 94.4095 150.722 94.4095 150.132 94.4475C150.012 94.4525 149.896 94.4892 149.795 94.5538C149.693 94.6185 149.611 94.7087 149.556 94.8155C149.556 94.8435 149.528 94.8635 149.488 94.8635H147.468V94.8675Z" fill="white"/>
<path d="M147.468 95.9998V95.2598H149.468C149.468 95.3038 149.468 95.3518 149.468 95.4038V95.9998C149.474 96.0346 149.471 96.0703 149.46 96.1039C149.449 96.1374 149.43 96.1679 149.405 96.1929C149.38 96.2178 149.35 96.2365 149.316 96.2475C149.283 96.2584 149.247 96.2612 149.212 96.2558H147.72C147.686 96.2614 147.65 96.2587 147.617 96.2478C147.583 96.2368 147.553 96.2181 147.528 96.193C147.503 96.1679 147.485 96.1373 147.475 96.1036C147.464 96.07 147.462 96.0344 147.468 95.9998Z" fill="white"/>
<path d="M152.577 96.0235C152.577 95.7715 152.577 95.5195 152.577 95.2715H154.557V95.3155C154.557 95.5475 154.557 95.7835 154.557 96.0155C154.56 96.049 154.557 96.0829 154.546 96.1147C154.534 96.1466 154.516 96.1755 154.492 96.1993C154.469 96.2232 154.44 96.2413 154.408 96.2524C154.376 96.2635 154.342 96.2673 154.309 96.2635H152.801C152.769 96.2648 152.738 96.2594 152.709 96.2476C152.681 96.2358 152.655 96.2179 152.633 96.1951C152.612 96.1723 152.596 96.1451 152.586 96.1155C152.576 96.0859 152.573 96.0545 152.577 96.0235Z" fill="white"/>
<path d="M106.376 175.6H103.632V177.392H106.376V175.6Z" fill="#455A64"/>
<path d="M109.932 175.479H107.188V177.271H109.932V175.479Z" fill="#455A64"/>
<path d="M113.492 175.359H110.748V177.151H113.492V175.359Z" fill="#455A64"/>
<path d="M117.052 175.244H114.308V177.036H117.052V175.244Z" fill="#455A64"/>
<path d="M120.612 175.124H117.868V176.916H120.612V175.124Z" fill="#455A64"/>
<path d="M124.172 175.008H121.428V176.8H124.172V175.008Z" fill="#455A64"/>
<path d="M127.732 174.888H124.988V176.68H127.732V174.888Z" fill="#455A64"/>
<path d="M131.292 174.768H128.548V176.56H131.292V174.768Z" fill="#455A64"/>
<path d="M134.848 174.651H132.104V176.443H134.848V174.651Z" fill="#455A64"/>
<path d="M135.524 178.42H102.956V176.24L135.524 175.332V178.42Z" fill="#37474F"/>
<path d="M167.308 169.824H113.548L122.096 129.8H175.856L167.308 169.824Z" fill="#455A64"/>
<path d="M169.296 169.824H115.536L124.084 129.8H177.844L169.296 169.824Z" fill="#37474F"/>
<path d="M150.098 149.741C151.557 148.393 151.806 146.29 150.654 145.044C149.503 143.798 147.387 143.881 145.928 145.228C144.47 146.576 144.221 148.679 145.372 149.925C146.523 151.171 148.639 151.089 150.098 149.741Z" fill="#263238"/>
<path d="M154.092 180.276H127.652V178.22L154.092 177.368V180.276Z" fill="#455A64"/>
<path d="M161.28 180.272H147.084L138.532 157.844H152.728L161.28 180.272Z" fill="#455A64"/>
<path d="M163.616 180.272H149.42L140.872 157.844H155.068L163.616 180.272Z" fill="#263238"/>
<path d="M101.952 180.82H74.6921C72.3681 180.82 75.7321 174.196 84.2241 171.656C92.7161 169.116 104.632 178.336 101.952 180.82Z" fill="#37474F"/>
<path d="M91.2559 180.819C91.2778 180.065 91.4029 179.316 91.6279 178.595C91.8475 177.869 92.1551 177.172 92.5439 176.519C92.935 175.864 93.4233 175.272 93.9919 174.763C94.5543 174.253 95.203 173.847 95.9079 173.563C95.6159 173.803 95.2839 173.963 95.0159 174.231L94.6159 174.587L94.2159 174.987C93.7104 175.515 93.2675 176.099 92.8959 176.727C92.5184 177.356 92.1946 178.016 91.9279 178.699C91.6565 179.39 91.432 180.099 91.2559 180.819Z" fill="#263238"/>
<path d="M94.4839 174.516C96.103 175.051 97.6352 175.821 99.0319 176.8C99.7377 177.287 100.377 177.866 100.932 178.52C101.205 178.854 101.439 179.218 101.632 179.604C101.822 179.989 101.931 180.41 101.952 180.84C101.856 180.432 101.69 180.045 101.46 179.696C101.242 179.345 100.987 179.019 100.7 178.724C100.117 178.133 99.481 177.597 98.7999 177.124C98.1239 176.636 97.4079 176.2 96.6919 175.768C96.3319 175.552 95.9639 175.344 95.5959 175.144C95.2279 174.944 94.8559 174.72 94.4839 174.516Z" fill="#263238"/>
<path d="M103.904 89.9552C103.669 92.1861 102.819 94.3079 101.448 96.0837C100.077 97.8596 98.24 99.2198 96.1415 100.013C94.0429 100.805 91.7653 100.999 89.5628 100.573C87.3603 100.147 85.3196 99.1175 83.6681 97.5992L77.6001 98.5032L80.6321 93.2672C79.8745 91.4225 79.5885 89.4181 79.8001 87.4352C79.9554 85.8452 80.4238 84.3017 81.1782 82.8935C81.9325 81.4853 82.958 80.2403 84.1956 79.2301C85.4332 78.2199 86.8584 77.4645 88.3891 77.0074C89.9198 76.5503 91.5259 76.4005 93.1147 76.5667C94.7036 76.7329 96.2439 77.2118 97.6469 77.9757C99.0499 78.7397 100.288 79.7737 101.29 81.0181C102.291 82.2625 103.037 83.6928 103.484 85.2266C103.93 86.7605 104.069 88.3675 103.892 89.9552H103.904Z" fill="white"/>
<path d="M103.904 89.9559C103.671 92.1888 102.826 94.3138 101.46 96.0959C101.121 96.5392 100.755 96.9613 100.364 97.3599C99.959 97.7446 99.5316 98.1053 99.0842 98.4399C98.193 99.1183 97.2098 99.6664 96.1642 100.068C95.119 100.477 94.0217 100.738 92.9042 100.844C92.3444 100.897 91.7815 100.907 91.2202 100.876C90.6579 100.863 90.0975 100.805 89.5442 100.704C87.3081 100.294 85.2305 99.2686 83.5442 97.7439L83.6882 97.7879L77.6362 98.7199L77.2002 98.7999L77.4202 98.3999L80.4362 93.1479V93.3559C79.7285 91.6354 79.4225 89.7761 79.5417 87.9196C79.6608 86.063 80.2018 84.2581 81.1235 82.6421C82.0453 81.0262 83.3235 79.6417 84.8609 78.5942C86.3983 77.5466 88.1544 76.8636 89.9956 76.597C91.8368 76.3304 93.7145 76.4872 95.4859 77.0556C97.2573 77.6241 98.8757 78.589 100.218 79.8772C101.56 81.1653 102.591 82.7426 103.232 84.4891C103.873 86.2356 104.107 88.1053 103.916 89.9559H103.904ZM103.904 89.9559C104.094 88.1329 103.864 86.2907 103.231 84.5705C102.599 82.8504 101.58 81.298 100.255 80.0324C98.9288 78.7669 97.3307 77.8219 95.583 77.2699C93.8353 76.7178 91.9844 76.5735 90.1722 76.8479C88.3752 77.1159 86.6635 77.7919 85.1682 78.8239C83.6894 79.8645 82.4531 81.2127 81.5442 82.7759C80.6498 84.3471 80.122 86.1001 80.0002 87.9039C79.8884 89.7113 80.1823 91.5208 80.8602 93.1999L80.9042 93.3079L80.8442 93.4039L77.7962 98.6319L77.5802 98.3119L83.6442 97.4639H83.7282L83.7882 97.5199C85.4066 99.035 87.415 100.07 89.5882 100.508C90.1302 100.617 90.6799 100.684 91.2322 100.708C91.7835 100.746 92.3369 100.746 92.8882 100.708C93.9949 100.623 95.0842 100.384 96.1242 99.9959C97.1694 99.6181 98.1533 99.0884 99.0442 98.4239C99.4905 98.0922 99.9179 97.7356 100.324 97.3559C100.716 96.9614 101.083 96.5433 101.424 96.1039C102.804 94.3239 103.663 92.1954 103.904 89.9559Z" fill="#263238"/>
<path d="M98.6123 89.0636C98.6131 89.3541 98.5276 89.6383 98.3668 89.8803C98.206 90.1222 97.977 90.311 97.7088 90.4227C97.4407 90.5344 97.1454 90.5641 96.8603 90.5079C96.5753 90.4517 96.3134 90.3122 96.1077 90.1071C95.902 89.9019 95.7617 89.6404 95.7048 89.3555C95.6478 89.0706 95.6766 88.7752 95.7876 88.5068C95.8986 88.2383 96.0868 88.0088 96.3283 87.8473C96.5698 87.6858 96.8538 87.5996 97.1443 87.5996C97.3369 87.5991 97.5277 87.6366 97.7057 87.7099C97.8838 87.7832 98.0457 87.891 98.1821 88.027C98.3184 88.163 98.4266 88.3246 98.5004 88.5024C98.5743 88.6803 98.6123 88.871 98.6123 89.0636Z" fill="#263238"/>
<path d="M93.3564 89.0636C93.3572 89.3543 93.2717 89.6387 93.1107 89.8807C92.9497 90.1227 92.7204 90.3115 92.452 90.4231C92.1836 90.5347 91.8881 90.5641 91.603 90.5076C91.3179 90.4511 91.0559 90.3112 90.8504 90.1056C90.6448 89.9001 90.5049 89.6382 90.4484 89.353C90.3919 89.0679 90.4213 88.7724 90.5329 88.504C90.6445 88.2356 90.8333 88.0063 91.0753 87.8453C91.3174 87.6843 91.6017 87.5988 91.8924 87.5996C92.2807 87.5996 92.6531 87.7539 92.9276 88.0284C93.2022 88.303 93.3564 88.6753 93.3564 89.0636Z" fill="#263238"/>
<path d="M88.104 89.0636C88.1048 89.3541 88.0193 89.6383 87.8585 89.8803C87.6977 90.1222 87.4687 90.311 87.2005 90.4227C86.9323 90.5344 86.6371 90.5641 86.352 90.5079C86.067 90.4517 85.8051 90.3122 85.5994 90.1071C85.3936 89.9019 85.2534 89.6403 85.1965 89.3555C85.1395 89.0706 85.1683 88.7752 85.2793 88.5068C85.3903 88.2383 85.5785 88.0088 85.82 87.8473C86.0615 87.6858 86.3454 87.5996 86.636 87.5996C87.0246 87.5996 87.3974 87.7537 87.6726 88.0282C87.9478 88.3026 88.1029 88.675 88.104 89.0636Z" fill="#263238"/>
<path d="M109.036 27.147C109.271 29.3779 110.122 31.4996 111.492 33.2756C112.862 35.0516 114.699 36.4122 116.797 37.2056C118.896 37.9991 121.173 38.1942 123.376 37.7693C125.578 37.3443 127.62 36.3161 129.272 34.799L135.328 35.687L132.3 30.451C132.994 28.746 133.291 26.9051 133.167 25.0683C133.044 23.2315 132.503 21.447 131.586 19.8505C130.669 18.2541 129.4 16.8876 127.876 15.855C126.352 14.8225 124.612 14.1509 122.79 13.8914C120.967 13.6319 119.109 13.7914 117.358 14.3576C115.606 14.9238 114.006 15.8819 112.68 17.159C111.354 18.4362 110.337 19.9988 109.705 21.7281C109.074 23.4575 108.845 25.308 109.036 27.139V27.147Z" fill="white"/>
<path d="M112.66 17.1435C113.979 15.8426 115.58 14.8623 117.338 14.2784C119.096 13.6944 120.965 13.5223 122.8 13.7755C124.649 14.0193 126.416 14.6829 127.968 15.7155C130.32 17.285 132.056 19.6189 132.883 22.3219C133.711 25.025 133.578 27.9309 132.508 30.5475V30.3395L135.516 35.5995L135.736 35.9995L135.3 35.9315L129.244 35.0035L129.388 34.9595C127.702 36.4843 125.624 37.5092 123.388 37.9195C122.835 38.0209 122.275 38.0784 121.712 38.0915C121.152 38.1209 120.591 38.1102 120.032 38.0595C117.789 37.8456 115.649 37.015 113.848 35.6595C113.401 35.3249 112.974 34.9643 112.568 34.5795C112.179 34.18 111.813 33.758 111.472 33.3155C109.659 30.9465 108.778 27.9947 108.995 25.0193C109.213 22.044 110.514 19.2517 112.652 17.1715L112.66 17.1435ZM111.516 33.2595C111.857 33.6976 112.225 34.1144 112.616 34.5075C113.021 34.8895 113.448 35.2462 113.896 35.5755C114.787 36.2436 115.773 36.7748 116.82 37.1515C117.86 37.5375 118.947 37.7771 120.052 37.8635C120.605 37.9015 121.16 37.9015 121.712 37.8635C122.263 37.8391 122.812 37.7722 123.352 37.6635C125.526 37.2253 127.534 36.1907 129.152 34.6755L129.212 34.6195H129.296L135.36 35.4675L135.144 35.7875L132.096 30.5595L132.036 30.4595L132.08 30.3515C132.759 28.679 133.051 26.8743 132.932 25.073C132.814 23.2718 132.289 21.5208 131.396 19.9515C130.489 18.3875 129.252 17.0391 127.772 15.9995C126.278 14.9682 124.568 14.2923 122.772 14.0235C120.399 13.6571 117.97 14.0126 115.802 15.044C113.633 16.0753 111.824 17.7349 110.611 19.8071C109.397 21.8794 108.835 24.2687 108.996 26.6647C109.158 29.0607 110.036 31.3529 111.516 33.2435V33.2595Z" fill="#263238"/>
<path d="M122.16 27.3674V28.8794C122.163 29.03 122.136 29.1797 122.08 29.3195C122.024 29.4593 121.94 29.5863 121.834 29.6928C121.727 29.7993 121.6 29.8831 121.46 29.9393C121.321 29.9954 121.171 30.0227 121.02 30.0194C120.718 30.0183 120.429 29.8979 120.215 29.6843C120.002 29.4708 119.881 29.1814 119.88 28.8794V26.4794C119.88 26.4554 119.904 26.4554 119.904 26.4314C119.904 26.4074 119.88 26.4074 119.88 26.3874C119.888 26.0876 120.011 25.8023 120.223 25.5902C120.435 25.3782 120.72 25.2555 121.02 25.2474C121.379 25.2755 121.739 25.2292 122.079 25.1113C122.419 24.9934 122.731 24.8065 122.995 24.5623C123.259 24.3181 123.47 24.022 123.614 23.6924C123.758 23.3629 123.832 23.0071 123.832 22.6474C123.832 22.2877 123.758 21.9319 123.614 21.6023C123.47 21.2728 123.259 20.9766 122.995 20.7324C122.731 20.4883 122.419 20.3013 122.079 20.1835C121.739 20.0656 121.379 20.0192 121.02 20.0474C120.568 20.0456 120.124 20.1629 119.732 20.3877C119.34 20.6124 119.015 20.9366 118.788 21.3274C118.71 21.4597 118.607 21.5752 118.484 21.6672C118.361 21.7591 118.221 21.8257 118.072 21.8629C117.923 21.9001 117.768 21.9073 117.617 21.8841C117.465 21.8608 117.319 21.8075 117.188 21.7274C117.059 21.6515 116.947 21.5508 116.857 21.4312C116.767 21.3117 116.701 21.1755 116.664 21.0305C116.627 20.8856 116.619 20.7347 116.64 20.5866C116.661 20.4384 116.712 20.296 116.788 20.1674C117.193 19.465 117.766 18.8743 118.456 18.4484C119.146 18.0226 119.931 17.775 120.74 17.728C121.549 17.6809 122.357 17.8359 123.092 18.1789C123.826 18.522 124.464 19.0423 124.947 19.6931C125.431 20.3439 125.745 21.1047 125.861 21.9069C125.977 22.7092 125.892 23.5278 125.613 24.289C125.334 25.0502 124.871 25.7301 124.264 26.2675C123.657 26.8049 122.926 27.1828 122.136 27.3674H122.16ZM122.16 32.4594V32.8594C122.164 33.0101 122.137 33.1601 122.081 33.3001C122.025 33.4402 121.942 33.5674 121.835 33.674C121.728 33.7807 121.601 33.8645 121.461 33.9204C121.321 33.9764 121.171 34.0032 121.02 33.9994C120.718 33.9994 120.428 33.8793 120.214 33.6655C120 33.4517 119.88 33.1617 119.88 32.8594V32.4594C119.884 32.1583 120.006 31.8708 120.219 31.6579C120.432 31.445 120.719 31.3235 121.02 31.3194C121.17 31.3178 121.319 31.3462 121.458 31.4029C121.597 31.4596 121.724 31.5435 121.83 31.6497C121.936 31.7559 122.02 31.8822 122.077 32.0212C122.133 32.1603 122.162 32.3092 122.16 32.4594Z" fill="#2E73B8"/>
</svg>
