<svg width="200" height="200" viewBox="0 0 200 200" fill="none" xmlns="http://www.w3.org/2000/svg">
<path d="M52.6364 20.2273L38.5173 9.17245C37.6111 8.4629 36.3013 8.62234 35.5917 9.52856L12.1603 39.4548C11.4507 40.361 11.6102 41.6708 12.5164 42.3804L26.6354 53.4352C27.5417 54.1448 28.8515 53.9853 29.5611 53.0791L52.9925 23.1529C53.702 22.2467 53.5426 20.9368 52.6364 20.2273Z" fill="#F5F5F5"/>
<path d="M27.1162 49.4241C27.0922 49.4481 24.8002 47.6921 21.9962 45.4961C19.1922 43.3001 16.9362 41.4961 16.9562 41.4681C16.9762 41.4401 19.2682 43.2001 22.0762 45.3961C24.8842 47.5921 27.1362 49.3961 27.1162 49.4241Z" fill="#E0E0E0"/>
<path d="M48.3521 21.1282C48.3281 21.1562 46.0361 19.3962 43.2321 17.2002C40.4281 15.0042 38.1681 13.2002 38.1921 13.1722C38.2161 13.1442 40.5041 14.9042 43.3121 17.1002C46.1201 19.2962 48.3721 21.1002 48.3521 21.1282Z" fill="#E0E0E0"/>
<path d="M21.7482 45.1359C21.7202 45.1119 26.5722 38.8719 32.5802 31.1999C38.5882 23.5279 43.4842 17.3199 43.5122 17.3399C43.5402 17.3599 38.6922 23.5999 32.6802 31.2759C26.6682 38.9519 21.7762 45.1559 21.7482 45.1359Z" fill="#E0E0E0"/>
<path d="M35.1523 19.252L36.4283 17.54L38.0283 18.74C38.1407 18.8237 38.2355 18.9286 38.3072 19.049C38.3789 19.1693 38.4261 19.3026 38.4462 19.4412C38.4662 19.5798 38.4587 19.721 38.4241 19.8567C38.3895 19.9924 38.3284 20.12 38.2443 20.232C38.0754 20.4587 37.8235 20.6092 37.5438 20.6504C37.2641 20.6916 36.9795 20.6203 36.7523 20.452L35.1523 19.252Z" fill="#EBEBEB"/>
<path d="M36.7161 17.7566L35.4401 19.4646L33.8401 18.2646C33.61 18.098 33.4555 17.8468 33.4105 17.5663C33.3655 17.2858 33.4337 16.9989 33.6001 16.7686C33.6837 16.6563 33.7887 16.5615 33.909 16.4898C34.0293 16.4181 34.1626 16.3709 34.3012 16.3508C34.4398 16.3308 34.5811 16.3383 34.7168 16.3729C34.8525 16.4075 34.98 16.4686 35.0921 16.5526L36.7161 17.7566Z" fill="#E0E0E0"/>
<path d="M43.416 25.5645L44.692 23.8525L46.292 25.0525C46.519 25.2222 46.6695 25.4748 46.7107 25.7551C46.7519 26.0355 46.6805 26.3207 46.512 26.5485C46.3418 26.7749 46.0889 26.9246 45.8086 26.9651C45.5283 27.0055 45.2433 26.9334 45.016 26.7645L43.416 25.5645Z" fill="#EBEBEB"/>
<path d="M44.9801 24.0641L43.7041 25.7761L42.1041 24.5761C41.9917 24.4925 41.897 24.3875 41.8253 24.2672C41.7536 24.1468 41.7063 24.0136 41.6863 23.8749C41.6662 23.7363 41.6737 23.5951 41.7083 23.4594C41.743 23.3237 41.8041 23.1961 41.8881 23.0841C41.9717 22.9717 42.0767 22.877 42.197 22.8053C42.3173 22.7336 42.4506 22.6863 42.5892 22.6663C42.7279 22.6462 42.8691 22.6537 43.0048 22.6883C43.1405 22.723 43.268 22.784 43.3801 22.8681L44.9801 24.0641Z" fill="#E0E0E0"/>
<path d="M31.5723 23.9718L32.8483 22.2598L34.4483 23.4598C34.6752 23.6294 34.8257 23.882 34.867 24.1624C34.9082 24.4427 34.8367 24.728 34.6683 24.9558C34.498 25.1821 34.2451 25.3318 33.9648 25.3723C33.6845 25.4128 33.3996 25.3407 33.1723 25.1718L31.5723 23.9718Z" fill="#EBEBEB"/>
<path d="M33.1323 22.4723L31.8603 24.1843L30.2603 22.9843C30.148 22.9007 30.0532 22.7957 29.9815 22.6754C29.9098 22.555 29.8626 22.4218 29.8425 22.2831C29.8225 22.1445 29.83 22.0033 29.8646 21.8676C29.8992 21.7319 29.9603 21.6043 30.0443 21.4923C30.128 21.3799 30.2329 21.2852 30.3533 21.2135C30.4736 21.1418 30.6069 21.0945 30.7455 21.0745C30.8841 21.0544 31.0253 21.0619 31.161 21.0965C31.2968 21.1312 31.4243 21.1922 31.5363 21.2763L33.1323 22.4723Z" fill="#E0E0E0"/>
<path d="M40.0244 30.4199L41.3004 28.7119L42.9004 29.9119C43.1271 30.0809 43.2775 30.3328 43.3188 30.6124C43.36 30.8921 43.2887 31.1767 43.1204 31.4039C43.0367 31.5167 42.9316 31.6119 42.8111 31.684C42.6906 31.7562 42.557 31.8038 42.4181 31.8242C42.2791 31.8447 42.1375 31.8375 42.0013 31.8031C41.8651 31.7688 41.737 31.7079 41.6244 31.6239L40.0244 30.4199Z" fill="#EBEBEB"/>
<path d="M41.6001 28.9244L40.3281 30.6364L38.7281 29.4364C38.6158 29.3528 38.521 29.2478 38.4493 29.1275C38.3776 29.0072 38.3304 28.8739 38.3103 28.7353C38.2902 28.5967 38.2977 28.4554 38.3324 28.3197C38.367 28.184 38.4281 28.0565 38.5121 27.9444C38.6811 27.7178 38.933 27.5673 39.2127 27.5261C39.4923 27.4848 39.7769 27.5562 40.0041 27.7244L41.6001 28.9244Z" fill="#E0E0E0"/>
<path d="M28 28.6886L29.276 26.9766L30.876 28.1766C30.9884 28.2602 31.0831 28.3652 31.1548 28.4855C31.2265 28.6058 31.2738 28.7391 31.2938 28.8777C31.3139 29.0163 31.3064 29.1575 31.2718 29.2933C31.2371 29.429 31.176 29.5565 31.092 29.6686C30.9231 29.8952 30.6711 30.0457 30.3915 30.0869C30.1118 30.1282 29.8272 30.0568 29.6 29.8886L28 28.6886Z" fill="#EBEBEB"/>
<path d="M29.552 27.2L28.276 28.912L26.676 27.712C26.5633 27.6287 26.4682 27.5239 26.3962 27.4038C26.3241 27.2836 26.2765 27.1503 26.256 27.0117C26.2356 26.8731 26.2427 26.7318 26.277 26.5959C26.3114 26.46 26.3722 26.3323 26.456 26.22C26.6247 25.9968 26.8743 25.8487 27.151 25.8075C27.4278 25.7664 27.7097 25.8355 27.936 26L29.552 27.2Z" fill="#E0E0E0"/>
<path d="M36.6323 35.2804L37.9043 33.5684L39.5043 34.7684C39.6167 34.852 39.7114 34.957 39.7831 35.0773C39.8548 35.1976 39.9021 35.3309 39.9221 35.4695C39.9422 35.6081 39.9347 35.7493 39.9001 35.8851C39.8655 36.0208 39.8044 36.1483 39.7203 36.2604C39.5514 36.487 39.2995 36.6375 39.0198 36.6787C38.7401 36.72 38.4555 36.6486 38.2283 36.4804L36.6323 35.2804Z" fill="#EBEBEB"/>
<path d="M38.1924 33.7842L36.9164 35.4962L35.3164 34.2962C35.2027 34.2134 35.1064 34.109 35.0332 33.9889C34.9599 33.8688 34.9111 33.7354 34.8896 33.5964C34.868 33.4574 34.8741 33.3155 34.9076 33.1789C34.941 33.0422 35.0011 32.9136 35.0844 32.8002C35.2541 32.5733 35.5067 32.4228 35.787 32.3815C36.0674 32.3403 36.3526 32.4117 36.5804 32.5802L38.1924 33.7842Z" fill="#E0E0E0"/>
<path d="M23.9282 33.5362L25.2002 31.8242L26.8002 33.0242C26.9126 33.1078 27.0073 33.2128 27.079 33.3331C27.1507 33.4535 27.198 33.5867 27.218 33.7254C27.2381 33.864 27.2306 34.0052 27.196 34.1409C27.1613 34.2766 27.1003 34.4042 27.0162 34.5162C26.9326 34.6286 26.8276 34.7233 26.7073 34.795C26.587 34.8667 26.4537 34.914 26.3151 34.934C26.1765 34.9541 26.0352 34.9466 25.8995 34.912C25.7638 34.8773 25.6363 34.8163 25.5242 34.7322L23.9282 33.5362Z" fill="#EBEBEB"/>
<path d="M25.488 32.0365L24.212 33.7485L22.612 32.5485C22.3863 32.3777 22.2373 32.1245 22.1976 31.8442C22.1579 31.564 22.2306 31.2794 22.4 31.0525C22.5702 30.8262 22.8231 30.6765 23.1034 30.636C23.3837 30.5955 23.6687 30.6676 23.896 30.8365L25.488 32.0365Z" fill="#E0E0E0"/>
<path d="M32.6401 40.0284L33.9161 38.3164L35.5161 39.5164C35.6288 39.5997 35.7239 39.7045 35.796 39.8247C35.8681 39.9448 35.9157 40.0781 35.9361 40.2167C35.9566 40.3553 35.9494 40.4966 35.9151 40.6325C35.8808 40.7684 35.82 40.8961 35.7361 41.0084C35.6525 41.1208 35.5475 41.2155 35.4272 41.2872C35.3069 41.3589 35.1736 41.4062 35.035 41.4262C34.8964 41.4463 34.7552 41.4388 34.6194 41.4042C34.4837 41.3695 34.3562 41.3084 34.2441 41.2244L32.6401 40.0284Z" fill="#EBEBEB"/>
<path d="M34.2044 38.532L32.9284 40.24L31.3284 39.04C31.1021 38.8698 30.9524 38.6169 30.9119 38.3366C30.8714 38.0563 30.9435 37.7714 31.1124 37.544C31.196 37.4317 31.301 37.3369 31.4213 37.2652C31.5416 37.1935 31.6749 37.1463 31.8136 37.1262C31.9522 37.1061 32.0934 37.1136 32.2291 37.1483C32.3648 37.1829 32.4924 37.244 32.6044 37.328L34.2044 38.532Z" fill="#E0E0E0"/>
<path d="M20.3364 38.9962L21.6004 37.2842L23.2004 38.4842C23.4267 38.6544 23.5765 38.9073 23.617 39.1876C23.6574 39.4679 23.5853 39.7529 23.4164 39.9802C23.3328 40.0925 23.2278 40.1873 23.1075 40.259C22.9872 40.3307 22.8539 40.3779 22.7153 40.398C22.5767 40.4181 22.4354 40.4106 22.2997 40.3759C22.164 40.3413 22.0365 40.2802 21.9244 40.1962L20.3364 38.9962Z" fill="#EBEBEB"/>
<path d="M21.9002 37.4958L20.6242 39.1998L19.0242 37.9998C18.7981 37.8315 18.6476 37.5807 18.6057 37.302C18.5637 37.0232 18.6336 36.7392 18.8002 36.5118C18.8838 36.3994 18.9888 36.3047 19.1091 36.233C19.2294 36.1613 19.3627 36.1141 19.5014 36.094C19.64 36.0739 19.7812 36.0814 19.9169 36.1161C20.0526 36.1507 20.1802 36.2118 20.2922 36.2958L21.9002 37.4958Z" fill="#E0E0E0"/>
<path d="M28.6284 45.172L29.9044 43.46L31.5044 44.66C31.6171 44.7433 31.7122 44.848 31.7843 44.9682C31.8563 45.0884 31.904 45.2216 31.9244 45.3603C31.9449 45.4989 31.9377 45.6402 31.9034 45.7761C31.8691 45.9119 31.8082 46.0397 31.7244 46.152C31.6408 46.2643 31.5358 46.3591 31.4155 46.4308C31.2952 46.5025 31.1619 46.5497 31.0233 46.5698C30.8847 46.5899 30.7434 46.5824 30.6077 46.5477C30.472 46.5131 30.3445 46.452 30.2324 46.368L28.6284 45.172Z" fill="#EBEBEB"/>
<path d="M30.1922 43.6726L28.9162 45.3846L27.3162 44.1846C27.0899 44.0143 26.9401 43.7614 26.8997 43.4811C26.8592 43.2008 26.9313 42.9159 27.1002 42.6886C27.1838 42.5762 27.2888 42.4815 27.4091 42.4098C27.5294 42.3381 27.6627 42.2908 27.8014 42.2707C27.94 42.2507 28.0812 42.2582 28.2169 42.2928C28.3526 42.3274 28.4802 42.3885 28.5922 42.4726L30.1922 43.6726Z" fill="#E0E0E0"/>
<path d="M187.784 120.584L162.088 129.34C161.829 129.428 161.555 129.465 161.282 129.447C161.008 129.429 160.741 129.357 160.496 129.236C160.25 129.115 160.031 128.947 159.851 128.741C159.67 128.535 159.532 128.296 159.444 128.036L141.52 75.4204C141.431 75.1611 141.395 74.887 141.412 74.6135C141.429 74.3401 141.5 74.0727 141.621 73.8268C141.742 73.5808 141.91 73.3611 142.116 73.1802C142.321 72.9992 142.561 72.8607 142.82 72.7724L168.516 64.0204C169.039 63.8423 169.611 63.8792 170.107 64.123C170.603 64.3668 170.982 64.7975 171.16 65.3204L189.084 117.94C189.173 118.199 189.21 118.473 189.192 118.746C189.175 119.02 189.104 119.287 188.983 119.532C188.862 119.778 188.694 119.997 188.488 120.178C188.283 120.358 188.043 120.496 187.784 120.584Z" fill="#EBEBEB"/>
<path d="M154.568 80.0564C154.715 80.4854 154.731 80.9483 154.615 81.3865C154.498 81.8247 154.254 82.2185 153.914 82.5181C153.574 82.8178 153.152 83.0097 152.703 83.0697C152.253 83.1297 151.796 83.0551 151.389 82.8552C150.982 82.6553 150.644 82.3393 150.416 81.9469C150.189 81.5546 150.083 81.1037 150.112 80.6512C150.141 80.1987 150.304 79.765 150.579 79.4049C150.855 79.0448 151.231 78.7746 151.66 78.6284C152.235 78.4324 152.864 78.4728 153.41 78.7405C153.955 79.0083 154.372 79.4816 154.568 80.0564Z" fill="#FAFAFA"/>
<path d="M167.168 75.7642C167.314 76.1926 167.33 76.6545 167.213 77.0917C167.096 77.5289 166.853 77.9217 166.513 78.2205C166.173 78.5192 165.752 78.7104 165.304 78.77C164.855 78.8295 164.399 78.7547 163.993 78.5551C163.587 78.3554 163.249 78.0398 163.022 77.6482C162.796 77.2566 162.69 76.8065 162.719 76.355C162.748 75.9034 162.91 75.4706 163.185 75.1112C163.46 74.7519 163.836 74.4822 164.264 74.3362C164.549 74.2393 164.849 74.1993 165.149 74.2186C165.449 74.2379 165.742 74.3161 166.012 74.4487C166.282 74.5813 166.523 74.7657 166.721 74.9914C166.919 75.2172 167.071 75.4798 167.168 75.7642Z" fill="#FAFAFA"/>
<path d="M158.556 91.7721C158.702 92.2005 158.718 92.6624 158.601 93.0996C158.485 93.5369 158.241 93.9297 157.901 94.2284C157.561 94.5271 157.14 94.7183 156.692 94.7779C156.243 94.8374 155.787 94.7626 155.381 94.563C154.975 94.3633 154.637 94.0477 154.41 93.6561C154.184 93.2645 154.078 92.8144 154.107 92.3629C154.136 91.9113 154.299 91.4785 154.574 91.1192C154.849 90.7598 155.224 90.4901 155.652 90.3441C155.937 90.2466 156.238 90.2062 156.538 90.2253C156.838 90.2443 157.131 90.3224 157.401 90.4551C157.671 90.5878 157.912 90.7724 158.11 90.9984C158.308 91.2244 158.46 91.4874 158.556 91.7721Z" fill="#FAFAFA"/>
<path d="M171.16 87.48C171.306 87.9084 171.322 88.3704 171.205 88.8076C171.089 89.2448 170.845 89.6376 170.505 89.9363C170.165 90.235 169.744 90.4262 169.296 90.4858C168.847 90.5453 168.391 90.4706 167.985 90.2709C167.579 90.0712 167.241 89.7556 167.014 89.364C166.788 88.9724 166.682 88.5223 166.711 88.0708C166.74 87.6192 166.903 87.1864 167.178 86.8271C167.453 86.4677 167.828 86.198 168.256 86.052C168.541 85.9551 168.842 85.9151 169.141 85.9344C169.441 85.9537 169.735 86.0319 170.004 86.1645C170.274 86.2971 170.515 86.4815 170.713 86.7073C170.912 86.933 171.063 87.1956 171.16 87.48Z" fill="#FAFAFA"/>
<path d="M162.548 103.493C162.694 103.921 162.71 104.383 162.593 104.82C162.476 105.257 162.233 105.65 161.893 105.949C161.553 106.248 161.132 106.439 160.683 106.498C160.235 106.558 159.779 106.483 159.373 106.284C158.967 106.084 158.629 105.768 158.402 105.377C158.175 104.985 158.07 104.535 158.099 104.083C158.128 103.632 158.29 103.199 158.565 102.84C158.84 102.48 159.216 102.211 159.644 102.065C159.929 101.968 160.229 101.928 160.529 101.947C160.829 101.966 161.122 102.045 161.392 102.177C161.662 102.31 161.902 102.494 162.101 102.72C162.299 102.946 162.451 103.208 162.548 103.493Z" fill="#FAFAFA"/>
<path d="M175.152 99.2007C175.298 99.6291 175.314 100.091 175.197 100.528C175.08 100.965 174.837 101.358 174.497 101.657C174.157 101.956 173.736 102.147 173.287 102.206C172.839 102.266 172.383 102.191 171.977 101.992C171.571 101.792 171.233 101.476 171.006 101.085C170.779 100.693 170.674 100.243 170.703 99.7915C170.732 99.3399 170.894 98.9071 171.169 98.5478C171.444 98.1884 171.82 97.9187 172.248 97.7727C172.533 97.6758 172.833 97.6358 173.133 97.6551C173.433 97.6744 173.726 97.7526 173.996 97.8852C174.266 98.0178 174.506 98.2022 174.705 98.428C174.903 98.6537 175.055 98.9163 175.152 99.2007Z" fill="#FAFAFA"/>
<path d="M166.54 115.201C166.686 115.629 166.702 116.091 166.585 116.528C166.468 116.965 166.225 117.358 165.885 117.657C165.545 117.956 165.124 118.147 164.676 118.206C164.227 118.266 163.771 118.191 163.365 117.992C162.959 117.792 162.621 117.476 162.394 117.085C162.168 116.693 162.062 116.243 162.091 115.791C162.12 115.34 162.283 114.907 162.558 114.548C162.833 114.188 163.208 113.919 163.636 113.773C163.921 113.676 164.221 113.636 164.521 113.655C164.821 113.674 165.114 113.753 165.384 113.885C165.654 114.018 165.895 114.202 166.093 114.428C166.291 114.654 166.443 114.916 166.54 115.201Z" fill="#FAFAFA"/>
<path d="M179.144 110.917C179.29 111.345 179.306 111.807 179.189 112.244C179.072 112.681 178.829 113.074 178.489 113.373C178.149 113.672 177.728 113.863 177.28 113.922C176.831 113.982 176.375 113.907 175.969 113.707C175.563 113.508 175.225 113.192 174.998 112.801C174.772 112.409 174.666 111.959 174.695 111.507C174.724 111.056 174.887 110.623 175.162 110.264C175.437 109.904 175.812 109.635 176.24 109.489C176.525 109.392 176.825 109.352 177.125 109.371C177.425 109.39 177.718 109.468 177.988 109.601C178.258 109.734 178.499 109.918 178.697 110.144C178.895 110.37 179.047 110.632 179.144 110.917Z" fill="#FAFAFA"/>
<path d="M153.34 78.8281C153.096 79.5051 152.796 80.1607 152.444 80.7881C152.147 81.4443 151.794 82.0733 151.388 82.6681C151.632 81.9912 151.932 81.3356 152.284 80.7081C152.58 80.0516 152.934 79.4225 153.34 78.8281Z" fill="#E0E0E0"/>
<path d="M165.68 74.5205C165.438 75.1988 165.14 75.8558 164.788 76.4845C164.489 77.1392 164.136 77.768 163.732 78.3645C163.975 77.6865 164.274 77.0297 164.624 76.4005C164.925 75.7464 165.278 75.1177 165.68 74.5205Z" fill="#E0E0E0"/>
<path d="M157.448 90.5439C157.238 91.2512 156.97 91.9402 156.648 92.6039C156.385 93.2966 156.064 93.9656 155.688 94.6039C155.9 93.8972 156.167 93.2084 156.488 92.5439C156.752 91.8518 157.073 91.1828 157.448 90.5439Z" fill="#E0E0E0"/>
<path d="M169.896 86.2246C169.728 86.9099 169.501 87.5791 169.216 88.2246C168.988 88.8942 168.703 89.5432 168.364 90.1646C168.533 89.4795 168.76 88.8104 169.044 88.1646C169.275 87.4958 169.56 86.847 169.896 86.2246Z" fill="#E0E0E0"/>
<path d="M161.064 102.212C160.644 103.492 160.108 104.732 159.464 105.916C159.885 104.636 160.421 103.396 161.064 102.212Z" fill="#E0E0E0"/>
<path d="M173.972 98.1162C173.444 99.3786 172.804 100.591 172.06 101.74C172.295 101.098 172.588 100.478 172.936 99.8882C173.23 99.2692 173.577 98.6764 173.972 98.1162Z" fill="#E0E0E0"/>
<path d="M165.396 114.097C165.135 114.763 164.818 115.407 164.448 116.021C164.132 116.663 163.761 117.277 163.34 117.857C163.918 116.547 164.605 115.289 165.396 114.097Z" fill="#E0E0E0"/>
<path d="M177.972 109.424C177.763 110.176 177.495 110.91 177.172 111.62C176.906 112.352 176.582 113.062 176.204 113.744C176.413 112.992 176.681 112.258 177.004 111.548C177.269 110.815 177.593 110.105 177.972 109.424Z" fill="#E0E0E0"/>
<path d="M182.568 117.2C182.568 117.248 178.724 118.604 173.948 120.232C169.172 121.86 165.28 123.14 165.264 123.092C165.248 123.044 169.108 121.688 173.888 120.06C178.668 118.432 182.552 117.144 182.568 117.2Z" fill="#E0E0E0"/>
<path d="M165.44 70.0843C165.44 70.1283 161.596 71.4883 156.816 73.1163C152.036 74.7443 148.152 76.0243 148.136 75.9763C148.12 75.9283 151.98 74.5723 156.76 72.9443C161.54 71.3163 165.424 70.0363 165.44 70.0843Z" fill="#E0E0E0"/>
<path d="M157.036 75.3802C157.014 75.3862 156.991 75.3862 156.968 75.3802H156.944L157.12 75.3242C157.12 75.3522 157.12 75.3922 157.056 75.4082C156.992 75.4242 156.96 75.4082 156.948 75.3802L157.124 75.3242C157.124 75.3242 157.124 75.3442 157.124 75.3482C157.113 75.3598 157.099 75.3687 157.084 75.3743C157.069 75.3798 157.052 75.3818 157.036 75.3802Z" fill="#E0E0E0"/>
<path d="M173.328 120.237C173.28 120.237 169.632 109.669 165.176 96.5966C160.72 83.5246 157.152 72.9086 157.2 72.8926C157.248 72.8766 160.896 83.4606 165.348 96.5366C169.8 109.613 173.376 120.221 173.328 120.237Z" fill="#E0E0E0"/>
<path d="M78.1079 189.231L79.4799 168.629L119.747 171.311C120.411 171.355 121.031 171.661 121.47 172.163C121.909 172.664 122.131 173.319 122.086 173.984L121.048 189.573C121.004 190.238 120.697 190.858 120.196 191.297C119.695 191.736 119.039 191.957 118.375 191.913L78.1079 189.231Z" fill="#F5F5F5"/>
<path d="M90.7065 177.063L89.8442 190.011L108.355 191.243L109.217 178.296L90.7065 177.063Z" fill="#E0E0E0"/>
<path d="M75.7313 167.434L74.194 190.519C74.1632 190.982 74.5134 191.382 74.9763 191.413L80.4522 191.778C80.9151 191.809 81.3153 191.458 81.3462 190.996L82.8835 167.911C82.9143 167.448 82.5641 167.048 82.1012 167.017L76.6253 166.652C76.1624 166.621 75.7622 166.972 75.7313 167.434Z" fill="#EBEBEB"/>
<path d="M81.4243 189.864C80.2229 189.895 79.0206 189.852 77.8243 189.736C76.6291 189.692 75.4376 189.576 74.2563 189.388C75.4578 189.357 76.6601 189.399 77.8563 189.516C79.0516 189.559 80.2432 189.676 81.4243 189.864Z" fill="#E0E0E0"/>
<path d="M81.5562 187.864C80.3614 187.897 79.1656 187.855 77.9762 187.736C76.7809 187.693 75.5894 187.577 74.4082 187.388C75.603 187.36 76.7985 187.403 77.9882 187.516C79.1835 187.56 80.375 187.676 81.5562 187.864Z" fill="#E0E0E0"/>
<path d="M81.6924 185.869C80.4909 185.9 79.2886 185.857 78.0924 185.741C76.8971 185.697 75.7056 185.581 74.5244 185.393C75.7259 185.361 76.9282 185.404 78.1244 185.521C79.3197 185.565 80.5112 185.681 81.6924 185.869Z" fill="#E0E0E0"/>
<path d="M81.8242 183.868C80.6228 183.9 79.4205 183.857 78.2242 183.74C77.029 183.697 75.8374 183.581 74.6562 183.392C75.8577 183.364 77.0599 183.406 78.2563 183.52C79.4515 183.564 80.6431 183.68 81.8242 183.868Z" fill="#E0E0E0"/>
<path d="M81.9562 181.873C80.7614 181.903 79.5658 181.861 78.3762 181.745C77.1796 181.701 75.9867 181.585 74.8042 181.397C76.0057 181.365 77.208 181.408 78.4042 181.525C79.5941 181.569 80.7803 181.685 81.9562 181.873Z" fill="#E0E0E0"/>
<path d="M82.0923 179.872C80.8908 179.904 79.6885 179.861 78.4923 179.744C77.297 179.701 76.1055 179.585 74.9243 179.396C76.1258 179.367 77.3279 179.41 78.5243 179.524C79.7196 179.568 80.9111 179.685 82.0923 179.872Z" fill="#E0E0E0"/>
<path d="M82.2242 177.877C81.0227 177.908 79.8204 177.865 78.6242 177.749C77.4289 177.705 76.2373 177.589 75.0562 177.401C76.2576 177.369 77.4599 177.412 78.6562 177.529C79.8514 177.572 81.0429 177.689 82.2242 177.877Z" fill="#E0E0E0"/>
<path d="M82.356 175.876C81.1545 175.908 79.9522 175.865 78.756 175.748C77.5607 175.704 76.3692 175.588 75.188 175.4C76.3895 175.371 77.5916 175.414 78.788 175.528C79.9833 175.572 81.1748 175.688 82.356 175.876Z" fill="#E0E0E0"/>
<path d="M82.4883 173.881C81.2935 173.911 80.0979 173.868 78.9083 173.753C77.713 173.709 76.5215 173.593 75.3403 173.405C76.5418 173.373 77.7441 173.416 78.9403 173.533C80.1289 173.577 81.3138 173.693 82.4883 173.881Z" fill="#E0E0E0"/>
<path d="M82.6241 171.88C81.4226 171.911 80.2203 171.869 79.0241 171.752C77.8288 171.709 76.6372 171.592 75.4561 171.404C76.6575 171.375 77.8597 171.418 79.0561 171.532C80.2513 171.576 81.4428 171.692 82.6241 171.88Z" fill="#E0E0E0"/>
<path d="M82.7564 169.884C81.5549 169.916 80.3526 169.873 79.1564 169.756C77.9611 169.713 76.7696 169.597 75.5884 169.408C76.7899 169.377 77.9921 169.42 79.1884 169.536C80.3837 169.58 81.5752 169.696 82.7564 169.884Z" fill="#E0E0E0"/>
<path d="M82.8883 167.884C81.6935 167.915 80.4979 167.872 79.3083 167.756C78.1117 167.713 76.9189 167.596 75.7363 167.408C76.9378 167.377 78.1401 167.42 79.3363 167.536C80.5263 167.581 81.7124 167.697 82.8883 167.884Z" fill="#E0E0E0"/>
<path d="M117.098 187.872L115.937 187.795C115.619 187.774 115.323 187.627 115.114 187.388C114.904 187.148 114.798 186.836 114.819 186.518L115.082 182.567L118.674 182.806L118.411 186.757C118.401 186.918 118.358 187.074 118.286 187.218C118.214 187.361 118.113 187.489 117.991 187.593C117.868 187.697 117.726 187.775 117.573 187.823C117.42 187.871 117.258 187.888 117.098 187.872Z" fill="#EBEBEB"/>
<path d="M116.205 178.872L117.405 178.956C117.723 178.978 118.02 179.126 118.229 179.367C118.438 179.608 118.543 179.922 118.521 180.24L118.244 184.2L114.644 183.948L114.921 179.988C114.943 179.67 115.091 179.373 115.332 179.164C115.573 178.955 115.887 178.85 116.205 178.872Z" fill="#E0E0E0"/>
<path d="M108.675 175.203L108.373 176.332C108.29 176.64 108.088 176.904 107.811 177.063C107.534 177.223 107.205 177.267 106.897 177.184L103.055 176.154L103.991 172.662L107.833 173.692C107.988 173.733 108.134 173.806 108.262 173.905C108.389 174.004 108.495 174.128 108.574 174.269C108.652 174.41 108.702 174.565 108.719 174.725C108.737 174.886 108.722 175.048 108.675 175.203Z" fill="#EBEBEB"/>
<path d="M99.8134 173.642L100.114 172.518C100.197 172.21 100.398 171.948 100.673 171.789C100.949 171.63 101.277 171.587 101.584 171.669L105.409 172.693L104.478 176.171L100.653 175.146C100.498 175.105 100.352 175.033 100.226 174.934C100.099 174.835 99.9931 174.712 99.9148 174.572C99.8365 174.432 99.7872 174.277 99.7698 174.117C99.7524 173.958 99.7672 173.796 99.8134 173.642Z" fill="#E0E0E0"/>
<path d="M119.915 173.361L120.229 174.478C120.315 174.784 120.276 175.111 120.121 175.387C119.965 175.664 119.707 175.868 119.401 175.954L115.599 177.023L114.627 173.567L118.429 172.498C118.583 172.455 118.745 172.442 118.904 172.463C119.063 172.483 119.216 172.534 119.354 172.615C119.493 172.695 119.614 172.803 119.71 172.931C119.806 173.059 119.876 173.205 119.915 173.361Z" fill="#EBEBEB"/>
<path d="M109.022 177.021L108.707 175.904C108.622 175.598 108.661 175.271 108.816 174.994C108.971 174.717 109.23 174.514 109.535 174.428L113.352 173.354L114.324 176.81L110.523 177.879C110.368 177.925 110.205 177.939 110.045 177.921C109.884 177.902 109.729 177.851 109.589 177.771C109.449 177.691 109.326 177.583 109.229 177.454C109.131 177.325 109.061 177.178 109.022 177.021Z" fill="#E0E0E0"/>
<path d="M110.684 187.672L109.606 187.232C109.312 187.112 109.077 186.88 108.953 186.586C108.83 186.293 108.828 185.963 108.948 185.668L110.444 182.001L113.777 183.361L112.282 187.028C112.162 187.322 111.929 187.557 111.636 187.68C111.343 187.804 111.012 187.806 110.717 187.685L110.684 187.672Z" fill="#EBEBEB"/>
<path d="M113.282 178.214L114.36 178.654C114.655 178.774 114.89 179.007 115.013 179.3C115.137 179.593 115.138 179.924 115.018 180.218L113.523 183.885L110.189 182.525L111.685 178.859C111.745 178.71 111.835 178.575 111.949 178.461C112.063 178.348 112.198 178.259 112.347 178.199C112.496 178.138 112.656 178.109 112.816 178.112C112.977 178.114 113.136 178.149 113.282 178.214Z" fill="#E0E0E0"/>
<path d="M166.496 30.4005L169.2 33.8405C169.249 33.9051 169.272 33.9863 169.262 34.067C169.252 34.1477 169.211 34.2214 169.148 34.2725L165.672 36.9725C165.414 37.1739 165.118 37.3224 164.803 37.4095C164.487 37.4966 164.157 37.5206 163.832 37.4802C163.507 37.4397 163.193 37.3355 162.908 37.1735C162.623 37.0116 162.373 36.7951 162.172 36.5365C161.971 36.2778 161.822 35.9819 161.735 35.6658C161.648 35.3497 161.624 35.0195 161.664 34.6941C161.705 34.3687 161.809 34.0545 161.971 33.7694C162.133 33.4842 162.349 33.2338 162.608 33.0325L166.084 30.3325C166.149 30.2909 166.227 30.2748 166.303 30.2874C166.379 30.2999 166.448 30.3402 166.496 30.4005Z" fill="#EBEBEB"/>
<path d="M168.52 34.352L165.832 30.9C165.807 30.868 165.789 30.8314 165.779 30.7923C165.768 30.7533 165.765 30.7125 165.771 30.6724C165.776 30.6323 165.789 30.5936 165.809 30.5585C165.829 30.5235 165.856 30.4927 165.888 30.468L169.36 27.768C169.618 27.5666 169.914 27.4181 170.23 27.3309C170.546 27.2438 170.875 27.2198 171.201 27.2603C171.526 27.3008 171.839 27.405 172.124 27.5669C172.409 27.7289 172.659 27.9454 172.86 28.204C173.062 28.4627 173.21 28.7585 173.297 29.0746C173.385 29.3908 173.409 29.721 173.368 30.0464C173.328 30.3718 173.223 30.686 173.061 30.9711C172.899 31.2562 172.683 31.5066 172.424 31.708L168.952 34.4C168.888 34.4508 168.807 34.4742 168.726 34.4652C168.645 34.4562 168.571 34.4155 168.52 34.352Z" fill="#E0E0E0"/>
<path d="M12.5282 112.304L16.6442 113.8C16.7215 113.829 16.7843 113.887 16.8188 113.962C16.8533 114.037 16.8566 114.123 16.8282 114.2L15.3242 118.332C15.2125 118.641 15.0411 118.924 14.8198 119.166C14.5984 119.409 14.3315 119.605 14.0343 119.744C13.7371 119.883 13.4154 119.962 13.0877 119.976C12.7599 119.991 12.4325 119.94 12.1242 119.828C11.5018 119.602 10.9947 119.138 10.7143 118.538C10.4338 117.938 10.4028 117.251 10.6282 116.628L12.1322 112.496C12.1452 112.457 12.1659 112.421 12.1929 112.391C12.22 112.36 12.253 112.335 12.2898 112.317C12.3267 112.299 12.3668 112.289 12.4077 112.287C12.4487 112.284 12.4896 112.29 12.5282 112.304Z" fill="#EBEBEB"/>
<path d="M16.3561 114.588L12.2441 113.092C12.2052 113.079 12.1693 113.058 12.1388 113.03C12.1082 113.002 12.0836 112.969 12.0664 112.931C12.0492 112.894 12.0398 112.854 12.0387 112.812C12.0376 112.771 12.0449 112.73 12.0601 112.692L13.5641 108.556C13.6757 108.248 13.8472 107.964 14.0686 107.722C14.29 107.48 14.557 107.284 14.8543 107.146C15.1516 107.007 15.4733 106.928 15.8011 106.914C16.1288 106.9 16.4561 106.951 16.7641 107.064C17.0726 107.176 17.3559 107.347 17.598 107.568C17.84 107.79 18.036 108.057 18.1746 108.354C18.3132 108.652 18.3918 108.973 18.4058 109.301C18.4197 109.629 18.3689 109.956 18.2561 110.264L16.7521 114.4C16.7241 114.477 16.6668 114.54 16.5927 114.575C16.5186 114.61 16.4336 114.615 16.3561 114.588Z" fill="#E0E0E0"/>
<path d="M185.2 191.576C185.2 191.636 146.864 191.68 99.6 191.68C52.336 191.68 14 191.636 14 191.576C14 191.516 52.328 191.472 99.62 191.472C146.912 191.472 185.2 191.52 185.2 191.576Z" fill="#263238"/>
<path d="M152.516 14.8682H56.1279C53.8967 14.8682 52.0879 16.6769 52.0879 18.9082V148.808C52.0879 151.039 53.8967 152.848 56.1279 152.848H152.516C154.747 152.848 156.556 151.039 156.556 148.808V18.9082C156.556 16.6769 154.747 14.8682 152.516 14.8682Z" fill="#455A64"/>
<path d="M149.556 21.3877H59.0801V143.368H149.556V21.3877Z" fill="white"/>
<path d="M149.56 143.368C149.56 142.536 149.52 93.6119 149.464 21.368L149.56 21.46H59.0919L59.1959 21.356C59.1959 66.8479 59.1959 109 59.1959 143.356L59.1079 143.268L149.588 143.356L59.1079 143.44H59.0239V143.356C59.0239 109.02 59.0239 66.868 59.0039 21.356V21.252H59.1199H149.588H149.68V21.348C149.6 93.6 149.56 142.536 149.56 143.368Z" fill="#263238"/>
<path d="M78.1278 41.8603L76.0198 38.6883H73.6878V41.8603H71.1558V30.4763H75.8918C76.7613 30.4556 77.6246 30.6277 78.4198 30.9803C79.0964 31.2819 79.6694 31.7757 80.0678 32.4003C80.4675 33.0616 80.6689 33.8238 80.6478 34.5963C80.6722 35.3727 80.4677 36.1392 80.0598 36.8003C79.6578 37.4215 79.0799 37.9089 78.3998 38.2003L80.8558 41.8603H78.1278ZM77.4878 33.1363C76.9901 32.7612 76.3733 32.5793 75.7518 32.6243H73.6878V36.5923H75.7518C76.375 36.6353 76.9924 36.4489 77.4878 36.0683C77.8701 35.6761 78.0841 35.15 78.0841 34.6023C78.0841 34.0545 77.8701 33.5285 77.4878 33.1363Z" fill="#ADCCEB"/>
<path d="M83.6678 49.7283L81.1638 46.0003L78.7038 49.7443H75.9478L79.7878 44.2603L76.1398 38.9603H78.8678L81.2678 42.4563L83.5998 38.9443H86.1918L82.5918 44.1443L86.4598 49.7203L83.6678 49.7283Z" fill="#ADCCEB"/>
<path d="M118.14 33.1963H102.612V37.0403H118.14V33.1963Z" fill="#E0E0E0"/>
<path d="M140.912 35.6245C140.912 35.6845 136.664 35.7285 131.424 35.7285C126.184 35.7285 121.94 35.6845 121.94 35.6245C121.94 35.5645 126.184 35.5205 131.424 35.5205C136.664 35.5205 140.912 35.5685 140.912 35.6245Z" fill="#263238"/>
<path d="M140.556 40.2359C140.556 40.2919 132.06 40.3399 121.584 40.3399C111.108 40.3399 102.612 40.2919 102.612 40.2359C102.612 40.1799 111.104 40.1279 121.584 40.1279C132.064 40.1279 140.556 40.1759 140.556 40.2359Z" fill="#263238"/>
<path d="M140.556 44.7524C140.556 44.8084 132.06 44.8564 121.584 44.8564C111.108 44.8564 102.612 44.8084 102.612 44.7524C102.612 44.6964 111.104 44.6484 121.584 44.6484C132.064 44.6484 140.556 44.6924 140.556 44.7524Z" fill="#263238"/>
<path d="M146.476 56.8004C146.476 56.8564 127.6 56.9044 104.324 56.9044C81.048 56.9044 62.168 56.8564 62.168 56.8004C62.168 56.7444 81.036 56.6924 104.324 56.6924C127.612 56.6924 146.476 56.7324 146.476 56.8004Z" fill="#263238"/>
<path d="M146.476 124.984C146.476 125.04 127.6 125.088 104.324 125.088C81.048 125.088 62.168 125.04 62.168 124.984C62.168 124.928 81.036 124.88 104.324 124.88C127.612 124.88 146.476 124.924 146.476 124.984Z" fill="#263238"/>
<path d="M95.1238 63.6924H69.1118V68.5724H95.1238V63.6924Z" fill="#E0E0E0"/>
<path d="M80.3718 131.944H69.1118V136.824H80.3718V131.944Z" fill="#E0E0E0"/>
<path d="M118.18 131.944H106.92V136.824H118.18V131.944Z" fill="#E0E0E0"/>
<path d="M99.2441 135.324C99.2441 135.384 95.7281 135.428 91.3921 135.428C87.0561 135.428 83.5361 135.384 83.5361 135.324C83.5361 135.264 87.0521 135.22 91.3921 135.22C95.7321 135.22 99.2441 135.268 99.2441 135.324Z" fill="#263238"/>
<path d="M139.676 135.324C139.676 135.384 136.16 135.428 131.824 135.428C127.488 135.428 123.968 135.384 123.968 135.324C123.968 135.264 127.484 135.22 131.824 135.22C136.164 135.22 139.676 135.268 139.676 135.324Z" fill="#263238"/>
<path d="M138.744 75.9204C138.744 75.9764 123.332 76.0244 104.344 76.0244C85.3558 76.0244 69.9438 75.9764 69.9438 75.9204C69.9438 75.8644 85.3478 75.8164 104.344 75.8164C123.34 75.8164 138.744 75.8604 138.744 75.9204Z" fill="#263238"/>
<path d="M140.08 81.4878C140.08 81.5478 124.372 81.5918 105 81.5918C85.628 81.5918 69.916 81.5478 69.916 81.4878C69.916 81.4278 85.62 81.3838 105 81.3838C124.38 81.3838 140.08 81.4318 140.08 81.4878Z" fill="#263238"/>
<path d="M103.928 87.0601C103.928 87.1161 96.1318 87.1641 86.5198 87.1641C76.9078 87.1641 69.1118 87.1161 69.1118 87.0601C69.1118 87.0041 76.9038 86.9561 86.5198 86.9561C96.1358 86.9561 103.928 87.0001 103.928 87.0601Z" fill="#263238"/>
<path d="M139.564 107.26C139.564 107.26 139.488 107.292 139.332 107.34L138.652 107.548C137.773 107.81 136.88 108.018 135.976 108.172C135.323 108.287 134.663 108.35 134 108.36C133.207 108.376 132.417 108.277 131.652 108.068C130.771 107.816 129.96 107.366 129.28 106.752C128.513 106.052 128.01 105.11 127.852 104.084C127.77 103.53 127.837 102.964 128.048 102.444C128.284 101.904 128.67 101.443 129.16 101.116C129.413 100.941 129.699 100.817 130.001 100.753C130.302 100.69 130.613 100.686 130.916 100.744C131.223 100.82 131.511 100.956 131.764 101.144C132.011 101.351 132.217 101.602 132.372 101.884C132.666 102.469 132.813 103.117 132.8 103.772C132.803 104.442 132.681 105.107 132.44 105.732C131.918 107.027 131.057 108.157 129.948 109.004C128.786 109.907 127.406 110.487 125.948 110.684C125.2 110.791 124.441 110.781 123.696 110.656C123.318 110.595 122.945 110.506 122.58 110.388C122.215 110.254 121.86 110.096 121.516 109.916C120.83 109.533 120.218 109.029 119.712 108.428C119.188 107.815 118.822 107.083 118.644 106.296C118.449 105.488 118.549 104.636 118.928 103.896C119.304 103.147 119.927 102.551 120.692 102.208C121.079 102.033 121.504 101.959 121.928 101.992C122.348 102.034 122.749 102.186 123.092 102.432C123.742 102.948 124.191 103.676 124.36 104.488C124.544 105.266 124.587 106.071 124.488 106.864C124.41 107.641 124.236 108.405 123.972 109.14C123.481 110.59 122.614 111.883 121.46 112.888C120.338 113.851 118.935 114.425 117.46 114.524C116.098 114.663 114.73 114.312 113.603 113.534C112.476 112.757 111.662 111.603 111.308 110.28C110.946 109.099 110.994 107.831 111.444 106.68C111.656 106.131 112.019 105.654 112.492 105.304C112.728 105.131 113.003 105.017 113.292 104.972C113.576 104.93 113.867 104.985 114.116 105.128C114.344 105.277 114.535 105.476 114.674 105.711C114.813 105.945 114.896 106.209 114.916 106.48C114.983 106.977 114.963 107.482 114.856 107.972C114.698 108.866 114.429 109.737 114.056 110.564C113.733 111.283 113.33 111.963 112.856 112.592C112.46 113.125 112.012 113.618 111.52 114.064C110.849 114.691 110.092 115.219 109.272 115.632C109.062 115.744 108.845 115.844 108.624 115.932L108.396 116.02L108.616 115.912C108.76 115.84 108.984 115.752 109.256 115.596C110.062 115.165 110.806 114.626 111.468 113.996C112.518 113.006 113.366 111.822 113.964 110.508C114.337 109.691 114.606 108.829 114.764 107.944C114.862 107.466 114.879 106.976 114.816 106.492C114.797 106.243 114.721 106.002 114.595 105.787C114.469 105.571 114.295 105.387 114.088 105.248C113.866 105.122 113.608 105.074 113.356 105.112C113.096 105.159 112.851 105.266 112.64 105.424C112.191 105.757 111.847 106.211 111.648 106.732C111.215 107.851 111.174 109.083 111.532 110.228C111.88 111.508 112.67 112.623 113.763 113.375C114.856 114.126 116.18 114.466 117.5 114.332C118.93 114.229 120.289 113.668 121.376 112.732C122.503 111.75 123.348 110.485 123.824 109.068C124.081 108.347 124.25 107.598 124.328 106.836C124.423 106.067 124.38 105.286 124.2 104.532C124.042 103.766 123.616 103.082 123 102.6C122.685 102.374 122.316 102.235 121.93 102.199C121.544 102.164 121.155 102.231 120.804 102.396C120.082 102.722 119.494 103.287 119.14 103.996C118.785 104.691 118.691 105.49 118.876 106.248C119.069 106.99 119.415 107.684 119.892 108.284C120.368 108.885 120.965 109.379 121.644 109.736C121.977 109.909 122.32 110.062 122.672 110.192C123.728 110.536 124.848 110.636 125.948 110.484C126.662 110.385 127.36 110.193 128.024 109.912C128.673 109.635 129.284 109.278 129.844 108.848C130.929 108.02 131.77 106.914 132.28 105.648C132.514 105.045 132.635 104.403 132.636 103.756C132.65 103.131 132.513 102.512 132.236 101.952C132.091 101.691 131.902 101.456 131.676 101.26C131.446 101.076 131.18 100.94 130.896 100.86C130.615 100.806 130.326 100.809 130.045 100.868C129.765 100.927 129.5 101.041 129.264 101.204C128.798 101.511 128.431 101.945 128.208 102.456C128.005 102.951 127.937 103.491 128.012 104.02C128.164 105.014 128.649 105.927 129.388 106.608C130.051 107.212 130.843 107.657 131.704 107.908C132.456 108.12 133.235 108.222 134.016 108.212C134.674 108.208 135.331 108.152 135.98 108.044C136.882 107.897 137.775 107.702 138.656 107.46L139.344 107.272L139.564 107.26Z" fill="#263238"/>
<path d="M155.576 191.4H136.024C135.605 191.4 135.202 191.235 134.903 190.941C134.603 190.647 134.431 190.247 134.424 189.828L133.952 137.096H156.68L157.152 189.796C157.153 190.217 156.988 190.621 156.693 190.921C156.398 191.221 155.997 191.393 155.576 191.4Z" fill="#ADCCEB"/>
<g opacity="0.3">
<path d="M152.7 148.8V189.396C152.7 189.396 155.9 190.46 156.056 187.66C156.212 184.86 156.128 148.792 156.128 148.792L152.7 148.8Z" fill="white"/>
</g>
<path d="M154.536 134.42H136.136C135.818 134.42 135.513 134.546 135.288 134.771C135.062 134.996 134.936 135.302 134.936 135.62V136.8H155.736V135.6C155.731 135.285 155.602 134.985 155.378 134.764C155.153 134.544 154.851 134.42 154.536 134.42Z" fill="#FAFAFA"/>
<path d="M154.536 134.42C154.602 134.41 154.67 134.41 154.736 134.42C154.934 134.444 155.121 134.52 155.28 134.64C155.412 134.737 155.523 134.861 155.606 135.002C155.689 135.144 155.743 135.301 155.764 135.464C155.764 135.864 155.764 136.264 155.764 136.776V136.824H155.712C151.9 136.852 144.536 136.876 136.112 136.876H134.812V135.656C134.806 135.457 134.845 135.259 134.926 135.078C135.007 134.896 135.128 134.736 135.28 134.608C135.432 134.481 135.612 134.391 135.804 134.344C135.989 134.311 136.177 134.298 136.364 134.308H137.428H141.472L148.272 134.332L152.844 134.364L148.272 134.396L141.472 134.42H137.428H136.364C136.193 134.409 136.021 134.42 135.852 134.452C135.691 134.492 135.541 134.567 135.412 134.672C134.836 135.108 135.068 135.948 135.012 136.672L134.908 136.568H136.108C144.544 136.568 151.908 136.588 155.708 136.62L155.656 136.672C155.656 136.18 155.656 135.736 155.656 135.372C155.641 135.216 155.594 135.065 155.519 134.927C155.444 134.79 155.343 134.669 155.22 134.572C155.009 134.462 154.774 134.41 154.536 134.42Z" fill="#263238"/>
<path d="M158.028 136.228H132.624C132.041 136.228 131.568 136.7 131.568 137.284V147.736C131.568 148.319 132.041 148.792 132.624 148.792H158.028C158.612 148.792 159.084 148.319 159.084 147.736V137.284C159.084 136.7 158.612 136.228 158.028 136.228Z" fill="#FAFAFA"/>
<path d="M158.028 148.799C158.028 148.799 158.1 148.799 158.228 148.767C158.42 148.727 158.596 148.633 158.736 148.495C159.204 148.143 159.016 147.295 159.044 146.323C159.044 144.323 159.024 141.463 159.012 137.923C159.012 137.703 159.012 137.479 159.012 137.251C159.005 137.038 158.928 136.832 158.792 136.667C158.651 136.499 158.458 136.381 158.244 136.331C158.013 136.306 157.78 136.3 157.548 136.311H154.532H147.876H132.632C132.48 136.31 132.329 136.346 132.193 136.416C132.057 136.485 131.94 136.587 131.852 136.711C131.767 136.83 131.71 136.967 131.688 137.111C131.68 137.274 131.68 137.437 131.688 137.599V143.479C131.688 144.751 131.688 146.003 131.688 147.231V147.691C131.689 147.829 131.719 147.966 131.776 148.091C131.833 148.216 131.916 148.327 132.02 148.416C132.123 148.506 132.245 148.573 132.376 148.611C132.513 148.649 132.655 148.663 132.796 148.651H134.124L146.576 148.671L154.976 148.707H157.256L154.976 148.727L146.576 148.759L134.124 148.783H132.796C132.637 148.795 132.478 148.778 132.324 148.735C132.165 148.689 132.018 148.61 131.892 148.502C131.767 148.395 131.666 148.261 131.596 148.111C131.528 147.959 131.493 147.794 131.492 147.627V147.167C131.492 145.941 131.492 144.69 131.492 143.415C131.492 142.139 131.492 140.839 131.492 139.523V137.523C131.492 137.351 131.492 137.195 131.492 137.007C131.52 136.823 131.589 136.648 131.696 136.495C131.803 136.344 131.946 136.22 132.111 136.135C132.276 136.05 132.459 136.006 132.644 136.007H147.888H154.544H157.56C157.805 135.995 158.049 136.004 158.292 136.035C158.54 136.098 158.762 136.238 158.924 136.435C159.079 136.629 159.167 136.867 159.176 137.115V137.791C159.176 141.327 159.148 144.191 159.14 146.191C159.14 146.683 159.14 147.123 159.14 147.507C159.152 147.672 159.127 147.838 159.066 147.992C159.005 148.145 158.91 148.283 158.788 148.395C158.641 148.533 158.456 148.624 158.256 148.655C158.191 148.718 158.113 148.767 158.028 148.799Z" fill="#263238"/>
<path d="M133.168 148.584C133.108 148.584 133.064 145.908 133.064 142.612C133.064 139.316 133.108 136.636 133.168 136.636C133.228 136.636 133.272 139.312 133.272 142.612C133.272 145.912 133.224 148.584 133.168 148.584Z" fill="#263238"/>
<path d="M135.248 148.584C135.188 148.584 135.144 145.908 135.144 142.612C135.144 139.316 135.188 136.636 135.248 136.636C135.308 136.636 135.352 139.312 135.352 142.612C135.352 145.912 135.304 148.584 135.248 148.584Z" fill="#263238"/>
<path d="M137.328 148.584C137.272 148.584 137.224 145.908 137.224 142.612C137.224 139.316 137.272 136.636 137.328 136.636C137.384 136.636 137.432 139.312 137.432 142.612C137.432 145.912 137.384 148.584 137.328 148.584Z" fill="#263238"/>
<path d="M139.408 148.584C139.352 148.584 139.304 145.908 139.304 142.612C139.304 139.316 139.352 136.636 139.408 136.636C139.464 136.636 139.512 139.312 139.512 142.612C139.512 145.912 139.468 148.584 139.408 148.584Z" fill="#263238"/>
<path d="M141.492 148.584C141.432 148.584 141.388 145.908 141.388 142.612C141.388 139.316 141.432 136.636 141.492 136.636C141.552 136.636 141.596 139.312 141.596 142.612C141.596 145.912 141.548 148.584 141.492 148.584Z" fill="#263238"/>
<path d="M143.572 148.584C143.512 148.584 143.468 145.908 143.468 142.612C143.468 139.316 143.512 136.636 143.572 136.636C143.632 136.636 143.676 139.312 143.676 142.612C143.676 145.912 143.628 148.584 143.572 148.584Z" fill="#263238"/>
<path d="M145.652 148.584C145.596 148.584 145.548 145.908 145.548 142.612C145.548 139.316 145.596 136.636 145.652 136.636C145.708 136.636 145.756 139.312 145.756 142.612C145.756 145.912 145.708 148.584 145.652 148.584Z" fill="#263238"/>
<path d="M147.732 148.584C147.676 148.584 147.628 145.908 147.628 142.612C147.628 139.316 147.676 136.636 147.732 136.636C147.788 136.636 147.836 139.312 147.836 142.612C147.836 145.912 147.792 148.584 147.732 148.584Z" fill="#263238"/>
<path d="M149.812 148.584C149.756 148.584 149.708 145.908 149.708 142.612C149.708 139.316 149.756 136.636 149.812 136.636C149.868 136.636 149.92 139.312 149.92 142.612C149.92 145.912 149.872 148.584 149.812 148.584Z" fill="#263238"/>
<path d="M151.896 148.584C151.836 148.584 151.792 145.908 151.792 142.612C151.792 139.316 151.836 136.636 151.896 136.636C151.956 136.636 152 139.312 152 142.612C152 145.912 151.952 148.584 151.896 148.584Z" fill="#263238"/>
<path d="M153.976 148.584C153.92 148.584 153.872 145.908 153.872 142.612C153.872 139.316 153.92 136.636 153.976 136.636C154.032 136.636 154.08 139.312 154.08 142.612C154.08 145.912 154.032 148.584 153.976 148.584Z" fill="#263238"/>
<path d="M156.056 148.584C156 148.584 155.952 145.908 155.952 142.612C155.952 139.316 156 136.636 156.056 136.636C156.112 136.636 156.16 139.312 156.16 142.612C156.16 145.912 156.116 148.584 156.056 148.584Z" fill="#263238"/>
<path d="M158.136 148.584C158.08 148.584 158.032 145.908 158.032 142.612C158.032 139.316 158.08 136.636 158.136 136.636C158.192 136.636 158.24 139.312 158.24 142.612C158.24 145.912 158.196 148.584 158.136 148.584Z" fill="#263238"/>
<path d="M155.42 158.256H135.744V174.012H155.42V158.256Z" fill="white"/>
<path d="M139.124 163.272L138.664 162.608H138.16V163.272H137.6V160.896H138.628C138.815 160.891 139.001 160.928 139.172 161.004C139.319 161.065 139.444 161.168 139.532 161.3C139.618 161.438 139.661 161.598 139.656 161.76C139.66 161.921 139.616 162.08 139.528 162.216C139.44 162.347 139.314 162.448 139.168 162.508L139.7 163.272H139.124ZM138.984 161.452C138.875 161.373 138.742 161.335 138.608 161.344H138.16V162.172H138.608C138.742 162.181 138.875 162.143 138.984 162.064C139.025 162.024 139.057 161.976 139.079 161.924C139.101 161.871 139.113 161.815 139.113 161.758C139.113 161.701 139.101 161.644 139.079 161.592C139.057 161.539 139.025 161.492 138.984 161.452Z" fill="#263238"/>
<path d="M140.324 164.912L139.78 164.132L139.248 164.912H138.652L139.484 163.768L138.684 162.664H139.276L139.792 163.392L140.3 162.664H140.864L140.064 163.748L140.9 164.912H140.324Z" fill="#263238"/>
<path d="M153.976 160.892H142.74V162.6H153.976V160.892Z" fill="#E0E0E0"/>
<path d="M152.7 166.839C152.7 166.895 149.42 166.943 145.372 166.943C141.324 166.943 138.044 166.895 138.044 166.839C138.044 166.783 141.324 166.735 145.372 166.735C149.42 166.735 152.7 166.799 152.7 166.839Z" fill="#263238"/>
<path d="M152.7 168.616C152.7 168.676 149.42 168.72 145.372 168.72C141.324 168.72 138.044 168.676 138.044 168.616C138.044 168.556 141.324 168.512 145.372 168.512C149.42 168.512 152.7 168.56 152.7 168.616Z" fill="#263238"/>
<path d="M144.576 170.844H136.984V172.308H144.576V170.844Z" fill="#E0E0E0"/>
<path d="M154.972 173.524C154.972 173.524 154.972 173.428 154.972 173.244C154.972 173.06 154.972 172.788 154.972 172.444C154.972 171.736 154.972 170.716 154.952 169.416C154.952 166.808 154.924 163.096 154.908 158.616L154.992 158.704H136.132C136.108 158.724 136.328 158.508 136.236 158.604V162.572C136.236 163.876 136.236 165.156 136.236 166.404C136.236 168.904 136.236 171.288 136.236 173.508L136.144 173.416L149.744 173.464L153.608 173.488H154.64H155C155 173.488 154.976 173.488 154.916 173.488H154.66H153.648L149.804 173.512L136.14 173.56H136.048V173.464C136.048 171.244 136.048 168.86 136.048 166.36C136.048 165.112 136.048 163.832 136.048 162.528V158.56C135.956 158.648 136.176 158.428 136.152 158.452H155.012H155.1V158.54C155.1 163.04 155.064 166.776 155.056 169.396C155.056 170.684 155.036 171.7 155.032 172.404C155.032 172.74 155.032 173 155.032 173.204C155.032 173.408 154.972 173.524 154.972 173.524Z" fill="#263238"/>
<path d="M135.248 187.099C135.188 187.099 135.144 178.875 135.144 168.731C135.144 158.587 135.188 150.363 135.248 150.363C135.308 150.363 135.352 158.587 135.352 168.731C135.352 178.875 135.304 187.099 135.248 187.099Z" fill="white"/>
<path d="M155.44 190.543C155.44 190.599 151.148 190.647 145.84 190.647C140.532 190.647 136.24 190.599 136.24 190.543C136.24 190.487 140.532 190.439 145.84 190.439C151.148 190.439 155.44 190.487 155.44 190.543Z" fill="#263238"/>
<path d="M174.94 191.376H159.1C158.761 191.376 158.435 191.242 158.194 191.003C157.952 190.764 157.815 190.439 157.812 190.1L157.412 147.384H175.812L176.192 190.076C176.196 190.414 176.067 190.74 175.833 190.983C175.599 191.226 175.278 191.367 174.94 191.376Z" fill="#455A64"/>
<g opacity="0.3">
<path d="M172.608 156.855V189.751C172.608 189.751 175.2 190.611 175.328 188.343C175.456 186.075 175.384 156.855 175.384 156.855H172.608Z" fill="white"/>
</g>
<path d="M173.868 145.199H159.4C159.082 145.199 158.777 145.326 158.552 145.551C158.327 145.776 158.2 146.081 158.2 146.399V147.115H175.056V146.399C175.056 146.083 174.931 145.78 174.709 145.555C174.487 145.33 174.184 145.202 173.868 145.199Z" fill="#FAFAFA"/>
<path d="M173.868 145.2C173.925 145.192 173.983 145.192 174.04 145.2C174.211 145.215 174.375 145.269 174.52 145.36C174.761 145.507 174.944 145.731 175.04 145.996C175.095 146.165 175.119 146.343 175.112 146.52C175.112 146.708 175.112 146.92 175.112 147.112V147.2H175.06C171.944 147.232 166.092 147.252 159.4 147.252H158.096V147.148C158.096 146.844 158.096 146.568 158.096 146.248C158.142 145.934 158.301 145.648 158.544 145.443C158.786 145.238 159.095 145.129 159.412 145.136H160.26H163.48L168.896 145.156L172.524 145.188L173.508 145.208C173.622 145.206 173.736 145.213 173.848 145.228C173.735 145.237 173.621 145.237 173.508 145.228L172.524 145.248L168.896 145.28L163.48 145.304H159.432C159.167 145.298 158.909 145.387 158.704 145.556C158.495 145.728 158.359 145.972 158.324 146.24C158.3 146.504 158.324 146.82 158.324 147.112L158.22 147.008H159.42C166.112 147.008 171.964 147.028 175.08 147.06L175.028 147.112C175.028 146.904 175.028 146.712 175.028 146.52C175.041 146.353 175.022 146.184 174.972 146.024C174.891 145.771 174.726 145.554 174.504 145.408C174.312 145.29 174.094 145.218 173.868 145.2Z" fill="#263238"/>
<path d="M176.728 146.68H156.548C155.965 146.68 155.492 147.152 155.492 147.736V155.804C155.492 156.387 155.965 156.86 156.548 156.86H176.728C177.311 156.86 177.784 156.387 177.784 155.804V147.736C177.784 147.152 177.311 146.68 176.728 146.68Z" fill="#FAFAFA"/>
<path d="M176.724 156.856C176.937 156.84 177.141 156.768 177.316 156.648C177.519 156.497 177.661 156.278 177.716 156.032C177.742 155.87 177.748 155.707 177.736 155.544C177.736 155.368 177.736 155.176 177.736 154.98C177.736 153.38 177.716 151.064 177.704 148.216C177.704 148.04 177.704 147.852 177.704 147.676C177.694 147.504 177.637 147.338 177.54 147.196C177.441 147.047 177.303 146.929 177.142 146.852C176.981 146.775 176.802 146.743 176.624 146.76H174.192H168.832H156.548C156.302 146.761 156.065 146.857 155.887 147.028C155.71 147.2 155.606 147.433 155.596 147.68C155.596 148.216 155.596 148.748 155.596 149.28V152.416C155.596 153.445 155.596 154.453 155.596 155.44C155.574 155.673 155.598 155.908 155.664 156.132C155.749 156.337 155.899 156.509 156.092 156.62C156.294 156.72 156.52 156.762 156.744 156.74H157.456L167.488 156.764L174.252 156.796H176.092L174.252 156.816L167.488 156.848L157.456 156.872H156.744C156.494 156.916 156.237 156.891 156 156.8C155.767 156.667 155.586 156.46 155.484 156.212C155.435 156.084 155.408 155.949 155.404 155.812V155.44C155.404 154.453 155.404 153.445 155.404 152.416V147.696C155.416 147.395 155.543 147.111 155.759 146.902C155.975 146.694 156.264 146.577 156.564 146.576H168.848H174.208H176.64C176.844 146.565 177.048 146.607 177.231 146.698C177.415 146.788 177.572 146.924 177.688 147.092C177.797 147.258 177.859 147.45 177.868 147.648C177.868 147.84 177.868 148.016 177.868 148.196C177.868 151.044 177.84 153.352 177.832 154.96C177.832 155.156 177.832 155.36 177.832 155.524C177.84 155.691 177.829 155.859 177.8 156.024C177.738 156.285 177.58 156.514 177.356 156.664C177.222 156.756 177.066 156.813 176.904 156.832C176.846 156.85 176.785 156.859 176.724 156.856Z" fill="#263238"/>
<path d="M156.8 156.688C156.744 156.688 156.696 154.524 156.696 151.852C156.696 149.18 156.744 147.012 156.8 147.012C156.856 147.012 156.904 149.176 156.904 151.852C156.904 154.528 156.84 156.688 156.8 156.688Z" fill="#263238"/>
<path d="M158.468 156.688C158.412 156.688 158.364 154.524 158.364 151.852C158.364 149.18 158.412 147.012 158.468 147.012C158.524 147.012 158.572 149.176 158.572 151.852C158.572 154.528 158.528 156.688 158.468 156.688Z" fill="#263238"/>
<path d="M160.156 156.688C160.096 156.688 160.052 154.524 160.052 151.852C160.052 149.18 160.096 147.012 160.156 147.012C160.216 147.012 160.26 149.176 160.26 151.852C160.26 154.528 160.212 156.688 160.156 156.688Z" fill="#263238"/>
<path d="M161.84 156.688C161.784 156.688 161.736 154.524 161.736 151.852C161.736 149.18 161.784 147.012 161.84 147.012C161.896 147.012 161.944 149.176 161.944 151.852C161.944 154.528 161.9 156.688 161.84 156.688Z" fill="#263238"/>
<path d="M163.528 156.688C163.468 156.688 163.424 154.524 163.424 151.852C163.424 149.18 163.468 147.012 163.528 147.012C163.588 147.012 163.632 149.176 163.632 151.852C163.632 154.528 163.6 156.688 163.528 156.688Z" fill="#263238"/>
<path d="M165.2 156.688C165.144 156.688 165.096 154.524 165.096 151.852C165.096 149.18 165.144 147.012 165.2 147.012C165.256 147.012 165.304 149.176 165.304 151.852C165.304 154.528 165.272 156.688 165.2 156.688Z" fill="#263238"/>
<path d="M166.9 156.688C166.84 156.688 166.796 154.524 166.796 151.852C166.796 149.18 166.84 147.012 166.9 147.012C166.96 147.012 167.004 149.176 167.004 151.852C167.004 154.528 166.956 156.688 166.9 156.688Z" fill="#263238"/>
<path d="M168.584 156.688C168.528 156.688 168.48 154.524 168.48 151.852C168.48 149.18 168.528 147.012 168.584 147.012C168.64 147.012 168.688 149.176 168.688 151.852C168.688 154.528 168.64 156.688 168.584 156.688Z" fill="#263238"/>
<path d="M170.272 156.688C170.212 156.688 170.164 154.524 170.164 151.852C170.164 149.18 170.212 147.012 170.272 147.012C170.332 147.012 170.376 149.176 170.376 151.852C170.376 154.528 170.328 156.688 170.272 156.688Z" fill="#263238"/>
<path d="M171.956 156.688C171.9 156.688 171.852 154.524 171.852 151.852C171.852 149.18 171.9 147.012 171.956 147.012C172.012 147.012 172.06 149.176 172.06 151.852C172.06 154.528 172 156.688 171.956 156.688Z" fill="#263238"/>
<path d="M173.64 156.688C173.584 156.688 173.536 154.524 173.536 151.852C173.536 149.18 173.584 147.012 173.64 147.012C173.696 147.012 173.744 149.176 173.744 151.852C173.744 154.528 173.7 156.688 173.64 156.688Z" fill="#263238"/>
<path d="M175.328 156.688C175.268 156.688 175.224 154.524 175.224 151.852C175.224 149.18 175.268 147.012 175.328 147.012C175.388 147.012 175.432 149.176 175.432 151.852C175.432 154.528 175.384 156.688 175.328 156.688Z" fill="#263238"/>
<path d="M177.012 156.688C176.956 156.688 176.908 154.524 176.908 151.852C176.908 149.18 176.956 147.012 177.012 147.012C177.068 147.012 177.116 149.176 177.116 151.852C177.116 154.528 177.072 156.688 177.012 156.688Z" fill="#263238"/>
<path d="M174.812 164.523H158.872V177.287H174.812V164.523Z" fill="white"/>
<path d="M161.6 168.587L161.232 168.051H160.832V168.587H160.4V166.663H161.2C161.353 166.66 161.504 166.688 161.644 166.747C161.763 166.798 161.863 166.883 161.932 166.991C162 167.103 162.036 167.231 162.036 167.361C162.036 167.492 162 167.62 161.932 167.731C161.861 167.838 161.759 167.92 161.64 167.967L162.072 168.587H161.6ZM161.488 167.111C161.4 167.05 161.292 167.02 161.184 167.027H160.82V167.695H161.2C161.309 167.704 161.417 167.672 161.504 167.607C161.54 167.577 161.568 167.539 161.586 167.496C161.604 167.453 161.612 167.406 161.608 167.359C161.611 167.312 161.602 167.265 161.582 167.222C161.563 167.179 161.533 167.141 161.496 167.111H161.488Z" fill="#263238"/>
<path d="M162.584 169.916L162.144 169.284L161.712 169.916H161.228L161.9 168.988L161.26 168.096H161.74L162.14 168.684L162.54 168.096H162.996L162.4 168.972L163.076 169.916H162.584Z" fill="#263238"/>
<path d="M173.64 166.66H164.54V168.044H173.64V166.66Z" fill="#E0E0E0"/>
<path d="M172.608 171.476C172.608 171.536 169.952 171.58 166.672 171.58C163.392 171.58 160.736 171.536 160.736 171.476C160.736 171.416 163.392 171.372 166.672 171.372C169.952 171.372 172.608 171.42 172.608 171.476Z" fill="#263238"/>
<path d="M172.608 172.919C172.608 172.975 169.952 173.023 166.672 173.023C163.392 173.023 160.736 172.975 160.736 172.919C160.736 172.863 163.392 172.815 166.672 172.815C169.952 172.815 172.608 172.859 172.608 172.919Z" fill="#263238"/>
<path d="M166.028 174.72H159.876V175.904H166.028V174.72Z" fill="#E0E0E0"/>
<path d="M174.448 176.896C174.448 176.896 174.448 176.812 174.448 176.664C174.448 176.516 174.448 176.288 174.448 176.016C174.448 175.436 174.448 174.608 174.428 173.56C174.428 171.444 174.4 168.44 174.384 164.816L174.468 164.904H159.192L159.296 164.8V166.4C159.296 166.94 159.296 167.472 159.296 168V171.104C159.296 173.128 159.296 175.056 159.296 176.86L159.204 176.764L170.216 176.812L173.352 176.836H174.188H174.404H174.48H174.208H173.408L170.292 176.86L159.22 176.908H159.124V176.816C159.124 175.012 159.124 173.084 159.124 171.06V164.74C159.032 164.832 159.252 164.612 159.232 164.636H174.508H174.596V164.8C174.596 168.444 174.56 171.472 174.552 173.6C174.552 174.64 174.532 175.46 174.528 176.032C174.528 176.3 174.528 176.512 174.528 176.668C174.508 176.746 174.481 176.822 174.448 176.896Z" fill="#263238"/>
<path d="M158.468 187.892C158.412 187.892 158.364 181.228 158.364 173.012C158.364 164.796 158.412 158.132 158.468 158.132C158.524 158.132 158.572 164.792 158.572 173.012C158.572 181.232 158.528 187.892 158.468 187.892Z" fill="white"/>
<path d="M174.828 190.679C174.828 190.739 171.348 190.783 167.06 190.783C162.772 190.783 159.296 190.739 159.296 190.679C159.296 190.619 162.772 190.575 167.06 190.575C171.348 190.575 174.828 190.623 174.828 190.679Z" fill="#263238"/>
<path d="M46.9244 174.292L44.2724 183.712C44.2724 183.712 52.7244 189.64 52.4004 191.428L34.4004 186.8L37.9484 171.952L46.9244 174.292Z" fill="#455A64"/>
<path d="M38.8962 181.484C38.7077 181.497 38.5305 181.578 38.3984 181.713C38.2663 181.848 38.1886 182.027 38.1802 182.216C38.1809 182.405 38.2538 182.586 38.384 182.723C38.5141 182.86 38.6916 182.942 38.8802 182.952C39.0806 182.941 39.2695 182.855 39.4095 182.711C39.5496 182.568 39.6305 182.377 39.6362 182.176C39.6002 181.796 39.1882 181.4 38.8362 181.492" fill="#E0E0E0"/>
<g opacity="0.6">
<path d="M34.4004 186.799L34.8004 185.319L51.9124 190.299C51.9124 190.299 52.6284 190.859 52.3964 191.415L34.4004 186.799Z" fill="white"/>
</g>
<path d="M44.5885 183.692C44.5605 183.784 44.1125 183.692 43.6085 183.888C43.1045 184.084 42.7805 184.388 42.7085 184.332C42.6365 184.276 42.8965 183.788 43.5085 183.584C44.1205 183.38 44.6245 183.6 44.5885 183.692Z" fill="#263238"/>
<path d="M46.2804 184.975C46.2804 185.071 45.8804 185.123 45.4804 185.431C45.0804 185.739 44.9044 186.115 44.8164 186.087C44.7284 186.059 44.8164 185.539 45.2924 185.171C45.7684 184.803 46.3004 184.891 46.2804 184.975Z" fill="#263238"/>
<path d="M46.8001 187.568C46.7161 187.568 46.7041 187.088 47.0481 186.652C47.3921 186.216 47.8481 186.124 47.8721 186.208C47.8961 186.292 47.5721 186.492 47.2921 186.856C47.0121 187.22 46.8761 187.6 46.8001 187.568Z" fill="#263238"/>
<path d="M44.9602 181.48C44.9002 181.552 44.5282 181.324 44.0242 181.232C43.5202 181.14 43.0922 181.2 43.0642 181.108C43.0362 181.016 43.4882 180.796 44.0802 180.912C44.6722 181.028 45.0202 181.42 44.9602 181.48Z" fill="#263238"/>
<path d="M40.6123 176.512L40.2123 186.304C40.2123 186.304 49.8123 190.028 49.8843 191.848L31.3203 191.7L31.3603 176.412L40.6123 176.512Z" fill="#455A64"/>
<path d="M34.4601 185.436C34.2793 185.492 34.1254 185.613 34.0275 185.775C33.9295 185.937 33.8941 186.129 33.9281 186.316C33.9703 186.5 34.0825 186.66 34.2409 186.762C34.3992 186.864 34.5913 186.901 34.7761 186.864C34.968 186.804 35.1311 186.675 35.2343 186.502C35.3376 186.33 35.3738 186.125 35.3361 185.928C35.2723 185.743 35.1386 185.59 34.9636 185.503C34.7886 185.415 34.5864 185.4 34.4001 185.46" fill="#E0E0E0"/>
<g opacity="0.6">
<path d="M31.3003 191.7L31.3643 190.16L49.1403 190.876C49.1403 190.876 49.9643 191.252 49.8643 191.848L31.3003 191.7Z" fill="white"/>
</g>
<path d="M40.4965 186.212C40.4965 186.304 40.0405 186.344 39.5885 186.636C39.1365 186.928 38.9005 187.32 38.8165 187.284C38.7325 187.248 38.8725 186.712 39.4245 186.364C39.9765 186.016 40.5165 186.124 40.4965 186.212Z" fill="#263238"/>
<path d="M42.436 187.052C42.436 187.14 42.064 187.296 41.752 187.688C41.44 188.08 41.352 188.488 41.26 188.488C41.168 188.488 41.116 187.956 41.512 187.48C41.908 187.004 42.436 186.964 42.436 187.052Z" fill="#263238"/>
<path d="M43.5241 189.448C43.4401 189.468 43.3201 189.004 43.5561 188.496C43.7921 187.988 44.2161 187.788 44.2561 187.868C44.2961 187.948 44.0281 188.216 43.8561 188.632C43.6841 189.048 43.6001 189.44 43.5241 189.448Z" fill="#263238"/>
<path d="M40.3483 183.967C40.3123 184.051 39.8963 183.919 39.3843 183.967C38.8723 184.015 38.4683 184.163 38.4243 184.083C38.3803 184.003 38.7643 183.683 39.3683 183.643C39.9723 183.603 40.4003 183.895 40.3483 183.967Z" fill="#263238"/>
<path d="M29.1284 104.844V112.588L31.1564 142.756C31.1564 142.756 29.8924 157.392 29.1164 165.656C28.4444 172.828 29.5444 185.324 29.5444 185.324H41.3604L45.6004 143.656L48.2244 117.656L52.8004 105.84L29.1284 104.844Z" fill="#263238"/>
<path d="M60.2444 106.192L57.9804 148.284L46.0284 179.8L45.4764 181.696L38.4204 179.948L43.6684 105.372L60.2444 106.192Z" fill="#263238"/>
<path d="M48.1842 117.976C48.1885 118.034 48.1885 118.093 48.1842 118.152C48.1842 118.28 48.1842 118.448 48.1842 118.664C48.1842 119.128 48.1522 119.792 48.1242 120.64C48.0762 122.352 47.9562 124.828 47.7882 127.888C47.4322 134.008 46.7682 142.452 45.7282 151.748C44.6882 161.044 43.5802 169.436 42.7562 175.508C42.3562 178.532 42.0002 180.984 41.7642 182.708C41.6442 183.548 41.5482 184.204 41.4842 184.66C41.4482 184.876 41.4242 185.06 41.4042 185.168C41.3975 185.226 41.3854 185.283 41.3682 185.34V185.164C41.3682 185.04 41.4042 184.872 41.4282 184.656C41.4842 184.196 41.5642 183.54 41.6682 182.696C41.8842 180.988 42.2002 178.532 42.5922 175.496C43.3922 169.42 44.4762 161.028 45.5002 151.732C46.5242 142.436 47.2242 134.008 47.6202 127.892C47.8082 124.836 47.9522 122.36 48.0202 120.648C48.0642 119.8 48.0962 119.14 48.1202 118.676C48.1202 118.46 48.1442 118.276 48.1522 118.164C48.156 118.1 48.1667 118.037 48.1842 117.976Z" fill="#455A64"/>
<path d="M48.9321 107.448C48.929 107.568 48.8906 107.684 48.8219 107.782C48.7533 107.879 48.6572 107.955 48.5459 107.998C48.4346 108.042 48.3128 108.052 48.196 108.027C48.0791 108.001 47.9723 107.942 47.8888 107.857C47.8054 107.771 47.7491 107.663 47.7269 107.545C47.7047 107.428 47.7176 107.306 47.7641 107.196C47.8105 107.086 47.8884 106.992 47.988 106.926C48.0876 106.86 48.2045 106.824 48.3241 106.824C48.4051 106.825 48.4853 106.841 48.5599 106.873C48.6345 106.905 48.702 106.951 48.7585 107.009C48.8151 107.067 48.8596 107.136 48.8894 107.211C48.9192 107.287 48.9337 107.367 48.9321 107.448Z" fill="#455A64"/>
<path d="M59.3202 113.327C59.0056 113.102 58.7254 112.833 58.4882 112.527C57.8771 111.805 57.3757 110.996 57.0002 110.127C56.6222 109.26 56.3716 108.342 56.2562 107.403C56.1892 107.018 56.1798 106.624 56.2282 106.235C56.2642 106.235 56.2882 106.679 56.4082 107.383C56.5696 108.296 56.8381 109.186 57.2082 110.035C57.5802 110.879 58.0515 111.675 58.6122 112.407C59.0362 112.983 59.3442 113.299 59.3202 113.327Z" fill="#455A64"/>
<path d="M57.9082 66.8721C57.9082 66.8721 60.1682 67.7601 61.2162 71.0721C61.9442 73.3761 65.3522 90.5281 65.3522 90.5281L60.6002 93.6601L58.6682 77.6001L57.9082 66.8721Z" fill="#E0E0E0"/>
<path d="M39.8361 58.6797L38.3481 61.3197C38.3481 61.3197 28.4001 66.3757 28.4361 66.8717C28.4361 66.8717 28.9921 85.7437 29.0961 99.5877C29.1361 104.816 28.9441 109.62 28.8401 111.928C28.5641 117.988 28.3481 141.528 28.3481 141.528L64.3481 140.676L57.9081 66.8717L52.8281 64.6517L52.1801 63.3277L49.8481 61.4317L39.8361 58.6797Z" fill="#E0E0E0"/>
<path d="M55.6003 140.872C55.6057 140.818 55.6057 140.765 55.6003 140.712C55.6003 140.596 55.6003 140.44 55.5803 140.244C55.5563 139.816 55.5243 139.208 55.4803 138.432C55.3883 136.852 55.2523 134.58 55.0803 131.784C54.7403 126.16 54.2803 118.408 53.7563 109.844C53.2323 101.28 52.8163 93.5275 52.4923 87.8995C52.3443 85.0995 52.2203 82.8315 52.1363 81.2475C52.0923 80.4715 52.0603 79.8675 52.0363 79.4395C52.0363 79.2435 52.0123 79.0875 52.0043 78.9715C52.0012 78.9178 51.9946 78.8643 51.9843 78.8115C51.9798 78.8648 51.9798 78.9183 51.9843 78.9715C51.9843 79.0875 51.9843 79.2435 51.9843 79.4435C51.9843 79.8675 52.0163 80.4755 52.0443 81.2515C52.1003 82.8235 52.2003 85.0995 52.3323 87.9075C52.5963 93.5075 53.0203 101.288 53.5323 109.86C54.0443 118.432 54.5403 126.18 54.9203 131.792C55.1123 134.592 55.2723 136.856 55.3803 138.44C55.4403 139.212 55.4883 139.82 55.5203 140.244L55.5603 140.716C55.5678 140.769 55.5812 140.821 55.6003 140.872Z" fill="#263238"/>
<path d="M49.848 61.4321L50.684 67.2121L52.18 78.8121L45.66 67.6201L40 60.2041L49.328 66.7401L49.444 61.3241" fill="#ADCCEB"/>
<path d="M38.3042 61.6719C38.3496 61.8279 38.4099 61.9793 38.4842 62.1239C38.6242 62.4399 38.8082 62.8599 39.0402 63.3759L41.0642 67.7759L41.0882 67.8319H41.1522H42.5122L42.4482 67.6479L41.4482 68.4679L41.3562 68.5439L41.4402 68.6279L43.3362 70.4839L49.4362 76.3999L51.3002 78.1719L51.8162 78.6479C51.8725 78.7071 51.9356 78.7594 52.0042 78.8039C51.9602 78.7338 51.9063 78.6705 51.8442 78.6159L51.3602 78.1119L49.5402 76.2879L43.4882 70.3279C42.8362 69.6879 42.1962 69.0679 41.5882 68.4759V68.6319L42.5842 67.8079L42.8042 67.6239H42.5162H41.1562L41.2442 67.6799C40.3922 65.9039 39.6722 64.3999 39.1482 63.3119C38.8962 62.8039 38.6962 62.3919 38.5442 62.0839C38.4751 61.9405 38.3948 61.8027 38.3042 61.6719Z" fill="#263238"/>
<path d="M52.1801 78.7997C52.2422 78.5634 52.2864 78.3227 52.3121 78.0797C52.3841 77.5797 52.4761 76.9157 52.5881 76.1117C52.8121 74.4477 53.1081 72.1477 53.4201 69.6077L53.7081 67.2397V67.1477L53.6161 67.1237L51.9801 66.7237V66.9157L53.6201 66.6237L53.7321 66.6037L53.6841 66.5037L52.6041 64.1557C52.4801 63.9037 52.3801 63.6917 52.2961 63.5197C52.2663 63.4417 52.2244 63.3688 52.1721 63.3037C52.1888 63.3854 52.2157 63.4647 52.2521 63.5397C52.3241 63.7157 52.4121 63.9397 52.5161 64.1957C52.7721 64.7957 53.1161 65.5997 53.5281 66.5717L53.5921 66.4557L51.9481 66.7237L51.4761 66.7997L51.9401 66.9157L53.5721 67.3157L53.4921 67.2037C53.3961 67.9557 53.3001 68.7517 53.1961 69.5677C52.8841 72.1117 52.6121 74.4117 52.4281 76.0797C52.3441 76.8797 52.2721 77.5557 52.2201 78.0797C52.1881 78.3183 52.1747 78.559 52.1801 78.7997Z" fill="#263238"/>
<path d="M46.6162 109.684H46.3842L45.6922 109.728L43.0362 109.92L33.5242 110.652H33.4282V110.748C33.5802 112.536 33.7482 114.48 33.9242 116.528C34.0122 117.557 34.1029 118.609 34.1962 119.684C34.2442 120.224 34.2882 120.764 34.3362 121.312C34.353 121.596 34.3972 121.877 34.4682 122.152C34.5526 122.436 34.6794 122.706 34.8442 122.952C35.3826 123.679 36.1863 124.163 37.0802 124.3C37.9214 124.404 38.7688 124.45 39.6162 124.436C41.216 124.44 42.8112 124.266 44.3722 123.916C44.7425 123.826 45.1049 123.707 45.4562 123.56C45.6312 123.489 45.7998 123.403 45.9602 123.304C46.0416 123.25 46.1179 123.188 46.1882 123.12C46.2528 123.049 46.3129 122.974 46.3682 122.896C46.7092 122.269 46.9201 121.579 46.9882 120.868C47.1457 119.62 47.2086 118.362 47.1762 117.104C47.1402 114.8 46.9762 112.944 46.8522 111.664C46.7922 111.024 46.7322 110.532 46.6882 110.196C46.6882 110.036 46.6482 109.912 46.6362 109.796C46.634 109.752 46.6245 109.709 46.6082 109.668C46.6082 109.668 46.6082 109.712 46.6082 109.8C46.6082 109.888 46.6082 110.024 46.6402 110.2C46.6722 110.552 46.7122 111.044 46.7642 111.672C46.8642 112.952 47.0042 114.808 47.0202 117.104C47.0384 118.353 46.9675 119.601 46.8082 120.84C46.7374 121.523 46.5322 122.185 46.2042 122.788C45.9976 123.069 45.7059 123.277 45.3722 123.38C45.0312 123.521 44.6794 123.635 44.3202 123.72C42.7743 124.061 41.1953 124.23 39.6122 124.224C38.7781 124.236 37.9441 124.191 37.1162 124.088C36.2777 123.961 35.5232 123.508 35.0162 122.828C34.869 122.605 34.7532 122.363 34.6722 122.108C34.6061 121.846 34.5646 121.578 34.5482 121.308C34.5002 120.76 34.4522 120.216 34.4082 119.676C34.3122 118.604 34.2202 117.548 34.1282 116.524C33.9442 114.472 33.7722 112.524 33.6122 110.744L33.5282 110.848L42.9722 110.024L45.6442 109.78L46.3562 109.712C46.4434 109.709 46.5303 109.699 46.6162 109.684Z" fill="#263238"/>
<g opacity="0.3">
<path d="M34.4883 121.896C35.5043 124.544 38.1563 124.696 41.0123 124.296C43.6963 123.896 46.2803 123.34 46.4803 122.572C46.4083 123.976 45.3763 125.052 44.0803 125.616C42.7644 126.118 41.3518 126.317 39.9483 126.196C38.4803 126.128 37.2123 126.196 36.0003 125.36C34.7883 124.524 34.4843 123.104 34.4883 121.896Z" fill="black"/>
</g>
<path d="M61.7164 110.504C61.7129 110.471 61.7129 110.437 61.7164 110.404L61.6804 110.116C61.6538 109.849 61.6138 109.477 61.5604 109C61.4644 108.008 61.3284 106.6 61.1604 104.888C60.8324 101.416 60.3924 96.6161 59.9284 91.3161C59.4644 86.0161 59.0644 81.2121 58.7964 77.7161C58.6644 75.9761 58.5684 74.5681 58.5124 73.5961C58.4804 73.1081 58.4684 72.7321 58.4604 72.4721C58.4604 72.3561 58.4604 72.2601 58.4604 72.1801C58.4546 72.147 58.4546 72.1132 58.4604 72.0801C58.5564 73.2081 59.2244 80.8521 60.1364 91.2801C60.5924 96.5761 61.0084 101.368 61.3084 104.86C61.4484 106.584 61.5644 107.984 61.6444 108.976C61.6804 109.448 61.7084 109.824 61.7284 110.096C61.7284 110.212 61.7284 110.308 61.7284 110.388C61.7301 110.427 61.7261 110.466 61.7164 110.504Z" fill="#263238"/>
<path d="M66.9324 90.9082C67.086 91.4623 67.1428 92.0388 67.1004 92.6122C67.0164 93.4882 66.9764 95.6402 64.6444 96.3762C62.3124 97.1122 61.1804 96.4082 60.4644 95.4202L60.1084 91.1402L62.6044 89.4922L66.9324 90.9082Z" fill="#E0E0E0"/>
<g opacity="0.3">
<path d="M47.448 93.6602C47.448 93.6602 41.484 99.5522 36.852 100.4C32.22 101.248 30.564 99.6002 29.332 95.4522L47.448 93.6602Z" fill="black"/>
</g>
<path d="M28.5443 66.7275C28.5443 66.7275 24.7563 70.2395 25.8363 78.5555C26.8363 86.2835 28.6363 97.0435 30.9883 98.2955C33.3403 99.5475 38.4803 98.9195 42.2283 96.7955C45.9763 94.6715 56.8363 88.9275 56.8363 88.9275L52.3403 80.9275L37.8563 86.5275C37.8563 86.5275 35.9843 73.7275 34.8603 71.5035" fill="#E0E0E0"/>
<path d="M34.8002 71.3561C34.8002 71.3561 34.8402 71.4401 34.9122 71.6041C34.9442 71.6841 34.9922 71.7841 35.0402 71.9081C35.0882 72.0321 35.1282 72.1841 35.1842 72.3481C35.3962 73.0121 35.6482 74.0081 35.9242 75.3041C36.4842 77.8921 37.1602 81.6681 37.8722 86.3721L37.7682 86.3081L52.2442 80.6681L52.3242 80.6361L52.3682 80.7121C53.7882 83.2401 55.3002 85.9121 56.8682 88.7121L56.9202 88.8081L56.8242 88.8601L47.5362 93.8641L42.9802 96.3161C42.2322 96.7161 41.4882 97.1361 40.7162 97.4681C39.9459 97.7936 39.1549 98.0675 38.3482 98.2881C36.7771 98.7282 35.1464 98.9171 33.5162 98.8481C32.7216 98.8128 31.9386 98.6437 31.2002 98.3481L30.9282 98.2281C30.8402 98.1841 30.7562 98.1201 30.6682 98.0641C30.5196 97.938 30.3855 97.7958 30.2682 97.6401C30.0302 97.3331 29.825 97.002 29.6562 96.6521C29.0322 95.3068 28.5444 93.9025 28.2002 92.4601C27.8362 91.0721 27.5482 89.7081 27.2882 88.3841C26.7762 85.7401 26.3962 83.2601 26.0882 80.9921C25.7802 78.7241 25.4882 76.6601 25.5722 74.8321C25.6117 73.2697 25.8896 71.7225 26.3962 70.2441C26.7246 69.3128 27.1868 68.4342 27.7682 67.6361C27.921 67.4298 28.0867 67.2334 28.2642 67.0481C28.3249 66.9859 28.389 66.9271 28.4562 66.8721L28.2802 67.0641C28.1107 67.2538 27.9518 67.4528 27.8042 67.6601C27.2411 68.4641 26.7941 69.3434 26.4762 70.2721C25.98 71.7441 25.7102 73.283 25.6762 74.8361C25.6042 76.6521 25.8922 78.7041 26.2202 80.9681C26.5482 83.2321 26.9362 85.7121 27.4562 88.3521C27.7162 89.6681 28.0082 91.0281 28.3762 92.4121C28.7187 93.8405 29.2025 95.2314 29.8202 96.5641C29.9818 96.8984 30.1761 97.216 30.4002 97.5121C30.5184 97.6597 30.6526 97.7939 30.8002 97.9121C30.8741 97.9643 30.9516 98.0111 31.0322 98.0521L31.2882 98.1681C32.0086 98.4498 32.7713 98.608 33.5442 98.6361C35.1516 98.7018 36.7592 98.5142 38.3082 98.0801C39.1032 97.8637 39.8835 97.5965 40.6442 97.2801C41.4122 96.9481 42.1402 96.5361 42.8922 96.1361L47.4482 93.6801L56.7402 88.6801L56.6962 88.8241L52.2082 80.8241L52.3322 80.8681L37.8402 86.4681L37.7482 86.5041V86.4081C37.0562 81.7081 36.4042 77.9281 35.8722 75.3361C35.6122 74.0401 35.3722 73.0401 35.1722 72.3761C35.1242 72.2121 35.0802 72.0641 35.0402 71.9361L34.9242 71.6281C34.8442 71.4441 34.8002 71.3561 34.8002 71.3561Z" fill="#263238"/>
<path d="M40.0005 80.9395H47.1885V78.5475H40.0005V80.9395Z" fill="white"/>
<path d="M41.4883 79.6C42.2298 79.4922 42.9799 79.4561 43.7283 79.492C44.478 79.456 45.2295 79.4922 45.9723 79.6C45.229 79.7028 44.4779 79.7376 43.7283 79.704C42.98 79.7375 42.2302 79.7027 41.4883 79.6Z" fill="#263238"/>
<g opacity="0.3">
<path d="M51.816 78.656L41.236 70.072L41.488 69.324H40.568L39.04 63.376L41.24 67.696L42.512 67.636L41.588 68.484L51.816 78.656Z" fill="black"/>
</g>
<path d="M38.7485 68.8722L39.1485 68.7122C39.1485 68.6922 38.2805 66.6242 37.4285 64.4322C37.1224 63.7587 36.9983 63.0167 37.0685 62.2802C37.1164 62.0485 37.2446 61.8412 37.4305 61.6949C37.6164 61.5485 37.848 61.4725 38.0845 61.4802L38.3645 61.3322L38.5085 61.0762C37.7685 60.9162 36.7765 61.5362 36.6565 62.2202C36.5785 63.0336 36.7164 63.8532 37.0565 64.5962C37.8765 66.8002 38.7365 68.8522 38.7485 68.8722Z" fill="#455A64"/>
<path d="M38.124 73.7037L38.656 73.4957C38.22 72.3717 37.624 70.3837 37.88 69.8237C38.0062 69.6239 38.1735 69.4531 38.3707 69.3227C38.568 69.1924 38.7906 69.1055 39.024 69.0677C39.3097 68.9923 39.609 68.9841 39.8984 69.0438C40.1878 69.1034 40.4595 69.2294 40.692 69.4117C41.3 69.9277 42.22 71.7437 42.524 72.4037L43.04 72.1637C42.996 72.0637 41.892 69.6757 41.06 68.9637C40.7606 68.7242 40.4096 68.5575 40.0347 68.477C39.6598 68.3965 39.2714 68.4043 38.9 68.4997C38.5777 68.5556 38.2721 68.6835 38.0061 68.874C37.7402 69.0645 37.5207 69.3126 37.364 69.5997C36.932 70.5277 37.92 73.1997 38.124 73.7037Z" fill="#455A64"/>
<path d="M43.8685 82.3754C44.5245 82.3754 45.1725 82.0234 45.7925 81.3274L45.5765 81.1354C44.8965 81.9074 44.1925 82.2114 43.4965 82.0474C40.6525 81.3794 38.4845 73.4794 38.4645 73.3994L38.1885 73.4714C38.2805 73.8034 40.4205 81.6194 43.4285 82.3234C43.5725 82.3584 43.7202 82.3759 43.8685 82.3754Z" fill="#263238"/>
<path d="M45.2443 81.6518C45.3021 81.7097 45.3788 81.7447 45.4604 81.7506C45.5419 81.7565 45.6229 81.7328 45.6883 81.6838L46.3044 81.2238C46.3503 81.1951 46.39 81.1573 46.4209 81.1128C46.4518 81.0682 46.4733 81.0178 46.4842 80.9647C46.495 80.9116 46.495 80.8568 46.484 80.8037C46.473 80.7506 46.4514 80.7003 46.4204 80.6558C46.3877 80.6045 46.3437 80.5614 46.2919 80.5296C46.24 80.4978 46.1815 80.4783 46.121 80.4725C46.0604 80.4667 45.9994 80.4748 45.9424 80.4962C45.8855 80.5176 45.8341 80.5517 45.7924 80.5958L45.2363 81.1718C45.1739 81.2366 45.1397 81.3235 45.1412 81.4135C45.1427 81.5035 45.1798 81.5892 45.2443 81.6518Z" fill="#263238"/>
<path d="M42.6605 82.6357C43.0305 82.6641 43.4018 82.5995 43.7406 82.448C44.0794 82.2964 44.375 82.0625 44.6005 81.7677C46.3485 79.3157 43.0525 72.5077 42.9125 72.2197L42.6565 72.3437C42.6885 72.4157 46.0205 79.2877 44.3685 81.6037C43.9365 82.2077 43.1685 82.4477 42.1205 82.3157L42.0845 82.5957C42.2753 82.6223 42.4678 82.6357 42.6605 82.6357Z" fill="#263238"/>
<path d="M42.7124 82.4803C42.7069 82.5616 42.6724 82.6382 42.6151 82.6962C42.5578 82.7542 42.4816 82.7897 42.4004 82.7963L41.6324 82.8603C41.5792 82.8687 41.5248 82.8663 41.4726 82.8533C41.4203 82.8402 41.3712 82.8167 41.3283 82.7842C41.2853 82.7517 41.2494 82.7109 41.2226 82.6642C41.1958 82.6174 41.1787 82.5658 41.1724 82.5123C41.1624 82.4522 41.1663 82.3907 41.1837 82.3323C41.2012 82.274 41.2317 82.2204 41.273 82.1757C41.3143 82.1309 41.3652 82.0962 41.4219 82.0741C41.4787 82.052 41.5397 82.0432 41.6004 82.0483L42.4004 82.1163C42.4895 82.1244 42.572 82.167 42.6302 82.235C42.6885 82.3029 42.718 82.3909 42.7124 82.4803Z" fill="#263238"/>
<path d="M56.4002 74.1275C57.5224 74.1275 58.4322 73.2177 58.4322 72.0955C58.4322 70.9732 57.5224 70.0635 56.4002 70.0635C55.2779 70.0635 54.3682 70.9732 54.3682 72.0955C54.3682 73.2177 55.2779 74.1275 56.4002 74.1275Z" fill="#263238"/>
<path d="M56.4002 74.1275C57.5224 74.1275 58.4322 73.2177 58.4322 72.0955C58.4322 70.9732 57.5224 70.0635 56.4002 70.0635C55.2779 70.0635 54.3682 70.9732 54.3682 72.0955C54.3682 73.2177 55.2779 74.1275 56.4002 74.1275Z" fill="#263238"/>
<path d="M54.9004 72.0957C54.8996 72.3935 54.9872 72.6848 55.1522 72.9328C55.3172 73.1807 55.552 73.3741 55.827 73.4885C56.102 73.6028 56.4047 73.6329 56.6968 73.575C56.9889 73.5171 57.2573 73.3738 57.4679 73.1632C57.6785 72.9526 57.8218 72.6843 57.8797 72.3921C57.9376 72.1 57.9075 71.7973 57.7931 71.5223C57.6788 71.2473 57.4854 71.0125 57.2375 70.8475C56.9895 70.6826 56.6982 70.5949 56.4004 70.5957C56.0026 70.5957 55.621 70.7537 55.3397 71.035C55.0584 71.3164 54.9004 71.6979 54.9004 72.0957Z" fill="#E0E0E0"/>
<path d="M52.0882 63.2442C52.2802 63.5202 54.4042 68.0042 55.5642 70.2642L55.9042 70.0882C55.7322 69.7562 52.6442 63.3842 52.4042 63.0282L50.1562 61.2002L50.0762 61.6282L52.0882 63.2442Z" fill="#455A64"/>
<path d="M51.2364 72.048C52.7084 73.516 56.4364 77.336 56.4364 77.336L57.4324 76.736L52.1844 71.136C52.078 71.0225 51.9346 70.9505 51.78 70.9329C51.6254 70.9153 51.4696 70.9533 51.3404 71.04C51.2597 71.0935 51.1918 71.1643 51.1416 71.2472C51.0915 71.3301 51.0603 71.423 51.0503 71.5194C51.0404 71.6158 51.0519 71.7132 51.0841 71.8046C51.1163 71.8959 51.1683 71.9791 51.2364 72.048Z" fill="#263238"/>
<path d="M52.2964 80.7638L53.5484 77.2358C53.6783 76.8552 53.9199 76.5226 54.2417 76.2814C54.5636 76.0402 54.9506 75.9016 55.3524 75.8838H55.5404C56.2924 75.9678 60.1204 76.2198 60.1204 76.2198L61.6004 77.8798C61.7222 78.0179 61.7893 78.1957 61.7893 78.3798C61.7893 78.5639 61.7222 78.7417 61.6004 78.8798L62.0284 81.8798L61.2004 82.4558L61.2844 84.5518C61.2844 84.5518 60.5364 85.0478 60.2044 84.8838L59.8684 84.7158L59.3724 84.2158L57.9564 86.2158L56.0004 87.3478L52.2964 80.7638Z" fill="#FFBF9D"/>
<path d="M61.624 79.0474C61.4567 78.8438 61.2778 78.6502 61.088 78.4674C60.875 78.2846 60.633 78.1386 60.372 78.0354C60.0321 77.9551 59.6851 77.9082 59.336 77.8954C58.4171 77.8448 57.5036 77.7217 56.604 77.5274C57.5239 77.5055 58.4441 77.5564 59.356 77.6794C59.7228 77.6915 60.0868 77.7479 60.44 77.8474C60.7204 77.9662 60.9756 78.1372 61.192 78.3514C61.4088 78.5294 61.5607 78.7741 61.624 79.0474Z" fill="#FF9A6C"/>
<path d="M61.5401 81.8042C61.4545 81.543 61.3516 81.2878 61.2321 81.0402C60.8906 80.4737 60.3697 80.0373 59.7521 79.8002C59.1237 79.5741 58.46 79.4616 57.7921 79.4682C57.512 79.4873 57.2307 79.4793 56.9521 79.4442C57.2228 79.354 57.5069 79.3107 57.7921 79.3162C58.4843 79.2627 59.18 79.3581 59.8321 79.5962C60.4958 79.8486 61.0428 80.3372 61.3681 80.9682C61.5182 81.2195 61.5789 81.5141 61.5401 81.8042Z" fill="#FF9A6C"/>
<path d="M61.1644 84.3759C61.026 84.1238 60.957 83.8395 60.9644 83.5519C60.9482 83.2571 60.8847 82.9667 60.7764 82.6919C60.7025 82.5344 60.5908 82.3975 60.4513 82.2935C60.3117 82.1895 60.1486 82.1217 59.9764 82.0959C59.3171 81.9547 58.6489 81.8585 57.9764 81.8079C57.6908 81.7965 57.4099 81.7314 57.1484 81.6159C57.4304 81.6092 57.7124 81.6226 57.9924 81.6559C58.6772 81.6615 59.3595 81.7379 60.0284 81.8839C60.23 81.9341 60.4201 82.0223 60.5884 82.1439C60.7449 82.2662 60.8664 82.4277 60.9404 82.6119C61.0497 82.9089 61.1026 83.2236 61.0964 83.5399C61.1164 84.0599 61.2004 84.3639 61.1644 84.3759Z" fill="#FF9A6C"/>
<path d="M63.2522 77.7598L46.7402 94.8118L47.3762 95.4558L59.2042 94.1238L75.1202 78.9598L75.1042 78.2318L63.2522 77.7598Z" fill="#455A64"/>
<g opacity="0.3">
<path d="M66.3444 85.7116C65.9553 85.3568 65.4963 85.0873 64.9968 84.9206C64.4974 84.7539 63.9685 84.6936 63.4444 84.7436C62.3943 84.8512 61.4001 85.2689 60.5884 85.9436C59.9009 86.4472 59.4 87.1647 59.1644 87.9836C58.8284 89.4156 60.0084 91.4196 61.3084 92.1156C62.9564 90.7916 64.5604 88.7596 66.2084 87.4396C66.4757 87.2666 66.6772 87.0088 66.7804 86.7076C66.7942 86.5186 66.7618 86.3291 66.6858 86.1556C66.6098 85.982 66.4926 85.8296 66.3444 85.7116Z" fill="black"/>
</g>
<path d="M75.0563 78.9274C74.9843 78.9324 74.9122 78.9324 74.8403 78.9274H74.2083L71.8403 78.8994L63.6003 78.7554L63.6763 78.7234L59.5403 83.0154L50.9603 91.8434L48.3443 94.4994L47.6243 95.2154C47.543 95.301 47.4561 95.3812 47.3643 95.4554C47.4348 95.3629 47.5138 95.2772 47.6003 95.1994L48.2923 94.4554L50.8603 91.7514C53.0563 89.4674 56.0603 86.3354 59.3923 82.8794C60.8523 81.3674 62.2563 79.9194 63.5363 78.5994L63.5683 78.5674H63.6003L71.8283 78.8034L74.1923 78.8874L74.8243 78.9194C74.9016 78.9135 74.9795 78.9162 75.0563 78.9274Z" fill="#263238"/>
<path d="M64.7204 83.9277C64.7204 83.9277 66.3204 83.9597 66.8444 84.2197C67.3684 84.4797 68.8004 85.9997 68.8004 85.9997C68.8004 85.9997 68.8004 87.0397 68.4004 87.0797C68.4516 87.3124 68.4797 87.5496 68.4844 87.7877C68.5244 88.3717 68.6084 88.7037 67.8164 89.2037C67.8164 89.2037 67.9004 90.1597 67.6084 90.4037C67.411 90.5697 67.2025 90.7221 66.9844 90.8597C66.9844 90.8597 66.9404 91.9117 65.5284 91.8997L64.2044 92.4837C64.2044 92.4837 61.2604 92.2077 61.5724 91.8597C61.8844 91.5117 62.5924 89.7877 62.5924 89.7877C62.5924 89.7877 60.5924 88.3197 60.6164 87.8637C60.6404 87.4077 60.8244 87.3637 60.8244 87.3637C60.8244 87.3637 60.7444 86.4917 61.4484 86.4077C61.4484 86.4077 61.9924 85.3237 62.5324 85.2837C63.0724 85.2437 66.7364 86.5717 66.7364 86.5717L65.3644 85.4077C65.3644 85.4077 63.9884 85.1997 64.0324 84.7397C64.0764 84.2797 64.7204 83.9277 64.7204 83.9277Z" fill="#FFBF9D"/>
<path d="M64.4803 89.4116C63.8452 89.1439 63.2243 88.8435 62.6203 88.5116C61.9851 88.2396 61.3643 87.9352 60.7603 87.5996C61.4454 87.7272 62.1057 87.9635 62.7163 88.2996C63.3588 88.5756 63.9541 88.9509 64.4803 89.4116Z" fill="#FF9A6C"/>
<path d="M66.4005 88.1398C65.5799 87.9499 64.7769 87.6903 64.0005 87.3638C63.2028 87.1049 62.4292 86.777 61.6885 86.3838C62.5091 86.5737 63.312 86.8333 64.0885 87.1598C64.8862 87.4187 65.6597 87.7466 66.4005 88.1398Z" fill="#FF9A6C"/>
<path d="M40.3281 51.2797C39.7957 49.4656 39.4184 47.6096 39.2001 45.7317C38.9819 43.8447 39.2348 41.933 39.9361 40.1677C40.0521 39.9037 40.9961 38.1677 41.2761 38.1917C41.4801 38.2197 40.8761 39.8717 40.9641 40.0557C41.8601 41.7917 42.0201 43.8357 41.7641 45.7757C41.497 47.6574 41.0207 49.5035 40.3441 51.2797" fill="#263238"/>
<path d="M40.5164 44.0678C40.6044 39.3238 43.4404 35.4278 48.1764 35.6678L48.6124 35.7158C50.7336 35.9346 52.6942 36.9453 54.1029 38.5461C55.5117 40.1468 56.265 42.22 56.2124 44.3518C56.1124 48.4598 55.9484 52.9958 55.6924 55.1798C55.1604 59.6958 50.5604 59.9238 50.5604 59.9238L49.5124 66.8918L39.8364 60.1638L40.5164 44.0678Z" fill="#FFBF9D"/>
<path d="M50.5444 59.9402C48.4551 59.7132 46.4744 58.8929 44.8364 57.5762C44.8364 57.5762 45.7404 61.4442 50.2964 61.5122L50.5444 59.9402Z" fill="#FF9A6C"/>
<path d="M54.4721 48.1154C54.4559 48.2838 54.3744 48.4392 54.2451 48.5484C54.1157 48.6575 53.9489 48.7117 53.7801 48.6994C53.6973 48.6974 53.6157 48.6788 53.5402 48.6447C53.4647 48.6106 53.3968 48.5617 53.3405 48.501C53.2842 48.4402 53.2406 48.3687 53.2124 48.2908C53.1842 48.2129 53.1718 48.1302 53.1761 48.0474C53.1924 47.8787 53.2738 47.7229 53.4029 47.6132C53.5321 47.5034 53.699 47.4482 53.8681 47.4594C53.9511 47.462 54.0328 47.4811 54.1083 47.5156C54.1839 47.5501 54.2518 47.5994 54.308 47.6605C54.3643 47.7216 54.4078 47.7933 54.4359 47.8714C54.4641 47.9495 54.4764 48.0325 54.4721 48.1154Z" fill="#263238"/>
<path d="M55.032 46.108C54.944 46.18 54.492 45.768 53.796 45.708C53.1 45.648 52.556 45.932 52.488 45.84C52.42 45.748 52.552 45.652 52.792 45.516C53.1149 45.3376 53.4856 45.2648 53.852 45.308C54.2131 45.3446 54.5533 45.4944 54.824 45.736C55.02 45.912 55.076 46.072 55.032 46.108Z" fill="#263238"/>
<path d="M48.5244 47.8358C48.5081 48.0046 48.4268 48.1603 48.2976 48.2701C48.1684 48.3799 48.0015 48.435 47.8324 48.4238C47.7494 48.4213 47.6677 48.4022 47.5922 48.3676C47.5166 48.3331 47.4487 48.2839 47.3925 48.2228C47.3362 48.1617 47.2927 48.09 47.2646 48.0118C47.2364 47.9337 47.2241 47.8508 47.2284 47.7678C47.2494 47.6027 47.3328 47.4519 47.4615 47.3463C47.5901 47.2407 47.7543 47.1883 47.9204 47.1998C48.0018 47.2019 48.082 47.22 48.1565 47.2531C48.2309 47.2862 48.2981 47.3336 48.3542 47.3927C48.4102 47.4517 48.4542 47.5213 48.4834 47.5973C48.5126 47.6733 48.5265 47.7544 48.5244 47.8358Z" fill="#263238"/>
<path d="M48.1922 45.6676C48.1042 45.7436 47.6522 45.3316 46.9562 45.2676C46.2602 45.2036 45.7162 45.4916 45.6482 45.3956C45.5802 45.2996 45.7122 45.2116 45.9522 45.0756C46.2751 44.8971 46.6458 44.8244 47.0122 44.8676C47.3732 44.9042 47.7135 45.054 47.9842 45.2956C48.1802 45.4756 48.2362 45.6356 48.1922 45.6676Z" fill="#263238"/>
<path d="M50.124 51.2754C50.5027 51.1972 50.89 51.169 51.276 51.1914C51.452 51.1914 51.624 51.1914 51.676 51.0554C51.7101 50.8731 51.6878 50.6848 51.612 50.5154L51.232 49.1074C50.704 47.1074 50.344 45.4674 50.432 45.4474C50.52 45.4274 51.004 47.0474 51.532 49.0474C51.656 49.5394 51.776 50.0114 51.892 50.4594C51.9748 50.6882 51.9748 50.9387 51.892 51.1674C51.8602 51.227 51.8151 51.2785 51.7604 51.318C51.7056 51.3575 51.6426 51.384 51.576 51.3955C51.4738 51.4087 51.3703 51.4087 51.268 51.3955C50.8832 51.4025 50.499 51.3622 50.124 51.2754Z" fill="#263238"/>
<path d="M48.0282 51.5393C48.1402 51.5393 48.0642 52.2993 48.6522 52.9033C49.2402 53.5073 50.0522 53.5073 50.0482 53.6153C50.0442 53.7233 49.8522 53.7433 49.5122 53.7153C49.0698 53.6754 48.6559 53.4798 48.3442 53.1633C48.0432 52.8614 47.8724 52.4536 47.8682 52.0273C47.8722 51.7073 47.9762 51.5313 48.0282 51.5393Z" fill="#263238"/>
<path d="M48.4524 42.8435C48.3644 43.0235 47.6804 42.8435 46.8524 42.8755C46.0244 42.9075 45.3444 43.0395 45.2524 42.8755C45.2124 42.7875 45.3484 42.6235 45.6524 42.4755C46.0243 42.2867 46.4354 42.188 46.8524 42.1875C47.2684 42.1853 47.6792 42.2798 48.0524 42.4635C48.3564 42.5915 48.4924 42.7555 48.4524 42.8435Z" fill="#263238"/>
<path d="M54.9883 43.7637C54.8483 43.9077 54.3883 43.6957 53.8123 43.6277C53.2363 43.5597 52.7403 43.6277 52.6443 43.4437C52.6043 43.3597 52.6963 43.2077 52.9243 43.0797C53.2284 42.9275 53.5721 42.873 53.9083 42.9237C54.2457 42.9575 54.5637 43.0976 54.8163 43.3237C55.0003 43.5237 55.0523 43.6917 54.9883 43.7637Z" fill="#263238"/>
<path d="M40.532 47.4555C40.456 47.4115 37.52 46.2075 37.292 49.3115C37.064 52.4155 40.228 52.0035 40.24 51.9155C40.252 51.8275 40.532 47.4555 40.532 47.4555Z" fill="#FFBF9D"/>
<path d="M39.3762 50.6681C39.3762 50.6681 39.3202 50.7041 39.2242 50.7401C39.0925 50.7821 38.9499 50.7736 38.8242 50.7161C38.5082 50.5721 38.2682 50.0321 38.2922 49.4721C38.3055 49.2054 38.3764 48.9448 38.5002 48.7081C38.5344 48.6101 38.5926 48.5222 38.6694 48.4524C38.7463 48.3825 38.8393 48.3329 38.9402 48.3081C39.0036 48.2955 39.0694 48.3059 39.1258 48.3374C39.1823 48.369 39.2256 48.4196 39.2482 48.4801C39.2842 48.5681 39.2482 48.6281 39.2762 48.6361C39.3042 48.6441 39.3442 48.5881 39.3282 48.4601C39.3167 48.3817 39.2786 48.3097 39.2202 48.2561C39.1805 48.221 39.1343 48.194 39.0842 48.1769C39.0341 48.1597 38.981 48.1526 38.9282 48.1561C38.7984 48.1708 38.6748 48.2191 38.5696 48.2963C38.4643 48.3734 38.3811 48.4768 38.3282 48.5961C38.1773 48.8545 38.0909 49.1454 38.0762 49.4441C38.0522 50.0721 38.3282 50.6801 38.7682 50.8441C38.8497 50.8744 38.9371 50.8858 39.0237 50.8775C39.1103 50.8692 39.1938 50.8414 39.2682 50.7961C39.3682 50.7441 39.3882 50.6761 39.3762 50.6681Z" fill="#FF9A6C"/>
<path d="M54.5205 39.0558C55.0405 38.8118 53.6365 37.0878 52.4365 36.4478C50.6245 35.4798 47.8085 34.7758 46.0365 35.1518C43.9245 35.6078 42.1365 36.5278 40.9765 38.3518C39.8512 40.2078 39.2396 42.3296 39.2045 44.4998C39.136 45.1591 39.2451 45.8248 39.5205 46.4278C39.9205 47.1398 40.7205 47.6278 40.6165 48.5718C40.5938 48.7423 40.6051 48.9156 40.6498 49.0818C40.6944 49.2479 40.7714 49.4036 40.8765 49.5398C41.4085 50.1838 42.1365 49.6598 42.4965 49.1118C43.2565 47.9358 43.4245 46.4918 43.5765 45.1118C43.7385 44.1304 43.7385 43.1292 43.5765 42.1478C43.4565 41.6198 43.2445 41.1158 43.1765 40.5798C43.1152 40.3159 43.1121 40.0418 43.1674 39.7766C43.2227 39.5113 43.3349 39.2613 43.4965 39.0438C43.5783 38.957 43.6681 38.878 43.7645 38.8078C44.2223 38.4585 44.7648 38.2374 45.3363 38.1671C45.9078 38.0968 46.4877 38.1799 47.0165 38.4078C48.7245 39.1398 51.6525 40.2558 52.4725 39.7118C53.6485 38.9318 53.9525 38.3918 53.9525 38.3918L54.5205 39.0558Z" fill="#263238"/>
<circle cx="104" cy="18.0003" r="1.33333" fill="#BCBCBC"/>
<circle cx="104" cy="148" r="2.83333" stroke="#C9C9C9"/>
</svg>
