<svg width="200" height="200" viewBox="0 0 200 200" fill="none" xmlns="http://www.w3.org/2000/svg">
<path d="M200 152.96H0V153.06H200V152.96Z" fill="#EBEBEB"/>
<path d="M179.96 159.396H166.712V159.496H179.96V159.396Z" fill="#EBEBEB"/>
<path d="M120.576 159.448H117.1V159.548H120.576V159.448Z" fill="#EBEBEB"/>
<path d="M166.308 155.684H141.732V155.784H166.308V155.684Z" fill="#EBEBEB"/>
<path d="M90.056 158.044H84.98V158.144H90.056V158.044Z" fill="#EBEBEB"/>
<path d="M81.42 158.044H66.688V158.144H81.42V158.044Z" fill="#EBEBEB"/>
<path d="M31.1559 156.356H20.9839V156.456H31.1559V156.356Z" fill="#EBEBEB"/>
<path d="M63.5122 156.356H33.5562V156.456H63.5122V156.356Z" fill="#EBEBEB"/>
<path d="M94.8002 135.12H17.5642C16.9591 135.119 16.3792 134.878 15.9517 134.45C15.5243 134.021 15.2842 133.441 15.2842 132.836V24.264C15.2894 23.6624 15.5319 23.0872 15.9588 22.6633C16.3857 22.2394 16.9626 22.001 17.5642 22H94.8002C95.4059 22 95.9869 22.2406 96.4152 22.669C96.8436 23.0973 97.0842 23.6782 97.0842 24.284V132.836C97.0842 133.442 96.8436 134.023 96.4152 134.451C95.9869 134.879 95.4059 135.12 94.8002 135.12ZM17.5642 22.08C16.9856 22.0811 16.4312 22.3116 16.0224 22.7211C15.6137 23.1306 15.3842 23.6855 15.3842 24.264V132.836C15.3842 133.415 15.6137 133.969 16.0224 134.379C16.4312 134.788 16.9856 135.019 17.5642 135.02H94.8002C95.3791 135.019 95.934 134.788 96.3433 134.379C96.7527 133.97 96.9831 133.415 96.9842 132.836V24.264C96.9831 23.6851 96.7527 23.1302 96.3433 22.7208C95.934 22.3115 95.3791 22.0811 94.8002 22.08H17.5642Z" fill="#EBEBEB"/>
<path d="M181.324 135.12H104.084C103.478 135.119 102.898 134.878 102.47 134.45C102.042 134.022 101.801 133.441 101.8 132.836V24.264C101.806 23.662 102.049 23.0868 102.477 22.663C102.904 22.2392 103.482 22.001 104.084 22H181.324C181.925 22.0021 182.501 22.2409 182.927 22.6647C183.353 23.0885 183.595 23.6631 183.6 24.264V132.836C183.6 133.44 183.36 134.02 182.934 134.448C182.507 134.876 181.928 135.118 181.324 135.12ZM104.084 22.08C103.505 22.0811 102.95 22.3115 102.541 22.7208C102.131 23.1302 101.901 23.6851 101.9 24.264V132.836C101.901 133.415 102.131 133.97 102.541 134.379C102.95 134.788 103.505 135.019 104.084 135.02H181.324C181.903 135.019 182.458 134.788 182.867 134.379C183.276 133.97 183.507 133.415 183.508 132.836V24.264C183.507 23.6851 183.276 23.1302 182.867 22.7208C182.458 22.3115 181.903 22.0811 181.324 22.08H104.084Z" fill="#EBEBEB"/>
<path d="M76.3118 99.8037L173.528 99.8037V28.7917L76.3118 28.7917L76.3118 99.8037Z" fill="#E6E6E6"/>
<path d="M72.0157 99.8037L172.532 99.8037V28.7917L72.0157 28.7917L72.0157 99.8037Z" fill="#F0F0F0"/>
<path d="M166.512 93.7876V34.8076L78.0282 34.8076V93.7876H166.512Z" fill="#FAFAFA"/>
<path d="M145.004 93.7836L124.86 34.8076H105.624L125.768 93.7836H145.004Z" fill="white"/>
<path d="M121.636 93.7836L101.492 34.8076H93.9961L114.14 93.7836H121.636Z" fill="white"/>
<path d="M78.7959 93.7876V34.8076H78.0319V93.7876H78.7959Z" fill="#E6E6E6"/>
<path d="M25.8283 80.4883H60.1562L60.1562 31.8203L25.8283 31.8203L25.8283 80.4883Z" fill="#E0E0E0"/>
<path d="M23.4002 80.4883H58.7842L58.7842 31.8203L23.4002 31.8203L23.4002 80.4883Z" fill="#F5F5F5"/>
<path d="M55.292 76.6483V35.6523H26.892L26.892 76.6483H55.292Z" fill="white"/>
<path d="M39.1719 114.56C41.7199 108.272 47.78 105.932 49.876 101.96C52.616 96.7595 52.6 88.9555 50.276 86.1435C48.244 83.6955 41.5239 100.24 40.7679 102.088C38.6939 107.075 37.3961 112.351 36.92 117.732C36.976 113.848 37.0279 110.28 37.0719 107.528C37.2159 98.5515 37.3919 95.6635 37.4719 94.7755C37.7519 94.3395 38.0839 93.8355 38.2719 93.5755C39.9 91.2835 43.5079 88.5515 45.3119 85.2195C47.9439 80.3515 47.52 74.5275 45.6719 72.3595C43.74 70.0915 40.3279 75.4515 38.5159 80.7595C36.7039 86.0675 37.4759 91.1595 36.9679 95.5595C36.8639 96.4235 36.7519 99.7075 36.6519 104.268C36.0999 99.3635 35.004 96.0795 32.9759 93.0155C30.4799 89.2515 28.3239 84.6675 26.2679 85.2595C24.2119 85.8515 25.3159 91.9195 26.9439 96.1755C28.3999 99.9675 35.54 103.752 36.592 106.8C36.468 112.976 36.3559 120.8 36.2799 128.092C35.7159 124.328 36.104 124.012 33.792 118.248C32.42 114.824 26.7999 110.6 26.1199 112.952C25.4399 115.304 26.4679 119.752 28.5919 122.872C30.308 125.384 34.1119 125.38 34.992 126.94C35.196 127.304 35.876 128.7 36.264 129.5C36.172 138.396 36.132 146.252 36.176 148.928L36.5439 148.956C36.5439 148.264 36.5719 143.756 36.6439 137.756C37.5679 134.556 43.7879 132.712 45.7079 129.396C47.7079 125.928 49.1639 121.88 48.2999 119.172C47.58 116.912 41.9 119.972 39.6159 123.728C38.084 126.224 37.1479 128.884 36.7119 132.46C36.7639 128.38 36.8239 123.996 36.8799 119.86C37.3479 118.82 38.3999 116.444 39.1719 114.56Z" fill="#E6E6E6"/>
<path d="M42.824 152.96H29.752C29.4065 152.96 29.0718 152.84 28.8043 152.622C28.5368 152.403 28.353 152.099 28.284 151.76L27.356 147.2H45.224L44.296 151.772C44.2229 152.108 44.0371 152.41 43.7694 152.626C43.5016 152.842 43.168 152.96 42.824 152.96Z" fill="#F0F0F0"/>
<path d="M45.5999 148.956H26.9799C26.7642 148.956 26.5563 148.876 26.3955 148.732C26.2347 148.588 26.1324 148.391 26.1079 148.176L25.7079 144.796C25.6944 144.674 25.7069 144.549 25.7446 144.432C25.7822 144.314 25.8442 144.206 25.9264 144.114C26.0086 144.022 26.1093 143.948 26.2219 143.898C26.3345 143.847 26.4565 143.821 26.5799 143.82H45.9559C46.0795 143.82 46.2018 143.846 46.3147 143.896C46.4276 143.947 46.5285 144.02 46.6109 144.113C46.6932 144.205 46.7552 144.313 46.7926 144.431C46.83 144.549 46.842 144.674 46.8279 144.796L46.4279 148.176C46.4045 148.383 46.3085 148.575 46.1569 148.718C46.0052 148.861 45.8079 148.945 45.5999 148.956Z" fill="#F0F0F0"/>
<path d="M162.252 150.044H166.248V107.048H162.252V150.044Z" fill="#F0F0F0"/>
<path d="M80.8238 152.908H164.716V150.044H80.8238V152.908Z" fill="#F0F0F0"/>
<path d="M162.256 107.048H79.292V150.044H162.256V107.048Z" fill="#F5F5F5"/>
<path d="M163.196 107.048H167.324V104.336H163.196V107.048Z" fill="#E0E0E0"/>
<path d="M163.196 104.336H78.2158V107.048H163.196V104.336Z" fill="#EBEBEB"/>
<path d="M156.3 125.6H85.2439C84.3953 125.6 83.5813 125.263 82.9812 124.663C82.3811 124.063 82.0439 123.249 82.0439 122.4V113.2C82.0439 112.351 82.3811 111.537 82.9812 110.937C83.5813 110.337 84.3953 110 85.2439 110H156.3C157.149 110 157.963 110.337 158.563 110.937C159.163 111.537 159.5 112.351 159.5 113.2V122.4C159.5 123.249 159.163 124.063 158.563 124.663C157.963 125.263 157.149 125.6 156.3 125.6ZM85.2439 110.8C84.6074 110.8 83.997 111.053 83.5469 111.503C83.0968 111.953 82.8439 112.563 82.8439 113.2V122.4C82.8439 123.037 83.0968 123.647 83.5469 124.097C83.997 124.547 84.6074 124.8 85.2439 124.8H156.3C156.936 124.8 157.547 124.547 157.997 124.097C158.447 123.647 158.7 123.037 158.7 122.4V113.2C158.7 112.563 158.447 111.953 157.997 111.503C157.547 111.053 156.936 110.8 156.3 110.8H85.2439Z" fill="white"/>
<path d="M156.3 144.876H85.2439C84.3953 144.876 83.5813 144.539 82.9812 143.939C82.3811 143.339 82.0439 142.525 82.0439 141.676V132.476C82.0439 131.628 82.3811 130.814 82.9812 130.214C83.5813 129.614 84.3953 129.276 85.2439 129.276H156.3C157.149 129.276 157.963 129.614 158.563 130.214C159.163 130.814 159.5 131.628 159.5 132.476V141.676C159.5 142.525 159.163 143.339 158.563 143.939C157.963 144.539 157.149 144.876 156.3 144.876ZM85.2439 130.044C84.6074 130.044 83.997 130.297 83.5469 130.747C83.0968 131.197 82.8439 131.808 82.8439 132.444V141.644C82.8439 142.281 83.0968 142.891 83.5469 143.341C83.997 143.792 84.6074 144.044 85.2439 144.044H156.3C156.936 144.044 157.547 143.792 157.997 143.341C158.447 142.891 158.7 142.281 158.7 141.644V132.444C158.7 131.808 158.447 131.197 157.997 130.747C157.547 130.297 156.936 130.044 156.3 130.044H85.2439Z" fill="white"/>
<path d="M140.152 119.2H101.392C101.117 119.2 100.853 119.091 100.658 118.897C100.463 118.703 100.353 118.439 100.352 118.164V117.404C100.353 117.129 100.463 116.866 100.658 116.671C100.853 116.477 101.117 116.368 101.392 116.368H140.152C140.427 116.368 140.691 116.477 140.886 116.671C141.081 116.866 141.191 117.129 141.192 117.404V118.164C141.191 118.439 141.081 118.703 140.886 118.897C140.691 119.091 140.427 119.2 140.152 119.2ZM101.392 117.2C101.329 117.201 101.27 117.226 101.225 117.27C101.18 117.314 101.154 117.374 101.152 117.436V118.196C101.154 118.259 101.18 118.318 101.225 118.362C101.27 118.406 101.329 118.431 101.392 118.432H140.152C140.215 118.432 140.275 118.407 140.32 118.363C140.365 118.319 140.391 118.259 140.392 118.196V117.436C140.391 117.373 140.365 117.313 140.32 117.269C140.275 117.225 140.215 117.2 140.152 117.2H101.392Z" fill="white"/>
<path d="M140.152 138.476H101.392C101.117 138.476 100.853 138.367 100.658 138.172C100.463 137.978 100.353 137.715 100.352 137.44V136.68C100.353 136.404 100.463 136.141 100.658 135.947C100.853 135.753 101.117 135.644 101.392 135.644H140.152C140.427 135.644 140.691 135.753 140.886 135.947C141.081 136.141 141.191 136.404 141.192 136.68V137.44C141.191 137.715 141.081 137.978 140.886 138.172C140.691 138.367 140.427 138.476 140.152 138.476ZM101.392 136.444C101.329 136.445 101.27 136.47 101.225 136.514C101.18 136.557 101.154 136.617 101.152 136.68V137.44C101.154 137.502 101.18 137.562 101.225 137.606C101.27 137.65 101.329 137.675 101.392 137.676H140.152C140.215 137.676 140.275 137.651 140.32 137.607C140.365 137.563 140.391 137.503 140.392 137.44V136.68C140.391 136.617 140.365 136.557 140.32 136.512C140.275 136.468 140.215 136.444 140.152 136.444H101.392Z" fill="white"/>
<path d="M97.9999 171.024C140.833 171.024 175.556 168.997 175.556 166.496C175.556 163.995 140.833 161.968 97.9999 161.968C55.1669 161.968 20.4438 163.995 20.4438 166.496C20.4438 168.997 55.1669 171.024 97.9999 171.024Z" fill="#F5F5F5"/>
<path d="M149.916 67.101L149.764 69.4561L150.163 69.4819L150.315 67.1268L149.916 67.101Z" fill="#2E73B8"/>
<path d="M150.523 57.5364L150.024 65.2764L150.423 65.3021L150.922 57.5622L150.523 57.5364Z" fill="#2E73B8"/>
<path d="M145.776 46.2961H98.756C97.5486 46.3173 96.3924 46.7876 95.5131 47.6152C94.6337 48.4427 94.0943 49.5683 94 50.7721L87.924 144.572C87.8796 145.147 87.9552 145.725 88.1461 146.269C88.337 146.813 88.6389 147.312 89.0327 147.733C89.4265 148.154 89.9036 148.489 90.4337 148.716C90.9638 148.943 91.5353 149.058 92.112 149.052H139.124C140.333 149.032 141.492 148.562 142.374 147.734C143.255 146.905 143.797 145.778 143.892 144.572L149.964 50.7721C150.008 50.1974 149.933 49.6196 149.742 49.0757C149.551 48.5317 149.249 48.0334 148.855 47.6124C148.461 47.1915 147.984 46.857 147.454 46.6304C146.924 46.4038 146.352 46.29 145.776 46.2961Z" fill="#2E73B8"/>
<path opacity="0.7" d="M144.284 46.2961H98.756C97.5486 46.3173 96.3925 46.7876 95.5131 47.6152C94.6337 48.4427 94.0943 49.5683 94 50.7721L87.924 144.572C87.8796 145.147 87.9552 145.725 88.1461 146.269C88.337 146.813 88.6389 147.312 89.0327 147.733C89.4265 148.154 89.9036 148.489 90.4337 148.716C90.9638 148.943 91.5353 149.058 92.112 149.052H137.632C138.842 149.032 140 148.562 140.882 147.734C141.763 146.905 142.305 145.778 142.4 144.572L148.472 50.7721C148.516 50.1974 148.441 49.6196 148.25 49.0757C148.059 48.5317 147.757 48.0334 147.363 47.6124C146.969 47.1915 146.492 46.857 145.962 46.6304C145.432 46.4038 144.86 46.29 144.284 46.2961Z" fill="white"/>
<path d="M140.444 142.12H90.364C90.1767 142.12 89.9913 142.082 89.8193 142.008C89.6473 141.934 89.4924 141.825 89.3642 141.689C89.2359 141.552 89.1371 141.391 89.0737 141.214C89.0104 141.038 88.9839 140.851 88.996 140.664L94.492 55.7839C94.5143 55.4372 94.6677 55.1121 94.921 54.8744C95.1744 54.6366 95.5086 54.5042 95.856 54.5039H145.94C146.127 54.5041 146.313 54.5427 146.485 54.6173C146.657 54.6919 146.812 54.801 146.94 54.9378C147.068 55.0746 147.167 55.2363 147.23 55.4127C147.294 55.5892 147.32 55.7768 147.308 55.9639L141.812 140.84C141.79 141.187 141.636 141.513 141.381 141.751C141.127 141.989 140.792 142.121 140.444 142.12Z" fill="white"/>
<path d="M129.316 51.7284H111.112C111.019 51.7293 110.926 51.7106 110.84 51.6737C110.754 51.6368 110.676 51.5824 110.612 51.5139C110.548 51.4455 110.499 51.3645 110.468 51.2761C110.437 51.1877 110.425 51.0938 110.432 51.0004C110.451 50.8064 110.539 50.6258 110.681 50.4925C110.823 50.3592 111.009 50.2824 111.204 50.2764H129.408C129.502 50.275 129.594 50.2932 129.68 50.3297C129.767 50.3661 129.844 50.4202 129.908 50.4883C129.972 50.5564 130.021 50.6372 130.052 50.7254C130.083 50.8136 130.095 50.9072 130.088 51.0004C130.071 51.1952 129.982 51.3767 129.84 51.5109C129.698 51.645 129.512 51.7224 129.316 51.7284Z" fill="white"/>
<path d="M115.108 145.684C115.079 146.164 114.869 146.614 114.521 146.945C114.173 147.276 113.712 147.463 113.232 147.468C113.001 147.47 112.773 147.425 112.56 147.335C112.348 147.245 112.156 147.112 111.998 146.945C111.839 146.777 111.716 146.579 111.638 146.362C111.559 146.145 111.526 145.915 111.54 145.684C111.57 145.206 111.78 144.756 112.128 144.426C112.476 144.096 112.936 143.91 113.416 143.904C113.646 143.902 113.875 143.947 114.087 144.036C114.299 144.126 114.491 144.259 114.65 144.426C114.809 144.593 114.931 144.791 115.01 145.007C115.089 145.224 115.122 145.454 115.108 145.684Z" fill="white"/>
<path opacity="0.2" d="M134.988 78H92.2239L89.5039 119.96H134.988C136.175 119.958 137.312 119.486 138.152 118.647C138.992 117.808 139.465 116.671 139.468 115.484V82.492C139.469 81.3024 138.998 80.161 138.158 79.3187C137.318 78.4764 136.178 78.0021 134.988 78Z" fill="#2E73B8"/>
<path d="M131.004 74.2842H78.5962C76.122 74.2842 74.1162 76.2899 74.1162 78.7642V111.768C74.1162 114.242 76.122 116.248 78.5962 116.248H131.004C133.478 116.248 135.484 114.242 135.484 111.768V78.7642C135.484 76.2899 133.478 74.2842 131.004 74.2842Z" fill="#2E73B8"/>
<path d="M72.684 73.7999C72.5791 73.7994 72.4785 73.7578 72.404 73.6839L71.684 72.9679C71.6087 72.8925 71.5664 72.7904 71.5664 72.6839C71.5664 72.5773 71.6087 72.4752 71.684 72.3999C71.7594 72.3245 71.8615 72.2822 71.968 72.2822C72.0746 72.2822 72.1767 72.3245 72.252 72.3999L72.968 73.1199C73.0425 73.1948 73.0844 73.2962 73.0844 73.4019C73.0844 73.5075 73.0425 73.6089 72.968 73.6839C72.9307 73.7209 72.8863 73.7503 72.8376 73.7702C72.7889 73.7901 72.7367 73.8002 72.684 73.7999Z" fill="#2E73B8"/>
<path d="M71.6 76.3117H70.588C70.4819 76.3117 70.3802 76.2696 70.3051 76.1946C70.2301 76.1195 70.188 76.0178 70.188 75.9117C70.188 75.8056 70.2301 75.7039 70.3051 75.6289C70.3802 75.5539 70.4819 75.5117 70.588 75.5117H71.6C71.7061 75.5117 71.8078 75.5539 71.8828 75.6289C71.9578 75.7039 72 75.8056 72 75.9117C72 76.0178 71.9578 76.1195 71.8828 76.1946C71.8078 76.2696 71.7061 76.3117 71.6 76.3117Z" fill="#2E73B8"/>
<path d="M75.2318 72.72C75.1304 72.7203 75.0327 72.682 74.9584 72.6129C74.8842 72.5439 74.8389 72.4492 74.8318 72.348L74.7598 71.336C74.756 71.2834 74.7626 71.2307 74.7793 71.1807C74.796 71.1307 74.8223 71.0845 74.8569 71.0447C74.8915 71.0049 74.9335 70.9724 74.9807 70.9489C75.0279 70.9255 75.0793 70.9116 75.1318 70.908C75.2373 70.9014 75.3411 70.9368 75.4206 71.0065C75.5 71.0762 75.5486 71.1746 75.5558 71.28L75.6318 72.292C75.6356 72.3446 75.629 72.3973 75.6124 72.4473C75.5957 72.4973 75.5694 72.5435 75.5348 72.5833C75.5002 72.6231 75.4581 72.6556 75.411 72.6791C75.3638 72.7026 75.3124 72.7165 75.2598 72.72H75.2318Z" fill="#2E73B8"/>
<path d="M109.276 111.932L125.368 128.02V111.932H109.276Z" fill="#2E73B8"/>
<path d="M113.688 104.884L112.888 101.488C112.686 100.595 112.686 99.6685 112.888 98.7758L114 93.9398C114.455 91.8775 114.209 89.7224 113.3 87.816C112.391 85.9097 110.872 84.3611 108.984 83.4158C109.019 83.3268 109.05 83.236 109.076 83.1438C109.142 82.8504 109.149 82.547 109.097 82.2508C109.046 81.9546 108.936 81.6715 108.775 81.4176C108.614 81.1638 108.405 80.9441 108.159 80.7712C107.913 80.5982 107.635 80.4754 107.342 80.4098C107.049 80.3441 106.745 80.3369 106.449 80.3885C106.153 80.4401 105.87 80.5495 105.616 80.7105C105.362 80.8716 105.142 81.081 104.969 81.3269C104.797 81.5728 104.674 81.8504 104.608 82.1438C104.588 82.2373 104.576 82.3323 104.572 82.4278C102.461 82.4773 100.427 83.2296 98.7916 84.5656C97.1563 85.9017 96.0135 87.745 95.544 89.8038L94.46 94.6438C94.2609 95.5349 93.8645 96.37 93.3 97.0878L91.144 99.8278C90.9332 100.097 90.7937 100.414 90.7388 100.751C90.6838 101.089 90.7151 101.434 90.8297 101.756C90.9443 102.078 91.1385 102.366 91.3942 102.592C91.6499 102.819 91.9587 102.977 92.292 103.052L111.292 107.308C111.624 107.38 111.969 107.366 112.295 107.269C112.62 107.173 112.916 106.995 113.155 106.753C113.394 106.512 113.568 106.214 113.661 105.887C113.754 105.56 113.764 105.215 113.688 104.884Z" fill="white"/>
<path d="M99.3399 105.932C99.1954 105.9 99.0452 105.905 98.9028 105.945C98.7603 105.985 98.6299 106.059 98.5231 106.162C98.4163 106.264 98.3364 106.391 98.2905 106.532C98.2446 106.673 98.2341 106.823 98.2599 106.968C98.369 107.611 98.667 108.207 99.1158 108.68C99.5646 109.152 100.144 109.481 100.78 109.623C101.416 109.766 102.081 109.716 102.688 109.479C103.296 109.243 103.819 108.831 104.192 108.296C104.277 108.176 104.331 108.036 104.35 107.89C104.368 107.743 104.35 107.594 104.298 107.457C104.245 107.319 104.16 107.196 104.048 107.099C103.937 107.002 103.804 106.934 103.66 106.9L99.3399 105.932Z" fill="white"/>
<path d="M84.748 99.2003C84.6489 99.2011 84.5511 99.1769 84.4638 99.1301C84.3764 99.0833 84.3022 99.0153 84.248 98.9323C82.3588 96.1019 81.6712 92.6369 82.3366 89.2996C83.002 85.9622 84.9657 83.0258 87.796 81.1363C87.9286 81.0483 88.0907 81.0165 88.2468 81.048C88.4028 81.0795 88.5399 81.1717 88.628 81.3043C88.716 81.4369 88.7478 81.5991 88.7163 81.7551C88.6848 81.9111 88.5926 82.0483 88.46 82.1363C85.8978 83.8524 84.1217 86.5153 83.5217 89.5401C82.9216 92.5649 83.5469 95.7042 85.26 98.2683C85.3485 98.4004 85.3809 98.5623 85.3501 98.7183C85.3194 98.8743 85.228 99.0117 85.096 99.1003C84.9928 99.1682 84.8714 99.2031 84.748 99.2003Z" fill="white"/>
<path d="M87.2879 97.4956C87.1896 97.495 87.093 97.4702 87.0065 97.4235C86.92 97.3768 86.8463 97.3095 86.7919 97.2276C85.354 95.0714 84.8306 92.4327 85.3369 89.8909C85.8431 87.3492 87.3376 85.1123 89.4919 83.6716C89.5576 83.6277 89.6312 83.5972 89.7087 83.5819C89.7861 83.5665 89.8658 83.5665 89.9433 83.5819C90.0207 83.5973 90.0944 83.6278 90.16 83.6717C90.2257 83.7156 90.282 83.7719 90.3259 83.8376C90.3698 83.9033 90.4003 83.9769 90.4157 84.0544C90.4311 84.1318 90.4311 84.2115 90.4156 84.289C90.4002 84.3664 90.3697 84.4401 90.3258 84.5057C90.2819 84.5714 90.2256 84.6277 90.1599 84.6716C88.269 85.9335 86.9567 87.895 86.5119 90.1244C86.0671 92.3538 86.5261 94.6686 87.7879 96.5596C87.8764 96.6917 87.9088 96.8535 87.8781 97.0095C87.8473 97.1655 87.7559 97.303 87.6239 97.3916C87.5244 97.4582 87.4076 97.4943 87.2879 97.4956Z" fill="white"/>
<path d="M89.8319 95.7963C89.7338 95.7968 89.6371 95.773 89.5505 95.7269C89.464 95.6808 89.3902 95.6139 89.3359 95.5323C88.8458 94.7985 88.5052 93.9752 88.3336 93.1096C88.1621 92.244 88.1629 91.3531 88.336 90.4878C88.5091 89.6225 88.8512 88.7998 89.3426 88.0669C89.834 87.3339 90.4651 86.7051 91.1999 86.2163C91.3319 86.1342 91.4907 86.1067 91.6427 86.1394C91.7948 86.1722 91.9281 86.2626 92.0147 86.3918C92.1014 86.5209 92.1344 86.6786 92.107 86.8317C92.0796 86.9848 91.9939 87.1212 91.8679 87.2123C91.2652 87.6146 90.7478 88.1316 90.345 88.7339C89.9423 89.3362 89.6622 90.012 89.5206 90.7226C89.3791 91.4332 89.379 92.1647 89.5202 92.8753C89.6615 93.586 89.9413 94.2618 90.3439 94.8643C90.4313 94.9967 90.4631 95.1582 90.4324 95.3139C90.4017 95.4696 90.311 95.607 90.1799 95.6963C90.0767 95.7642 89.9553 95.7991 89.8319 95.7963Z" fill="white"/>
<path d="M119.34 107.636C119.206 107.635 119.075 107.59 118.97 107.507C118.865 107.424 118.79 107.308 118.758 107.178C118.727 107.047 118.739 106.91 118.795 106.788C118.85 106.666 118.945 106.566 119.064 106.504C121.804 105.088 123.87 102.642 124.808 99.7027C125.746 96.764 125.478 93.5732 124.064 90.8317C124.021 90.7613 123.993 90.6828 123.981 90.6011C123.97 90.5195 123.976 90.4363 123.998 90.3569C124.02 90.2775 124.059 90.2036 124.111 90.1397C124.163 90.0758 124.228 90.0233 124.301 89.9855C124.374 89.9478 124.455 89.9255 124.537 89.9202C124.619 89.9149 124.702 89.9265 124.779 89.9545C124.857 89.9825 124.928 90.0262 124.988 90.0828C125.048 90.1394 125.095 90.2078 125.128 90.2837C125.9 91.7818 126.37 93.4173 126.51 95.097C126.65 96.7766 126.458 98.4674 125.945 100.073C125.432 101.678 124.607 103.167 123.518 104.454C122.43 105.74 121.098 106.8 119.6 107.572C119.519 107.611 119.43 107.633 119.34 107.636Z" fill="white"/>
<path d="M117.936 104.919C117.802 104.919 117.672 104.874 117.566 104.791C117.461 104.708 117.386 104.592 117.354 104.462C117.323 104.331 117.336 104.194 117.391 104.072C117.446 103.95 117.541 103.85 117.66 103.788C118.661 103.271 119.55 102.563 120.277 101.703C121.004 100.843 121.555 99.8481 121.897 98.7752C122.239 97.7023 122.366 96.5725 122.271 95.4503C122.176 94.3282 121.861 93.2358 121.344 92.2355C121.271 92.0939 121.257 91.929 121.305 91.7771C121.354 91.6252 121.46 91.4987 121.602 91.4255C121.744 91.3523 121.908 91.3384 122.06 91.3868C122.212 91.4351 122.339 91.5419 122.412 91.6835C123.002 92.8238 123.361 94.069 123.469 95.3481C123.577 96.6272 123.431 97.9151 123.041 99.138C122.651 100.361 122.024 101.495 121.195 102.475C120.367 103.456 119.353 104.263 118.212 104.852C118.127 104.897 118.032 104.92 117.936 104.919Z" fill="white"/>
<path d="M116.532 102.204C116.398 102.202 116.269 102.155 116.165 102.072C116.06 101.988 115.987 101.872 115.955 101.742C115.923 101.613 115.936 101.476 115.99 101.354C116.045 101.232 116.138 101.131 116.256 101.068C116.9 100.736 117.472 100.281 117.94 99.7283C118.408 99.1755 118.762 98.5357 118.983 97.8458C119.203 97.1558 119.285 96.4292 119.224 95.7075C119.163 94.9858 118.961 94.2831 118.628 93.6398C118.555 93.4982 118.541 93.3333 118.589 93.1814C118.638 93.0295 118.745 92.903 118.886 92.8298C119.028 92.7566 119.193 92.7427 119.345 92.791C119.496 92.8394 119.623 92.9462 119.696 93.0878C120.51 94.672 120.662 96.5145 120.12 98.2108C119.577 99.9071 118.383 101.319 116.8 102.136C116.717 102.179 116.625 102.202 116.532 102.204Z" fill="white"/>
<path d="M81.3442 50.3399H78.2882C78.2089 50.3419 78.1329 50.372 78.0736 50.4247C78.0143 50.4774 77.9756 50.5494 77.9642 50.6279L77.3242 56.7239C77.3197 56.7606 77.323 56.7979 77.334 56.8333C77.345 56.8686 77.3635 56.9012 77.3881 56.9288C77.4127 56.9565 77.4429 56.9785 77.4768 56.9936C77.5106 57.0086 77.5472 57.0162 77.5842 57.0159H80.6402C80.7202 57.0137 80.7967 56.9832 80.8561 56.9296C80.9154 56.8761 80.9538 56.8032 80.9642 56.7239L81.6042 50.6279C81.6089 50.5914 81.6055 50.5543 81.5945 50.5191C81.5835 50.484 81.565 50.4516 81.5403 50.4243C81.5156 50.397 81.4853 50.3753 81.4515 50.3607C81.4176 50.3461 81.3811 50.339 81.3442 50.3399Z" fill="#2E73B8"/>
<path opacity="0.4" d="M81.0682 50.3393H78.2882C78.2089 50.3413 78.1329 50.3714 78.0736 50.4241C78.0143 50.4768 77.9756 50.5488 77.9642 50.6273L77.3242 56.7233C77.3197 56.7601 77.323 56.7973 77.334 56.8327C77.345 56.868 77.3635 56.9006 77.3881 56.9282C77.4127 56.9559 77.4429 56.9779 77.4768 56.993C77.5106 57.008 77.5472 57.0156 77.5842 57.0153H80.3842C80.4637 57.013 80.5397 56.9823 80.5984 56.9287C80.6572 56.8751 80.6947 56.8022 80.7042 56.7233L81.3442 50.6273C81.35 50.5892 81.3469 50.5503 81.3352 50.5136C81.3236 50.4769 81.3036 50.4433 81.277 50.4155C81.2503 50.3877 81.2176 50.3664 81.1815 50.3532C81.1453 50.34 81.1065 50.3352 81.0682 50.3393Z" fill="white"/>
<path d="M66.0279 163.059C66.4279 163.059 66.8279 162.999 66.9679 162.815C67.002 162.766 67.0202 162.707 67.0202 162.647C67.0202 162.587 67.002 162.529 66.9679 162.479C66.9096 162.39 66.8196 162.325 66.7159 162.299C66.1719 162.151 65.0679 162.799 65.0199 162.827C65.0075 162.835 64.9977 162.847 64.992 162.86C64.9862 162.874 64.9848 162.889 64.9879 162.903C64.9909 162.919 64.9986 162.934 65.01 162.945C65.0214 162.957 65.036 162.964 65.0519 162.967C65.3741 163.025 65.7006 163.056 66.0279 163.059ZM66.5159 162.431C66.5651 162.425 66.6148 162.425 66.6639 162.431C66.7275 162.447 66.7831 162.485 66.8199 162.539C66.8759 162.635 66.8599 162.683 66.8199 162.707C66.6799 162.919 65.8599 162.923 65.2559 162.839C65.6439 162.619 66.0726 162.48 66.5159 162.431Z" fill="#2E73B8"/>
<path d="M65.0439 162.967H65.0759C65.4759 162.791 66.2039 162.091 66.1279 161.723C66.1279 161.639 66.0439 161.531 65.8319 161.511C65.7569 161.503 65.681 161.51 65.6088 161.532C65.5365 161.554 65.4696 161.59 65.4119 161.639C65.0119 161.979 64.9679 162.839 64.9639 162.887C64.9634 162.901 64.9664 162.915 64.9727 162.928C64.979 162.94 64.9884 162.951 64.9999 162.959C65.0135 162.966 65.0288 162.969 65.0439 162.967ZM65.7799 161.655H65.8239C65.9639 161.655 65.9759 161.723 65.9759 161.739C66.0239 161.959 65.5199 162.511 65.1319 162.751C65.1564 162.384 65.2964 162.034 65.5319 161.751C65.6012 161.692 65.6887 161.658 65.7799 161.655Z" fill="#2E73B8"/>
<path d="M64.7161 155.392H61.4761V162.892H64.7161V155.392Z" fill="#FF8B7B"/>
<path d="M37.98 159.315L41.216 159.667L43.324 152.387L40.088 152.035L37.98 159.315Z" fill="#FF8B7B"/>
<path d="M42.7203 160.4C43.1203 160.504 43.5203 160.548 43.7003 160.4C43.7443 160.359 43.7742 160.305 43.7857 160.246C43.7972 160.187 43.7897 160.126 43.7643 160.072C43.7478 160.022 43.7217 159.975 43.6874 159.936C43.6531 159.896 43.6113 159.863 43.5643 159.84C43.0643 159.564 41.8243 159.912 41.7723 159.924C41.7571 159.928 41.7435 159.936 41.7335 159.949C41.7234 159.961 41.7174 159.976 41.7163 159.992C41.7163 160.007 41.7208 160.023 41.7293 160.037C41.7378 160.05 41.7499 160.061 41.7643 160.068C42.073 160.205 42.3928 160.316 42.7203 160.4ZM43.3523 159.92C43.4009 159.931 43.4478 159.949 43.4923 159.972C43.5516 160 43.5975 160.05 43.6203 160.112C43.6523 160.22 43.6203 160.26 43.6203 160.284C43.4283 160.448 42.6243 160.252 42.0523 160.02C42.4753 159.903 42.9169 159.871 43.3523 159.924V159.92Z" fill="#2E73B8"/>
<path d="M41.7801 160.076H41.8121C42.2121 160 43.1321 159.512 43.1481 159.144C43.1481 159.056 43.1161 158.936 42.9121 158.864C42.8403 158.838 42.764 158.827 42.6877 158.831C42.6115 158.835 42.5368 158.854 42.4681 158.888C41.9961 159.116 41.7321 159.94 41.7201 159.972C41.7135 159.983 41.71 159.996 41.71 160.01C41.71 160.023 41.7135 160.036 41.7201 160.048C41.7269 160.057 41.736 160.065 41.7465 160.07C41.757 160.075 41.7686 160.077 41.7801 160.076ZM42.8201 159H42.8681C43.0001 159.048 42.9961 159.104 42.9961 159.12C42.9961 159.344 42.3561 159.748 41.9161 159.88C42.0269 159.534 42.2456 159.232 42.5401 159.02C42.628 158.98 42.7275 158.972 42.8201 159Z" fill="#2E73B8"/>
<path d="M41.3881 159.367L37.8481 158.351C37.7873 158.333 37.722 158.337 37.6635 158.362C37.6051 158.386 37.5571 158.431 37.5281 158.487L36.2241 161.075C36.1936 161.141 36.178 161.212 36.1782 161.284C36.1785 161.357 36.1947 161.428 36.2256 161.493C36.2565 161.559 36.3014 161.616 36.3572 161.662C36.4129 161.708 36.4781 161.741 36.5481 161.759C37.7881 162.091 38.4081 162.195 39.9641 162.639C40.9201 162.915 42.8681 163.579 44.1921 163.959C45.5161 164.339 46.0041 163.095 45.4921 162.823C43.1961 161.603 42.4601 160.619 41.8521 159.707C41.743 159.542 41.5784 159.422 41.3881 159.367Z" fill="#263238"/>
<path d="M64.6799 162.516H61.1439C61.0803 162.515 61.0185 162.537 60.97 162.578C60.9215 162.619 60.8895 162.677 60.8799 162.74L60.3639 165.6C60.3523 165.671 60.3563 165.744 60.3757 165.814C60.3951 165.883 60.4294 165.948 60.4761 166.003C60.5229 166.058 60.5811 166.103 60.6466 166.133C60.7122 166.164 60.7836 166.179 60.8559 166.18C62.1319 166.156 63.9719 166.08 65.5759 166.08C67.4519 166.08 68.4759 166.184 70.6759 166.184C72.0039 166.184 72.3159 164.84 71.7519 164.716C69.1959 164.164 67.7199 164.104 65.4719 162.752C65.2331 162.605 64.96 162.524 64.6799 162.516Z" fill="#263238"/>
<path opacity="0.2" d="M64.7161 155.392H61.4761V159.26H64.7161V155.392Z" fill="black"/>
<path opacity="0.2" d="M40.088 152.04L43.324 152.388L42.152 156.428L39 155.792L40.088 152.04Z" fill="black"/>
<path d="M59.3883 80.7998C59.3883 80.7998 57.6003 105.256 56.0003 114.528C54.2363 124.684 43.9723 155.78 43.9723 155.78L38.0923 154.704C38.0923 154.704 45.5043 125.504 46.3243 115.448C47.2163 104.536 48.2883 82.0438 48.2883 82.0438L59.3883 80.7998Z" fill="#2E73B8"/>
<path opacity="0.3" d="M56.376 90.9591C56.696 89.6151 57.432 91.3071 58.288 94.2391C57.64 101.495 56.796 109.899 55.988 114.531C55.808 115.567 55.536 116.823 55.188 118.247C55.496 107.895 55.508 94.5951 56.376 90.9591Z" fill="black"/>
<path d="M65.4959 80.1357C65.4959 80.1357 67.8439 104.72 67.9239 114.596C68.0079 124.872 65.8919 158.512 65.8919 158.512H60.3999C60.3999 158.512 58.7519 125.472 58.0679 115.38C57.3199 104.38 54.1719 81.3797 54.1719 81.3797L65.4959 80.1357Z" fill="#2E73B8"/>
<path d="M45.2002 153.8C45.2242 153.8 44.2762 155.932 44.2762 155.932L37.6602 154.732L38.0602 152.752L45.2002 153.8Z" fill="#263238"/>
<path d="M66.8523 156.323C66.8763 156.323 66.6403 158.603 66.6403 158.603H59.9683L59.6963 156.571L66.8523 156.323Z" fill="#263238"/>
<path d="M48.4481 58.2232C48.0081 59.0752 47.5241 59.9712 47.0841 60.8552L45.7401 63.5192C45.3041 64.4072 44.8761 65.2992 44.4641 66.1912C44.0521 67.0832 43.6641 67.9712 43.3321 68.8592L43.3001 67.4592C43.5339 68.1781 43.8145 68.881 44.1401 69.5632C44.2961 69.9152 44.4961 70.2512 44.6681 70.5992C44.8401 70.9472 45.0681 71.2792 45.2721 71.6072C45.6965 72.2852 46.1558 72.9408 46.6481 73.5712C46.8961 73.8872 47.1441 74.2112 47.4081 74.5152C47.6721 74.8192 47.9601 75.1352 48.2081 75.3952L48.2881 75.4832C48.4724 75.6856 48.5786 75.9469 48.5877 76.2205C48.5968 76.494 48.5083 76.7619 48.3379 76.9761C48.1675 77.1902 47.9264 77.3368 47.6578 77.3894C47.3892 77.442 47.1107 77.3973 46.8721 77.2632C46.4586 77.0304 46.058 76.7753 45.6721 76.4992C45.2721 76.2352 44.9201 75.9592 44.5601 75.6672C43.8394 75.0761 43.1629 74.433 42.5361 73.7432C41.8962 73.0423 41.3142 72.2904 40.7961 71.4952C40.2637 70.6851 39.8007 69.8314 39.4121 68.9432C39.2409 68.5663 39.2111 68.1403 39.3281 67.7432L39.3841 67.5552C39.6881 66.5112 40.0281 65.4992 40.4041 64.5072C40.7801 63.5152 41.1801 62.5432 41.6041 61.5872C42.0281 60.6312 42.4721 59.6872 42.9401 58.7552C43.4081 57.8232 43.8801 56.9112 44.4201 55.9792C44.7185 55.4458 45.2154 55.0518 45.8027 54.8826C46.39 54.7135 47.0204 54.7829 47.5568 55.0759C48.0932 55.3689 48.4923 55.8617 48.6675 56.4472C48.8426 57.0328 48.7796 57.6639 48.4921 58.2032L48.4481 58.2232Z" fill="#FF8B7B"/>
<path d="M50.7441 56.8001C50.9041 59.8521 47.4401 65.4561 47.4401 65.4561L40.3081 61.8921C41.1748 59.3642 42.5162 57.025 44.2601 55.0001C48.0321 50.8321 50.5961 54.0001 50.7441 56.8001Z" fill="#263238"/>
<path d="M45.9121 76.6915L47.3481 79.0915L50.3361 77.1795C49.8142 76.2442 48.9969 75.5084 48.0121 75.0875C47.7844 75.0147 47.5381 75.026 47.318 75.1192C47.0979 75.2123 46.9184 75.3813 46.8121 75.5955L45.9121 76.6915Z" fill="#FF8B7B"/>
<path d="M48.5441 80.1152L49.9321 79.8552C50.049 79.8336 50.1604 79.7891 50.2599 79.7242C50.3595 79.6593 50.4452 79.5754 50.5121 79.4772C50.5791 79.379 50.6259 79.2686 50.6499 79.1522C50.674 79.0358 50.6747 78.9159 50.6521 78.7992L50.3361 77.1992L47.3481 79.1112L47.5481 79.5952C47.63 79.7825 47.7734 79.9362 47.9545 80.0307C48.1357 80.1253 48.3437 80.1551 48.5441 80.1152Z" fill="#FF8B7B"/>
<path d="M56.9723 41.4634C57.0003 41.7234 57.1643 41.9274 57.3323 41.9114C57.5003 41.8954 57.6123 41.6754 57.5803 41.4154C57.5483 41.1554 57.3883 40.9514 57.2203 40.9634C57.0523 40.9754 56.9403 41.1994 56.9723 41.4634Z" fill="#263238"/>
<path d="M57.1401 41.9277C57.5447 42.7046 58.049 43.4254 58.6401 44.0717C58.2401 44.5397 57.4401 44.4037 57.4401 44.4037L57.1401 41.9277Z" fill="#FF5652"/>
<path d="M55.852 40.0841C55.8728 40.0871 55.894 40.0855 55.9141 40.0793C55.9342 40.0731 55.9526 40.0624 55.968 40.0481C56.1067 39.9182 56.2751 39.8244 56.4586 39.7748C56.642 39.7253 56.8348 39.7216 57.02 39.7641C57.0389 39.7701 57.0588 39.7722 57.0786 39.7701C57.0983 39.7681 57.1174 39.762 57.1347 39.7523C57.152 39.7425 57.1671 39.7293 57.179 39.7134C57.1909 39.6975 57.1994 39.6794 57.204 39.6601C57.214 39.6203 57.2084 39.5782 57.1883 39.5425C57.1682 39.5068 57.1352 39.4801 57.096 39.468C56.8621 39.4122 56.6182 39.4144 56.3853 39.4744C56.1525 39.5343 55.9378 39.6502 55.76 39.8121C55.7451 39.8262 55.7333 39.8433 55.7252 39.8622C55.7171 39.8811 55.7129 39.9015 55.7129 39.9221C55.7129 39.9426 55.7171 39.963 55.7252 39.9819C55.7333 40.0008 55.7451 40.0179 55.76 40.0321C55.7711 40.0464 55.7849 40.0584 55.8007 40.0674C55.8165 40.0763 55.834 40.082 55.852 40.0841Z" fill="#263238"/>
<path d="M48.9082 44.3594C49.6722 46.6754 50.6882 50.9434 49.2402 52.6554C49.2402 52.6554 50.1922 54.9874 54.5762 54.6154C59.4042 54.2154 56.5762 52.0354 56.5762 52.0354C53.8642 51.6354 53.6802 49.6794 53.9042 47.8114L48.9082 44.3594Z" fill="#FF8B7B"/>
<path d="M48.204 53.5C47.752 52.776 47.248 51.948 48.104 51.64C49.044 51.3 54.324 50.748 56.204 51.212C58.084 51.676 57.7 53.212 57.7 53.212L48.204 53.5Z" fill="#2E73B8"/>
<path d="M63.6642 54.4757C64.3522 55.1077 65.0961 55.8077 65.8361 56.4477C66.5761 57.0877 67.3241 57.7437 68.0761 58.3757C68.8281 59.0077 69.5961 59.6037 70.3681 60.1837C71.1401 60.7637 71.9241 61.2917 72.7081 61.7837L71.1081 61.6317C71.7731 61.4543 72.4023 61.1634 72.9681 60.7717C73.6293 60.3096 74.243 59.783 74.8001 59.1997C75.4006 58.5852 75.963 57.9347 76.4841 57.2517C76.7521 56.9037 77.0201 56.5517 77.2841 56.1877C77.5481 55.8237 77.7881 55.4397 78.0081 55.1037L78.0521 55.0397C78.2041 54.8077 78.4343 54.638 78.701 54.5616C78.9676 54.4852 79.2528 54.5073 79.5045 54.6237C79.7562 54.7401 79.9577 54.9431 80.0722 55.1957C80.1867 55.4483 80.2066 55.7337 80.1281 55.9997C79.9762 56.5197 79.8161 56.9637 79.6321 57.4277C79.4481 57.8917 79.2561 58.3477 79.0401 58.7957C78.6022 59.7096 78.0898 60.5858 77.5081 61.4157C76.8976 62.2957 76.1861 63.1012 75.3881 63.8157C74.505 64.6041 73.4802 65.2176 72.3681 65.6237C72.1294 65.7078 71.8764 65.7437 71.6237 65.7293C71.371 65.7149 71.1237 65.6504 70.8962 65.5397L70.7641 65.4717C69.771 64.9836 68.8067 64.4387 67.8761 63.8397C66.9681 63.2517 66.0882 62.6397 65.2402 61.9837C64.3922 61.3277 63.5721 60.6637 62.7721 59.9837C61.9721 59.3037 61.2041 58.5917 60.4241 57.7957C60.0091 57.3628 59.7778 56.786 59.7788 56.1862C59.7798 55.5865 60.013 55.0104 60.4296 54.5789C60.8461 54.1474 61.4135 53.8939 62.0128 53.8717C62.6122 53.8495 63.1968 54.0602 63.6441 54.4597L63.6642 54.4757Z" fill="#FF8B7B"/>
<path d="M61.22 52.3993C61.22 52.3993 65.252 56.3113 65.72 80.5073C59.272 82.0713 53.068 82.6473 48.276 82.0393C48.048 79.0033 47.708 68.4673 44.628 57.3593C44.4957 56.8915 44.4621 56.4012 44.5293 55.9197C44.5965 55.4382 44.7631 54.9759 45.0185 54.5621C45.2739 54.1484 45.6125 53.7923 46.0128 53.5164C46.4131 53.2405 46.8665 53.0508 47.344 52.9593C47.956 52.8393 48.6 52.7313 49.24 52.6473C51.6713 52.2996 54.1207 52.0926 56.576 52.0273C58.1309 52.04 59.6829 52.1643 61.22 52.3993Z" fill="#263238"/>
<path d="M58.092 56.6158C58.492 59.6438 63.692 65.4638 63.692 65.4638L69.864 59.0638C68.0306 57.139 66.0485 55.3615 63.936 53.7478C59.412 50.3678 57.732 53.8078 58.092 56.6158Z" fill="#263238"/>
<path d="M79.7279 57.0638L81.7919 55.1718L79.3199 52.6318C78.5022 53.3281 77.9393 54.2765 77.7199 55.3278C77.6957 55.5682 77.7594 55.8091 77.8991 56.0062C78.0388 56.2032 78.2451 56.3431 78.4799 56.3998L79.7279 57.0638Z" fill="#FF8B7B"/>
<path d="M82.5522 53.7952L82.0202 52.4872C81.9752 52.3749 81.908 52.2729 81.8228 52.1871C81.7376 52.1012 81.6361 52.0334 81.5242 51.9875C81.4123 51.9416 81.2923 51.9187 81.1714 51.92C81.0505 51.9213 80.9311 51.9469 80.8202 51.9952L79.3042 52.6312L81.7762 55.1712L82.2082 54.8792C82.3816 54.7657 82.5104 54.5959 82.5731 54.3984C82.6358 54.2009 82.6284 53.9878 82.5522 53.7952Z" fill="#FF8B7B"/>
<path d="M48.292 41.5997C48.872 44.7997 49.048 46.6957 50.848 48.2197C53.556 50.5117 57.292 48.7277 57.648 45.4597C57.984 42.5157 56.98 37.7757 53.724 36.7437C50.468 35.7117 47.712 38.3997 48.292 41.5997Z" fill="#FF8B7B"/>
<path d="M54.6003 42.7516C55.7243 43.0076 56.6003 41.7076 56.7203 41.3396C56.1723 41.3916 55.2003 41.1116 55.0083 40.8636C55.6083 40.9156 56.1882 40.1756 56.2603 39.8916C55.6237 39.7687 55.0599 39.4028 54.6883 38.8716C55.6603 38.8516 56.8282 37.1396 55.7602 35.6076C54.6922 34.0756 50.2283 35.3596 49.6003 34.2676C48.6643 34.8116 49.4963 35.5356 49.4963 35.5356C49.4963 35.5356 43.1803 36.7356 46.0923 39.1716C43.9563 39.3636 43.6562 41.8876 45.4362 43.1716C47.2162 44.4556 47.3083 45.3036 46.6003 45.1996C46.8843 45.7436 48.1523 45.8156 48.2243 45.2876C48.5243 46.3956 49.3883 47.8956 51.3803 47.6516C53.3723 47.4076 55.3243 44.6196 54.6003 42.7516Z" fill="#263238"/>
<path d="M46.6442 38.7991C45.1402 39.0071 44.4562 38.1591 44.8322 37.4111C42.9682 38.3631 45.0042 40.4671 46.6442 38.7991Z" fill="#263238"/>
<path d="M53.044 42.2635C53.3028 42.9339 53.7606 43.509 54.356 43.9115C55.156 44.4395 55.88 43.9115 55.744 43.1115C55.62 42.3755 55.0559 41.2115 54.224 41.0035C54.0516 40.947 53.8668 40.9408 53.6911 40.9858C53.5154 41.0307 53.3562 41.1249 53.2322 41.2573C53.1083 41.3897 53.0247 41.5547 52.9913 41.733C52.958 41.9112 52.9762 42.0953 53.044 42.2635Z" fill="#FF8B7B"/>
<path d="M154.712 155.008C151.752 148.024 150.556 139.808 153.944 140.148C157.42 140.484 157.012 152.868 157.576 154.228C156.492 155.16 154.712 155.008 154.712 155.008Z" fill="#2E73B8"/>
<path d="M155.672 141.756C154.944 144.42 154.172 148.536 153.584 152.024C153.92 153.024 154.3 154.024 154.712 155.008C154.712 155.008 156.488 155.16 157.58 154.228C157.132 153.156 157.292 145.22 155.672 141.756Z" fill="#263238"/>
<path d="M155.688 153.728C154.76 138.888 157.288 125.132 163.944 125.752C169.656 126.288 161.328 151.272 161.488 154.152C158.872 155.168 155.688 153.728 155.688 153.728Z" fill="#2E73B8"/>
<path d="M160 153.632C161.044 142.964 166.672 130.516 169.088 134.676C172.156 139.956 164.288 152.532 164.076 154.6C162.108 155.024 160 153.632 160 153.632Z" fill="#2E73B8"/>
<path d="M158.948 129.715C158.272 129.603 157.896 129.183 157.94 128.587C157.988 127.915 158.54 127.247 159.052 127.239C159.3 127.239 159.716 127.367 159.82 128.291L159.42 128.339C159.372 127.899 159.24 127.639 159.064 127.639C158.792 127.639 158.376 128.135 158.344 128.615C158.316 129.015 158.54 129.239 159.016 129.319L158.948 129.715Z" fill="#2E73B8"/>
<path d="M166.132 132.4C165.841 132.376 165.563 132.269 165.332 132.092L165.548 131.76C165.92 132 166.208 132.064 166.32 131.928C166.488 131.712 166.372 131.08 166.024 130.748C165.744 130.48 165.416 130.5 165.052 130.82L164.792 130.516C164.886 130.411 165 130.325 165.127 130.265C165.255 130.205 165.393 130.171 165.534 130.166C165.675 130.161 165.815 130.184 165.947 130.234C166.079 130.285 166.199 130.362 166.3 130.46C166.788 130.924 166.952 131.772 166.632 132.176C166.573 132.251 166.497 132.31 166.409 132.349C166.322 132.388 166.227 132.406 166.132 132.4Z" fill="#2E73B8"/>
<path d="M156.328 138.439C156.086 138.457 155.846 138.385 155.653 138.238C155.46 138.09 155.327 137.878 155.28 137.639C155.12 136.987 155.44 136.183 155.928 136.015C156.156 135.939 156.596 135.931 156.98 136.783L156.612 136.951C156.432 136.551 156.212 136.335 156.056 136.395C155.8 136.483 155.556 137.079 155.656 137.543C155.748 137.943 156.056 138.079 156.512 138.007L156.572 138.407C156.492 138.425 156.41 138.436 156.328 138.439Z" fill="#2E73B8"/>
<path d="M152.068 146.724C151.873 146.729 151.681 146.674 151.518 146.568C151.354 146.461 151.227 146.308 151.152 146.128C150.872 145.516 151.036 144.664 151.48 144.408C151.692 144.288 152.124 144.2 152.66 144.968L152.332 145.196C152.076 144.832 151.832 144.668 151.68 144.756C151.444 144.892 151.316 145.524 151.516 145.956C151.68 146.312 151.992 146.408 152.444 146.248L152.576 146.628C152.413 146.689 152.241 146.722 152.068 146.724Z" fill="#2E73B8"/>
<path d="M159.156 134.647C159.114 134.647 159.074 134.634 159.04 134.611C158.791 134.474 158.601 134.251 158.504 133.984C158.407 133.717 158.41 133.424 158.512 133.159C158.628 132.893 158.826 132.672 159.077 132.528C159.329 132.384 159.62 132.325 159.908 132.359C160.156 132.403 160.736 132.623 160.776 133.687C160.776 133.74 160.755 133.791 160.717 133.829C160.68 133.866 160.629 133.887 160.576 133.887C160.523 133.887 160.472 133.866 160.434 133.829C160.397 133.791 160.376 133.74 160.376 133.687C160.352 133.131 160.164 132.795 159.836 132.735C159.637 132.719 159.438 132.766 159.266 132.868C159.095 132.971 158.96 133.124 158.88 133.307C158.736 133.647 158.88 133.991 159.28 134.275C159.315 134.3 159.341 134.335 159.355 134.375C159.368 134.415 159.369 134.459 159.356 134.5C159.343 134.541 159.317 134.576 159.283 134.601C159.248 134.626 159.206 134.639 159.164 134.639L159.156 134.647Z" fill="white"/>
<path d="M163.896 145.444C163.85 145.444 163.805 145.429 163.77 145.399C163.735 145.37 163.711 145.329 163.704 145.284C163.698 145.258 163.697 145.232 163.702 145.206C163.706 145.18 163.716 145.156 163.73 145.134C163.744 145.112 163.763 145.093 163.784 145.078C163.806 145.063 163.83 145.053 163.856 145.048C164.4 144.936 164.7 144.692 164.708 144.36C164.69 144.161 164.611 143.972 164.481 143.82C164.351 143.668 164.177 143.561 163.984 143.512C163.624 143.424 163.304 143.62 163.092 144.06C163.08 144.083 163.064 144.104 163.044 144.122C163.025 144.139 163.002 144.153 162.977 144.161C162.952 144.17 162.926 144.173 162.899 144.172C162.873 144.17 162.847 144.163 162.824 144.152C162.8 144.14 162.779 144.124 162.762 144.104C162.744 144.085 162.731 144.062 162.722 144.037C162.714 144.012 162.71 143.986 162.712 143.959C162.713 143.933 162.72 143.907 162.732 143.884C162.83 143.618 163.018 143.396 163.264 143.256C163.51 143.117 163.798 143.068 164.076 143.12C164.358 143.189 164.611 143.348 164.797 143.572C164.982 143.796 165.091 144.073 165.108 144.364C165.108 144.616 164.98 145.224 163.94 145.44L163.896 145.444Z" fill="white"/>
<path d="M169.52 142.072C169.288 142.072 168.98 141.936 168.636 141.42L168.968 141.196C169.216 141.564 169.452 141.732 169.608 141.648C169.848 141.52 170.008 140.888 169.796 140.448C169.644 140.092 169.332 139.988 168.876 140.136L168.752 139.756C169.4 139.544 169.928 139.756 170.164 140.292C170.432 140.908 170.252 141.756 169.8 142C169.714 142.048 169.618 142.073 169.52 142.072Z" fill="#2E73B8"/>
<path d="M168.328 157.547C168.331 155.413 167.565 153.348 166.172 151.731C166.309 151.711 166.434 151.643 166.525 151.539C166.616 151.435 166.666 151.301 166.668 151.163C166.667 151.007 166.604 150.857 166.493 150.747C166.382 150.637 166.232 150.575 166.076 150.575H152.684C152.538 150.577 152.398 150.634 152.292 150.734C152.186 150.833 152.121 150.97 152.11 151.115C152.099 151.26 152.142 151.405 152.232 151.519C152.322 151.634 152.452 151.711 152.596 151.735C151.72 152.752 151.085 153.954 150.738 155.251C150.39 156.548 150.34 157.906 150.59 159.225C150.84 160.544 151.385 161.789 152.183 162.869C152.981 163.948 154.012 164.833 155.2 165.459C155.07 165.526 154.967 165.634 154.907 165.767C154.847 165.899 154.833 166.048 154.867 166.189C154.902 166.331 154.983 166.456 155.098 166.546C155.213 166.636 155.354 166.684 155.5 166.683H163.256C163.427 166.682 163.592 166.614 163.713 166.492C163.834 166.371 163.903 166.207 163.904 166.035C163.903 165.917 163.871 165.801 163.809 165.699C163.748 165.598 163.661 165.515 163.556 165.459C164.996 164.7 166.202 163.561 167.043 162.167C167.884 160.773 168.328 159.175 168.328 157.547Z" fill="#263238"/>
</svg>
