<svg width="200" height="200" viewBox="0 0 200 200" fill="none" xmlns="http://www.w3.org/2000/svg">
<path d="M100 197.572C153.839 197.572 197.484 171.306 197.484 138.904C197.484 106.503 153.839 80.2363 100 80.2363C46.1612 80.2363 2.51611 106.503 2.51611 138.904C2.51611 171.306 46.1612 197.572 100 197.572Z" fill="#FAFAFA"/>
<path d="M149.74 178.589C169.203 178.589 184.98 169.478 184.98 158.241C184.98 147.003 169.203 137.893 149.74 137.893C130.277 137.893 114.5 147.003 114.5 158.241C114.5 169.478 130.277 178.589 149.74 178.589Z" fill="#E6E6E6"/>
<path d="M7.48399 176.229L17.668 182.113C18.2423 182.403 18.8766 182.554 19.52 182.554C20.1633 182.554 20.7977 182.403 21.372 182.113L95.8199 139.129C96.8439 138.541 96.8439 137.581 95.8199 136.993L85.6359 131.109C85.0617 130.819 84.4273 130.668 83.7839 130.668C83.1406 130.668 82.5062 130.819 81.9319 131.109L7.48399 174.093C6.46399 174.685 6.46399 175.641 7.48399 176.229Z" fill="#115E59"/>
<path d="M25.7159 177.268L29.7159 179.58C30.2896 179.872 30.9242 180.024 31.5679 180.024C32.2116 180.024 32.8462 179.872 33.4199 179.58L101.052 140.508C102.076 139.916 102.076 138.96 101.052 138.368L97.0519 136.056C96.4784 135.766 95.8446 135.615 95.2019 135.615C94.5592 135.615 93.9255 135.766 93.3519 136.056L25.7159 175.132C24.6959 175.72 24.6959 176.676 25.7159 177.268Z" fill="#115E59"/>
<path opacity="0.15" d="M103.776 167.282C103.612 168.29 103.096 169.394 103.648 170.25C104.376 171.386 106.36 171.05 107.076 172.206C107.66 173.142 106.868 174.446 105.82 174.782C104.772 175.118 103.632 174.782 102.596 174.422C100.711 173.753 98.8693 172.97 97.08 172.078C95.984 171.526 94.848 170.922 93.62 170.934C92.392 170.946 91.076 171.854 91.1 173.082C91.132 174.51 92.828 175.298 94.256 175.322C95.684 175.346 97.18 174.962 98.504 175.498C98.9817 175.66 99.3756 176.006 99.6 176.458C99.7042 176.686 99.7253 176.943 99.6595 177.185C99.5938 177.427 99.4453 177.638 99.24 177.782C98.864 177.998 98.368 177.906 97.996 178.13C97.7032 178.371 97.4681 178.674 97.308 179.018C96.536 180.178 94.968 180.43 93.584 180.578C91.348 180.822 89.036 181.054 86.888 180.382C85.388 179.914 83.688 179.046 82.388 179.922C81.328 180.642 81.08 182.742 82.276 183.394C83.756 184.194 85.624 184.234 87.244 183.954C89.136 183.622 90.92 182.858 92.736 182.226C93.4 181.994 94.296 181.854 94.668 182.45C94.7674 182.64 94.8084 182.856 94.7856 183.069C94.7628 183.283 94.6773 183.485 94.54 183.65C94.2646 183.971 93.9272 184.234 93.548 184.422C91.548 185.594 89.42 186.702 87.12 187.078C84.432 187.522 81.392 186.942 79.52 184.814C78.4737 183.596 77.8777 182.055 77.832 180.45C77.808 179.674 78.056 178.982 78.12 178.238C78.1305 177.256 78.0407 176.277 77.852 175.314C77.632 173.658 77.204 171.966 77.592 170.342C77.9561 169.033 78.701 167.862 79.732 166.978C80.4268 166.369 81.1722 165.82 81.96 165.338C82.4681 164.945 82.9517 164.522 83.408 164.07C84.748 162.974 86.608 162.278 88.248 161.73C91.424 160.654 95.076 160.178 98.288 161.374C100.876 162.322 104.332 163.946 103.776 167.282Z" fill="#333333"/>
<path d="M185.096 38.1316C185.096 28.1916 178.548 16.3516 170.472 11.6916C166.196 9.22359 162.348 9.25959 159.672 11.3156C156.348 12.6996 154.22 16.5156 154.22 22.1876V79.8476L183.464 96.7316L185.092 95.7956L185.096 38.1316Z" fill="#CCCCCC"/>
<path d="M183.468 96.7318V39.0718C183.468 29.1318 176.924 17.2918 168.844 12.6278C160.764 7.96376 154.224 12.2278 154.224 22.1878V79.8478L183.468 96.7318Z" fill="#F0FDFA"/>
<path d="M181.872 39.072V93.9639L155.824 78.9239V22.188C155.824 17.22 157.572 13.788 160.512 12.712C161.195 12.4624 161.917 12.3378 162.644 12.344C164.308 12.344 166.124 12.904 168.048 14.016C175.672 18.4 181.872 29.656 181.872 39.072Z" fill="#115E59"/>
<path d="M155.824 78.9247L157.476 77.9727L181.872 92.0607V93.9647L155.824 78.9247Z" fill="#115E59"/>
<path d="M181.872 39.072V92.0599L157.472 77.9719V21.232C157.472 17.284 158.58 14.308 160.512 12.712C161.195 12.4624 161.917 12.3378 162.644 12.344C164.308 12.344 166.124 12.904 168.048 14.016C175.672 18.4 181.872 29.656 181.872 39.072Z" fill="white"/>
<path d="M169.644 86.9035L168.048 85.9795V13.4395H169.644V86.9035Z" fill="#F0FDFA"/>
<path d="M171.248 16.3268V85.9988L169.648 86.9188V15.0508C170.192 15.4428 170.725 15.8681 171.248 16.3268Z" fill="#115E59"/>
<path d="M155.824 67.6367L168.048 74.6967V76.5727L155.824 69.5167V67.6367Z" fill="#F0FDFA"/>
<path d="M157.476 66.6875L155.824 67.6355L168.048 74.6955V72.8195L157.476 66.6875Z" fill="#115E59"/>
<path d="M169.644 75.6152L181.872 82.6752L181.868 84.5512L169.644 77.4952V75.6152Z" fill="#F0FDFA"/>
<path d="M171.296 74.6641L169.644 75.6161L181.872 82.6761V80.8001L171.296 74.6641Z" fill="#115E59"/>
<path d="M155.824 25.752L168.048 32.808V34.684L155.824 27.628V25.752Z" fill="#F0FDFA"/>
<path d="M157.476 24.7949L155.824 25.7509L168.048 32.8069V30.9309L157.476 24.7949Z" fill="#115E59"/>
<path d="M169.644 33.7266L181.872 40.7866L181.868 42.6626L169.644 35.6066V33.7266Z" fill="#F0FDFA"/>
<path d="M171.296 32.7754L169.644 33.7274L181.872 40.7874V38.9114L171.296 32.7754Z" fill="#115E59"/>
<path d="M94.0439 134.367V14.6195C94.0439 11.9755 92.7319 11.2475 91.5639 10.5755C90.3959 9.90347 88.4759 9.49147 86.8199 10.4475L18.6799 49.7955C17.8071 50.3662 17.0807 51.1342 16.5595 52.0376C16.0384 52.9409 15.7371 53.9542 15.6799 54.9955V174.743C15.6799 176.659 16.8799 177.787 18.0479 178.459C19.2159 179.131 21.2479 179.871 22.9039 178.915L91.0439 139.567C91.9825 139.071 92.762 138.319 93.2926 137.399C93.8233 136.48 94.0837 135.429 94.0439 134.367Z" fill="#37474F"/>
<path d="M91.3439 135.339L21.9999 175.383V55.1911L16.5559 52.0391C16.0179 52.9341 15.7165 53.9514 15.6799 54.9951V174.743C15.6799 176.659 16.8799 177.787 18.0479 178.459C19.2159 179.131 21.2479 179.871 22.9039 178.915L91.0439 139.567C92.2229 138.935 93.142 137.909 93.6399 136.667L93.4719 136.571L91.3439 135.339Z" fill="#263238"/>
<path d="M90.9639 13.7317L22.7039 53.1517C22.091 53.5517 21.5808 54.0904 21.2145 54.7241C20.8483 55.3578 20.6364 56.0689 20.5959 56.7997V175.712C20.5959 177.768 22.0559 178.608 23.8359 177.576L90.9639 138.8C91.6599 138.346 92.2396 137.736 92.6565 137.017C93.0734 136.299 93.3157 135.493 93.3639 134.664V15.1117C93.3519 13.5997 92.2759 12.9757 90.9639 13.7317Z" fill="#455A64"/>
<path d="M91.6798 23.7072V129.495C91.6364 130.292 91.406 131.068 91.0071 131.759C90.6082 132.451 90.0521 133.039 89.3838 133.475L24.5838 170.907C23.3158 171.643 22.2878 171.051 22.2878 169.583V63.0872C22.3584 61.7715 22.9311 60.533 23.8878 59.6272L24.1038 59.4312C24.2518 59.3133 24.4083 59.2063 24.5718 59.1112L88.5718 22.1632L88.7998 22.0312C90.3718 21.1072 91.6798 21.8632 91.6798 23.7072Z" fill="#333333"/>
<path d="M86.048 130.899C86.7159 130.462 87.2716 129.874 87.6705 129.183C88.0693 128.492 88.3 127.716 88.344 126.919V22.2793L24.564 59.1113C24.4004 59.2064 24.244 59.3134 24.096 59.4313L23.88 59.6273C22.9219 60.5322 22.3489 61.7712 22.28 63.0873V167.731L86.048 130.899Z" fill="#FAFAFA"/>
<path d="M48.6079 41.4238L58.3439 35.7758C58.6879 35.5758 58.9679 35.7198 58.9679 36.0918C58.9527 36.3009 58.8882 36.5034 58.7798 36.6828C58.6713 36.8621 58.522 37.0133 58.3439 37.1238L48.6079 42.7718C48.2639 42.9718 47.9839 42.8318 47.9839 42.4558C47.9991 42.2468 48.0635 42.0443 48.172 41.8649C48.2804 41.6856 48.4298 41.5344 48.6079 41.4238Z" fill="#263238"/>
<path d="M61.2999 33.7956C61.6999 33.5716 62.0039 33.7516 62.0039 34.1956C61.988 34.4366 61.9161 34.6706 61.7938 34.8789C61.6716 35.0872 61.5025 35.2641 61.2999 35.3956C60.8999 35.6196 60.5999 35.4356 60.5999 34.9956C60.6159 34.7551 60.6874 34.5216 60.8089 34.3134C60.9304 34.1052 61.0984 33.9279 61.2999 33.7956Z" fill="#263238"/>
<path d="M19.6 67.3269C19.5851 66.93 19.4771 66.5422 19.2846 66.1947C19.0921 65.8473 18.8206 65.55 18.492 65.3269C18.3834 65.2474 18.2551 65.1994 18.121 65.1881C17.9869 65.1768 17.8523 65.2027 17.732 65.2629C17.592 65.3469 17.044 65.6629 16.9 65.7389C16.777 65.8299 16.6803 65.9519 16.6198 66.0924C16.5594 66.233 16.5374 66.3871 16.556 66.5389V74.9149C16.571 75.3123 16.6795 75.7004 16.8727 76.048C17.066 76.3955 17.3384 76.6925 17.668 76.9149C17.7729 76.9899 17.8953 77.0367 18.0235 77.0507C18.1517 77.0647 18.2814 77.0455 18.4 76.9949C18.552 76.9149 19.112 76.5949 19.256 76.5029C19.379 76.412 19.4757 76.29 19.5361 76.1494C19.5966 76.0089 19.6186 75.8548 19.6 75.7029V67.3269Z" fill="#455A64"/>
<path d="M18.7998 67.8029V76.1789C18.7998 76.9309 18.3038 77.2589 17.6918 76.9029C17.3623 76.6804 17.0898 76.3834 16.8966 76.0359C16.7034 75.6884 16.5948 75.3002 16.5798 74.9029V66.5229C16.5798 65.7669 17.0758 65.4429 17.6878 65.7989C18.0184 66.0212 18.2915 66.3188 18.4848 66.6672C18.6781 67.0155 18.7861 67.4047 18.7998 67.8029Z" fill="#37474F"/>
<path d="M19.6 81.9997C19.5845 81.6029 19.4762 81.2153 19.2838 80.868C19.0913 80.5206 18.8202 80.2232 18.492 79.9997C18.3829 79.9212 18.2544 79.8742 18.1204 79.8636C17.9864 79.853 17.8521 79.8793 17.732 79.9397C17.592 80.0237 17.044 80.3397 16.9 80.4157C16.7767 80.5063 16.6797 80.6283 16.6193 80.7689C16.5588 80.9096 16.537 81.0638 16.556 81.2157V89.5917C16.5713 89.9889 16.68 90.377 16.8732 90.7245C17.0664 91.0719 17.3387 91.369 17.668 91.5917C17.7728 91.6671 17.8955 91.7138 18.0239 91.7271C18.1523 91.7405 18.282 91.72 18.4 91.6677C18.552 91.5877 19.112 91.2677 19.256 91.1797C19.3787 91.0885 19.4752 90.9664 19.5356 90.8259C19.596 90.6855 19.6182 90.5315 19.6 90.3797V81.9997Z" fill="#455A64"/>
<path d="M18.7998 82.4642V90.8402C18.7998 91.5922 18.3038 91.9162 17.6918 91.5642C17.3625 91.3415 17.0902 91.0444 16.897 90.697C16.7038 90.3495 16.5952 89.9614 16.5798 89.5642V81.2002C16.5798 80.4482 17.0758 80.1242 17.6878 80.4762C18.0156 80.6976 18.2869 80.9928 18.48 81.3381C18.6731 81.6833 18.7827 82.069 18.7998 82.4642Z" fill="#37474F"/>
<path opacity="0.9" d="M88.0201 127.119C87.7352 127.262 87.4208 127.337 87.1021 127.337C86.7833 127.337 86.469 127.262 86.1841 127.119L85.9961 127.011C85.7262 126.838 85.5021 126.602 85.3427 126.323C85.1833 126.045 85.0932 125.732 85.0801 125.411V46.1595C85.0892 45.8461 85.1787 45.5403 85.3401 45.2715L87.4241 46.4715C87.2147 46.8484 87.1046 47.2723 87.1041 47.7035V126.179C87.1041 126.979 87.6721 127.315 88.3721 126.911L88.0201 127.119Z" fill="#0D9488"/>
<path opacity="0.5" d="M138 17.9996V18.3596C138.007 18.2062 137.971 18.0539 137.898 17.9191C137.825 17.7842 137.716 17.6717 137.584 17.5937C137.452 17.5157 137.301 17.475 137.147 17.4761C136.994 17.4771 136.843 17.5198 136.712 17.5996L88.3641 45.5316C87.9798 45.7506 87.6609 46.0682 87.4401 46.4516V46.4796L85.3481 45.2796C85.504 44.9932 85.7314 44.752 86.0081 44.5796L135.04 16.2876C135.325 16.1447 135.639 16.0703 135.958 16.0703C136.277 16.0703 136.591 16.1447 136.876 16.2876L137.06 16.3956C137.334 16.5684 137.562 16.8042 137.725 17.0833C137.889 17.3623 137.983 17.6766 138 17.9996Z" fill="#115E59"/>
<path opacity="0.8" d="M138 97.2757C138 98.0757 137.432 98.5957 136.732 98.9997L88.3681 126.912C87.6721 127.312 87.1001 126.988 87.1001 126.176V47.7157C87.1006 47.2728 87.2177 46.8378 87.4396 46.4544C87.6614 46.0711 87.9803 45.7529 88.3641 45.5317L136.712 17.5997C136.842 17.521 136.99 17.4785 137.142 17.4766C137.294 17.4748 137.443 17.5137 137.575 17.5893C137.706 17.6649 137.815 17.7744 137.89 17.9064C137.965 18.0384 138.003 18.188 138 18.3397V97.2757Z" fill="#115E59"/>
<g opacity="0.85">
<path d="M137.136 17.8922C137.196 17.89 137.256 17.9 137.312 17.9216C137.369 17.9431 137.42 17.9758 137.463 18.0176C137.507 18.0594 137.541 18.1095 137.565 18.165C137.588 18.2204 137.6 18.28 137.6 18.3402V97.2762C137.6 97.8122 137.28 98.2242 136.532 98.6522L88.1681 126.564C88.0597 126.636 87.934 126.678 87.8041 126.684C87.5401 126.684 87.5001 126.368 87.5001 126.176V47.7162C87.501 47.3432 87.5998 46.977 87.7865 46.6541C87.9732 46.3313 88.2413 46.063 88.5641 45.8762L136.912 17.9522C136.98 17.9134 137.058 17.8927 137.136 17.8922ZM137.136 17.4922C136.987 17.4929 136.841 17.5329 136.712 17.6082L88.3641 45.5322C87.9803 45.7533 87.6614 46.0715 87.4396 46.4549C87.2177 46.8383 87.1006 47.2733 87.1001 47.7162V126.176C87.1001 126.752 87.3881 127.084 87.8041 127.084C88.0038 127.077 88.1982 127.017 88.3681 126.912L136.716 99.0002C137.416 98.6002 137.984 98.0802 137.984 97.2762V18.3402C137.984 18.1153 137.895 17.8996 137.736 17.7406C137.577 17.5815 137.361 17.4922 137.136 17.4922Z" fill="#115E59"/>
</g>
<path d="M90.5762 49.3992C90.5876 49.2767 90.627 49.1584 90.6916 49.0537C90.7561 48.9489 90.8439 48.8605 90.9482 48.7952L94.9122 46.5072C95.1202 46.3872 95.2882 46.4672 95.2882 46.6792C95.2763 46.802 95.2362 46.9205 95.171 47.0253C95.1058 47.13 95.0172 47.2183 94.9122 47.2832L90.9482 49.5752C90.7442 49.6912 90.5762 49.5992 90.5762 49.3992Z" fill="#FAFAFA"/>
<path d="M90.5762 50.9441C90.5876 50.8216 90.627 50.7034 90.6916 50.5986C90.7561 50.4938 90.8439 50.4054 90.9482 50.3401L94.9122 48.0521C95.1202 47.9321 95.2882 48.0121 95.2882 48.2241C95.2763 48.3469 95.2362 48.4654 95.171 48.5702C95.1058 48.675 95.0172 48.7632 94.9122 48.8281L90.9482 51.1161C90.7442 51.2361 90.5762 51.1601 90.5762 50.9441Z" fill="#FAFAFA"/>
<path d="M90.5762 52.4879C90.5876 52.3654 90.627 52.2472 90.6916 52.1424C90.7561 52.0376 90.8439 51.9492 90.9482 51.8839L94.9122 49.5959C95.1202 49.4759 95.2882 49.5519 95.2882 49.7679C95.2763 49.8907 95.2362 50.0092 95.171 50.114C95.1058 50.2188 95.0172 50.307 94.9122 50.3719L90.9482 52.6599C90.7442 52.7999 90.5762 52.7039 90.5762 52.4879Z" fill="#FAFAFA"/>
<path d="M134.508 27.079V26.363C134.511 26.3539 134.51 26.3441 134.506 26.3353C134.503 26.3265 134.497 26.3191 134.489 26.3141C134.48 26.3092 134.471 26.307 134.462 26.3079C134.452 26.3087 134.443 26.3127 134.436 26.319L133.884 26.567C133.875 26.5708 133.866 26.5726 133.856 26.5724C133.846 26.5722 133.837 26.5699 133.828 26.5658C133.819 26.5616 133.812 26.5557 133.806 26.5483C133.799 26.5409 133.795 26.5323 133.792 26.523C133.763 26.4273 133.721 26.3358 133.668 26.251C133.659 26.2295 133.654 26.2064 133.654 26.183C133.654 26.1597 133.659 26.1366 133.668 26.115L134.036 25.375C134.046 25.3564 134.048 25.3347 134.042 25.3144C134.036 25.2942 134.023 25.2772 134.004 25.267L133.604 25.035C133.586 25.0243 133.565 25.0209 133.545 25.0253C133.525 25.0298 133.508 25.0419 133.496 25.059L133.036 25.751C133.022 25.7695 133.004 25.7846 132.983 25.795C132.962 25.8054 132.939 25.8109 132.916 25.811C132.815 25.8088 132.715 25.8182 132.616 25.839C132.607 25.8414 132.598 25.8418 132.589 25.8401C132.579 25.8385 132.571 25.8349 132.563 25.8296C132.556 25.8242 132.549 25.8173 132.545 25.8093C132.54 25.8012 132.537 25.7923 132.536 25.783L132.468 25.199C132.468 25.155 132.428 25.139 132.392 25.159L131.772 25.519C131.751 25.5312 131.734 25.548 131.721 25.5681C131.707 25.5882 131.699 25.6111 131.696 25.635L131.636 26.327C131.627 26.3758 131.604 26.4205 131.568 26.455C131.445 26.5685 131.33 26.6901 131.224 26.819C131.209 26.8351 131.19 26.847 131.169 26.8533C131.148 26.8596 131.126 26.8602 131.104 26.855L130.704 26.715C130.684 26.7088 130.662 26.7094 130.642 26.7166C130.621 26.7238 130.604 26.7372 130.592 26.755L130.136 27.555C130.126 27.5738 130.123 27.5954 130.126 27.6164C130.13 27.6374 130.14 27.6566 130.156 27.671L130.476 27.947C130.492 27.9631 130.503 27.983 130.509 28.0047C130.514 28.0265 130.514 28.0494 130.508 28.071C130.449 28.2275 130.401 28.3879 130.364 28.551C130.351 28.5986 130.323 28.6407 130.284 28.671L129.716 29.071C129.697 29.0857 129.681 29.1044 129.67 29.1259C129.659 29.1473 129.653 29.1709 129.652 29.195V29.911C129.65 29.9202 129.65 29.9299 129.654 29.9387C129.657 29.9475 129.664 29.955 129.672 29.9599C129.68 29.9649 129.689 29.9671 129.699 29.9662C129.708 29.9653 129.717 29.9614 129.724 29.955L130.276 29.707C130.285 29.7032 130.295 29.7014 130.304 29.7016C130.314 29.7018 130.323 29.7041 130.332 29.7083C130.341 29.7124 130.348 29.7184 130.355 29.7258C130.361 29.7331 130.365 29.7417 130.368 29.751C130.399 29.8461 130.441 29.9374 130.492 30.023C130.503 30.044 130.509 30.0674 130.509 30.091C130.509 30.1147 130.503 30.138 130.492 30.159L130.124 30.899C130.115 30.9178 130.113 30.9392 130.119 30.9592C130.125 30.9791 130.138 30.9962 130.156 31.007L130.556 31.239C130.575 31.249 130.596 31.2521 130.617 31.2477C130.637 31.2433 130.655 31.2317 130.668 31.215L131.124 30.523C131.139 30.5049 131.157 30.4902 131.178 30.4798C131.198 30.4695 131.221 30.4637 131.244 30.463C131.345 30.4652 131.446 30.4558 131.544 30.435C131.553 30.432 131.563 30.431 131.573 30.4323C131.582 30.4336 131.592 30.4371 131.6 30.4425C131.608 30.4479 131.615 30.4551 131.62 30.4635C131.624 30.4719 131.627 30.4813 131.628 30.491L131.688 31.095C131.688 31.139 131.724 31.155 131.764 31.135L132.384 30.775C132.404 30.762 132.42 30.7449 132.433 30.7249C132.445 30.7049 132.453 30.6824 132.456 30.659L132.52 29.967C132.527 29.9187 132.55 29.8739 132.584 29.839C132.707 29.7255 132.822 29.6039 132.928 29.475C132.944 29.4589 132.964 29.4471 132.985 29.4408C133.007 29.4345 133.03 29.4339 133.052 29.439L133.452 29.579C133.473 29.5852 133.495 29.5847 133.515 29.5775C133.535 29.5703 133.552 29.5568 133.564 29.539L134.02 28.739C134.032 28.7206 134.036 28.6986 134.032 28.6772C134.029 28.6558 134.017 28.6365 134 28.623L133.68 28.347C133.664 28.331 133.653 28.311 133.648 28.289C133.643 28.2671 133.645 28.2442 133.652 28.223C133.711 28.0665 133.759 27.9061 133.796 27.743C133.808 27.6958 133.834 27.6537 133.872 27.623L134.44 27.223C134.463 27.2068 134.481 27.185 134.493 27.1598C134.505 27.1346 134.51 27.1068 134.508 27.079ZM132.08 29.335C131.5 29.667 131.032 29.399 131.032 28.727C131.052 28.3633 131.157 28.0094 131.339 27.6939C131.521 27.3784 131.775 27.1102 132.08 26.911C132.66 26.579 133.128 26.847 133.128 27.519C133.108 27.8827 133.003 28.2367 132.821 28.5522C132.639 28.8677 132.385 29.1358 132.08 29.335Z" fill="#FAFAFA"/>
<path d="M112.54 46.0717C117.504 43.2077 121.524 45.5317 121.524 51.2717C121.524 57.0117 117.504 63.9677 112.54 66.8317C107.576 69.6957 103.556 67.3757 103.556 61.6317C103.556 55.8877 107.6 48.9357 112.54 46.0717Z" fill="#FAFAFA"/>
<path d="M112.48 57.3104C113.328 56.7571 114.034 56.0117 114.54 55.1346C115.046 54.2575 115.338 53.2735 115.392 52.2624C115.392 50.4064 114.088 49.6504 112.48 50.5784C111.631 51.132 110.925 51.878 110.418 52.7558C109.912 53.6335 109.619 54.6184 109.564 55.6304C109.564 57.4864 110.868 58.2424 112.48 57.3104ZM113.436 57.7104L111.78 58.6664C109.136 60.1904 106.98 63.9064 106.98 66.9584V67.7904C107.478 67.9535 108 68.0345 108.524 68.0304C109.942 67.9794 111.322 67.5558 112.524 66.8024C114.827 65.3937 116.777 63.4768 118.224 61.1984V60.4904C118.224 57.4384 116.08 56.1984 113.436 57.7264V57.7104Z" fill="#0D9488"/>
<path opacity="0.45" d="M112.48 57.3104C113.328 56.7571 114.034 56.0117 114.54 55.1346C115.046 54.2575 115.338 53.2735 115.392 52.2624C115.392 50.4064 114.088 49.6504 112.48 50.5784C111.631 51.132 110.925 51.878 110.418 52.7558C109.912 53.6335 109.619 54.6184 109.564 55.6304C109.564 57.4864 110.868 58.2424 112.48 57.3104ZM113.436 57.7104L111.78 58.6664C109.136 60.1904 106.98 63.9064 106.98 66.9584V67.7904C107.478 67.9535 108 68.0345 108.524 68.0304C109.942 67.9794 111.322 67.5558 112.524 66.8024C114.827 65.3937 116.777 63.4768 118.224 61.1984V60.4904C118.224 57.4384 116.08 56.1984 113.436 57.7264V57.7104Z" fill="white"/>
<path d="M104.432 75.3439L120.652 65.9999C121.136 65.7239 121.524 65.9199 121.524 66.4439C121.504 66.7376 121.414 67.0223 121.263 67.2747C121.111 67.527 120.902 67.7399 120.652 67.8959L104.432 77.2399C103.948 77.5199 103.556 77.3199 103.556 76.7999C103.578 76.5055 103.668 76.2202 103.82 75.9673C103.972 75.7143 104.182 75.5008 104.432 75.3439Z" fill="#0D9488"/>
<path opacity="0.3" d="M94.7282 89.283L130.356 68.7109C131.412 68.1029 132.268 68.5349 132.268 69.6789C132.221 70.3212 132.023 70.9434 131.691 71.4951C131.359 72.0469 130.902 72.5127 130.356 72.8549L94.7282 93.4229C93.6722 94.0309 92.8162 93.5989 92.8162 92.4549C92.863 91.8131 93.0605 91.1914 93.3928 90.6403C93.725 90.0891 94.1825 89.6241 94.7282 89.283Z" fill="white"/>
<path opacity="0.3" d="M94.7282 97.5622L130.356 76.9942C131.412 76.3862 132.268 76.8182 132.268 77.9622C132.221 78.604 132.024 79.2257 131.692 79.7768C131.359 80.328 130.902 80.793 130.356 81.1341L94.7282 101.702C93.6722 102.314 92.8162 101.878 92.8162 100.738C92.863 100.096 93.0605 99.4735 93.3927 98.9217C93.7249 98.3699 94.1824 97.9042 94.7282 97.5622Z" fill="white"/>
<path d="M106.324 101.219L118.76 94.0427C119.288 93.7387 119.716 93.9827 119.716 94.5947V98.5947C119.698 98.9264 119.602 99.2492 119.436 99.5369C119.27 99.8246 119.038 100.069 118.76 100.251L106.324 107.427C105.796 107.735 105.368 107.487 105.368 106.875V102.875C105.387 102.543 105.483 102.22 105.649 101.933C105.815 101.645 106.046 101.401 106.324 101.219Z" fill="#0D9488"/>
<path d="M110.456 103.683C110.446 103.692 110.433 103.696 110.42 103.696C110.407 103.696 110.394 103.692 110.384 103.683C110.363 103.664 110.345 103.641 110.332 103.615L109.332 101.879V104.207C109.332 104.243 109.324 104.279 109.308 104.311C109.297 104.34 109.278 104.365 109.252 104.383L109.124 104.455C109.117 104.463 109.107 104.467 109.096 104.467C109.086 104.467 109.076 104.463 109.068 104.455C109.058 104.446 109.05 104.434 109.045 104.421C109.04 104.407 109.038 104.393 109.04 104.379V101.323C109.039 101.287 109.049 101.251 109.068 101.219C109.079 101.19 109.099 101.165 109.124 101.147L109.232 101.083C109.242 101.075 109.255 101.07 109.268 101.07C109.281 101.07 109.294 101.075 109.304 101.083C109.325 101.103 109.342 101.126 109.356 101.151L110.356 102.891V100.559C110.357 100.523 110.365 100.488 110.38 100.455C110.391 100.426 110.411 100.401 110.436 100.383L110.564 100.311C110.573 100.304 110.583 100.301 110.594 100.301C110.605 100.301 110.616 100.304 110.624 100.311C110.633 100.322 110.64 100.334 110.644 100.347C110.648 100.36 110.65 100.374 110.648 100.387V103.447C110.648 103.483 110.639 103.519 110.624 103.551C110.61 103.579 110.589 103.604 110.564 103.623L110.456 103.683Z" fill="white" fill-opacity="0.1"/>
<path d="M112.5 102.075C112.509 102.069 112.519 102.065 112.53 102.065C112.541 102.065 112.552 102.069 112.56 102.075C112.577 102.097 112.586 102.124 112.584 102.151V102.323C112.584 102.359 112.576 102.395 112.56 102.427C112.549 102.458 112.528 102.483 112.5 102.499L111.26 103.215C111.252 103.223 111.241 103.227 111.23 103.227C111.219 103.227 111.208 103.223 111.2 103.215C111.191 103.205 111.184 103.193 111.18 103.18C111.176 103.167 111.175 103.153 111.176 103.139V100.083C111.179 100.054 111.187 100.026 111.2 99.9994C111.211 99.9692 111.232 99.9438 111.26 99.9274L112.46 99.2234C112.469 99.2166 112.479 99.2129 112.49 99.2129C112.501 99.2129 112.512 99.2166 112.52 99.2234C112.529 99.2338 112.536 99.2458 112.54 99.2589C112.544 99.272 112.545 99.2858 112.544 99.2994V99.4714C112.544 99.5061 112.536 99.5403 112.52 99.5714C112.509 99.6016 112.488 99.627 112.46 99.6434L111.452 100.227V101.199L112.392 100.655C112.401 100.649 112.411 100.645 112.422 100.645C112.433 100.645 112.444 100.649 112.452 100.655C112.461 100.666 112.468 100.678 112.472 100.691C112.476 100.704 112.478 100.718 112.476 100.731V100.903C112.475 100.939 112.467 100.975 112.452 101.007C112.439 101.036 112.418 101.061 112.392 101.079L111.452 101.619V102.659L112.5 102.075Z" fill="white" fill-opacity="0.1"/>
<path d="M113.708 100.475L113.128 102.031C113.128 102.055 113.104 102.087 113.088 102.123C113.07 102.161 113.041 102.193 113.004 102.215L112.872 102.291C112.865 102.296 112.857 102.299 112.848 102.299C112.839 102.299 112.831 102.296 112.824 102.291C112.824 102.291 112.804 102.259 112.804 102.227V102.207C112.803 102.195 112.803 102.183 112.804 102.171L113.528 100.219L112.836 99.1506C112.832 99.1348 112.832 99.1184 112.836 99.1026C112.837 99.0735 112.844 99.0449 112.856 99.0186C112.867 98.9959 112.883 98.9766 112.904 98.9626L113.048 98.8786C113.092 98.8546 113.12 98.8546 113.14 98.8786L113.18 98.9266L113.728 99.7666L114.26 98.3066L114.3 98.2106C114.318 98.1665 114.351 98.1299 114.392 98.1066L114.524 98.0306C114.531 98.0259 114.539 98.0234 114.548 98.0234C114.557 98.0234 114.565 98.0259 114.572 98.0306C114.586 98.0472 114.593 98.0687 114.592 98.0906C114.595 98.1104 114.595 98.1307 114.592 98.1506L113.908 100.023L114.632 101.131C114.634 101.14 114.634 101.149 114.632 101.159C114.634 101.165 114.634 101.172 114.632 101.179C114.631 101.208 114.624 101.236 114.612 101.263C114.608 101.275 114.602 101.286 114.594 101.295C114.585 101.305 114.575 101.313 114.564 101.319L114.42 101.403C114.38 101.427 114.348 101.431 114.332 101.403L114.292 101.355L113.708 100.475Z" fill="white" fill-opacity="0.1"/>
<path d="M116.292 96.9983C116.3 96.9918 116.31 96.9883 116.32 96.9883C116.33 96.9883 116.34 96.9918 116.348 96.9983C116.366 97.0197 116.374 97.0469 116.372 97.0743V97.2463C116.372 97.2823 116.364 97.3178 116.348 97.3503C116.337 97.3794 116.318 97.4045 116.292 97.4223L115.716 97.7543V100.514C115.716 100.55 115.708 100.586 115.692 100.618C115.681 100.649 115.66 100.674 115.632 100.69L115.508 100.762C115.5 100.77 115.489 100.774 115.478 100.774C115.467 100.774 115.456 100.77 115.448 100.762C115.439 100.752 115.432 100.74 115.428 100.727C115.424 100.714 115.423 100.7 115.424 100.686V97.9263L114.848 98.2583C114.84 98.2652 114.829 98.2689 114.818 98.2689C114.807 98.2689 114.797 98.2652 114.788 98.2583C114.779 98.248 114.772 98.2359 114.768 98.2228C114.764 98.2098 114.763 98.196 114.764 98.1823V97.9983C114.764 97.9623 114.772 97.9267 114.788 97.8943C114.799 97.8642 114.821 97.8387 114.848 97.8223L116.292 96.9983Z" fill="white" fill-opacity="0.1"/>
<path d="M104.02 85.0792C103.759 85.249 103.542 85.4781 103.386 85.7478C103.23 86.0175 103.141 86.3202 103.124 86.6312C103.124 87.2032 103.524 87.4312 104.02 87.1472C104.281 86.9774 104.499 86.7484 104.654 86.4786C104.81 86.2089 104.9 85.9062 104.916 85.5952C104.916 85.0232 104.516 84.7992 104.02 85.0792Z" fill="#115E59"/>
<path d="M106.86 83.4356C106.601 83.6068 106.384 83.8362 106.229 84.1057C106.073 84.3751 105.983 84.6771 105.964 84.9876C105.964 85.5596 106.364 85.7876 106.86 85.5076C107.12 85.3365 107.336 85.107 107.492 84.8376C107.647 84.5682 107.738 84.2662 107.756 83.9556C107.756 83.3836 107.356 83.1516 106.86 83.4356Z" fill="#115E59"/>
<path d="M109.7 81.7956C109.44 81.9668 109.224 82.1962 109.069 82.4657C108.913 82.7351 108.823 83.0371 108.804 83.3476C108.804 83.9196 109.204 84.1476 109.7 83.8636C109.961 83.6929 110.178 83.4637 110.334 83.1942C110.49 82.9248 110.581 82.6225 110.6 82.3116C110.6 81.7396 110.196 81.5076 109.7 81.7956Z" fill="#115E59"/>
<path d="M112.54 80.1505C112.281 80.3217 112.064 80.5511 111.909 80.8205C111.753 81.0899 111.663 81.3919 111.644 81.7025C111.644 82.2745 112.044 82.5025 112.54 82.2225C112.801 82.0517 113.018 81.8225 113.174 81.5531C113.33 81.2836 113.421 80.9814 113.44 80.6705C113.44 80.0985 113.036 79.8665 112.54 80.1505Z" fill="#115E59"/>
<path d="M115.384 78.5105C115.124 78.6812 114.907 78.9104 114.75 79.1799C114.594 79.4493 114.503 79.7516 114.484 80.0625C114.484 80.6345 114.884 80.8625 115.384 80.5785C115.644 80.4073 115.86 80.1779 116.016 79.9084C116.171 79.639 116.262 79.337 116.28 79.0265C116.28 78.4545 115.876 78.2225 115.384 78.5105Z" fill="#115E59"/>
<path d="M118.224 76.8664C117.964 77.0371 117.747 77.2664 117.59 77.5358C117.434 77.8052 117.343 78.1075 117.324 78.4184C117.324 78.9904 117.724 79.2184 118.224 78.9384C118.485 78.7668 118.701 78.5367 118.857 78.2666C119.012 77.9964 119.102 77.6936 119.12 77.3824C119.12 76.7984 118.716 76.5824 118.224 76.8664Z" fill="#115E59"/>
<path d="M121.064 75.2227C120.804 75.3943 120.587 75.6244 120.432 75.8946C120.276 76.1647 120.186 76.4675 120.168 76.7787C120.168 77.3507 120.568 77.5788 121.064 77.2948C121.324 77.1236 121.54 76.8941 121.696 76.6247C121.851 76.3553 121.942 76.0533 121.96 75.7427C121.96 75.1707 121.556 74.9387 121.064 75.2227Z" fill="#115E59"/>
<path d="M104.02 93.3718C103.759 93.5416 103.542 93.7707 103.386 94.0404C103.23 94.3101 103.141 94.6128 103.124 94.9238C103.124 95.4958 103.524 95.7238 104.02 95.4398C104.281 95.27 104.499 95.0409 104.654 94.7712C104.81 94.5015 104.9 94.1988 104.916 93.8878C104.916 93.3158 104.516 93.0838 104.02 93.3718Z" fill="#115E59"/>
<path d="M106.86 91.7268C106.601 91.8979 106.384 92.1274 106.229 92.3968C106.073 92.6662 105.983 92.9682 105.964 93.2787C105.964 93.8507 106.364 94.0787 106.86 93.7987C107.121 93.6272 107.337 93.3971 107.493 93.1269C107.648 92.8568 107.739 92.554 107.756 92.2427C107.756 91.6747 107.356 91.4428 106.86 91.7268Z" fill="#115E59"/>
<path d="M109.7 90.0821C109.439 90.2533 109.222 90.4831 109.065 90.7533C108.909 91.0235 108.818 91.3265 108.8 91.6381C108.8 92.2101 109.2 92.4381 109.696 92.1541C109.957 91.9834 110.174 91.7541 110.33 91.4847C110.486 91.2153 110.577 90.913 110.596 90.6021C110.6 90.0301 110.196 89.7981 109.7 90.0821Z" fill="#115E59"/>
<path d="M112.54 88.4419C112.28 88.6131 112.064 88.8425 111.908 89.112C111.753 89.3814 111.662 89.6834 111.644 89.9939C111.644 90.5659 112.044 90.7939 112.54 90.5139C112.801 90.3428 113.018 90.1129 113.175 89.8427C113.331 89.5725 113.422 89.2695 113.44 88.9579C113.44 88.3979 113.036 88.1539 112.54 88.4419Z" fill="#115E59"/>
<path d="M115.384 86.7989C115.123 86.9701 114.906 87.1999 114.749 87.4701C114.593 87.7403 114.502 88.0433 114.484 88.3549C114.484 88.9269 114.884 89.1549 115.384 88.8709C115.644 88.6997 115.86 88.4703 116.016 88.2009C116.171 87.9315 116.262 87.6295 116.28 87.3189C116.28 86.7469 115.876 86.5149 115.384 86.7989Z" fill="#115E59"/>
<path d="M118.224 85.1589C117.964 85.3297 117.747 85.5589 117.59 85.8283C117.434 86.0978 117.343 86.4 117.324 86.7109C117.324 87.2829 117.724 87.5109 118.224 87.2309C118.485 87.0593 118.701 86.8293 118.857 86.5591C119.012 86.289 119.102 85.9862 119.12 85.6749C119.12 85.1029 118.716 84.8709 118.224 85.1589Z" fill="#115E59"/>
<path d="M121.064 83.5157C120.804 83.6873 120.587 83.9174 120.432 84.1875C120.276 84.4577 120.186 84.7605 120.168 85.0717C120.168 85.6397 120.568 85.8717 121.064 85.5877C121.324 85.4165 121.54 85.1871 121.696 84.9177C121.851 84.6483 121.942 84.3463 121.96 84.0357C121.96 83.4637 121.556 83.2317 121.064 83.5157Z" fill="#115E59"/>
<path d="M95.176 20.8681L29.2 58.9201C28.8411 59.1542 28.5426 59.4696 28.3285 59.8407C28.1144 60.2119 27.9909 60.6283 27.968 61.0561V167.704C27.9899 168.132 28.1131 168.548 28.3273 168.918C28.5414 169.289 28.8406 169.604 29.2 169.836L29.452 169.98C29.8346 170.173 30.2573 170.274 30.686 170.274C31.1147 170.274 31.5374 170.173 31.92 169.98L97.92 131.88C98.2787 131.645 98.5771 131.329 98.7911 130.957C99.0052 130.585 99.1288 130.168 99.152 129.74V23.1401C99.1293 22.7123 99.0054 22.296 98.7906 21.9254C98.5757 21.5547 98.276 21.2404 97.916 21.0081L97.668 20.8641C97.2815 20.669 96.8545 20.5677 96.4215 20.5684C95.9886 20.5691 95.5619 20.6717 95.176 20.8681Z" fill="#0D9488"/>
<path d="M99.132 129.824C99.132 130.908 98.372 131.6 97.428 132.144L32.4 169.696C31.464 170.236 30.696 169.8 30.696 168.708V63.1524C30.6961 62.5561 30.8528 61.9703 31.1505 61.4537C31.4481 60.937 31.8763 60.5076 32.392 60.2084L97.428 22.6444C97.6007 22.5447 97.7967 22.4922 97.9961 22.4922C98.1955 22.4922 98.3914 22.5447 98.5641 22.6444C98.7368 22.7442 98.8802 22.8876 98.9799 23.0603C99.0796 23.233 99.1321 23.429 99.132 23.6284V129.824Z" fill="#0D9488"/>
<path opacity="0.25" d="M99.132 129.824C99.132 130.908 98.372 131.6 97.428 132.144L32.4 169.696C31.464 170.236 30.696 169.8 30.696 168.708V63.1524C30.6961 62.5561 30.8528 61.9703 31.1505 61.4537C31.4481 60.937 31.8763 60.5076 32.392 60.2084L97.428 22.6444C97.6007 22.5447 97.7967 22.4922 97.9961 22.4922C98.1955 22.4922 98.3914 22.5447 98.5641 22.6444C98.7368 22.7442 98.8802 22.8876 98.9799 23.0603C99.0796 23.233 99.1321 23.429 99.132 23.6284V129.824Z" fill="white"/>
<path d="M99.136 23.1408V23.6288C99.1356 23.4287 99.0825 23.2322 98.9821 23.0591C98.8818 22.8859 98.7376 22.7423 98.564 22.6426C98.3905 22.5428 98.1938 22.4905 97.9937 22.4909C97.7936 22.4913 97.5971 22.5444 97.424 22.6448L32.3759 60.2128C31.8591 60.5077 31.4308 60.9359 31.1359 61.4528C31.1344 61.4648 31.1344 61.4769 31.1359 61.4888L28.3359 59.8648C28.5373 59.4817 28.8351 59.1577 29.1999 58.9248L95.2 20.8688C95.5828 20.6764 96.0054 20.5762 96.434 20.5762C96.8625 20.5762 97.2851 20.6764 97.668 20.8688L97.92 21.0128C98.2755 21.2472 98.5708 21.5619 98.7821 21.9316C98.9933 22.3013 99.1146 22.7156 99.136 23.1408Z" fill="#0D9488"/>
<path opacity="0.55" d="M99.136 23.1408V23.6288C99.1356 23.4287 99.0825 23.2322 98.9821 23.0591C98.8818 22.8859 98.7376 22.7423 98.564 22.6426C98.3905 22.5428 98.1938 22.4905 97.9937 22.4909C97.7936 22.4913 97.5971 22.5444 97.424 22.6448L32.3759 60.2128C31.8591 60.5077 31.4308 60.9359 31.1359 61.4528C31.1344 61.4648 31.1344 61.4769 31.1359 61.4888L28.3359 59.8648C28.5373 59.4817 28.8351 59.1577 29.1999 58.9248L95.2 20.8688C95.5828 20.6764 96.0054 20.5762 96.434 20.5762C96.8625 20.5762 97.2851 20.6764 97.668 20.8688L97.92 21.0128C98.2755 21.2472 98.5708 21.5619 98.7821 21.9316C98.9933 22.3013 99.1146 22.7156 99.136 23.1408Z" fill="white"/>
<path opacity="0.25" d="M96.776 127.2C96.776 128.32 95.976 129.032 95.02 129.6L33.5441 165.076C32.5761 165.636 31.7881 165.184 31.7881 164.064V70.6318C31.7869 70.0173 31.9479 69.4133 32.2548 68.881C32.5618 68.3486 33.0037 67.9067 33.5361 67.5998L95.016 32.0918C95.1943 31.9884 95.3967 31.9338 95.6029 31.9336C95.809 31.9334 96.0115 31.9875 96.19 32.0906C96.3685 32.1936 96.5167 32.3419 96.6196 32.5205C96.7225 32.6991 96.7764 32.9017 96.776 33.1078V127.2Z" fill="#333333"/>
<path d="M98.0279 127.825C98.0279 128.941 97.2279 129.653 96.2719 130.225L34.7999 165.705C33.8319 166.265 33.0439 165.813 33.0439 164.689V71.2607C33.0444 70.6455 33.2069 70.0414 33.5152 69.5091C33.8235 68.9768 34.2666 68.5352 34.7999 68.2287L96.2679 32.7207C96.4462 32.6173 96.6486 32.5627 96.8547 32.5625C97.0608 32.5623 97.2634 32.6164 97.4419 32.7195C97.6204 32.8225 97.7685 32.9708 97.8714 33.1494C97.9743 33.328 98.0283 33.5306 98.0279 33.7367V127.825Z" fill="#FAFAFA"/>
<path d="M96.268 32.7199L34.8 68.2279C34.2682 68.5355 33.8267 68.9775 33.5198 69.5098C33.213 70.042 33.0516 70.6456 33.052 71.2599V83.0759L98.04 45.5559V33.7359C98.0416 33.5281 97.9879 33.3235 97.8844 33.1432C97.7809 32.9629 97.6313 32.8134 97.451 32.71C97.2706 32.6065 97.066 32.553 96.8581 32.5547C96.6502 32.5565 96.4466 32.6135 96.268 32.7199Z" fill="#0D9488"/>
<path opacity="0.3" d="M96.268 32.7199L34.8 68.2279C34.2682 68.5355 33.8267 68.9775 33.5198 69.5098C33.213 70.042 33.0516 70.6456 33.052 71.2599V83.0759L98.04 45.5559V33.7359C98.0416 33.5281 97.9879 33.3235 97.8844 33.1432C97.7809 32.9629 97.6313 32.8134 97.451 32.71C97.2706 32.6065 97.066 32.553 96.8581 32.5547C96.6502 32.5565 96.4466 32.6135 96.268 32.7199Z" fill="#333333"/>
<g opacity="0.25">
<path d="M83.3559 36.8008V40.6808C83.321 41.3975 83.1155 42.0955 82.7565 42.7168C82.3975 43.3381 81.8954 43.8647 81.2919 44.2528L71.0999 50.1368C70.5959 50.4288 70.2999 51.0088 70.0039 51.6208C69.7969 52.0844 69.5277 52.5177 69.2039 52.9088C68.4039 53.8048 66.6879 54.7408 65.4679 55.1328C65.0766 55.2601 64.6751 55.3538 64.2679 55.4128L63.7679 55.4808C62.6559 55.6328 61.2679 55.8208 60.4559 56.2808L48.5199 63.2008C48.2067 63.3944 47.848 63.502 47.4799 63.5128C47.2361 63.515 46.9961 63.4529 46.7839 63.3328C46.5286 63.1636 46.3236 62.9286 46.1906 62.6526C46.0575 62.3767 46.0013 62.07 46.0279 61.7648V57.8848C46.0622 57.1675 46.2674 56.4687 46.6264 55.8466C46.9854 55.2246 47.4879 54.6974 48.0919 54.3088L52.0919 51.9968C52.1094 51.9872 52.1283 51.9804 52.1479 51.9768C52.2434 51.9238 52.356 51.9108 52.461 51.9408C52.5661 51.9709 52.6549 52.0413 52.7079 52.1368C52.761 52.2323 52.7739 52.3449 52.7439 52.45C52.7139 52.555 52.6434 52.6438 52.5479 52.6968C52.5374 52.7142 52.5222 52.7281 52.5039 52.7368L48.5039 55.0488C48.0313 55.3637 47.6377 55.7834 47.3539 56.2753C47.0702 56.7673 46.9038 57.3181 46.8679 57.8848V61.7648C46.8248 61.9178 46.8338 62.0809 46.8935 62.2282C46.9532 62.3755 47.0603 62.4988 47.1978 62.5785C47.3353 62.6583 47.4955 62.69 47.653 62.6687C47.8106 62.6474 47.9565 62.5743 48.0679 62.4608L59.9959 55.5728C60.9559 55.0208 62.4359 54.8208 63.6199 54.6648L64.1159 54.5928C64.484 54.5409 64.8467 54.4566 65.1999 54.3408C66.2839 54.0008 67.8879 53.1408 68.5519 52.3728C68.8175 52.0333 69.0405 51.6626 69.2159 51.2688C69.5599 50.5688 69.9199 49.8448 70.6479 49.4248L80.8399 43.5408C81.312 43.2264 81.7053 42.8073 81.989 42.3161C82.2728 41.8249 82.4394 41.2749 82.4759 40.7088V36.8008C82.4954 36.6464 82.4756 36.4895 82.4183 36.3447C82.3609 36.2 82.2679 36.072 82.1479 35.9728C82.0022 35.9175 81.8448 35.9005 81.6906 35.9236C81.5365 35.9468 81.3909 36.0092 81.2679 36.1048L77.7959 38.1048C77.6797 37.8434 77.5334 37.5964 77.3599 37.3688L80.8399 35.3688C81.0814 35.1663 81.3791 35.0425 81.693 35.0141C82.0069 34.9857 82.322 35.054 82.5959 35.2099C82.8698 35.3658 83.0894 35.6018 83.2253 35.8862C83.3612 36.1706 83.4068 36.4898 83.3559 36.8008Z" fill="#333333"/>
</g>
<path d="M75.9198 36.9046C76.0914 36.8241 76.2815 36.7913 76.4701 36.8096C76.6587 36.8279 76.8389 36.8966 76.9918 37.0086C77.4335 37.2954 77.8011 37.6827 78.0646 38.1387C78.328 38.5948 78.4799 39.1066 78.5078 39.6326C78.5275 39.8216 78.4963 40.0125 78.4176 40.1854C78.3388 40.3584 78.2153 40.5072 78.0598 40.6166L53.8798 54.5806L51.7358 50.8686L75.9198 36.9046Z" fill="#37474F"/>
<path d="M52.8 52.7334L78.056 38.1494C77.8027 37.6822 77.4318 37.2892 76.98 37.0094C76.932 36.9814 76.884 36.9654 76.836 36.9414L52 51.3014L52.8 52.7334Z" fill="#455A64"/>
<path d="M52.7999 50.973C51.9639 50.489 51.2839 50.881 51.2839 51.849C51.3131 52.3746 51.4655 52.886 51.7289 53.3419C51.9922 53.7977 52.3591 54.1852 52.7999 54.473C53.6359 54.953 54.3159 54.561 54.3159 53.597C54.2871 53.0713 54.1348 52.5598 53.8714 52.1039C53.608 51.648 53.2409 51.2606 52.7999 50.973Z" fill="#263238"/>
<path d="M83.7879 37.2004V41.0804C83.7529 41.798 83.5469 42.4969 83.1872 43.1189C82.8275 43.7409 82.3245 44.268 81.7199 44.6564L71.5279 50.5204C71.0239 50.8084 70.7279 51.3924 70.4319 52.0044C70.2236 52.4661 69.9545 52.8979 69.6319 53.2884C68.8319 54.1884 67.1119 55.1244 65.8959 55.5124C65.4967 55.6416 65.0872 55.7366 64.6719 55.7964L64.1719 55.8644C63.0599 56.0124 61.6759 56.2004 60.8639 56.6644L48.9359 63.5484C48.6224 63.7414 48.2639 63.849 47.8959 63.8604C47.6521 63.8629 47.4119 63.8008 47.1999 63.6804C46.9445 63.511 46.7392 63.2761 46.6055 63.0003C46.4718 62.7245 46.4146 62.4178 46.4399 62.1124V58.2284C46.4746 57.5112 46.6805 56.8127 47.0402 56.1913C47.4 55.5699 47.9032 55.0436 48.5079 54.6564L52.5079 52.3444C52.5255 52.334 52.5443 52.3259 52.5639 52.3204C52.6573 52.2884 52.759 52.2904 52.851 52.3259C52.9431 52.3614 53.0198 52.4283 53.0675 52.5146C53.1152 52.601 53.131 52.7015 53.1121 52.7983C53.0931 52.8952 53.0407 52.9823 52.9639 53.0444C52.9498 53.0598 52.9336 53.0733 52.9159 53.0844L48.9159 55.3964C48.4426 55.7099 48.0483 56.1287 47.7638 56.62C47.4793 57.1113 47.3123 57.6618 47.2759 58.2284V62.1124C47.2364 62.2646 47.2478 62.4256 47.3084 62.5708C47.369 62.7159 47.4755 62.8372 47.6116 62.9161C47.7476 62.995 47.9058 63.0272 48.0619 63.0078C48.218 62.9883 48.3634 62.9183 48.4759 62.8084L60.4039 55.9204C61.3599 55.3684 62.8399 55.1684 64.0239 55.0084C64.1999 55.0084 64.3679 54.9604 64.5199 54.9404C64.889 54.887 65.253 54.8027 65.6079 54.6884C66.6879 54.3484 68.2959 53.4684 68.9599 52.7164C69.2256 52.3791 69.4474 52.0095 69.6199 51.6164C69.9679 50.9124 70.3279 50.1924 71.0519 49.7724L81.2439 43.8884C81.7175 43.5742 82.112 43.1547 82.3965 42.6627C82.681 42.1707 82.8478 41.6196 82.8839 41.0524V37.2004C82.9235 37.0481 82.912 36.8871 82.8514 36.742C82.7908 36.5968 82.6843 36.4755 82.5483 36.3966C82.4122 36.3177 82.254 36.2855 82.098 36.305C81.9419 36.3244 81.7965 36.3945 81.6839 36.5044L78.2119 38.5044C78.0966 38.2437 77.9502 37.9979 77.7759 37.7724L81.2559 35.7724C81.4972 35.5666 81.7959 35.44 82.1115 35.4095C82.4271 35.379 82.7445 35.4462 83.0207 35.602C83.2969 35.7578 83.5186 35.9946 83.6558 36.2805C83.793 36.5663 83.8391 36.8874 83.7879 37.2004Z" fill="#455A64"/>
<path d="M38.9801 89.8812L62.1161 76.5252C62.6441 76.2212 63.0721 76.4652 63.0721 77.0732V79.0052C63.0539 79.3364 62.9579 79.6586 62.7917 79.9456C62.6256 80.2327 62.3941 80.4765 62.1161 80.6572L38.9801 94.0012C38.4561 94.3052 38.0281 94.0572 38.0281 93.4492V91.5212C38.0479 91.1926 38.1444 90.8731 38.3097 90.5884C38.475 90.3036 38.7045 90.0615 38.9801 89.8812Z" fill="#115E59"/>
<path d="M69.392 72.3246L92.528 58.9686C93.052 58.6646 93.48 58.9086 93.48 59.5166V61.4486C93.4617 61.7787 93.366 62.0999 93.2006 62.3862C93.0352 62.6724 92.8048 62.9158 92.528 63.0966L69.392 76.4566C68.864 76.7606 68.436 76.5126 68.436 75.9046V73.9766C68.4542 73.6455 68.5502 73.3233 68.7164 73.0362C68.8825 72.7492 69.114 72.5053 69.392 72.3246Z" fill="#115E59"/>
<path d="M38.5476 87.5168C38.5477 87.5167 38.5478 87.5167 38.5479 87.5166L38.5476 87.5168Z" stroke="#115E59" stroke-width="2"/>
<path d="M38.9801 114.67L92.5281 83.7538C93.0521 83.4498 93.4801 83.6938 93.4801 84.3018V86.2338C93.4617 86.5639 93.366 86.885 93.2006 87.1713C93.0353 87.4576 92.8049 87.701 92.5281 87.8818L38.9801 118.802C38.4561 119.106 38.0281 118.862 38.0281 118.254V116.322C38.0458 115.991 38.1412 115.669 38.3066 115.382C38.472 115.095 38.7027 114.851 38.9801 114.67Z" fill="#115E59"/>
<path d="M38.9801 127.06L92.5281 96.1436C93.0521 95.8396 93.4801 96.0876 93.4801 96.6956V98.6236C93.462 98.9543 93.3665 99.2761 93.2011 99.5631C93.0357 99.8501 92.8052 100.094 92.5281 100.276L38.9801 131.2C38.4561 131.504 38.0281 131.256 38.0281 130.648V128.72C38.0449 128.387 38.1399 128.064 38.3053 127.776C38.4707 127.487 38.7019 127.242 38.9801 127.06Z" fill="#115E59"/>
<path d="M38.9801 102.273L62.1161 88.917C62.6441 88.613 63.0721 88.861 63.0721 89.469V91.397C63.0539 91.7282 62.9579 92.0504 62.7917 92.3374C62.6256 92.6245 62.3941 92.8683 62.1161 93.049L38.9801 106.401C38.4561 106.705 38.0281 106.457 38.0281 105.849V103.921C38.0467 103.591 38.1426 103.27 38.3079 102.984C38.4733 102.697 38.7035 102.454 38.9801 102.273Z" fill="#115E59"/>
<path d="M38.9801 139.457L62.1161 126.097C62.6441 125.793 63.0721 126.041 63.0721 126.649V128.577C63.0539 128.908 62.9579 129.23 62.7917 129.517C62.6256 129.804 62.3941 130.048 62.1161 130.229L38.9801 143.601C38.4561 143.905 38.0281 143.661 38.0281 143.053V141.121C38.0439 140.788 38.1385 140.463 38.304 140.174C38.4695 139.885 38.7012 139.639 38.9801 139.457Z" fill="#115E59"/>
<path d="M69.392 121.896L92.528 108.54C93.052 108.236 93.48 108.484 93.48 109.092V111.02C93.462 111.351 93.3664 111.673 93.2011 111.96C93.0357 112.247 92.8051 112.491 92.528 112.672L69.392 126.028C68.864 126.332 68.436 126.088 68.436 125.48V123.548C68.4542 123.217 68.5502 122.895 68.7164 122.608C68.8825 122.321 69.114 122.077 69.392 121.896Z" fill="#115E59"/>
<path d="M83.276 130.401C83.1694 130.401 83.0645 130.374 82.972 130.321C82.8576 130.243 82.7661 130.135 82.707 130.01C82.648 129.885 82.6234 129.746 82.636 129.609V127.677C82.6527 127.326 82.7529 126.986 82.9283 126.682C83.1036 126.379 83.3491 126.122 83.644 125.933L92.472 120.837C92.58 120.746 92.7132 120.691 92.8536 120.678C92.994 120.666 93.1348 120.697 93.257 120.767C93.3791 120.838 93.4768 120.944 93.5367 121.071C93.5966 121.199 93.6159 121.342 93.592 121.481V123.413C93.5727 123.762 93.4709 124.103 93.295 124.406C93.1192 124.709 92.8742 124.966 92.58 125.157L83.756 130.253C83.6114 130.342 83.4461 130.393 83.276 130.401ZM83.756 126.121C83.495 126.292 83.2777 126.522 83.1214 126.792C82.9651 127.062 82.8742 127.365 82.856 127.677V129.601C82.8288 129.702 82.8361 129.81 82.8766 129.907C82.9172 130.004 82.9887 130.085 83.0801 130.137C83.1715 130.189 83.2776 130.21 83.3818 130.195C83.486 130.18 83.5824 130.132 83.656 130.057L92.484 124.961C92.7451 124.789 92.9624 124.56 93.1187 124.289C93.275 124.019 93.3658 123.716 93.384 123.405V121.481C93.4099 121.379 93.4016 121.272 93.3606 121.176C93.3195 121.08 93.248 121 93.1569 120.948C93.0659 120.897 92.9605 120.877 92.8569 120.891C92.7534 120.906 92.6575 120.954 92.584 121.029L83.756 126.121Z" fill="#0D9488"/>
<path d="M38.9801 151.845L62.1161 138.489C62.6441 138.185 63.0721 138.433 63.0721 139.041V140.969C63.0539 141.3 62.9579 141.623 62.7917 141.91C62.6256 142.197 62.3941 142.441 62.1161 142.621L38.9801 155.977C38.4561 156.281 38.0281 156.033 38.0281 155.425V153.497C38.0461 153.167 38.1417 152.845 38.307 152.558C38.4724 152.271 38.703 152.027 38.9801 151.845Z" fill="#115E59"/>
<path d="M60.6079 91.3972L61.9559 90.6172L61.2879 92.3132L60.6079 91.3972Z" fill="#455A64"/>
<path d="M69.392 84.7161L79.168 79.0721C79.696 78.7681 80.124 79.0121 80.124 79.6201V81.5521C80.1059 81.8827 80.0098 82.2044 79.8437 82.4908C79.6775 82.7772 79.446 83.0202 79.168 83.2001L69.392 88.8481C68.864 89.1521 68.436 88.9041 68.436 88.2961V86.3681C68.4542 86.037 68.5502 85.7148 68.7164 85.4277C68.8825 85.1407 69.114 84.8969 69.392 84.7161Z" fill="#115E59"/>
<path d="M82.7481 77.0045L92.5281 71.3605C93.0521 71.0565 93.4801 71.3045 93.4801 71.9085V73.8405C93.4621 74.1712 93.3665 74.493 93.2012 74.78C93.0358 75.067 92.8052 75.311 92.5281 75.4925L82.7481 81.1365C82.2201 81.4405 81.7961 81.1965 81.7961 80.5885V78.6565C81.8139 78.3257 81.9093 78.0037 82.0747 77.7167C82.2401 77.4297 82.4708 77.1856 82.7481 77.0045Z" fill="#115E59"/>
<path d="M69.2144 69.5168C69.2145 69.5167 69.2146 69.5167 69.2147 69.5166L69.2144 69.5168Z" stroke="#115E59" stroke-width="2"/>
<path d="M38.5476 100.183C38.5477 100.183 38.5478 100.183 38.5479 100.183L38.5476 100.183Z" stroke="#115E59" stroke-width="2"/>
<path d="M38.5476 112.851C38.5477 112.851 38.5478 112.851 38.5479 112.851L38.5476 112.851Z" stroke="#115E59" stroke-width="2"/>
<path d="M38.5476 124.851C38.5477 124.851 38.5478 124.851 38.5479 124.851L38.5476 124.851Z" stroke="#115E59" stroke-width="2"/>
<path d="M38.5476 137.517C38.5477 137.517 38.5478 137.517 38.5479 137.517L38.5476 137.517Z" stroke="#115E59" stroke-width="2"/>
<path d="M69.2144 120.183C69.2145 120.183 69.2146 120.183 69.2147 120.183L69.2144 120.183Z" stroke="#115E59" stroke-width="2"/>
<path d="M38.5476 150.183C38.5477 150.183 38.5478 150.183 38.5479 150.183L38.5476 150.183Z" stroke="#115E59" stroke-width="2"/>
<path d="M73.6667 80.0761L69 82.6427V82.592L73.6667 80.0253V80.0761Z" stroke="#115E59" stroke-width="2"/>
<path d="M89.0002 71.4237L82.3335 75.2699V75.2456L89.0002 71.3994V71.4237Z" stroke="#115E59" stroke-width="2"/>
<path d="M78.4 172.344C78.44 173.544 78.7 176.64 78.092 178.764C77.412 181.164 77.872 184.28 82.304 185.564C87.2 186.996 90.104 184.624 92.544 183.924C95.068 183.2 94.48 181.124 92.492 181.392C90.092 181.704 86.296 184.388 82.844 183.208C79.6 182.096 80.26 179.748 80.62 178.432C80.8726 177.506 80.966 176.545 80.896 175.588L78.4 172.344Z" fill="#37474F"/>
<path d="M99.868 159.633C98.996 160.057 99.62 160.961 99.956 162.109C100.424 163.709 100.688 166.077 98.468 167.465C96.248 168.853 94.636 168.533 92.988 168.369C91.34 168.205 90.988 168.873 90.68 169.629C90.372 170.385 90.16 171.833 88.252 172.065C86.344 172.297 84.14 169.469 84.14 169.469C84.14 169.469 83.712 164.789 87.432 161.961C91.152 159.133 95.972 156.929 99.868 159.633Z" fill="#263238"/>
<path d="M99.8479 161.768C100.786 162.027 101.635 162.541 102.3 163.252C102.896 163.804 103.1 165.728 102.976 166.296C102.852 166.864 102.332 168.004 100.516 168.324C98.6999 168.644 98.1519 168.024 98.0359 167.668C97.9656 167.465 97.9573 167.247 98.0119 167.04C97.9421 166.958 97.8984 166.857 97.8862 166.75C97.8741 166.643 97.8942 166.535 97.944 166.44C98.092 166.04 99.48 165.776 100.22 164.936C100.308 163.865 100.181 162.788 99.8479 161.768Z" fill="#37474F"/>
<path d="M99.552 150.92C100.077 150.352 100.711 149.897 101.416 149.58C102.4 149.212 102.796 149.18 103.048 149.256C103.532 149.424 102.336 151.344 102.392 152.828L99.552 150.92Z" fill="#37474F"/>
<path d="M102.28 149.804C102.82 149.404 103.108 149.312 103.156 149.404C103.228 149.924 102.356 151.532 102.392 152.812L101.104 151.948C101.028 151.276 101.728 150.204 102.28 149.804Z" fill="#FFA8A7"/>
<path d="M84.8879 177.252C86.0639 177.744 88.0879 178.776 88.8239 179.008C89.5599 179.24 90.7879 179.112 92.0839 179.008C93.3799 178.904 94.2239 178.892 94.8839 178.868C96.1439 178.82 96.3479 177.592 95.0039 177.104C94.1664 176.839 93.2899 176.719 92.4119 176.748L84.8879 177.252Z" fill="#37474F"/>
<path d="M97.1279 150.711C99.2399 150.663 100.728 151.007 101.956 152.311C103.184 153.615 103.016 154.395 102.992 155.051C102.968 155.707 103.32 156.743 103.28 157.451C103.24 158.159 102.232 159.295 101.556 159.531C100.604 159.859 99.6399 159.627 98.7559 159.291C97.8719 158.955 96.5559 159.079 95.9559 159.995C95.3559 160.911 94.8599 163.135 95.6719 164.535C96.5879 166.115 97.7999 166.935 100.02 167.735C102.24 168.535 104.764 169.735 105.62 170.535C106.476 171.335 106.676 171.927 106.34 172.343C106.34 172.343 106.34 173.119 105.416 172.923C105.337 173.078 105.209 173.203 105.052 173.279C104.896 173.355 104.719 173.377 104.548 173.343C103.864 173.151 103.408 172.479 102.792 171.979C102.068 171.409 101.197 171.058 100.28 170.967C99.2719 170.859 95.0799 170.143 93.2879 168.503C91.4959 166.863 90.9119 165.511 89.5279 165.023C88.1439 164.535 86.3279 165.895 85.8639 166.623C85.3999 167.351 85.1679 168.931 85.4639 169.607C86.6011 169.855 87.6778 170.325 88.6319 170.991C90.2319 172.099 90.5959 173.559 91.4999 173.895C92.4039 174.231 93.1639 173.747 95.3159 174.091C97.4679 174.435 98.0079 174.987 98.2679 175.475C98.5279 175.963 98.2119 176.623 97.2119 176.587C96.2119 176.551 94.5799 176.299 93.6399 176.435C92.6999 176.571 90.9199 177.291 90.1639 177.319C89.2119 177.351 83.2639 178.167 80.3439 175.059C79.1952 173.895 78.3339 172.479 77.8284 170.924C77.3229 169.368 77.1871 167.716 77.4319 166.099C77.7839 163.591 81.1999 159.955 83.8919 158.899C86.5839 157.843 92.1039 156.431 92.9279 155.403C93.7519 154.375 93.5319 153.379 94.3639 152.327C95.0519 151.467 96.3159 150.731 97.1279 150.711Z" fill="#455A64"/>
<path d="M93.4919 150.431C93.7199 150.147 94.7679 149.847 97.4919 151.291L97.4159 152.643L93.4919 150.431Z" fill="#37474F"/>
<path d="M97.4199 152.645C97.4199 152.645 94.7839 150.285 93.7239 150.333C92.6639 150.381 94.1759 153.969 94.1759 153.969C94.4029 153.516 94.7765 153.154 95.2359 152.941C95.9999 152.597 97.4199 152.645 97.4199 152.645Z" fill="#FFA8A7"/>
<path d="M101.744 156.969C102.616 156.873 102.516 157.153 102.4 157.369C102.258 157.603 102.039 157.779 101.78 157.869C101.411 157.866 101.056 157.723 100.788 157.469C100.632 157.257 101.004 157.053 101.744 156.969Z" fill="#F28F8F"/>
<path d="M99.4919 155.751C99.4919 155.719 99.2879 155.083 98.7839 155.039C98.6368 155.028 98.4894 155.059 98.3601 155.131C98.2307 155.202 98.125 155.309 98.0559 155.439C98.0864 155.584 98.1563 155.718 98.258 155.825C98.3597 155.932 98.4891 156.009 98.6319 156.047C98.7885 156.087 98.9532 156.08 99.1059 156.027C99.2586 155.975 99.3928 155.879 99.4919 155.751Z" fill="#263238"/>
<path d="M101.812 155.6C101.782 155.463 101.795 155.32 101.848 155.189C101.902 155.059 101.994 154.949 102.112 154.872C102.188 154.823 102.278 154.8 102.368 154.808C102.447 154.812 102.523 154.835 102.591 154.876C102.658 154.917 102.714 154.974 102.754 155.042C102.794 155.11 102.816 155.186 102.818 155.265C102.821 155.344 102.803 155.422 102.768 155.492C102.725 155.572 102.662 155.638 102.584 155.684C102.466 155.763 102.324 155.797 102.183 155.782C102.042 155.766 101.911 155.702 101.812 155.6Z" fill="#263238"/>
<path d="M97.548 157.469H97.576C98.3423 157.166 99.1895 157.135 99.976 157.381C99.9874 157.388 100 157.393 100.013 157.394C100.027 157.396 100.04 157.395 100.053 157.39C100.066 157.386 100.078 157.379 100.087 157.37C100.097 157.361 100.105 157.35 100.11 157.337C100.115 157.325 100.117 157.312 100.117 157.298C100.116 157.285 100.112 157.272 100.106 157.26C100.1 157.248 100.091 157.238 100.08 157.229C100.069 157.221 100.057 157.216 100.044 157.213C99.2179 156.949 98.3257 156.98 97.52 157.301C97.4987 157.311 97.4816 157.328 97.472 157.349C97.4624 157.37 97.461 157.395 97.468 157.417C97.4753 157.432 97.4866 157.445 97.5007 157.454C97.5148 157.463 97.5312 157.468 97.548 157.469Z" fill="#263238"/>
<path d="M97.7559 158.597C97.7683 158.596 97.7804 158.593 97.7915 158.588C97.8026 158.582 97.8123 158.574 97.8199 158.565C98.6199 157.609 100.072 157.733 100.088 157.737C100.112 157.738 100.135 157.73 100.153 157.714C100.171 157.698 100.182 157.676 100.184 157.653C100.185 157.641 100.184 157.629 100.18 157.618C100.177 157.607 100.171 157.597 100.164 157.588C100.157 157.579 100.147 157.572 100.137 157.566C100.127 157.561 100.116 157.558 100.104 157.557C100.04 157.557 98.5359 157.421 97.6799 158.449C97.6693 158.463 97.6628 158.479 97.6613 158.496C97.6597 158.514 97.6631 158.531 97.671 158.547C97.679 158.562 97.6912 158.575 97.7063 158.584C97.7213 158.593 97.7385 158.597 97.7559 158.597Z" fill="#263238"/>
<path d="M102.8 157.077C102.825 157.077 102.849 157.069 102.868 157.053C103.447 156.581 104.188 156.356 104.932 156.425C104.944 156.426 104.956 156.424 104.967 156.421C104.978 156.417 104.989 156.411 104.998 156.403C105.007 156.395 105.014 156.386 105.019 156.375C105.024 156.364 105.027 156.352 105.028 156.341C105.029 156.329 105.028 156.317 105.024 156.305C105.02 156.294 105.014 156.284 105.006 156.275C104.999 156.266 104.989 156.258 104.978 156.253C104.967 156.248 104.956 156.245 104.944 156.245C104.167 156.175 103.393 156.408 102.784 156.897H102.756L102.728 156.933C102.722 156.952 102.723 156.973 102.729 156.992C102.735 157.011 102.748 157.028 102.764 157.041C102.772 157.056 102.784 157.069 102.8 157.077Z" fill="#263238"/>
<path d="M104.896 157.328C104.916 157.326 104.934 157.318 104.949 157.305C104.963 157.292 104.973 157.275 104.977 157.256C104.981 157.236 104.979 157.216 104.971 157.199C104.963 157.181 104.949 157.166 104.932 157.156C104.6 157.006 104.239 156.934 103.875 156.944C103.511 156.955 103.155 157.048 102.832 157.216C102.811 157.228 102.795 157.248 102.789 157.271C102.782 157.294 102.784 157.319 102.796 157.34C102.802 157.351 102.81 157.36 102.819 157.367C102.829 157.375 102.839 157.38 102.851 157.383C102.863 157.386 102.875 157.387 102.887 157.385C102.898 157.383 102.91 157.379 102.92 157.372C103.219 157.223 103.548 157.141 103.882 157.132C104.217 157.123 104.549 157.187 104.856 157.32C104.868 157.327 104.882 157.33 104.896 157.328Z" fill="#263238"/>
<path d="M171.6 101.819C178.884 106.023 189.432 115.975 189.432 133.927C189.432 151.879 180.932 165.227 164.684 171.199C155.992 174.399 142.064 174.555 133.108 171.359C123.984 166.691 117.836 161.887 114.488 153.171C111.04 143.043 117.2 132.451 125.6 126.399C134 120.347 132.988 113.447 138.92 106.287C142.12 102.435 146.804 99.1386 152.52 98.5026C158.8 97.8026 166.036 98.6146 171.6 101.819Z" fill="#0D9488"/>
<path opacity="0.6" d="M171.6 101.819C178.884 106.023 189.432 115.975 189.432 133.927C189.432 151.879 180.932 165.227 164.684 171.199C155.992 174.399 142.064 174.555 133.108 171.359C123.984 166.691 117.836 161.887 114.488 153.171C111.04 143.043 117.2 132.451 125.6 126.399C134 120.347 132.988 113.447 138.92 106.287C142.12 102.435 146.804 99.1386 152.52 98.5026C158.8 97.8026 166.036 98.6146 171.6 101.819Z" fill="white"/>
<path opacity="0.3" d="M167.956 142.242C167.956 142.242 169.556 140.382 170.736 136.438C172.692 129.87 172.736 117.678 170.66 111.498C167.656 102.542 155.092 102.118 155.092 102.118C155.092 102.118 146.536 101.194 141.844 113.378C137.152 125.562 136.104 128.838 130.7 131.83C128.468 133.062 125.824 133.606 123.756 135.086C122.604 135.895 121.64 136.942 120.93 138.157C120.219 139.373 119.779 140.726 119.638 142.127C119.498 143.527 119.661 144.942 120.116 146.274C120.571 147.606 121.308 148.824 122.276 149.846C123.768 151.422 125.844 152.598 126.604 154.646C127.148 156.114 126.888 157.746 126.624 159.29C126.248 161.466 125.871 163.642 125.492 165.818C125.44 166.134 125.384 166.454 125.344 166.778C127.821 168.487 130.415 170.021 133.108 171.366C134.843 171.972 136.621 172.444 138.428 172.778C138.732 170.442 139.144 168.118 139.66 165.822C139.848 165.022 140.16 164.054 140.96 163.822C141.876 163.534 142.764 164.37 143.208 165.222C143.816 166.386 144.608 167.266 146.008 167.498C147.856 167.802 149.284 166.578 150.328 165.194C152.008 162.97 151.38 159.91 150.632 157.454C150.292 156.342 150.06 155.142 150.364 154.022C151.008 151.666 154.792 150.774 156.744 149.898C159.58 148.626 162.42 147.346 165.308 146.19C173.864 142.758 179.076 145.23 179.076 145.23C179.076 145.23 174.136 141.026 167.956 142.242Z" fill="#0D9488"/>
<path opacity="0.3" d="M137.008 172.467C147.408 173.667 158.292 171.123 166.832 165.315C179.904 156.419 185.564 142.319 182.764 125.611C180.292 110.855 172.916 102.731 165.508 99.3672C167.153 99.7971 168.751 100.388 170.28 101.131C176.28 105.507 181.612 113.283 183.652 125.463C186.512 142.539 180.72 156.955 167.336 166.059C160.706 170.493 153.017 173.083 145.056 173.563C142.348 173.416 139.656 173.049 137.008 172.467Z" fill="#0D9488"/>
<path d="M142.876 150.903C143.948 151.407 144.944 150.415 146.076 150.959C146.867 151.33 147.479 151.998 147.78 152.819C147.898 153.245 148.083 153.65 148.328 154.019C148.68 154.419 149.04 154.819 149.388 155.255C149.955 155.903 150.566 156.513 151.216 157.079C152.78 158.495 153.296 160.775 153.184 162.819C153.128 163.891 152.664 164.231 152.208 165.199C151.896 165.859 151.284 166.663 150.484 166.671C149.684 166.679 149.028 166.063 148.58 165.471C148.032 164.743 148.112 164.375 147.76 163.555C147.408 162.735 146.892 161.555 146.16 161.075C145.549 160.643 144.961 160.178 144.4 159.683C143.333 158.816 142.286 157.935 141.26 157.039L140.948 156.767C139.924 155.967 135.452 153.871 135.452 153.871L138.4 146.799L142.876 150.903Z" fill="#C8856A"/>
<path d="M146.4 150.729C146.908 150.639 147.432 150.731 147.88 150.989C148.42 151.704 148.811 152.52 149.032 153.389C149.364 154.589 149.52 155.073 150.292 155.633C151.352 156.302 152.247 157.203 152.908 158.269C153.433 159.092 153.769 160.02 153.893 160.988C154.017 161.957 153.925 162.94 153.624 163.869C152.92 166.249 152.14 166.789 151.528 167.069C150.986 167.242 150.412 167.294 149.848 167.221L146.4 150.729Z" fill="#263238"/>
<path d="M142.444 150.511L142.876 150.911C143.129 151.101 143.367 151.311 143.588 151.539C144.476 152.523 144.336 154.707 144.276 155.295C144.085 155.264 143.89 155.275 143.704 155.328C143.519 155.38 143.346 155.473 143.2 155.599C142.496 156.095 141.356 157.063 141.452 157.459C141.548 157.855 144.16 159.323 145.484 160.847C146.808 162.371 146.988 163.211 147.44 164.763C147.76 165.871 148.728 167.707 150.332 167.131C151.172 166.839 153.192 165.131 153.156 161.491C153.128 158.267 150.84 156.815 149.652 155.943C148.464 155.071 148.308 154.147 147.652 152.507C147.364 151.791 147.192 151.219 146.388 150.739C145.328 150.435 144.268 150.715 143.488 150.631C142.86 150.551 142.628 150.179 142.444 150.511Z" fill="#37474F"/>
<path d="M144.276 155.287C144.233 155.455 144.252 155.632 144.328 155.787C144.421 155.93 144.539 156.056 144.676 156.159C144.932 156.371 145.176 156.579 145.424 156.795C145.924 157.219 146.412 157.651 146.884 158.099C147.356 158.545 147.803 159.016 148.224 159.511C148.644 160.01 149.009 160.553 149.312 161.131C149.112 160.498 148.806 159.902 148.408 159.371C148.018 158.832 147.579 158.332 147.096 157.875C146.618 157.419 146.113 156.991 145.584 156.595C145.324 156.399 145.048 156.195 144.784 156.027C144.647 155.948 144.522 155.849 144.412 155.735C144.32 155.604 144.273 155.447 144.276 155.287Z" fill="#263238"/>
<path d="M149.344 160.492C148.508 160.68 146.692 161.844 146.72 162.652L146.82 162.864C146.623 162.722 146.482 162.515 146.42 162.28C146.292 161.856 147.22 160.636 149.064 160.072C149.34 160.108 149.6 160.4 149.344 160.492Z" fill="#FAFAFA"/>
<path d="M148.304 159.163C147.46 159.303 145.764 160.327 145.744 161.131L145.86 161.279C145.753 161.242 145.659 161.176 145.588 161.088C145.518 161 145.473 160.895 145.46 160.783C145.36 160.355 146.196 159.183 148.06 158.723C148.32 158.799 148.548 159.099 148.304 159.163Z" fill="#FAFAFA"/>
<path d="M147.124 157.908C146.3 158.116 144.624 159.216 144.68 160.028L144.852 160.18C144.748 160.151 144.652 160.1 144.569 160.031C144.487 159.962 144.419 159.877 144.372 159.78C144.192 159.36 145.044 158.096 146.844 157.484C147.108 157.516 147.36 157.824 147.124 157.908Z" fill="#FAFAFA"/>
<path d="M146.06 156.879C145.26 157.087 143.44 158.247 143.5 159.055L143.676 159.207C143.458 159.136 143.276 158.984 143.168 158.783C142.992 158.359 143.968 157.071 145.776 156.459C146.04 156.491 146.296 156.799 146.06 156.879Z" fill="#FAFAFA"/>
<path d="M144.524 127.327C144.416 127.616 144.241 127.875 144.013 128.084C143.786 128.292 143.513 128.444 143.216 128.527C140.512 129.187 133.492 130.899 129.516 132.359C123.608 134.531 122.044 135.363 120.716 137.739C120.26 138.548 119.991 139.449 119.931 140.376C119.871 141.302 120.02 142.23 120.368 143.091C120.852 144.407 122.716 146.875 126.22 148.931C131.748 152.167 135.052 153.987 138.444 155.595C138.444 155.595 141.456 152.371 141.78 149.595L136.856 145.107L148.484 139.627L163.36 126.111L144.524 127.327Z" fill="#455A64"/>
<path d="M136.648 144.32C135.115 145.375 134.054 146.984 133.688 148.808C133.488 149.744 133.204 151.424 132.98 152.808C134.98 153.904 136.704 154.788 138.444 155.608C138.444 155.608 141.456 152.384 141.78 149.608L136.856 145.12L137.532 144.8L136.648 144.32Z" fill="#37474F"/>
<path d="M148.484 139.622L145.284 129.73L144.084 131.946C144.328 134.538 144.72 135.546 145.244 136.766C145.244 136.766 139.48 141.122 138.844 141.518C136.444 143.01 136.112 142.806 134.756 141.83C134.048 141.31 133.225 140.968 132.357 140.833C131.488 140.698 130.601 140.774 129.768 141.054C133.128 140.814 133.952 142.206 136.872 145.102L148.5 139.622H148.484Z" fill="#37474F"/>
<path d="M138.188 175.54C138.428 176.588 139.2 178.052 138.888 179.396C138.784 179.86 138.588 180.298 138.314 180.686C138.039 181.074 137.691 181.404 137.288 181.656C136.861 181.885 136.471 182.178 136.132 182.524C135.784 182.996 135.432 183.476 135.068 183.948C134.488 184.704 134.02 185.084 133.548 185.912C132.408 187.912 130.1 189.004 127.896 189.372C126.803 189.581 125.679 189.567 124.592 189.332C123.812 189.156 122.808 188.692 122.612 187.84C122.416 186.988 122.916 186.144 123.444 185.528C124.088 184.768 125.044 184.328 125.824 183.76C126.688 183.108 127.451 182.332 128.088 181.456C128.764 180.504 130.804 178.488 131.508 175C131.828 173.4 132.736 166.5 132.736 166.5L140.812 166.952C140.812 166.952 137.944 174.492 138.188 175.54Z" fill="#C8856A"/>
<path d="M139.2 179.672C139.413 180.194 139.439 180.773 139.272 181.312C138.633 182.059 137.851 182.669 136.972 183.108C135.772 183.752 135.292 184.032 134.876 184.988C134.46 185.944 134.196 186.944 132.876 188.188C131.556 189.432 129.396 190.284 126.264 190.188C123.556 190.108 122.664 189.108 122.436 188.836C122.12 188.373 121.927 187.838 121.876 187.28L139.2 179.672Z" fill="#263238"/>
<path d="M138.24 174.828C138.19 175.122 138.156 175.419 138.136 175.716C138.093 176.121 137.919 176.5 137.64 176.796C136.748 177.772 135.096 178.132 134.44 178.208C134.295 177.801 133.996 177.466 133.608 177.276C132.372 176.572 130.956 176.248 130.556 176.444C130.156 176.64 129.508 178.916 128.2 180.692C126.892 182.468 125.66 183.22 123.956 184.348C122.904 185.044 121.12 186.212 122.112 187.788C122.62 188.616 125.252 189.788 129.12 188.896C132.552 188.096 133.776 185.868 134.424 184.392C135.072 182.916 136.024 182.532 137.624 181.44C138.32 180.96 138.888 180.64 139.224 179.672C139.296 178.472 138.744 176.984 138.648 176.132C138.556 175.44 138.636 174.944 138.24 174.828Z" fill="#37474F"/>
<path d="M134.452 178.207C134.264 178.214 134.083 178.279 133.933 178.393C133.783 178.506 133.673 178.664 133.616 178.843C133.409 179.264 133.175 179.672 132.916 180.063C131.757 181.824 130.373 183.425 128.8 184.827C130.688 183.719 131.936 182.075 133.064 180.267C133.338 179.836 133.578 179.384 133.78 178.915C133.809 178.744 133.889 178.585 134.009 178.459C134.128 178.333 134.282 178.246 134.452 178.207Z" fill="#263238"/>
<path d="M129.548 184.483C128.784 183.163 127.076 182.551 126.224 182.771L126.024 182.927C126.13 182.687 126.317 182.492 126.552 182.375C126.976 182.139 128.9 182.271 129.936 184.095C129.96 184.399 129.692 184.723 129.548 184.483Z" fill="#FAFAFA"/>
<path d="M131.168 183.2C130.516 181.932 128.508 181.24 127.644 181.408L127.496 181.576C127.515 181.451 127.567 181.334 127.647 181.237C127.726 181.139 127.83 181.064 127.948 181.02C128.384 180.808 130.728 181.196 131.576 182.836C131.6 183.108 131.292 183.432 131.168 183.2Z" fill="#FAFAFA"/>
<path d="M132.352 181.667C131.884 180.587 129.552 179.667 128.716 179.911L128.58 180.143C128.591 180.023 128.625 179.906 128.682 179.799C128.738 179.691 128.815 179.597 128.908 179.519C129.308 179.231 131.82 179.779 132.736 181.271C132.764 181.559 132.5 181.899 132.352 181.667Z" fill="#FAFAFA"/>
<path d="M133.136 180.279C132.736 179.079 130.336 178.327 129.472 178.579L129.3 178.875C129.302 178.759 129.329 178.645 129.379 178.541C129.43 178.437 129.502 178.345 129.592 178.271C129.992 177.983 132.436 178.099 133.516 179.871C133.544 180.163 133.284 180.511 133.136 180.279Z" fill="#FAFAFA"/>
<path d="M143.62 129.011L145.44 127.199L167.4 130.067C167.436 132.211 166.568 136.723 165.708 139.015C164.908 141.115 163.92 143.359 158.94 146.019C153.96 148.679 148 151.379 146.8 152.063C145.06 153.043 144.4 153.483 144.272 156.583C144.168 159.183 142.6 163.859 141.588 166.655L139.324 172.931C138.428 174.107 133.088 173.895 131.724 172.203C131.724 172.203 133.684 153.591 134.32 150.319C134.68 148.491 135.028 146.847 137.22 144.783C139.096 143.011 146.376 136.803 146.376 136.803C144.706 134.536 143.747 131.824 143.62 129.011Z" fill="#455A64"/>
<path d="M163.284 131.859C163.52 136.419 163.684 139.167 157.44 142.347C155.564 143.303 153.616 144.215 151.732 145.095C146.132 147.707 142.336 150.543 142.044 152.619C141.928 153.419 141.864 154.355 141.788 155.447C141.55 158.601 141.006 161.724 140.164 164.771C139.328 167.871 138.628 170.099 138.016 172.175C138.212 172.155 138.416 172.127 138.576 172.095C139.188 170.019 139.852 167.903 140.66 164.895C141.511 161.815 142.061 158.659 142.3 155.471C142.376 154.387 142.44 153.471 142.552 152.671C142.808 150.871 146.952 147.871 151.952 145.539C153.84 144.659 155.792 143.747 157.672 142.783C164.192 139.455 164.036 136.415 163.8 131.811C163.776 131.375 163.756 130.923 163.736 130.455L163.216 130.355C163.236 130.887 163.26 131.383 163.284 131.859Z" fill="#37474F"/>
<path d="M159.408 141.725C159.328 141.669 157.496 140.293 158.344 136.973C159.272 133.353 159.18 131.657 158.948 129.189L159.46 129.141C159.8 131.808 159.59 134.517 158.844 137.101C158.08 140.085 159.692 141.297 159.708 141.309L159.408 141.725Z" fill="#37474F"/>
<path d="M131.784 170.119C132.54 171.391 137.236 172.655 139.868 171.515L139.088 173.811C137.088 175.011 133.36 174.611 131.56 172.723L131.784 170.119Z" fill="#37474F"/>
<path d="M153.508 102.904C152.052 102.751 150.581 102.963 149.228 103.522C147.875 104.081 146.683 104.968 145.76 106.104C143.712 108.504 140.56 111.932 137.896 115.376L128.864 113.004L127.6 117.888C127.6 117.888 135.384 121 138.124 121.888C140.18 122.568 141.26 121.808 142.948 120.412C145.16 118.592 149.7 114.16 149.7 114.16L153.508 102.904Z" fill="#C8856A"/>
<path d="M153.388 102.8C151.26 102.576 149.716 102.948 148.328 103.812C146.94 104.676 146.144 105.368 143.252 108.824L141.56 110.7C141.56 110.7 142.596 113.448 144.36 115.024C146.124 116.6 147.248 116.976 147.248 116.976L151.552 112.976L153.388 102.8Z" fill="#0D9488"/>
<path d="M158.452 103.496C161.604 104.024 163.084 104.484 166.892 106.028C167.692 106.948 168.492 110.656 168.26 114.484C167.912 120.276 168.66 122.828 167.796 129.84C167.537 132.3 167.104 134.738 166.5 137.136C159.36 138.568 143.632 133.44 143.324 128.472C144.476 127.048 145.124 123.008 146.372 112.552C147.108 106.396 150.968 102.62 153.388 102.78C154.584 102.868 156.428 103.156 158.452 103.496Z" fill="#263238"/>
<path d="M150.912 91.1476C150.334 90.6955 149.914 90.0725 149.712 89.3676C149.481 88.5893 149.428 87.7692 149.556 86.9676C149.605 86.6875 149.7 86.4173 149.836 86.1676C149.954 86.0348 150.101 85.93 150.265 85.8608C150.429 85.7916 150.606 85.7598 150.784 85.7676L151.452 85.7316C151.054 85.2995 150.747 84.7922 150.548 84.2396C150.429 83.8134 150.436 83.3618 150.568 82.9396C150.597 82.8243 150.655 82.7183 150.736 82.6316C150.847 82.5582 150.976 82.5159 151.109 82.5089C151.241 82.5018 151.374 82.5304 151.492 82.5916C153.013 83.0844 154.605 83.3236 156.204 83.2996C157.468 83.3236 158.108 83.2156 159.848 83.1796C161.588 83.1436 164.612 84.1556 164.908 87.4556C167.2 87.9996 167.2 91.7516 166.432 93.2796C165.004 96.0796 163.7 97.9276 162.932 99.9716C162.82 99.8756 155.388 94.8276 153.7 93.4396L151.804 91.8756C151.5 91.6236 151.2 91.3956 150.912 91.1476Z" fill="#263238"/>
<path d="M165.34 97.9998C163.888 98.9318 163.06 97.8838 163.06 97.8838L162.636 104.512C159.52 108.028 151.836 106.892 155.436 103.372L155.52 102.104C154.811 102.091 154.105 102.012 153.412 101.868C152.982 101.76 152.576 101.576 152.212 101.324C151.414 100.76 150.867 99.9078 150.688 98.9478C150.35 97.2743 150.247 95.5617 150.384 93.8598C150.516 91.8158 150.904 89.1878 151.672 87.8598C152.972 86.8638 156.62 87.0078 159.624 88.0918C159.624 88.8598 159.504 89.5238 160.06 90.4078C160.347 90.822 160.726 91.1642 161.168 91.4078C161.148 92.8998 161.168 93.3038 161.412 93.9798C161.536 94.3798 161.812 94.9558 162.576 94.7318C162.944 94.6278 163.26 93.8558 163.664 93.3558C164.208 92.6838 165.792 92.4558 166.444 94.0358C166.723 94.7257 166.766 95.4887 166.566 96.2057C166.367 96.9228 165.935 97.5536 165.34 97.9998Z" fill="#C8856A"/>
<path d="M155.5 102.091C157.06 102.039 159.856 101.643 160.7 100.751C161.544 99.8587 162.328 97.7227 162.328 97.7227C162.328 97.7227 161.856 100.151 161.18 101.175C160.504 102.199 159.136 102.535 158.14 102.775C157.242 102.935 156.332 103.022 155.42 103.035L155.5 102.091Z" fill="#AF6152"/>
<path d="M156.936 92.0203L158.536 91.8243C158.504 91.6077 158.39 91.4118 158.217 91.2776C158.044 91.1434 157.826 91.0813 157.608 91.1043C157.504 91.1199 157.403 91.156 157.313 91.2106C157.222 91.2652 157.144 91.3371 157.081 91.4223C157.019 91.5075 156.974 91.6042 156.949 91.7068C156.924 91.8094 156.92 91.916 156.936 92.0203Z" fill="#263238"/>
<path d="M153.28 90.6761L151.736 91.1561C151.676 90.946 151.7 90.7211 151.802 90.5281C151.904 90.3352 152.077 90.189 152.284 90.1201C152.386 90.0903 152.493 90.081 152.598 90.0929C152.704 90.1048 152.806 90.1376 152.898 90.1894C152.991 90.2411 153.072 90.3108 153.138 90.3944C153.203 90.4779 153.252 90.5737 153.28 90.6761Z" fill="#263238"/>
<path d="M156.876 97.4355L155.148 97.9675C155.226 98.1997 155.391 98.3929 155.607 98.5068C155.824 98.6208 156.076 98.6469 156.312 98.5795C156.426 98.5436 156.531 98.485 156.621 98.4073C156.711 98.3297 156.785 98.2346 156.838 98.1278C156.89 98.0209 156.921 97.9045 156.928 97.7855C156.934 97.6666 156.917 97.5475 156.876 97.4355Z" fill="#874C4C"/>
<path d="M156.8 97.7833C156.57 97.7677 156.343 97.8426 156.167 97.992C155.992 98.1415 155.881 98.3537 155.86 98.5833C156.008 98.6191 156.163 98.6191 156.312 98.5833C156.48 98.5306 156.629 98.4283 156.738 98.2898C156.847 98.1514 156.912 97.9832 156.924 97.8073L156.8 97.7833Z" fill="#FFA8A7"/>
<path d="M155.732 91.7715L154.92 96.5715L152.488 95.3515L155.732 91.7715Z" fill="#AF6152"/>
<path d="M158.176 93.5993C158.169 93.7305 158.124 93.8569 158.046 93.9624C157.967 94.0679 157.859 94.1477 157.735 94.1918C157.612 94.2359 157.478 94.2423 157.35 94.2102C157.223 94.178 157.108 94.1087 157.02 94.0112C156.932 93.9136 156.875 93.7921 156.856 93.662C156.837 93.532 156.857 93.3992 156.913 93.2806C156.97 93.162 157.06 93.0628 157.173 92.9956C157.286 92.9285 157.417 92.8963 157.548 92.9033C157.635 92.9074 157.72 92.9287 157.799 92.9659C157.878 93.0032 157.948 93.0557 158.007 93.1204C158.065 93.1851 158.11 93.2608 158.139 93.3429C158.168 93.4251 158.181 93.5123 158.176 93.5993Z" fill="#263238"/>
<path d="M153.152 93.0834C153.145 93.2135 153.099 93.3386 153.021 93.4428C152.943 93.547 152.835 93.6258 152.713 93.6691C152.59 93.7125 152.457 93.7185 152.331 93.6864C152.204 93.6543 152.09 93.5856 152.003 93.4889C151.916 93.3921 151.859 93.2717 151.84 93.1428C151.821 93.0139 151.841 92.8823 151.896 92.7645C151.952 92.6467 152.041 92.5481 152.153 92.481C152.265 92.4139 152.394 92.3813 152.524 92.3874C152.611 92.3915 152.696 92.4128 152.775 92.4501C152.854 92.4874 152.925 92.5399 152.983 92.6046C153.041 92.6693 153.086 92.7449 153.115 92.8271C153.144 92.9093 153.157 92.9964 153.152 93.0834Z" fill="#263238"/>
<path d="M122.52 103.943L123.128 103.543C123.217 103.498 123.316 103.475 123.416 103.475C123.516 103.475 123.615 103.498 123.704 103.543L139.384 109.971C139.675 110.105 139.933 110.302 140.141 110.546C140.348 110.791 140.499 111.078 140.584 111.387L143.384 124.303C143.423 124.411 143.429 124.528 143.401 124.639C143.373 124.75 143.313 124.85 143.228 124.927L142.6 125.347C142.511 125.394 142.411 125.419 142.31 125.419C142.209 125.419 142.109 125.394 142.02 125.347L126.336 118.919C126.046 118.783 125.788 118.587 125.581 118.342C125.374 118.098 125.222 117.812 125.136 117.503C124.592 114.963 122.9 107.127 122.356 104.587C122.264 104.267 122.344 104.043 122.52 103.943Z" fill="#455A64"/>
<path d="M139.372 110.799C139.651 111.073 139.852 111.417 139.952 111.795L142.752 124.703C142.789 124.809 142.796 124.922 142.772 125.031C142.748 125.139 142.694 125.239 142.616 125.319L143.204 124.919C143.29 124.844 143.352 124.745 143.381 124.634C143.409 124.524 143.403 124.407 143.364 124.299L140.564 111.383C140.473 111.029 140.289 110.704 140.032 110.443L139.372 110.799Z" fill="#263238"/>
<path d="M142.732 124.716L139.952 111.8C139.866 111.491 139.714 111.205 139.507 110.961C139.3 110.716 139.042 110.52 138.752 110.384L123.08 103.96C122.544 103.74 122.212 104.02 122.332 104.584C122.876 107.124 124.568 114.96 125.112 117.5C125.198 117.808 125.35 118.095 125.557 118.339C125.764 118.583 126.022 118.78 126.312 118.916L142 125.344C142.52 125.56 142.856 125.28 142.732 124.716Z" fill="#37474F"/>
<path d="M138.764 110.4L135.104 108.956L131.46 107.48L124.168 104.528L123.26 104.152C123.12 104.084 122.972 104.033 122.82 104C122.756 103.985 122.69 103.988 122.628 104.01C122.567 104.031 122.513 104.069 122.472 104.12C122.316 104.34 122.452 104.688 122.508 105.004L122.712 105.964L123.512 109.812L124.312 113.66L125.092 117.516L124.216 113.68L123.372 109.84L122.528 106L122.316 105.04C122.28 104.876 122.244 104.724 122.212 104.556C122.17 104.37 122.202 104.175 122.3 104.012C122.36 103.934 122.441 103.873 122.534 103.838C122.626 103.803 122.727 103.794 122.824 103.812C122.993 103.845 123.157 103.898 123.312 103.972L124.224 104.344L131.492 107.356L135.124 108.864L138.764 110.4Z" fill="#455A64"/>
<path d="M139.628 114.398L139.104 111.998C139.089 111.941 139.062 111.887 139.024 111.842C138.985 111.796 138.938 111.759 138.884 111.734L137.804 111.294C137.704 111.254 137.64 111.294 137.664 111.41C137.764 111.886 138.064 113.354 138.184 113.81C138.2 113.868 138.229 113.921 138.267 113.967C138.306 114.012 138.354 114.049 138.408 114.074L139.488 114.514C139.6 114.554 139.648 114.502 139.628 114.398Z" fill="#455A64"/>
<path d="M138.984 112.527C138.941 112.383 138.868 112.251 138.77 112.138C138.672 112.025 138.551 111.934 138.416 111.871C138.156 111.767 137.992 111.891 138.048 112.147C138.089 112.291 138.162 112.424 138.26 112.537C138.358 112.65 138.479 112.741 138.616 112.803C138.876 112.907 139.04 112.799 138.984 112.527Z" fill="#263238"/>
<path d="M139.232 113.746C139.19 113.602 139.118 113.469 139.02 113.356C138.922 113.243 138.8 113.152 138.664 113.09C138.404 112.982 138.24 113.09 138.296 113.362C138.337 113.506 138.409 113.64 138.508 113.753C138.606 113.866 138.727 113.957 138.864 114.018C139.124 114.126 139.288 113.998 139.232 113.746Z" fill="#263238"/>
<path d="M122.872 112.202C122.364 111.402 122.42 111.31 122.736 110.934C122.974 110.636 123.279 110.399 123.627 110.243C123.975 110.086 124.355 110.015 124.736 110.034C125.408 110.09 126.088 110.11 126.424 110.306C126.76 110.502 126.424 111.218 125.54 111.37C124.144 111.606 124.132 111.982 124.132 111.982C124.728 111.879 125.328 111.807 125.932 111.766C126.608 111.845 127.277 111.979 127.932 112.166C128.512 112.286 128.588 113.046 127.584 113.25L128.644 113.478C129.384 113.638 129.62 114.046 129.008 114.478C128.809 114.628 128.565 114.705 128.316 114.698C128.316 114.698 129.116 114.738 129.116 115.006C129.116 115.766 128.62 115.938 126.988 116.322C125.432 116.686 125.072 117.494 125.348 118.082C125.348 118.082 124.748 117.682 124.22 117.282C123.82 116.986 123.504 116.654 123.72 116.034C123.72 116.034 122.844 116.006 122.816 115.462C122.825 115.063 122.919 114.67 123.092 114.31C122.939 114.214 122.816 114.076 122.739 113.912C122.661 113.748 122.633 113.566 122.656 113.386C122.671 113.042 122.801 112.713 123.024 112.45L122.872 112.202Z" fill="#C8856A"/>
<path d="M127.6 113.263C127.286 113.18 126.964 113.128 126.64 113.107C126.31 113.141 125.987 113.226 125.684 113.359C125.082 113.575 124.5 113.843 123.944 114.159C124.57 114.028 125.185 113.843 125.78 113.607C126.062 113.483 126.356 113.384 126.656 113.311C126.956 113.295 127.292 113.307 127.6 113.263Z" fill="#AF6152"/>
<path d="M128.34 114.712C128.004 114.597 127.646 114.567 127.296 114.624C126.95 114.681 126.61 114.769 126.28 114.888C125.625 115.115 124.997 115.41 124.404 115.768C125.07 115.598 125.727 115.394 126.372 115.156C126.994 114.886 127.662 114.735 128.34 114.712Z" fill="#AF6152"/>
<path d="M155.488 116.61C154.228 115.542 153.584 115.118 152.976 114.906C152.368 114.694 150.26 113.658 149.444 113.398C148.924 113.234 148.644 114.058 149.296 114.678C149.784 115.15 151.088 115.818 151.66 116.178C152.232 116.538 153.296 118.014 153.296 118.014L155.488 116.61Z" fill="#AF6152"/>
<path d="M172.4 110.923C171.264 108.043 170.148 107.183 167.2 106.219C164.028 108.947 165.804 116.511 165.804 116.511L167.704 124.479C167.704 124.479 161.304 122.275 160.432 121.647C159.56 121.019 157.328 118.287 156.572 117.463C155.54 116.343 154.972 116.447 154.424 116.499C152.58 116.659 152.172 116.787 151.768 117.007C151.649 117.08 151.55 117.181 151.48 117.302C151.41 117.423 151.372 117.559 151.368 117.699C150.88 117.727 150.168 117.667 150.012 118.459C149.96 118.667 149.937 118.881 149.944 119.095C149.82 119.108 149.706 119.165 149.62 119.255C149.184 119.699 149.776 121.359 150.192 121.779C150.484 122.079 150.92 122.139 151.504 122.095C152 122.059 151.804 121.547 151.804 121.547L152.488 121.631C153.908 122.775 153.852 124.871 155.788 125.455C156.594 125.587 157.386 125.792 158.156 126.067C162.296 127.751 167.588 132.467 171.336 133.043C174.992 133.587 175.464 131.443 175.44 129.191C175.388 125.599 173.54 113.795 172.4 110.923Z" fill="#C8856A"/>
<path d="M167.452 123.479L167.692 124.479C169.34 125.015 171.072 126.331 171.416 127.279C171.2 125.803 170.352 124.451 167.452 123.479Z" fill="#AF6152"/>
<path d="M151.355 117.698L153.683 117.622L151.419 117.402C151.381 117.497 151.359 117.597 151.355 117.698Z" fill="#AF6152"/>
<path d="M149.931 119.095L152.447 118.927L149.947 118.803C149.932 118.899 149.927 118.997 149.931 119.095Z" fill="#AF6152"/>
<path d="M150.192 120.215C150.267 120.347 150.378 120.455 150.512 120.527C150.636 120.603 150.771 120.661 150.912 120.699L150.88 120.675C150.94 120.807 151.004 120.939 151.068 121.075L151.124 121.011C151.056 120.995 150.985 120.994 150.916 121.007C150.847 121.02 150.782 121.047 150.724 121.087C150.615 121.164 150.533 121.273 150.488 121.399C150.554 121.292 150.646 121.204 150.756 121.143C150.862 121.089 150.984 121.074 151.1 121.099L151.196 121.127L151.156 121.039C151.096 120.903 151.036 120.771 150.972 120.639H150.952C150.814 120.606 150.68 120.559 150.552 120.499C150.412 120.433 150.288 120.336 150.192 120.215Z" fill="#AF6152"/>
<path d="M150.836 120.574C151.133 120.632 151.434 120.672 151.736 120.694C151.773 120.884 151.864 121.06 152 121.198C152.145 121.352 152.298 121.498 152.46 121.634L151.776 121.55C151.689 121.422 151.577 121.314 151.446 121.232C151.315 121.15 151.169 121.096 151.016 121.074L150.836 120.574Z" fill="#AF6152"/>
<path d="M166.892 106.027C168.992 106.683 170.456 107.295 171.428 108.639C172.4 109.983 172.732 111.379 173.404 113.923C174.076 116.467 174.424 118.767 174.424 118.767C174.424 118.767 173.804 119.939 171.316 120.531C169.722 120.882 168.07 120.882 166.476 120.531C166.476 120.531 165.436 116.211 165.096 114.611C164.756 113.011 164.22 108.235 166.892 106.027Z" fill="#0D9488"/>
<path d="M69.4006 133.609L78.9475 128.1C79.3528 127.867 79.6814 128.054 79.6814 128.524V131.595C79.6675 131.849 79.5937 132.097 79.4662 132.318C79.3387 132.539 79.161 132.727 78.9475 132.866L69.4006 138.375C68.9953 138.611 68.6667 138.421 68.6667 137.951V134.88C68.6809 134.626 68.7547 134.378 68.8822 134.157C69.0097 133.937 69.1873 133.749 69.4006 133.609Z" fill="#0D9488"/>
</svg>
