<svg width="200" height="200" viewBox="0 0 200 200" fill="none" xmlns="http://www.w3.org/2000/svg">
<path d="M86.592 23.9997L41.32 50.1277C40.8716 50.4204 40.4991 50.8151 40.2328 51.2795C39.9665 51.744 39.814 52.265 39.788 52.7997V159.412C39.788 160.388 40.476 160.784 41.32 160.292L86.592 134.156C87.0373 133.864 87.4079 133.471 87.6739 133.01C87.94 132.549 88.0942 132.031 88.124 131.5V24.8717C88.124 23.8957 87.436 23.4957 86.592 23.9997ZM85.92 123.6C85.92 124.436 85.332 124.968 84.608 125.384L43.152 149.328C42.432 149.728 41.84 149.408 41.84 148.568V59.9077C41.8401 59.4493 41.9611 58.999 42.1908 58.6022C42.4204 58.2054 42.7505 57.8762 43.148 57.6477L84.604 33.6997C84.737 33.6224 84.888 33.5816 85.0419 33.5812C85.1957 33.5808 85.3469 33.621 85.4803 33.6976C85.6137 33.7742 85.7246 33.8846 85.8018 34.0177C85.8789 34.1508 85.9197 34.3019 85.92 34.4557V123.6Z" fill="#455A64"/>
<path d="M85.92 123.601C85.92 124.437 85.332 124.969 84.608 125.385L43.152 149.329C42.432 149.729 41.84 149.409 41.84 148.569V59.9086C41.8401 59.4501 41.9611 58.9998 42.1908 58.6031C42.4204 58.2063 42.7506 57.8771 43.148 57.6486L84.604 33.7006C84.737 33.6233 84.888 33.5824 85.0419 33.582C85.1957 33.5817 85.3469 33.6218 85.4803 33.6984C85.6137 33.7751 85.7246 33.8855 85.8018 34.0186C85.8789 34.1517 85.9197 34.3027 85.92 34.4566V123.601Z" fill="#263238"/>
<path d="M43.152 149.327L84.608 125.391C84.899 125.234 85.168 125.039 85.408 124.811L41.84 100.275V148.567C41.84 149.407 42.432 149.743 43.152 149.327Z" fill="#37474F"/>
<path d="M82.564 122.045V34.8809L43.148 57.6489C42.7506 57.8774 42.4204 58.2066 42.1908 58.6034C41.9611 59.0001 41.8401 59.4504 41.84 59.9089V146.585L81.252 123.829C81.976 123.413 82.564 122.881 82.564 122.045Z" fill="#0D9488"/>
<path d="M41.128 160.4C40.6709 160.593 40.1773 160.684 39.6815 160.668C39.1856 160.651 38.6993 160.527 38.256 160.304L36.504 159.292C36.0569 159.003 35.6847 158.612 35.4177 158.151C35.1508 157.69 34.9967 157.172 34.968 156.64V50.0003C34.9781 49.6051 35.0679 49.216 35.232 48.8563C35.288 48.7323 35.348 48.6123 35.416 48.4883L40.216 51.2883C40.1151 51.4686 40.0269 51.6557 39.952 51.8483C39.8355 52.1512 39.7719 52.4718 39.764 52.7963V159.412C39.788 160.312 40.372 160.72 41.128 160.4Z" fill="#263238"/>
<path d="M65.308 138.92C66.288 138.92 66.392 140.02 66.392 140.492C66.3334 141.438 66.0562 142.357 65.5822 143.177C65.1081 143.998 64.4501 144.697 63.66 145.22C63.343 145.421 62.9791 145.537 62.604 145.556C61.624 145.556 61.52 144.456 61.52 143.984C61.5791 143.038 61.856 142.119 62.3293 141.298C62.8025 140.477 63.4592 139.777 64.248 139.252C64.5677 139.054 64.9324 138.939 65.308 138.92Z" fill="#0D9488"/>
<path d="M63.924 38.7635C64.324 38.5235 64.672 38.7155 64.672 39.1955C64.6575 39.455 64.5822 39.7074 64.4523 39.9325C64.3224 40.1576 64.1414 40.3491 63.924 40.4915C63.524 40.7275 63.172 40.5355 63.172 40.0595C63.1857 39.7993 63.261 39.5462 63.3918 39.3208C63.5225 39.0955 63.7049 38.9045 63.924 38.7635Z" fill="#263238"/>
<path d="M59.092 45.0806C59.46 44.8686 59.756 45.0406 59.756 45.4806C59.7438 45.7108 59.6773 45.9348 59.5618 46.1344C59.4464 46.3339 59.2854 46.5033 59.092 46.6286C58.724 46.8406 58.428 46.6686 58.428 46.2286C58.4408 45.9986 58.5076 45.7748 58.6229 45.5754C58.7383 45.3759 58.899 45.2064 59.092 45.0806Z" fill="#263238"/>
<path d="M61.312 43.7681L68.748 39.4761C69.148 39.2401 69.4841 39.4081 69.4841 39.8481C69.4646 40.0952 69.3879 40.3344 69.2602 40.5468C69.1325 40.7592 68.9571 40.939 68.748 41.0721L61.312 45.3641C60.912 45.6001 60.576 45.4321 60.576 44.9921C60.5955 44.745 60.6722 44.5058 60.7999 44.2934C60.9276 44.081 61.1029 43.9012 61.312 43.7681Z" fill="#263238"/>
<path d="M88.108 24.6281C87.996 23.8281 87.36 23.5441 86.596 23.9881L41.316 50.1281C40.863 50.4094 40.4908 50.8036 40.236 51.2721L35.436 48.4721C35.6948 48.0074 36.0679 47.6163 36.52 47.3361L81.772 21.2001C82.2468 20.9594 82.7717 20.834 83.304 20.834C83.8364 20.834 84.3612 20.9594 84.836 21.2001L86.596 22.2081C87.0062 22.4802 87.3533 22.837 87.6141 23.2544C87.8749 23.6718 88.0433 24.1402 88.108 24.6281Z" fill="#37474F"/>
<path d="M76.232 27.8638C75.997 27.9893 75.7356 28.0573 75.4693 28.0622C75.203 28.067 74.9393 28.0087 74.7 27.8918C74.6198 27.8576 74.5503 27.8024 74.4989 27.732C74.4475 27.6616 74.4161 27.5786 74.408 27.4918C74.408 27.3798 74.408 26.9638 74.408 26.8478C74.4208 26.748 74.4592 26.6532 74.5195 26.5726C74.5798 26.492 74.6598 26.4284 74.752 26.3878L79.604 23.5878C79.8399 23.4632 80.1018 23.3958 80.3686 23.3909C80.6354 23.386 80.8996 23.4439 81.14 23.5598C81.2187 23.5956 81.2866 23.6514 81.3372 23.7215C81.3877 23.7917 81.419 23.8738 81.428 23.9598C81.428 24.0758 81.428 24.5078 81.428 24.6198C81.4154 24.7202 81.3771 24.8157 81.3169 24.897C81.2566 24.9783 81.1764 25.0426 81.084 25.0838L76.232 27.8638Z" fill="#0D9488"/>
<path opacity="0.25" d="M76.232 27.8638C75.997 27.9893 75.7356 28.0573 75.4693 28.0622C75.203 28.067 74.9393 28.0087 74.7 27.8918C74.6198 27.8576 74.5503 27.8024 74.4989 27.732C74.4475 27.6616 74.4161 27.5786 74.408 27.4918C74.408 27.3798 74.408 26.9638 74.408 26.8478C74.4208 26.748 74.4592 26.6532 74.5195 26.5726C74.5798 26.492 74.6598 26.4284 74.752 26.3878L79.604 23.5878C79.8399 23.4632 80.1018 23.3958 80.3686 23.3909C80.6354 23.386 80.8996 23.4439 81.14 23.5598C81.2187 23.5956 81.2866 23.6514 81.3372 23.7215C81.3877 23.7917 81.419 23.8738 81.428 23.9598C81.428 24.0758 81.428 24.5078 81.428 24.6198C81.4154 24.7202 81.3771 24.8157 81.3169 24.897C81.2566 24.9783 81.1764 25.0426 81.084 25.0838L76.232 27.8638Z" fill="black"/>
<path d="M76.232 27.2283L81.084 24.4283C81.524 24.1723 81.544 23.7763 81.136 23.5403C80.8956 23.4244 80.6314 23.3665 80.3646 23.3714C80.0978 23.3762 79.8359 23.4437 79.6 23.5683L74.748 26.3683C74.312 26.6203 74.288 27.0163 74.7 27.2523C74.9393 27.3688 75.2027 27.4273 75.4688 27.4232C75.735 27.419 75.9964 27.3522 76.232 27.2283Z" fill="#0D9488"/>
<path opacity="0.3" d="M76.232 27.2283L81.084 24.4283C81.524 24.1723 81.544 23.7763 81.136 23.5403C80.8956 23.4244 80.6314 23.3665 80.3646 23.3714C80.0978 23.3762 79.8359 23.4437 79.6 23.5683L74.748 26.3683C74.312 26.6203 74.288 27.0163 74.7 27.2523C74.9393 27.3688 75.2027 27.4273 75.4688 27.4232C75.735 27.419 75.9964 27.3522 76.232 27.2283Z" fill="black"/>
<path d="M38 66.0683C37.9906 65.802 37.9182 65.5418 37.7889 65.3089C37.6596 65.0761 37.477 64.8771 37.256 64.7283C37.1837 64.6748 37.0979 64.6424 37.0082 64.6346C36.9186 64.6269 36.8285 64.644 36.748 64.6843C36.656 64.7403 36.288 64.9443 36.192 65.0043C36.1117 65.0651 36.0485 65.1457 36.0085 65.2382C35.9686 65.3308 35.9533 65.4321 35.964 65.5323V77.4203C35.9737 77.686 36.0457 77.9457 36.1743 78.1785C36.3028 78.4113 36.4843 78.6105 36.704 78.7603C36.7763 78.8089 36.8599 78.8381 36.9468 78.8451C37.0337 78.8522 37.1209 78.8367 37.2 78.8003C37.304 78.7483 37.676 78.5323 37.776 78.4723C37.8564 78.4114 37.9196 78.3308 37.9595 78.2383C37.9995 78.1457 38.0148 78.0445 38.004 77.9443L38 66.0683Z" fill="#0D9488"/>
<path opacity="0.3" d="M38 66.0683C37.9906 65.802 37.9182 65.5418 37.7889 65.3089C37.6596 65.0761 37.477 64.8771 37.256 64.7283C37.1837 64.6748 37.0979 64.6424 37.0082 64.6346C36.9186 64.6269 36.8285 64.644 36.748 64.6843C36.656 64.7403 36.288 64.9443 36.192 65.0043C36.1117 65.0651 36.0485 65.1457 36.0085 65.2382C35.9686 65.3308 35.9533 65.4321 35.964 65.5323V77.4203C35.9737 77.686 36.0457 77.9457 36.1743 78.1785C36.3028 78.4113 36.4843 78.6105 36.704 78.7603C36.7763 78.8089 36.8599 78.8381 36.9468 78.8451C37.0337 78.8522 37.1209 78.8367 37.2 78.8003C37.304 78.7483 37.676 78.5323 37.776 78.4723C37.8564 78.4114 37.9196 78.3308 37.9595 78.2383C37.9995 78.1457 38.0148 78.0445 38.004 77.9443L38 66.0683Z" fill="black"/>
<path d="M37.448 66.4007V78.2887C37.448 78.7927 37.116 79.0087 36.704 78.7727C36.4842 78.623 36.3028 78.4237 36.1742 78.1909C36.0457 77.9582 35.9737 77.6984 35.964 77.4327V65.5327C35.964 65.0247 36.296 64.8087 36.704 65.0447C36.9266 65.1955 37.1102 65.3972 37.2396 65.6329C37.3689 65.8687 37.4404 66.1319 37.448 66.4007Z" fill="#0D9488"/>
<path opacity="0.4" d="M37.448 66.4007V78.2887C37.448 78.7927 37.116 79.0087 36.704 78.7727C36.4842 78.623 36.3028 78.4237 36.1742 78.1909C36.0457 77.9582 35.9737 77.6984 35.964 77.4327V65.5327C35.964 65.0247 36.296 64.8087 36.704 65.0447C36.9266 65.1955 37.1102 65.3972 37.2396 65.6329C37.3689 65.8687 37.4404 66.1319 37.448 66.4007Z" fill="black"/>
<path d="M38 81.9999C37.9906 81.7337 37.9182 81.4735 37.7889 81.2406C37.6596 81.0077 37.477 80.8087 37.256 80.6599C37.1837 80.6064 37.0979 80.574 37.0082 80.5663C36.9186 80.5585 36.8285 80.5757 36.748 80.6159C36.656 80.6719 36.288 80.8759 36.192 80.9359C36.1117 80.9968 36.0485 81.0774 36.0085 81.1699C35.9686 81.2624 35.9533 81.3637 35.964 81.4639V87.0639C35.9743 87.3289 36.0466 87.5879 36.1752 87.8199C36.3037 88.0519 36.4848 88.2506 36.704 88.3999C36.774 88.4516 36.8565 88.4837 36.943 88.4929C37.0295 88.502 37.1168 88.4879 37.196 88.4519C37.3 88.3999 37.672 88.1839 37.772 88.1239C37.8521 88.0637 37.9151 87.9838 37.9551 87.8919C37.995 87.8001 38.0105 87.6995 38 87.5999V81.9999Z" fill="#0D9488"/>
<path opacity="0.3" d="M38 81.9999C37.9906 81.7337 37.9182 81.4735 37.7889 81.2406C37.6596 81.0077 37.477 80.8087 37.256 80.6599C37.1837 80.6064 37.0979 80.574 37.0082 80.5663C36.9186 80.5585 36.8285 80.5757 36.748 80.6159C36.656 80.6719 36.288 80.8759 36.192 80.9359C36.1117 80.9968 36.0485 81.0774 36.0085 81.1699C35.9686 81.2624 35.9533 81.3637 35.964 81.4639V87.0639C35.9743 87.3289 36.0466 87.5879 36.1752 87.8199C36.3037 88.0519 36.4848 88.2506 36.704 88.3999C36.774 88.4516 36.8565 88.4837 36.943 88.4929C37.0295 88.502 37.1168 88.4879 37.196 88.4519C37.3 88.3999 37.672 88.1839 37.772 88.1239C37.8521 88.0637 37.9151 87.9838 37.9551 87.8919C37.995 87.8001 38.0105 87.6995 38 87.5999V81.9999Z" fill="black"/>
<path d="M37.448 82.3002V87.9002C37.448 88.4042 37.116 88.6242 36.704 88.3842C36.4842 88.2344 36.3028 88.0352 36.1742 87.8024C36.0457 87.5696 35.9737 87.3099 35.964 87.0442V81.4442C35.964 80.9402 36.296 80.7202 36.704 80.9562C36.9246 81.1063 37.1068 81.3061 37.236 81.5396C37.3653 81.773 37.4379 82.0335 37.448 82.3002Z" fill="#0D9488"/>
<path opacity="0.4" d="M37.448 82.3002V87.9002C37.448 88.4042 37.116 88.6242 36.704 88.3842C36.4842 88.2344 36.3028 88.0352 36.1742 87.8024C36.0457 87.5696 35.9737 87.3099 35.964 87.0442V81.4442C35.964 80.9402 36.296 80.7202 36.704 80.9562C36.9246 81.1063 37.1068 81.3061 37.236 81.5396C37.3653 81.773 37.4379 82.0335 37.448 82.3002Z" fill="black"/>
<path d="M51.2561 72.0768C51.2959 72.271 51.3493 72.4621 51.4161 72.6488C51.6761 73.3528 52.1441 74.0168 52.1041 74.7688C52.0601 75.6168 51.3921 76.2728 50.8801 76.9488C50.2147 77.8426 49.7712 78.8817 49.5862 79.9805C49.4012 81.0793 49.48 82.2064 49.8161 83.2688C50.3079 84.5628 50.9901 85.7762 51.8401 86.8688L53.7721 89.6088C54.3563 90.376 55.1018 91.0055 55.9561 91.4528C57.6162 92.3911 59.4686 92.9383 61.3721 93.0528C64.501 93.264 67.6133 92.448 70.2361 90.7288C73.0161 88.8888 71.7921 84.1688 74.6361 82.4448C78.0761 80.3648 79.7161 73.1408 75.5001 70.1248C75.5001 70.1248 76.1801 65.7008 74.9321 64.5728C73.6884 63.5321 72.1494 62.9081 70.5321 62.7888C68.3001 62.5568 66.0641 62.9928 63.8361 62.9848C61.5425 62.9774 59.2509 63.1204 56.9761 63.4128C56.1761 63.5208 55.0481 63.8128 54.6161 64.5928C54.4941 64.8987 54.4608 65.2328 54.5201 65.5568C54.5139 66.0708 54.3302 66.5668 54.0001 66.9608C53.5041 67.5608 52.8001 67.9648 52.2721 68.5288C51.8364 68.9991 51.5174 69.5653 51.3409 70.1816C51.1644 70.7979 51.1354 71.4471 51.2561 72.0768Z" fill="#263238"/>
<path d="M73.4561 78.4609C77.0561 78.5609 77.5241 79.3289 80.7481 82.5209C83.4281 85.1729 92.3081 93.3689 92.3081 93.3689L102.948 96.2009L100.436 102.693C100.436 102.693 98.0361 102.593 93.2361 102.589C90.2881 102.589 89.2641 101.929 86.2961 99.9489C84.7841 98.9369 76.2521 93.3529 76.2521 93.3529L73.4561 78.4609Z" fill="#E6E6E6"/>
<path d="M114.72 83.0723L95.22 89.9443L89.844 113.144L90.28 113.608L108.82 106.692L115.152 83.5363L114.72 83.0723Z" fill="#0D9488"/>
<path opacity="0.35" d="M95.652 90.4093L90.28 113.609L89.844 113.145L95.22 89.9453L95.652 90.4093Z" fill="black"/>
<path opacity="0.25" d="M115.152 83.5371L95.652 90.4091L90.28 113.609L108.82 106.693L115.152 83.5371Z" fill="black"/>
<g opacity="0.2">
<path d="M105.92 101.972C106.1 102.428 107.596 103.432 109.76 103.252L110.124 101.916L105.92 101.972Z" fill="black"/>
</g>
<g opacity="0.1">
<path d="M109.28 88.2881L109.44 87.5081C109.528 87.0801 108.384 87.3041 106.884 88.0121L103.364 89.0761C101.864 89.7841 100.448 90.3121 100.356 90.7401L100.196 91.5161L109.28 88.2881Z" fill="black"/>
</g>
<path d="M110.44 84.7678C110.496 84.4998 110.04 84.5558 109.428 84.7198L108.304 85.0998C108.304 85.0998 108.764 83.9718 106.104 84.6998C103.18 85.4998 103.116 86.9518 103.116 86.9518C102.659 87.1502 102.19 87.3211 101.712 87.4638C100.74 87.7798 100.636 87.9678 100.556 88.2398L100.412 88.7318L110.352 85.2358C110.352 85.2358 110.4 85.0358 110.44 84.7678Z" fill="#37474F"/>
<path d="M109.392 86.261C108.472 86.661 108.092 86.881 107.952 87.545C107.796 88.301 107.764 88.617 107.764 88.617L102.588 90.657C102.588 90.657 102.868 89.541 102.936 89.169C103.004 88.797 102.32 88.797 101.424 89.209L101.636 88.281L109.688 85.293L109.392 86.261Z" fill="#37474F"/>
<path d="M109.544 88.2996C109.544 88.2996 109.62 87.9516 109.708 87.5196C109.796 87.0876 108.652 87.3156 107.152 88.0236L103.632 89.0876C102.132 89.7956 100.712 90.3236 100.624 90.7516L100.464 91.5516L109.544 88.2996Z" fill="#37474F"/>
<path d="M112.984 91.4724C112.984 91.4724 112.292 94.0164 112.108 94.6724C111.924 95.3284 108.732 96.7884 107.136 96.9884C104.08 97.3684 103.732 98.0284 104.464 100.188C105.144 102.188 107.132 102.948 109.892 102.624C111.188 102.472 112.976 101.324 113.68 99.3204C114.576 96.7604 114.08 94.0284 114.452 92.5204C114.824 91.0124 113.76 90.5804 112.984 91.4724Z" fill="#FFA8A7"/>
<path d="M82.7681 126.456L80.7001 127.656L79.8321 128.156L68.4561 134.72L66.9041 135.6L64.2841 137.112L65.0841 128.948L66.6121 113.14V112.976L66.6841 112.268L68.6841 91.5996L69.5601 82.5556L69.8681 79.3116L69.9721 78.2636H70.0281C70.9545 78.0059 71.9336 78.0059 72.8601 78.2636C73.0666 78.3262 73.2673 78.4065 73.4601 78.5036C74.6601 79.0996 75.4601 80.2596 76.1241 81.4796C76.2873 81.7767 76.4342 82.0825 76.5641 82.3956C77.0572 83.5812 77.4376 84.8106 77.7001 86.0676C78.2241 88.3876 78.9001 90.7596 79.1681 94.4996C79.2103 95.4622 79.1594 96.4267 79.0161 97.3796C78.8358 99.9009 78.8051 102.431 78.9241 104.956C79.2601 110.676 80.7001 113.268 82.7681 126.456Z" fill="#E0E0E0"/>
<path d="M79.8321 128.148L68.4561 134.712L66.9041 135.6L64.2841 137.112L62.4801 138.152L51.5281 144.472C51.6441 140.072 51.6961 135.3 51.5921 130.792C51.5601 129.284 51.5481 127.744 51.6121 126.168C51.8201 120.696 52.8601 114.828 56.5881 108.652L56.7601 108.34C57.2001 110.952 61.2001 112.648 64.8001 113.048L65.2001 113.084C65.6521 113.128 66.1201 113.148 66.6041 113.148H66.9081C69.9521 113.12 73.5561 112.404 77.7081 111C78.1081 113.32 78.5081 116.364 78.9361 119.924C79.1281 121.524 79.3227 123.229 79.5201 125.04C79.6001 126.052 79.7241 127.088 79.8321 128.148Z" fill="#FFA8A7"/>
<path d="M80.7 127.649L79.832 128.149L68.456 134.713L66.904 135.601L64.284 137.113L62.48 138.153L51.528 144.473L50.328 145.165C50.388 140.429 50.428 135.789 50.424 132.877C50.424 130.169 50.484 127.761 50.632 125.625C50.924 121.409 51.532 118.237 52.548 115.837C53.7401 113.21 55.1504 110.688 56.764 108.297C56.764 108.297 57.764 111.673 65.244 112.205H65.292C65.732 112.237 66.196 112.257 66.684 112.265H67.252C76.564 112.265 77.592 109.917 77.592 109.917C78.5017 113.37 79.2214 116.869 79.748 120.401C79.9453 121.649 80.136 122.982 80.32 124.401C80.456 125.441 80.584 126.521 80.7 127.649Z" fill="#0D9488"/>
<path opacity="0.4" d="M80.7 127.649L79.832 128.149L68.456 134.713L66.904 135.601L64.284 137.113L62.48 138.153L51.528 144.473L50.328 145.165C50.388 140.429 50.428 135.789 50.424 132.877C50.424 130.169 50.484 127.761 50.632 125.625C50.924 121.409 51.532 118.237 52.548 115.837C53.7401 113.21 55.1504 110.688 56.764 108.297C56.764 108.297 57.764 111.673 65.244 112.205H65.292C65.732 112.237 66.196 112.257 66.684 112.265H67.252C76.564 112.265 77.592 109.917 77.592 109.917C78.5017 113.37 79.2214 116.869 79.748 120.401C79.9453 121.649 80.136 122.982 80.32 124.401C80.456 125.441 80.584 126.521 80.7 127.649Z" fill="black"/>
<path opacity="0.2" d="M75.3601 122.34C75.3601 122.34 74.3201 125.644 69.9441 127.496L69.7361 128.508L68.4561 134.712L66.9041 135.6L67.8321 128.756L68.2321 125.78C70.9365 125.499 73.4578 124.283 75.3601 122.34Z" fill="black"/>
<path d="M62.0521 79.2207L57.6521 79.6847C54.7401 80.3967 53.4241 81.6847 53.1241 84.2567C52.9841 85.4567 52.2601 88.6567 53.2761 92.6567C54.1961 96.2887 56.6521 105.177 56.6521 105.177C56.6521 105.177 51.0001 112.553 49.9761 125.201C60.3201 131.953 76.1881 128.325 80.4801 124.245C80.1201 120.381 77.6521 109.777 77.3441 106.333C77.3441 106.333 77.5721 100.953 78.0001 98.6207C81.2721 95.0487 80.8561 91.6327 79.3881 88.8767C76.6761 83.7887 72.5881 79.3167 71.2641 79.3207L62.0521 79.2207Z" fill="#0D9488"/>
<path opacity="0.7" d="M62.0521 79.2207L57.6521 79.6847C54.7401 80.3967 53.4241 81.6847 53.1241 84.2567C52.9841 85.4567 52.2601 88.6567 53.2761 92.6567C54.1961 96.2887 56.6521 105.177 56.6521 105.177C56.6521 105.177 51.0001 112.553 49.9761 125.201C60.3201 131.953 76.1881 128.325 80.4801 124.245C80.1201 120.381 77.6521 109.777 77.3441 106.333C77.3441 106.333 77.5721 100.953 78.0001 98.6207C81.2721 95.0487 80.8561 91.6327 79.3881 88.8767C76.6761 83.7887 72.5881 79.3167 71.2641 79.3207L62.0521 79.2207Z" fill="white"/>
<path d="M65.864 106.761C65.864 106.841 65.864 106.913 65.864 106.973V107.077C65.8666 107.111 65.8666 107.144 65.864 107.177C65.712 108.777 65.532 110.477 65.34 112.209C65.34 112.209 65.34 112.209 65.34 112.233C65.312 112.513 65.28 112.793 65.248 113.077C64.66 118.297 63.96 123.877 63.42 128.957C63.288 130.189 63.168 131.389 63.06 132.557C62.892 134.305 62.712 136.221 62.528 138.157L51.576 144.477L50.376 145.169L47.316 146.933C47.932 140.873 49.368 126.833 50.168 120.497C50.26 119.781 50.38 119.065 50.516 118.353L50.624 117.833L50.672 117.621C50.724 117.381 50.776 117.149 50.832 116.913C50.888 116.677 50.94 116.477 50.992 116.265C51.116 115.781 51.248 115.305 51.392 114.841C51.46 114.617 51.524 114.393 51.596 114.173C51.668 113.953 51.728 113.733 51.8 113.517C51.944 113.085 52.084 112.661 52.232 112.249C52.2303 112.241 52.2303 112.233 52.232 112.225C52.3 112.029 52.372 111.825 52.444 111.641C52.54 111.369 52.64 111.105 52.74 110.841L52.86 110.525C52.92 110.381 52.972 110.241 53.028 110.101C53.224 109.609 53.428 109.141 53.608 108.705C53.648 108.609 53.692 108.513 53.732 108.421C53.772 108.329 53.836 108.193 53.884 108.081C54.004 107.801 54.124 107.541 54.24 107.281C54.288 107.169 54.34 107.061 54.388 106.957C54.436 106.853 54.504 106.717 54.556 106.605L54.632 106.445L54.712 106.289C54.7173 106.269 54.7268 106.25 54.74 106.233C54.751 106.204 54.7643 106.176 54.78 106.149C54.7897 106.131 54.7977 106.113 54.804 106.093C54.8373 106.037 54.8667 105.978 54.892 105.917L55.16 105.397C55.16 105.369 55.188 105.349 55.196 105.325L55.3 105.133L51.972 91.3333L50.316 84.4773V84.3653C50.392 83.7573 50.9 80.8893 53.828 80.0173C55.4811 79.5905 57.1744 79.3385 58.88 79.2653C59.536 79.2253 60.128 79.2093 60.612 79.1973H61.376H61.836C61.8371 79.2066 61.8371 79.216 61.836 79.2253C61.86 79.2853 61.928 79.4653 62.032 79.7453C62.0433 79.7921 62.0594 79.8377 62.08 79.8813C62.0804 79.8879 62.0804 79.8946 62.08 79.9013C62.8 81.8773 64.82 87.6293 65.824 92.6253C66 93.4893 66.144 94.3333 66.248 95.1333C66.548 97.6333 66.328 101.817 65.864 106.761Z" fill="#FAFAFA"/>
<path d="M55.408 98.5244C55.408 98.5244 55.808 96.5524 56.396 92.2924C57.08 87.3804 56.836 84.9524 56.096 83.4004L51.924 91.3564L55.252 105.156C55.252 105.156 51.832 111.42 50.452 118.356C53.724 109.112 57.304 106.356 57.304 106.356L55.408 98.5244Z" fill="#E6E6E6"/>
<path d="M70.024 76.1406C71.32 76.1406 71.472 76.3566 72.588 77.8526C73.252 78.7446 77.456 85.6846 77.456 85.6846C77.456 85.6846 74.112 81.2846 71.588 79.9486C71.1021 79.6638 70.5763 79.4535 70.0281 79.3246L70.024 76.1406Z" fill="#EBEBEB"/>
<path d="M60.4401 90.888C60.4401 90.488 60.4001 89.624 60.3321 88.536C60.0001 83.2 59.8401 78.4 61.6401 78L61.7961 78.736C60.4841 79.02 60.9161 85.888 61.0801 88.472C61.1521 89.584 61.2081 90.472 61.1881 90.904L60.4401 90.888Z" fill="#0D9488"/>
<path d="M54.4401 55.9528L57.2401 58.2448C57.3923 58.0706 57.5073 57.8672 57.5782 57.6469C57.649 57.4267 57.6742 57.1943 57.6521 56.964C57.63 56.7337 57.5611 56.5103 57.4497 56.3076C57.3383 56.1048 57.1866 55.927 57.0041 55.7848C56.6359 55.4804 56.1654 55.3282 55.6887 55.3595C55.212 55.3907 54.7653 55.603 54.4401 55.9528Z" fill="#263238"/>
<path d="M61.7521 76.4805C61.7521 74.7245 57.6601 72.0805 55.5481 68.3885C53.4361 64.6965 54.4921 58.6245 57.3881 57.6925C57.4121 57.6925 57.4921 56.9125 57.5041 56.8565C57.6642 56.152 57.9342 55.4771 58.3041 54.8565C59.4841 52.8245 61.9841 51.2565 64.3041 50.9285C73.4761 49.5925 77.6921 53.1565 79.3761 57.0765C79.9219 58.3952 80.1652 59.8195 80.0881 61.2445C80.0409 62.2912 79.6526 63.2937 78.9823 64.0989C78.3121 64.9042 77.3968 65.4681 76.3761 65.7045L61.7521 76.4805Z" fill="#263238"/>
<path d="M74.4761 55.7637C76.2721 56.5637 77.9801 59.2957 77.9521 66.9837C77.9281 73.5037 75.9281 75.1517 74.9201 75.6357C73.9121 76.1197 71.9401 75.8717 70.0241 75.5797V79.3237C70.0241 79.3237 71.4601 80.7357 70.9561 81.6237C70.4521 82.5117 68.5921 83.2637 65.7001 82.3557C62.4241 81.3277 61.6761 79.1557 61.6761 79.1557L61.6001 70.9397C61.6001 70.9397 60.5001 72.0957 58.5601 70.3997C56.9601 68.9957 56.3841 66.5917 57.5881 65.2717C58.7921 63.9517 60.3361 63.8477 61.7281 65.3237L62.7281 64.7957C64.5121 64.5877 67.1281 64.2877 69.0561 63.3157C74.0001 60.7997 74.5121 58.0717 74.4761 55.7637Z" fill="#FFA8A7"/>
<path d="M61.756 64.2598L61.78 67.8598C62.0112 67.8659 62.2412 67.8247 62.4558 67.7386C62.6705 67.6526 62.8653 67.5236 63.0283 67.3595C63.1913 67.1954 63.3189 66.9997 63.4035 66.7844C63.4881 66.5692 63.5277 66.3389 63.52 66.1078C63.5156 65.6333 63.3309 65.1783 63.0033 64.8351C62.6757 64.4918 62.2297 64.2862 61.756 64.2598Z" fill="#263238"/>
<path d="M74.644 64.7726C74.6457 64.9418 74.697 65.1067 74.7916 65.247C74.8861 65.3872 75.0198 65.4966 75.1759 65.5617C75.3321 65.6267 75.5039 65.6444 75.67 65.6127C75.8362 65.581 75.9894 65.5012 76.1106 65.3832C76.2318 65.2652 76.3157 65.1143 76.352 64.949C76.3882 64.7838 76.3751 64.6116 76.3143 64.4537C76.2536 64.2958 76.1478 64.1593 76.0102 64.061C75.8726 63.9626 75.7091 63.9069 75.54 63.9006C75.4237 63.898 75.3079 63.9185 75.1996 63.9611C75.0913 64.0037 74.9925 64.0674 74.9091 64.1486C74.8257 64.2298 74.7593 64.3268 74.7137 64.4339C74.6682 64.5411 74.6445 64.6562 74.644 64.7726Z" fill="black"/>
<path d="M67.7441 65.1567C67.737 65.2807 67.7546 65.4049 67.7956 65.5221C67.8367 65.6393 67.9005 65.7473 67.9833 65.8398C68.0662 65.9323 68.1665 66.0076 68.2785 66.0613C68.3905 66.115 68.512 66.146 68.6361 66.1527C68.7619 66.1537 68.8868 66.1299 69.0034 66.0826C69.1201 66.0353 69.2262 65.9654 69.3158 65.8769C69.4054 65.7885 69.4766 65.6832 69.5254 65.5671C69.5742 65.4511 69.5995 65.3266 69.6001 65.2007C69.604 65.0788 69.5839 64.9574 69.5409 64.8433C69.4979 64.7292 69.4329 64.6246 69.3495 64.5357C69.2661 64.4467 69.166 64.3751 69.0549 64.3248C68.9438 64.2745 68.8239 64.2466 68.7021 64.2427C68.5802 64.2387 68.4587 64.2588 68.3446 64.3018C68.2306 64.3448 68.126 64.4099 68.0371 64.4933C67.9481 64.5767 67.8765 64.6767 67.8262 64.7878C67.7759 64.8989 67.748 65.0188 67.7441 65.1407V65.1567Z" fill="black"/>
<path d="M76.932 63.1615L74.704 62.2775C74.7555 62.1276 74.8374 61.9899 74.9446 61.8731C75.0518 61.7564 75.1819 61.6629 75.3268 61.5987C75.4717 61.5345 75.6283 61.5009 75.7868 61.5C75.9453 61.4991 76.1023 61.5309 76.248 61.5935C76.5415 61.717 76.7763 61.9487 76.9037 62.2406C77.031 62.5326 77.0412 62.8623 76.932 63.1615Z" fill="black"/>
<path d="M72.532 64.0684L72.42 69.4044L75.288 68.7684L72.532 64.0684Z" fill="#F28F8F"/>
<path d="M69.152 70.4922L71.952 71.3602C71.9113 71.5511 71.8318 71.7315 71.7184 71.8904C71.605 72.0492 71.4601 72.1831 71.2928 72.2836C71.1255 72.3841 70.9394 72.4492 70.7459 72.4748C70.5524 72.5003 70.3557 72.4858 70.168 72.4322C69.7838 72.2986 69.4649 72.0236 69.2761 71.6632C69.0874 71.3029 69.043 70.8841 69.152 70.4922Z" fill="#B16668"/>
<path d="M70.7 72.4811C70.6969 72.0917 70.54 71.7194 70.2635 71.4452C69.987 71.171 69.6134 71.0171 69.224 71.0171C69.1854 71.0151 69.1467 71.0151 69.108 71.0171C69.1224 71.3296 69.2304 71.6306 69.418 71.881C69.6056 72.1314 69.8641 72.3196 70.16 72.4211C70.3339 72.4784 70.5178 72.4989 70.7 72.4811Z" fill="#F28F8F"/>
<path d="M70.0241 75.5998C68.0041 75.3598 63.8401 74.1998 63.1641 72.5078C63.4349 73.3571 63.9547 74.1055 64.6561 74.6558C65.9121 75.7358 70.0241 76.8598 70.0241 76.8598V75.5998Z" fill="#F28F8F"/>
<path d="M61.6561 76.1599C61.1281 76.0519 60.6601 76.2839 60.2281 77.0119C59.7961 77.7399 58.8481 79.2919 58.8481 79.2919C58.8481 79.2919 58.3561 84.4079 58.8481 85.6919C59.2721 86.7959 63.9481 90.9359 63.9481 90.9359C63.9481 90.9359 62.7281 95.5319 62.6841 97.0399C62.6401 98.5479 65.4841 104.272 65.8281 107.2C65.8281 107.2 66.8401 97.9999 66.4041 94.6839C65.6521 88.9359 62.9561 81.5119 61.6841 79.1519L61.6561 76.1599Z" fill="#EBEBEB"/>
<path d="M64.516 95.2007C64.204 94.4581 63.8362 93.74 63.416 93.0527C62.752 91.9527 61.932 90.8967 61.192 90.6247C61.0799 90.5802 60.9607 90.5558 60.84 90.5527H60.8C60.6782 90.5596 60.5588 90.5895 60.448 90.6407C59.864 90.9007 59.248 91.6967 58.748 92.6127C58.236 93.5326 57.814 94.4997 57.488 95.5007C57.296 96.1207 57.38 97.4367 57.608 98.9407C58.056 101.861 59.052 105.509 59.608 106.229C60.0155 106.732 60.497 107.17 61.036 107.529C60.706 107.747 60.3499 107.923 59.976 108.053C59.7646 108.13 59.5411 108.169 59.316 108.169V108.693H59.38C59.6178 108.689 59.8537 108.65 60.08 108.577C60.6043 108.407 61.0994 108.157 61.548 107.837C62.0216 108.119 62.5356 108.326 63.072 108.453C63.3246 108.513 63.5859 108.53 63.844 108.501L63.78 107.981C63.556 108 63.3304 107.982 63.112 107.929C62.7272 107.828 62.3564 107.681 62.008 107.489C62.5157 107.085 62.9605 106.607 63.328 106.073C63.64 105.597 64.024 103.957 64.312 102.073C64.488 100.949 64.632 99.7407 64.712 98.6407C64.8 97.1047 64.76 95.7887 64.516 95.2007ZM62.864 105.785C62.4888 106.326 62.0281 106.803 61.5 107.197C60.9391 106.85 60.439 106.414 60.02 105.905C59.5 105.229 58.54 101.669 58.108 98.8607C57.888 97.4407 57.808 96.2127 57.984 95.6607C58.3102 94.6476 58.7419 93.6716 59.272 92.7487C59.824 91.7967 60.412 91.0967 60.82 91.0807C61.304 91.0807 62.088 91.9567 62.82 93.0807C62.968 93.3007 63.108 93.5407 63.244 93.7807C63.5424 94.2976 63.8096 94.8319 64.044 95.3807C64.264 95.9247 64.288 97.1527 64.188 98.5807C64.132 99.3807 64.044 100.217 63.932 101.049C63.628 103.221 63.2 105.257 62.864 105.773V105.785Z" fill="#455A64"/>
<path d="M64.5601 108.192C64.5663 108.344 64.5271 108.495 64.4474 108.626C64.3677 108.756 64.2511 108.86 64.1123 108.924C63.9736 108.988 63.819 109.01 63.6681 108.986C63.5171 108.962 63.3767 108.894 63.2645 108.79C63.1523 108.686 63.0735 108.551 63.0379 108.403C63.0024 108.254 63.0117 108.098 63.0648 107.955C63.1178 107.812 63.2122 107.687 63.336 107.598C63.4598 107.508 63.6074 107.457 63.7601 107.452C63.9642 107.444 64.163 107.518 64.3129 107.656C64.4629 107.795 64.5518 107.988 64.5601 108.192Z" fill="#263238"/>
<path d="M60.076 108.401C60.083 108.554 60.0445 108.705 59.9653 108.836C59.8861 108.967 59.7698 109.071 59.6312 109.136C59.4926 109.201 59.3379 109.223 59.1867 109.199C59.0355 109.176 58.8947 109.108 58.7821 109.004C58.6696 108.901 58.5903 108.766 58.5544 108.617C58.5185 108.469 58.5276 108.313 58.5805 108.169C58.6334 108.026 58.7278 107.901 58.8516 107.811C58.9754 107.721 59.1232 107.67 59.276 107.665C59.3769 107.66 59.4776 107.676 59.5724 107.711C59.6673 107.745 59.7543 107.799 59.8286 107.867C59.9029 107.935 59.963 108.018 60.0055 108.109C60.0479 108.201 60.0719 108.3 60.076 108.401Z" fill="#263238"/>
<path d="M64.6481 98.633L64.204 98.601C64.1588 98.5969 64.1169 98.5755 64.087 98.5412C64.0572 98.5069 64.0418 98.4624 64.0441 98.417C64.1361 96.949 64.0881 95.869 63.9081 95.437C63.1321 93.541 61.5081 91.165 60.8241 91.193C60.1401 91.221 58.7241 93.729 58.1081 95.681C57.9681 96.129 58.0121 97.209 58.2241 98.665C58.231 98.7095 58.2203 98.755 58.1941 98.7916C58.1679 98.8282 58.1284 98.8532 58.0841 98.861L57.6441 98.929C57.5979 98.9347 57.5514 98.9219 57.5147 98.8934C57.478 98.8649 57.454 98.8231 57.448 98.777C57.204 97.145 57.176 96.025 57.36 95.445C57.688 94.397 59.236 90.473 60.792 90.409C62.348 90.345 64.2241 94.121 64.6401 95.141C64.8681 95.701 64.9361 96.821 64.8321 98.465C64.829 98.5113 64.8081 98.5547 64.7738 98.586C64.7395 98.6173 64.6945 98.6341 64.6481 98.633Z" fill="#0D9488"/>
<path d="M55.056 79.9646C52.128 79.9166 50.776 80.9046 48.92 83.3886C47.448 85.3606 41.72 96.0166 39.82 99.1286L29.476 93.6006C27.384 92.1566 26.708 89.8766 25.384 88.5446C24.06 87.2126 22.688 86.9446 21.232 85.8446C19.776 84.7446 19.184 83.8885 18.764 84.9165C18.344 85.9445 19.964 87.6086 20.272 88.0206C20.58 88.4326 22.204 89.3486 20.096 89.3806C17.988 89.4126 13.816 87.2286 12.8 86.8406C11.784 86.4526 11.844 87.6646 12.344 88.4406C12.844 89.2166 12.82 91.4086 13.664 92.6766C14.556 94.0206 15.044 94.6046 17.032 95.4766C18.88 96.2766 22.76 96.5966 24.724 97.8246C26.688 99.0526 31.556 103.381 34.516 105.977C38.28 109.277 40.876 109.881 42.972 107.901C45.008 105.769 47.072 103.269 48.08 102.001C50.796 98.5806 55.092 90.8006 55.092 90.8006C55.092 90.8006 56.952 86.8006 55.056 79.9646Z" fill="#FFA8A7"/>
<path d="M55.4601 79.6719C51.1481 79.6719 49.8601 81.2319 47.6521 84.8359C45.4441 88.4399 39.7801 98.7559 39.7801 98.7559L31.6241 94.4839C31.6241 94.4839 30.1561 97.7159 28.5961 101.048C28.5961 101.048 33.2121 105.048 35.3961 106.94C37.5801 108.832 40.4761 110.316 43.1601 108C46.0281 105.528 55.3281 92.6839 55.3281 92.6839C57.5361 88.6759 57.0441 82.5999 55.4601 79.6719Z" fill="#F0F0F0"/>
<path d="M39.78 98.7571C41.112 100.325 42.724 102.089 42.652 103.477C42.652 103.477 43.564 102.245 40.36 97.7051L39.78 98.7571Z" fill="#E0E0E0"/>
<path d="M24.352 60.2877L21.016 62.1997L21.028 58.3677L18.532 56.9277L12.712 60.2877V67.0077L6.89197 70.3677V77.0877L9.38797 78.5277L12.712 76.6077V80.4517L15.208 81.8917L21.028 78.5277V71.8077L26.848 68.4477V61.7277L24.352 60.2877Z" fill="#0D9488"/>
<path d="M9.38794 71.8072V78.5272L15.2079 75.1672V81.8912L21.0279 78.5272V71.8072L26.8479 68.4472V61.7272L21.0079 65.0992L21.0279 58.3672L15.2079 61.7272V68.4472L9.38794 71.8072Z" fill="#0D9488"/>
<g opacity="0.2">
<path d="M9.38797 78.5272L6.89197 77.0872V70.3672L9.38797 71.8072V78.5272Z" fill="black"/>
<path d="M15.2079 61.7271L12.7119 60.2871V67.0071L15.2079 68.4471V61.7271Z" fill="black"/>
<path d="M15.2079 81.892L12.7119 80.452V76.608L15.2079 75.168V81.892Z" fill="black"/>
</g>
<g opacity="0.5">
<path d="M15.208 68.4478L12.712 67.0078L6.89197 70.3678L9.38797 71.8078L15.208 68.4478Z" fill="white"/>
<path d="M21.0279 58.3677L18.5319 56.9277L12.7119 60.2877L15.2079 61.7277L21.0279 58.3677Z" fill="white"/>
<path d="M26.8479 61.7271L24.3519 60.2871L21.0159 62.1991L21.0079 65.0991L26.8479 61.7271Z" fill="white"/>
</g>
<path d="M120.08 46.8001C119.974 46.7085 119.86 46.6268 119.74 46.5561C119.316 46.3041 117.396 45.2001 117.296 45.1401C116.28 44.4921 114.672 44.6361 113.24 45.3601C111.188 46.3961 109.48 48.5841 108.176 52.2281C108.176 52.2281 106.856 51.2801 106.428 51.0281C105.368 50.4481 104.128 50.7281 102.732 51.6361C101.16 52.6601 100.088 53.9881 99.1079 55.9961V56.0321C98.2587 57.7371 97.7944 59.6078 97.7479 61.5121C97.7479 65.7241 99.4719 67.7321 101.716 69.2401C102.356 69.6721 104.048 70.5801 104.216 70.6921C105.57 71.5862 107.068 72.2411 108.644 72.6281L110.856 73.1441L113.068 70.0761C114.678 67.8139 116.157 65.4606 117.496 63.0281C119.74 58.9281 121.496 54.9121 121.464 50.7161C121.432 48.9201 120.916 47.6001 120.08 46.8001Z" fill="#0D9488"/>
<path opacity="0.3" d="M120.08 46.8001C119.974 46.7085 119.86 46.6268 119.74 46.5561C119.316 46.3041 117.396 45.2001 117.296 45.1401C116.28 44.4921 114.672 44.6361 113.24 45.3601C111.188 46.3961 109.48 48.5841 108.176 52.2281C108.176 52.2281 106.856 51.2801 106.428 51.0281C105.368 50.4481 104.128 50.7281 102.732 51.6361C101.16 52.6601 100.088 53.9881 99.1079 55.9961V56.0321C98.2587 57.7371 97.7944 59.6078 97.7479 61.5121C97.7479 65.7241 99.4719 67.7321 101.716 69.2401C102.356 69.6721 104.048 70.5801 104.216 70.6921C105.57 71.5862 107.068 72.2411 108.644 72.6281L110.856 73.1441L113.068 70.0761C114.678 67.8139 116.157 65.4606 117.496 63.0281C119.74 58.9281 121.496 54.9121 121.464 50.7161C121.432 48.9201 120.916 47.6001 120.08 46.8001Z" fill="black"/>
<path d="M120.08 46.8001C119.974 46.7085 119.86 46.6268 119.74 46.5561C119.316 46.3041 117.396 45.2001 117.296 45.1401C116.28 44.4921 114.672 44.6361 113.24 45.3601C111.188 46.3961 109.48 48.5841 108.176 52.2281C108.176 52.2281 106.856 51.2801 106.428 51.0281C105.368 50.4481 104.128 50.7281 102.732 51.6361C101.16 52.6601 100.088 53.9881 99.1079 55.9961V56.0321C99.0639 56.1201 99.0279 56.2081 98.9879 56.2961L115.788 65.9841C116.384 65.0161 116.964 64.0361 117.516 63.0281C119.76 58.9281 121.516 54.9121 121.484 50.7161C121.432 48.9201 120.916 47.6001 120.08 46.8001Z" fill="#0D9488"/>
<path opacity="0.15" d="M120.08 46.8001C119.974 46.7085 119.86 46.6268 119.74 46.5561C119.316 46.3041 117.396 45.2001 117.296 45.1401C116.28 44.4921 114.672 44.6361 113.24 45.3601C111.188 46.3961 109.48 48.5841 108.176 52.2281C108.176 52.2281 106.856 51.2801 106.428 51.0281C105.368 50.4481 104.128 50.7281 102.732 51.6361C101.16 52.6601 100.088 53.9881 99.1079 55.9961V56.0321C99.0639 56.1201 99.0279 56.2081 98.9879 56.2961L115.788 65.9841C116.384 65.0161 116.964 64.0361 117.516 63.0281C119.76 58.9281 121.516 54.9121 121.484 50.7161C121.432 48.9201 120.916 47.6001 120.08 46.8001Z" fill="black"/>
<path d="M108.164 52.2122L110.412 55.1442L114.036 50.8562L109.94 48.4922C109.21 49.6618 108.615 50.9096 108.164 52.2122Z" fill="#0D9488"/>
<path opacity="0.3" d="M108.164 52.2122L110.412 55.1442L114.036 50.8562L109.94 48.4922C109.21 49.6618 108.615 50.9096 108.164 52.2122Z" fill="black"/>
<path d="M120.08 46.8007C119.1 45.9247 117.316 46.0007 115.74 46.8007C113.592 47.8887 111.816 50.2367 110.488 54.2127C109.16 51.7727 107.384 51.6967 105.236 53.0927C103.66 54.1167 102.588 55.4447 101.612 57.4527L101.592 57.4887C100.746 59.1961 100.283 61.0677 100.236 62.9727C100.236 67.1847 101.964 69.1927 104.204 70.7007C105.558 71.5949 107.056 72.2497 108.632 72.6367L110.844 73.1527L113.056 70.0847C114.666 67.8225 116.145 65.4693 117.484 63.0367C119.728 58.9367 121.484 54.9207 121.452 50.7247C121.432 48.9207 120.916 47.6007 120.08 46.8007Z" fill="#0D9488"/>
<g opacity="0.07">
<path d="M118.192 46.3995C118.809 46.3713 119.415 46.5658 119.9 46.9475C119.908 46.9648 119.921 46.9798 119.936 46.9915C120.76 47.7435 121.22 49.0795 121.224 50.7435C121.224 55.1235 119.224 59.3755 117.284 62.9515C115.955 65.3762 114.486 67.7215 112.884 69.9755L110.76 72.9315L108.692 72.4475C107.139 72.0661 105.663 71.4222 104.328 70.5435C102.328 69.1835 100.44 67.3435 100.456 62.9915C100.498 61.12 100.947 59.2801 101.772 57.5995V57.5635C102.756 55.5435 103.816 54.2675 105.32 53.2915C106.019 52.7733 106.852 52.4678 107.72 52.4115C108.736 52.4115 109.572 53.0395 110.276 54.3315C110.293 54.3661 110.32 54.395 110.354 54.4148C110.387 54.4347 110.425 54.4446 110.464 54.4435H110.484C110.525 54.4397 110.564 54.4241 110.597 54.3985C110.63 54.373 110.654 54.3386 110.668 54.2995C111.936 50.5035 113.62 48.1195 115.812 47.0115C116.544 46.6281 117.354 46.4187 118.18 46.3995M118.18 46.1875C117.321 46.2052 116.477 46.4215 115.716 46.8195C113.568 47.9075 111.792 50.2555 110.464 54.2315C109.696 52.8155 108.776 52.1955 107.72 52.1955C106.814 52.2551 105.943 52.5729 105.212 53.1115C103.636 54.1355 102.564 55.4635 101.588 57.4715L101.568 57.5075C100.722 59.2149 100.259 61.0865 100.212 62.9915C100.212 67.2035 101.94 69.2115 104.18 70.7195C105.534 71.6137 107.032 72.2685 108.608 72.6555L110.82 73.1715L113.032 70.1035C114.642 67.8413 116.121 65.4881 117.46 63.0555C119.704 58.9555 121.46 54.9395 121.428 50.7435C121.428 48.9395 120.904 47.5995 120.068 46.8315C119.54 46.4014 118.872 46.1807 118.192 46.2115L118.18 46.1875Z" fill="black"/>
</g>
<path d="M119.836 58.14L115.532 60.628L113.932 54.808C113.909 54.72 113.857 54.6423 113.785 54.5878C113.712 54.5333 113.623 54.5051 113.532 54.508C113.438 54.5061 113.347 54.5371 113.274 54.5956C113.201 54.654 113.151 54.7363 113.132 54.828L110.64 66.212L108.544 60.476C108.54 60.3699 108.493 60.2699 108.415 60.1979C108.337 60.1258 108.234 60.0878 108.128 60.092C108.022 60.0963 107.922 60.1425 107.85 60.2205C107.778 60.2985 107.74 60.4019 107.744 60.508L106.328 65.536L101.592 68.272C101.748 68.4985 101.916 68.7162 102.096 68.924L106.896 66.16C106.989 66.1062 107.057 66.0189 107.088 65.916L108.204 61.948L110.352 67.812C110.38 67.8941 110.435 67.9646 110.507 68.0129C110.579 68.0613 110.665 68.0848 110.752 68.08C110.841 68.0756 110.925 68.0417 110.993 67.9838C111.06 67.9258 111.106 67.8471 111.124 67.76L113.564 56.632L114.852 61.356C114.867 61.4168 114.897 61.4731 114.938 61.5205C114.979 61.5678 115.03 61.6048 115.088 61.6286C115.146 61.6523 115.209 61.6621 115.272 61.6571C115.334 61.6522 115.394 61.6326 115.448 61.6L119.272 59.396C119.492 58.976 119.668 58.56 119.836 58.14Z" fill="white"/>
<path d="M137.9 165.117C137.736 165.659 137.722 166.236 137.86 166.785C138.02 167.121 139.02 168.225 141.06 168.625C143.1 169.025 145.904 168.625 147.112 168.553C148.32 168.481 152.112 168.953 153.316 169.105C155.212 169.361 156.668 168.945 157.376 168.261C157.491 168.124 157.575 167.964 157.624 167.791C157.673 167.619 157.685 167.438 157.66 167.261C157.656 166.805 157.589 166.351 157.46 165.913L137.9 165.117Z" fill="#263238"/>
<path d="M157.148 163.929C157.184 164.085 157.22 164.245 157.252 164.405C157.437 165.21 157.495 166.039 157.424 166.861C157.18 167.461 156.512 167.793 155.972 167.961C154.544 168.417 153.46 168.361 151.88 168.045C150.291 167.814 148.685 167.715 147.08 167.749C145.836 167.833 144.124 168.073 142.88 167.957C141.822 167.913 140.778 167.7 139.788 167.325C138.96 166.973 138.112 166.525 137.908 165.661C137.664 163.861 138.42 163.069 139.272 162.565C140.124 162.061 141.336 162.101 142.632 162.017C143.804 161.937 144.66 161.937 145.704 161.857C146.607 161.814 147.504 161.689 148.384 161.485C149.184 161.237 149.984 160.233 150.312 160.197C150.312 160.197 155.532 160.157 156.028 160.197C156.604 160.245 156.78 162.029 156.852 162.417C156.908 162.721 156.92 163.049 157 163.341C157.052 163.537 157.1 163.733 157.148 163.929Z" fill="#37474F"/>
<path d="M141.064 167.718C140.9 166.422 140.664 163.614 143.064 161.99H143.364C142.286 161.678 141.142 161.678 140.064 161.99C138.156 162.498 137.308 164.042 137.784 165.674C137.792 165.658 138.216 167.238 141.064 167.718Z" fill="#FAFAFA"/>
<path d="M148.028 161.577C147.256 162.261 146.988 163.817 146.988 163.817C146.888 164.401 145.832 164.489 145.932 163.925C146.093 163.15 146.404 162.413 146.848 161.757C147.21 161.566 147.626 161.503 148.028 161.577Z" fill="#FAFAFA"/>
<path d="M145.864 161.845C145.282 162.415 144.901 163.16 144.78 163.965C144.672 164.525 143.792 164.517 143.856 163.965C143.856 163.965 143.956 162.585 144.78 161.941C144.94 161.839 145.121 161.777 145.31 161.76C145.499 161.744 145.689 161.773 145.864 161.845Z" fill="#FAFAFA"/>
<path d="M156.188 156.4C156.188 156.4 156.048 159.756 155.864 160.856C155.752 161.512 154.892 162.2 152.752 162.128C151.248 162.076 150.064 162.2 150.124 161.024L150.256 157.596L156.188 156.4Z" fill="#FFA8A7"/>
<path d="M159.544 148.473C159.468 149.389 159.344 150.217 159.72 151.225C160.256 152.673 161.392 153.337 162.06 153.905C162.763 154.601 163.411 155.35 164 156.145C164.656 156.945 164.828 157.421 165.812 158.293C166.302 158.67 166.882 158.914 167.495 159C168.108 159.086 168.732 159.012 169.308 158.785C170.16 158.421 170.456 158.133 170.404 156.825C170.352 155.517 166.184 155.073 166.184 155.073L159.544 148.473Z" fill="#263238"/>
<path d="M169.864 152.93C170.22 153.058 170.308 153.702 170.364 154.982C170.404 155.95 170.832 157.382 169.428 157.978C168.296 158.47 166.488 158.142 165.724 157.23C164.772 156.09 164.124 155.086 162.764 153.698C161.564 152.498 160.364 152.098 159.832 149.678C159.492 148.126 159.76 147.486 160.856 147.042C162.364 146.43 164.728 148.426 165.912 148.742C166.928 149.01 169.508 152.802 169.864 152.93Z" fill="#37474F"/>
<path d="M165.912 148.742L165.712 148.674C165.038 148.699 164.381 148.9 163.809 149.257C163.236 149.614 162.767 150.115 162.448 150.71C162.248 151.13 162.848 151.458 163.248 151.13C164.088 149.53 165.816 149.186 166.508 149.11C166.338 148.946 166.134 148.821 165.912 148.742Z" fill="#FAFAFA"/>
<path d="M166.884 149.469C166.251 149.528 165.642 149.744 165.113 150.096C164.584 150.449 164.151 150.927 163.852 151.489C163.652 151.889 164.272 152.237 164.652 151.889C164.938 151.388 165.329 150.956 165.799 150.622C166.268 150.289 166.805 150.061 167.372 149.957C167.2 149.797 167.04 149.625 166.884 149.469Z" fill="#FAFAFA"/>
<path d="M170.068 150.617L169.864 153.317C169.864 153.317 168.148 154.569 165.688 153.421C165.616 153.273 165.408 150.857 165.408 150.857L170.068 150.617Z" fill="#FFA8A7"/>
<path d="M160.524 151.457C160.524 151.457 160.64 148.589 164.716 148.193L164.952 148.317C164.488 147.597 163.777 147.074 162.952 146.845C161.6 146.497 160.528 146.845 159.816 147.701C159.104 148.557 159.82 150.901 160.524 151.457Z" fill="#FAFAFA"/>
<path d="M171.256 132.634C170.672 127.91 170.456 125.278 170.456 125.278C170.456 125.278 170.34 118.626 170.744 112.478C170.92 109.782 171.012 106.798 171.068 104.078C171.143 101.082 170.904 98.0873 170.356 95.1416C170.356 95.1416 149.44 90.9816 149.18 98.6536C148.864 107.854 148.904 123.578 148.548 129.582C148.352 132.954 148.692 135.75 148.904 142.302C149.076 147.734 149.024 161.102 149.024 161.102C151.328 164.266 156.768 161.854 156.768 161.854C156.768 161.854 158.448 143.082 158.696 139.202C158.96 135.03 158.52 132.918 158.52 132.918L160.676 113.482C160.676 113.482 160.84 119.718 161.024 123.082C161.208 126.446 161.7 128.514 162.576 134.79C163.336 140.238 164.952 154.142 164.952 154.142C167.752 155.798 170.456 154.142 170.456 154.142C170.456 154.142 171.84 137.358 171.256 132.634Z" fill="#455A64"/>
<path d="M168.4 105.789C168.4 105.789 165.78 109.133 162.4 110.569C162.4 110.569 160.936 122.325 160.948 122.093L160.568 110.261C160.568 110.261 165.6 108.037 168.4 105.789Z" fill="#37474F"/>
<path d="M168.328 68.0006C170.58 67.4966 173.128 69.1046 174.824 72.6926C176.464 76.1246 180.944 84.7926 181.052 87.2206C181.168 89.7366 169.976 97.3686 170.252 97.2206C170.34 97.1766 168.32 91.4486 168.32 91.4486L173.756 86.9486L170.8 80.8606L168.328 68.0006Z" fill="#FFA8A7"/>
<path d="M167.144 67.4614C169.04 67.2294 172.476 67.9454 173.788 70.2254C175.692 73.5254 177.428 77.3414 179.64 82.2734C179.64 82.2734 178 85.8254 173.28 86.1614L170.452 81.2014L167.144 67.4614Z" fill="#37474F"/>
<path d="M157.6 64.4884L157.928 71.4884L164.864 71.1164L164.652 62.9844L157.6 64.4884Z" fill="#FFA8A7"/>
<path d="M171.676 70.9857C171.092 69.0777 169.076 67.5057 166.528 67.4297C165.96 67.4297 164.768 67.4297 164.768 67.4297C164.48 68.6097 160.868 69.0297 157.78 68.3217C156.848 68.5697 152.98 69.5217 152.18 69.7617C149.96 70.4977 149.276 72.7617 148.932 80.0017C148.932 80.0017 149 94.2737 148.932 101.086C152.836 103.146 158.868 102.89 163.16 102.454C169.904 101.774 170.908 99.3297 170.908 99.3297C170.624 95.3577 170.796 93.8617 170.908 89.9417C170.992 86.9937 171.84 83.8777 172.108 80.5377C172.504 75.5737 172.072 72.2977 171.676 70.9857Z" fill="#0D9488"/>
<path d="M156.516 65.8173C154.916 65.7053 152.916 66.9813 152.4 69.7133L153.704 69.3653L156.516 65.8173Z" fill="#0D9488"/>
<path opacity="0.3" d="M156.516 65.8173C154.916 65.7053 152.916 66.9813 152.4 69.7133L153.704 69.3653L156.516 65.8173Z" fill="black"/>
<path d="M157.688 66.4012C158.888 66.8012 162.388 66.7452 163.56 66.4012C164.732 66.0572 164.72 65.5372 164.72 65.5372V64.9492C165.396 64.9473 166.056 65.1525 166.612 65.5372C167.36 66.1452 168.648 68.3372 168.612 69.3892C168.576 70.4412 166.328 73.2172 161.992 73.1492C157.656 73.0812 155.22 71.4772 154.472 70.4212L153.72 69.3612C153.72 69.3612 154.748 67.2492 155.76 66.3612C156.279 65.8583 156.944 65.5333 157.66 65.4332L157.688 66.4012Z" fill="#0D9488"/>
<path opacity="0.2" d="M157.688 66.4012C158.888 66.8012 162.388 66.7452 163.56 66.4012C164.732 66.0572 164.72 65.5372 164.72 65.5372V64.9492C165.396 64.9473 166.056 65.1525 166.612 65.5372C167.36 66.1452 168.648 68.3372 168.612 69.3892C168.576 70.4412 166.328 73.2172 161.992 73.1492C157.656 73.0812 155.22 71.4772 154.472 70.4212L153.72 69.3612C153.72 69.3612 154.748 67.2492 155.76 66.3612C156.279 65.8583 156.944 65.5333 157.66 65.4332L157.688 66.4012Z" fill="black"/>
<path d="M152.932 55.9043C152.932 55.9043 151.28 58.4123 151.468 58.6563C151.656 58.9003 152.872 59.1283 152.872 59.1283L152.932 55.9043Z" fill="#F28F8F"/>
<path d="M157.524 48.9607C154.18 49.6687 152.844 50.6487 152.636 56.3647C152.436 61.9247 153.136 63.7567 153.864 64.5047C154.356 65.0087 157.096 65.1007 158.476 64.7167C160.204 64.2407 164.112 62.8567 165.94 60.0647C168.092 56.7767 168.656 52.3207 166.34 50.4927C163.112 47.9207 158.888 48.6727 157.524 48.9607Z" fill="#FFA8A7"/>
<path d="M153.864 64.5008C154.264 64.9008 156.18 65.0528 157.62 64.8768L157.6 64.0488C156.407 64.489 155.128 64.6438 153.864 64.5008Z" fill="#F28F8F"/>
<path d="M152.192 51.1089C153.025 51.7062 154.058 51.9545 155.072 51.8009C155.052 52.2491 155.172 52.6923 155.416 53.0689C155.755 53.5824 156.27 53.9549 156.864 54.1169C156.498 54.8345 156.303 55.6273 156.296 56.4329C156.273 56.6858 156.328 56.9395 156.452 57.1609C156.49 57.2414 156.551 57.3093 156.626 57.3569C156.701 57.4044 156.789 57.4297 156.878 57.4297C156.967 57.4297 157.054 57.4044 157.13 57.3569C157.205 57.3093 157.266 57.2414 157.304 57.1609C157.492 56.7354 157.728 56.3328 158.008 55.9609C158.37 55.527 158.88 55.2422 159.44 55.1609C161.54 54.9329 161.804 57.6809 160.964 58.8209C159.588 60.6849 158.42 59.4209 158.42 59.4209C158.366 60.2947 158.499 61.1699 158.809 61.9885C159.12 62.807 159.601 63.5503 160.22 64.1689C161.713 64.6088 163.295 64.6488 164.808 64.2849C166.672 61.7209 167.844 60.4729 168.84 58.2609C170.944 53.5769 169.928 50.6369 168.3 49.3969C167.98 47.2409 166.28 46.2729 164.34 45.8289C161.444 45.1609 158.74 46.8809 155.868 46.2289C155.397 46.1303 154.931 46.0074 154.472 45.8609C154.295 45.7781 154.094 45.7652 153.908 45.8249C153.805 45.8933 153.724 45.9904 153.676 46.1041C153.628 46.2179 153.614 46.3433 153.636 46.4649C153.672 47.0169 154.232 47.6289 154.516 47.9249C153.889 47.9823 153.256 47.9459 152.64 47.8169C152.426 47.7768 152.206 47.7768 151.992 47.8169C151.757 47.9126 151.558 48.0803 151.425 48.2959C151.291 48.5115 151.229 48.7639 151.248 49.0169C151.25 49.4122 151.336 49.8027 151.498 50.163C151.661 50.5233 151.897 50.8456 152.192 51.1089Z" fill="#263238"/>
<path d="M168.352 50.0924L170.352 48.8924C170.193 48.6272 169.935 48.436 169.635 48.361C169.335 48.286 169.017 48.3332 168.752 48.4924C168.487 48.6515 168.296 48.9095 168.221 49.2095C168.146 49.5096 168.193 49.8272 168.352 50.0924Z" fill="#263238"/>
<path d="M142.288 81.6017C141.835 79.8204 141.397 78.0364 140.976 76.2497C140.576 74.6057 139.96 72.7017 140.524 71.0217C140.845 70.288 141.247 69.5929 141.724 68.9497C142.137 68.2717 142.485 67.5566 142.764 66.8137C142.904 66.4537 143.032 66.0857 143.164 65.7217C143.296 65.3577 143.484 65.1497 143.396 64.8017C143.104 63.6617 141.632 65.1577 141.332 65.6257C141.199 65.8714 141.044 66.1043 140.868 66.3217C140.676 66.5257 140.208 66.7817 139.984 66.4817C139.909 66.3613 139.868 66.2233 139.864 66.0817C139.712 64.3257 140.344 62.7537 140.868 61.1137C140.951 60.8984 141.001 60.6718 141.016 60.4417C141.025 60.3268 141.01 60.2111 140.971 60.1028C140.931 59.9944 140.869 59.8957 140.788 59.8137C140.658 59.7137 140.503 59.6499 140.34 59.6288C140.177 59.6077 140.011 59.6301 139.86 59.6937C139.564 59.7937 139.308 59.9817 139.012 60.0737C138.716 60.1657 138.496 60.1657 138.236 60.2337C137.619 60.3712 137.025 60.5961 136.472 60.9017C135.512 61.4657 135.088 62.2897 134.836 63.3377C134.533 64.6249 134.431 65.9512 134.532 67.2697C134.6 68.1457 134.756 69.0097 134.864 69.8737L135.224 72.7657C135.468 74.6937 135.54 84.3257 135.872 86.2417C136.204 88.1577 136.844 89.4417 138.36 90.0777C140.56 90.9737 144.116 86.9257 146.136 84.8297L142.288 81.6017Z" fill="#FFA8A7"/>
<path d="M141.484 80.5096C140.068 81.5696 138.304 83.3336 137.948 85.1016C137.948 85.1016 137.596 81.9216 141.484 79.1016V80.5096Z" fill="#F28F8F"/>
<path d="M152.068 69.8047C150.708 69.9327 148.468 69.9807 146.188 72.4327C143.544 75.2967 139.468 80.9447 139.468 80.9447C139.468 80.9447 140 85.4407 144.328 87.0527C144.328 87.0527 150.62 81.0527 151.972 78.4687C153.324 75.8847 153.628 71.6007 152.068 69.8047Z" fill="#37474F"/>
<path d="M150.256 60.3002L148.536 59.3762L149.524 58.5322L145.952 56.8602L147.512 55.9562L143.664 53.9082L145.952 55.9282L144.092 56.8602L148.288 58.6762L147.252 59.7122L150.256 60.3002Z" fill="#0D9488"/>
<path d="M151.132 58.033L150.012 56.961L150.624 56.509L149.64 55.341L150.584 55.021L150.256 53.541L150.92 55.137L150.256 55.425L151.32 56.593L150.6 57.105L151.132 58.033Z" fill="#0D9488"/>
<path d="M150.48 61.9926L148.368 63.6406L147.588 62.4926L145.74 63.4966L144.984 62.0766L142.124 62.8086L145.432 61.2246L146.38 62.5326L147.916 61.7086L148.556 62.8086L150.48 61.9926Z" fill="#0D9488"/>
<path d="M135.796 91.485C135.86 91.4317 135.943 91.4059 136.026 91.4134C136.109 91.4209 136.186 91.461 136.24 91.525C136.649 91.9843 137.18 92.3178 137.772 92.4863C138.363 92.6549 138.99 92.6517 139.58 92.477C139.62 92.4628 139.663 92.4569 139.705 92.4597C139.748 92.4624 139.79 92.4738 139.828 92.493C139.866 92.5122 139.899 92.539 139.927 92.5716C139.954 92.6043 139.975 92.6421 139.987 92.6829C140 92.7237 140.004 92.7666 139.999 92.809C139.995 92.8514 139.982 92.8925 139.961 92.9297C139.94 92.9669 139.912 92.9995 139.878 93.0255C139.844 93.0515 139.805 93.0704 139.764 93.081C139.057 93.2903 138.304 93.2931 137.596 93.089C136.887 92.8849 136.252 92.4824 135.764 91.929C135.737 91.8979 135.716 91.8617 135.702 91.8224C135.689 91.7832 135.684 91.7416 135.687 91.7003C135.69 91.659 135.701 91.6187 135.72 91.5817C135.738 91.5447 135.764 91.5119 135.796 91.485Z" fill="#E0E0E0"/>
<path d="M136.116 93.6018C136.172 93.555 136.243 93.5293 136.316 93.5293C136.389 93.5293 136.46 93.555 136.516 93.6018C136.842 93.8372 137.215 93.9986 137.609 94.0746C138.004 94.1506 138.41 94.1394 138.8 94.0418C138.883 94.0265 138.968 94.0444 139.038 94.0916C139.107 94.1387 139.155 94.2114 139.172 94.2938C139.18 94.3343 139.18 94.376 139.172 94.4164C139.164 94.4569 139.148 94.4954 139.125 94.5296C139.102 94.5638 139.072 94.5931 139.038 94.6158C139.003 94.6385 138.965 94.6542 138.924 94.6618C138.442 94.7737 137.942 94.7783 137.458 94.6753C136.974 94.5723 136.519 94.3643 136.124 94.0658C136.092 94.039 136.066 94.0061 136.048 93.9692C136.029 93.9322 136.018 93.8919 136.015 93.8505C136.012 93.8092 136.017 93.7677 136.03 93.7284C136.044 93.6892 136.065 93.6529 136.092 93.6218C136.099 93.6141 136.107 93.6074 136.116 93.6018Z" fill="#E0E0E0"/>
<path d="M175.392 69.3563C175.355 69.3755 175.315 69.387 175.273 69.3904C175.232 69.3937 175.19 69.3887 175.15 69.3756C175.111 69.3626 175.074 69.3418 175.043 69.3144C175.012 69.287 174.986 69.2537 174.968 69.2163C174.676 68.675 174.237 68.2276 173.701 67.926C173.165 67.6244 172.554 67.481 171.94 67.5123C171.898 67.5147 171.857 67.5088 171.818 67.4951C171.778 67.4814 171.742 67.4601 171.711 67.4325C171.649 67.3766 171.611 67.2981 171.606 67.2143C171.601 67.1305 171.63 67.0482 171.686 66.9856C171.742 66.923 171.82 66.8851 171.904 66.8803C172.641 66.8417 173.374 67.0143 174.017 67.3778C174.66 67.7413 175.185 68.2805 175.532 68.9323C175.568 69.0073 175.574 69.0936 175.548 69.1728C175.522 69.252 175.466 69.3178 175.392 69.3563Z" fill="#E0E0E0"/>
<path d="M175.568 67.2372C175.501 67.2725 175.424 67.2822 175.35 67.2645C175.276 67.2468 175.212 67.203 175.168 67.1412C174.91 66.8396 174.59 66.597 174.229 66.4299C173.869 66.2629 173.477 66.1754 173.08 66.1732C173.038 66.1717 172.998 66.1619 172.96 66.1446C172.922 66.1273 172.888 66.1027 172.86 66.0722C172.832 66.0417 172.81 66.006 172.795 65.9671C172.781 65.9281 172.774 65.8867 172.776 65.8452C172.778 65.8037 172.787 65.763 172.805 65.7252C172.822 65.6875 172.847 65.6535 172.877 65.6253C172.907 65.5971 172.943 65.5751 172.982 65.5607C173.021 65.5463 173.062 65.5397 173.104 65.5412C173.597 65.5462 174.083 65.659 174.528 65.8719C174.973 66.0847 175.367 66.3923 175.68 66.7732C175.725 66.8409 175.742 66.9236 175.727 67.0035C175.712 67.0835 175.666 67.1544 175.6 67.2012L175.568 67.2372Z" fill="#E0E0E0"/>
<path d="M181.16 90.292C181.12 90.2187 181.11 90.1326 181.134 90.0524C181.157 89.9722 181.211 89.9045 181.284 89.864C181.811 89.5472 182.237 89.0872 182.512 88.5377C182.788 87.9881 182.901 87.3716 182.84 86.76C182.835 86.7187 182.838 86.6768 182.85 86.6367C182.861 86.5967 182.881 86.5594 182.907 86.527C182.933 86.4945 182.965 86.4677 183.002 86.4479C183.038 86.4282 183.079 86.4159 183.12 86.412C183.203 86.403 183.287 86.4275 183.352 86.48C183.417 86.5325 183.459 86.6087 183.468 86.692C183.539 87.4235 183.402 88.1602 183.071 88.8165C182.74 89.4729 182.23 90.022 181.6 90.4C181.564 90.4224 181.524 90.4373 181.483 90.444C181.441 90.4507 181.398 90.449 181.357 90.4389C181.316 90.4288 181.278 90.4106 181.244 90.3854C181.21 90.3602 181.181 90.3284 181.16 90.292Z" fill="#E0E0E0"/>
<path d="M183.284 90.3695C183.248 90.3044 183.236 90.2288 183.25 90.1558C183.264 90.0829 183.303 90.017 183.36 89.9695C183.65 89.698 183.878 89.3668 184.028 88.9987C184.178 88.6307 184.246 88.2345 184.228 87.8375C184.228 87.7537 184.261 87.6733 184.321 87.614C184.38 87.5548 184.46 87.5215 184.544 87.5215C184.628 87.5215 184.708 87.5548 184.767 87.614C184.827 87.6733 184.86 87.7537 184.86 87.8375C184.877 88.3299 184.787 88.8202 184.597 89.2746C184.406 89.729 184.119 90.1367 183.756 90.4695C183.723 90.4952 183.686 90.5143 183.646 90.5256C183.606 90.537 183.564 90.5403 183.523 90.5355C183.482 90.5307 183.442 90.5177 183.406 90.4975C183.37 90.4773 183.338 90.4501 183.312 90.4175L183.284 90.3695Z" fill="#E0E0E0"/>
<path d="M146.488 128.401C146.563 128.438 146.62 128.504 146.646 128.583C146.673 128.663 146.668 128.749 146.632 128.825C146.379 129.385 146.29 130.005 146.376 130.614C146.463 131.222 146.721 131.793 147.12 132.261C147.174 132.325 147.201 132.408 147.194 132.492C147.187 132.576 147.148 132.654 147.084 132.709C147.021 132.763 146.939 132.79 146.855 132.784C146.772 132.778 146.695 132.739 146.64 132.677C146.16 132.114 145.851 131.427 145.749 130.695C145.647 129.963 145.756 129.217 146.064 128.545C146.102 128.47 146.167 128.413 146.247 128.386C146.326 128.359 146.412 128.364 146.488 128.401Z" fill="#E0E0E0"/>
<path d="M144.696 129.541C144.764 129.574 144.819 129.629 144.85 129.698C144.88 129.767 144.886 129.845 144.864 129.917C144.78 130.306 144.781 130.708 144.868 131.096C144.954 131.484 145.123 131.849 145.364 132.165C145.411 132.234 145.43 132.319 145.415 132.401C145.401 132.483 145.356 132.556 145.288 132.605C145.22 132.654 145.135 132.673 145.052 132.658C144.97 132.644 144.896 132.598 144.848 132.529C144.551 132.134 144.345 131.678 144.243 131.195C144.14 130.711 144.145 130.211 144.256 129.729C144.268 129.689 144.288 129.652 144.315 129.62C144.342 129.587 144.375 129.561 144.412 129.542C144.45 129.522 144.49 129.51 144.532 129.507C144.574 129.503 144.616 129.508 144.656 129.521L144.696 129.541Z" fill="#E0E0E0"/>
</svg>
