<svg width="1270" height="682" viewBox="0 0 1270 682" fill="none" xmlns="http://www.w3.org/2000/svg">
<g opacity="0.3">
<path d="M219.289 332.414L224.644 343.222L236.609 344.974L227.949 353.403L229.998 365.301L219.289 359.683L208.613 365.301L210.662 353.403L202.002 344.974L213.968 343.222L219.289 332.414Z" fill="#EBEBEB"/>
<path d="M1252.68 333.835L1258.03 344.676L1270 346.428L1261.34 354.823L1263.39 366.755L1252.68 361.136L1242 366.755L1244.05 354.823L1235.39 346.428L1247.36 344.676L1252.68 333.835Z" fill="#F5F5F5"/>
<path d="M1040.81 648.132L1046.17 658.94L1058.1 660.692L1049.44 669.12L1051.49 681.019L1040.81 675.4L1030.14 681.019L1032.15 669.12L1023.53 660.692L1035.46 658.94L1040.81 648.132Z" fill="#F5F5F5"/>
<path d="M592.421 140.377L594.404 144.409L598.866 145.07C599.115 145.103 599.35 145.206 599.543 145.367C599.735 145.528 599.878 145.74 599.954 145.98C600.031 146.219 600.037 146.475 599.973 146.718C599.909 146.961 599.778 147.18 599.593 147.351L596.288 150.491L597.048 154.92C597.087 155.166 597.058 155.419 596.962 155.65C596.867 155.88 596.71 156.08 596.508 156.227C596.306 156.374 596.068 156.462 595.819 156.483C595.57 156.503 595.321 156.454 595.098 156.341L591.132 154.226L587.166 156.341C586.943 156.454 586.693 156.503 586.445 156.483C586.196 156.462 585.958 156.374 585.756 156.227C585.554 156.08 585.397 155.88 585.302 155.65C585.206 155.419 585.176 155.166 585.216 154.92L585.943 150.491L582.637 147.351C582.452 147.178 582.321 146.956 582.258 146.71C582.196 146.465 582.206 146.207 582.286 145.967C582.366 145.726 582.513 145.514 582.71 145.355C582.907 145.196 583.146 145.097 583.398 145.07L587.827 144.409L589.81 140.377C589.889 140.091 590.06 139.84 590.296 139.661C590.531 139.482 590.819 139.385 591.115 139.385C591.412 139.385 591.7 139.482 591.935 139.661C592.171 139.84 592.342 140.091 592.421 140.377Z" fill="#EBEBEB"/>
<path d="M10.165 596.669L12.1482 600.669L16.5772 601.33C16.8287 601.365 17.0653 601.469 17.2602 601.632C17.4552 601.794 17.6005 602.008 17.6798 602.249C17.759 602.49 17.7689 602.749 17.7084 602.996C17.6479 603.242 17.5193 603.467 17.3374 603.644L14.0322 606.751L14.7924 611.18C14.8314 611.426 14.8016 611.679 14.7063 611.909C14.6109 612.14 14.4538 612.34 14.2521 612.487C14.0504 612.634 13.812 612.722 13.5632 612.742C13.3145 612.762 13.065 612.714 12.8423 612.601L8.87593 610.519L4.90961 612.601C4.6869 612.714 4.43742 612.762 4.18865 612.742C3.93989 612.722 3.70151 612.634 3.49982 612.487C3.29812 612.34 3.14093 612.14 3.04559 611.909C2.95025 611.679 2.92046 611.426 2.9595 611.18L3.71973 606.751L0.414457 603.644C0.233155 603.469 0.104157 603.247 0.0419617 603.003C-0.0202336 602.759 -0.013169 602.502 0.0623498 602.262C0.137869 602.022 0.278854 601.807 0.469494 601.642C0.660134 601.478 0.89288 601.37 1.14161 601.33L5.57067 600.669L7.58688 596.669C7.67521 596.397 7.84753 596.16 8.07911 595.991C8.31069 595.823 8.58963 595.732 8.87593 595.732C9.16224 595.732 9.44119 595.823 9.67277 595.991C9.90435 596.16 10.0767 596.397 10.165 596.669Z" fill="#F5F5F5"/>
<path d="M135.666 97.905L137.649 101.937L142.112 102.565C142.36 102.605 142.593 102.713 142.784 102.878C142.974 103.043 143.115 103.257 143.191 103.497C143.266 103.738 143.273 103.994 143.211 104.238C143.149 104.482 143.02 104.704 142.839 104.879L139.533 108.184L140.294 112.58C140.347 112.83 140.326 113.089 140.235 113.328C140.143 113.566 139.985 113.772 139.779 113.923C139.573 114.073 139.328 114.16 139.073 114.174C138.818 114.188 138.565 114.128 138.344 114.002L134.377 111.919L130.411 114.002C130.19 114.128 129.936 114.188 129.682 114.174C129.427 114.16 129.182 114.073 128.976 113.923C128.769 113.772 128.611 113.566 128.52 113.328C128.428 113.089 128.408 112.83 128.461 112.58L129.188 108.184L125.883 104.879C125.701 104.702 125.572 104.478 125.512 104.231C125.451 103.985 125.461 103.726 125.54 103.485C125.62 103.244 125.765 103.03 125.96 102.867C126.155 102.705 126.391 102.6 126.643 102.565L131.072 101.937L133.187 97.905C133.294 97.6648 133.467 97.4606 133.687 97.3173C133.907 97.174 134.164 97.0977 134.427 97.0977C134.689 97.0977 134.946 97.174 135.166 97.3173C135.386 97.4606 135.56 97.6648 135.666 97.905Z" fill="#EBEBEB"/>
<path d="M93.953 386.188C93.9596 387.059 93.7073 387.912 93.2283 388.639C92.7492 389.367 92.065 389.935 91.2623 390.273C90.4596 390.611 89.5747 390.703 88.7198 390.537C87.8649 390.371 87.0786 389.955 86.4604 389.341C85.8423 388.728 85.4204 387.945 85.2481 387.091C85.0757 386.237 85.1608 385.352 85.4926 384.547C85.8243 383.741 86.3877 383.053 87.1113 382.568C87.8349 382.084 88.6862 381.825 89.557 381.825C90.7172 381.825 91.8303 382.284 92.6538 383.101C93.4773 383.918 93.9443 385.028 93.953 386.188Z" fill="#EBEBEB"/>
<path d="M756.791 344.447C756.797 345.318 756.545 346.171 756.066 346.898C755.587 347.626 754.903 348.194 754.1 348.532C753.297 348.87 752.413 348.962 751.558 348.796C750.703 348.63 749.916 348.214 749.298 347.6C748.68 346.987 748.258 346.204 748.086 345.35C747.914 344.496 747.999 343.611 748.33 342.806C748.662 342 749.226 341.312 749.949 340.827C750.673 340.343 751.524 340.084 752.395 340.084C752.971 340.08 753.541 340.189 754.075 340.407C754.608 340.624 755.093 340.945 755.501 341.35C755.91 341.756 756.234 342.238 756.456 342.77C756.677 343.301 756.791 343.871 756.791 344.447Z" fill="#EBEBEB"/>
<path d="M528.86 101.542C528.86 102.411 528.602 103.261 528.119 103.984C527.636 104.707 526.949 105.27 526.146 105.603C525.343 105.936 524.459 106.023 523.606 105.853C522.753 105.683 521.97 105.265 521.355 104.65C520.741 104.035 520.322 103.252 520.152 102.399C519.983 101.546 520.07 100.662 520.402 99.8592C520.735 99.056 521.299 98.3694 522.022 97.8864C522.745 97.4033 523.594 97.1455 524.464 97.1455C525.627 97.1542 526.74 97.6201 527.563 98.4426C528.385 99.2652 528.851 100.378 528.86 101.542Z" fill="#F5F5F5"/>
<path d="M499.463 664.569C512.522 661.487 520.609 648.403 517.527 635.344C514.445 622.286 501.361 614.199 488.302 617.281C475.244 620.363 467.157 633.447 470.239 646.505C473.321 659.564 486.405 667.651 499.463 664.569Z" fill="#F0F0F0"/>
<path d="M485.528 626.712C480.551 626.702 475.701 628.276 471.679 631.207C469.625 635.919 469.12 641.162 470.239 646.18C471.357 651.197 474.04 655.729 477.901 659.123C481.762 662.517 486.601 664.597 491.72 665.063C496.839 665.528 501.974 664.356 506.384 661.715C508.336 658.104 509.317 654.048 509.231 649.945C509.144 645.841 507.993 641.83 505.891 638.305C503.788 634.779 500.806 631.861 497.237 629.834C493.667 627.808 489.633 626.743 485.528 626.745V626.712Z" fill="#E6E6E6"/>
<path d="M508.631 257.616C508.631 258.84 508.268 260.037 507.587 261.054C506.907 262.071 505.939 262.863 504.808 263.33C503.677 263.797 502.432 263.917 501.232 263.676C500.032 263.435 498.931 262.843 498.068 261.975C497.205 261.107 496.619 260.003 496.384 258.802C496.15 257.601 496.277 256.357 496.75 255.228C497.222 254.099 498.02 253.136 499.041 252.461C500.061 251.786 501.26 251.429 502.483 251.436C503.294 251.436 504.096 251.596 504.844 251.907C505.592 252.218 506.271 252.674 506.842 253.248C507.414 253.822 507.866 254.504 508.173 255.254C508.48 256.003 508.636 256.806 508.631 257.616Z" fill="#3FA6A1"/>
<path d="M85.4582 495.033C87.8678 495.033 89.8211 493.079 89.8211 490.67C89.8211 488.26 87.8678 486.307 85.4582 486.307C83.0486 486.307 81.0952 488.26 81.0952 490.67C81.0952 493.079 83.0486 495.033 85.4582 495.033Z" fill="#3FA6A1"/>
<path d="M769.914 623.835C773.364 623.835 776.161 621.038 776.161 617.588C776.161 614.138 773.364 611.341 769.914 611.341C766.464 611.341 763.667 614.138 763.667 617.588C763.667 621.038 766.464 623.835 769.914 623.835Z" fill="#3FA6A1"/>
<path d="M920.136 369.661C922.546 369.661 924.499 367.707 924.499 365.298C924.499 362.888 922.546 360.935 920.136 360.935C917.727 360.935 915.773 362.888 915.773 365.298C915.773 367.707 917.727 369.661 920.136 369.661Z" fill="#3FA6A1"/>
<path d="M1246.27 92.3522C1246.27 93.2151 1246.01 94.0587 1245.53 94.7761C1245.05 95.4936 1244.37 96.0528 1243.57 96.3831C1242.78 96.7133 1241.9 96.7997 1241.05 96.6313C1240.21 96.463 1239.43 96.0475 1238.82 95.4373C1238.21 94.8271 1237.79 94.0497 1237.63 93.2034C1237.46 92.357 1237.54 91.4798 1237.87 90.6826C1238.2 89.8854 1238.76 89.2039 1239.48 88.7245C1240.2 88.2451 1241.04 87.9893 1241.9 87.9893C1243.06 87.9893 1244.17 88.4489 1244.99 89.2671C1245.81 90.0854 1246.27 91.1951 1246.27 92.3522Z" fill="#3FA6A1"/>
<path d="M415.258 4.36491C415.258 5.22782 415.002 6.07135 414.522 6.78883C414.043 7.50632 413.362 8.06553 412.564 8.39575C411.767 8.72597 410.89 8.81238 410.044 8.64404C409.197 8.47569 408.42 8.06015 407.81 7.44998C407.199 6.83981 406.784 6.06242 406.616 5.21609C406.447 4.36976 406.534 3.4925 406.864 2.69528C407.194 1.89805 407.753 1.21664 408.471 0.737236C409.188 0.257829 410.032 0.00195313 410.895 0.00195312C412.049 0.0106011 413.154 0.473046 413.97 1.28939C414.787 2.10574 415.249 3.21045 415.258 4.36491Z" fill="#3FA6A1"/>
<path d="M762.145 233.289C764.555 233.289 766.508 231.336 766.508 228.926C766.508 226.517 764.555 224.563 762.145 224.563C759.736 224.563 757.782 226.517 757.782 228.926C757.782 231.336 759.736 233.289 762.145 233.289Z" fill="#3FA6A1"/>
<path d="M311.076 233.319C351.071 233.319 383.494 200.896 383.494 160.901C383.494 120.905 351.071 88.4824 311.076 88.4824C271.08 88.4824 238.657 120.905 238.657 160.901C238.657 200.896 271.08 233.319 311.076 233.319Z" fill="#3FA6A1"/>
<path opacity="0.7" d="M311.076 233.319C351.071 233.319 383.494 200.896 383.494 160.901C383.494 120.905 351.071 88.4824 311.076 88.4824C271.08 88.4824 238.657 120.905 238.657 160.901C238.657 200.896 271.08 233.319 311.076 233.319Z" fill="white"/>
<path opacity="0.2" d="M286.121 106.268C276.258 106.238 266.494 108.229 257.431 112.118C246.292 124.361 239.681 140.048 238.697 156.57C237.713 173.092 242.416 189.453 252.023 202.931C261.63 216.409 275.562 226.191 291.502 230.65C307.441 235.109 324.427 233.976 339.633 227.439C349.061 217.049 355.269 204.146 357.504 190.296C359.74 176.445 357.905 162.244 352.225 149.416C346.544 136.588 337.261 125.685 325.503 118.032C313.745 110.378 300.018 106.303 285.989 106.301L286.121 106.268Z" fill="#3FA6A1"/>
<path opacity="0.2" d="M278.916 125.405C278.916 126.713 278.529 127.991 277.802 129.078C277.076 130.165 276.044 131.012 274.836 131.513C273.628 132.013 272.299 132.144 271.016 131.889C269.734 131.634 268.556 131.004 267.631 130.08C266.707 129.155 266.077 127.977 265.822 126.695C265.567 125.413 265.698 124.084 266.199 122.876C266.699 121.668 267.546 120.635 268.633 119.909C269.72 119.183 270.998 118.795 272.306 118.795C274.059 118.795 275.74 119.491 276.98 120.731C278.22 121.971 278.916 123.652 278.916 125.405Z" fill="#3FA6A1"/>
<path opacity="0.2" d="M356.788 118.794C356.788 120.102 356.401 121.38 355.674 122.467C354.948 123.554 353.916 124.401 352.708 124.901C351.5 125.402 350.171 125.533 348.888 125.278C347.606 125.023 346.428 124.393 345.504 123.468C344.579 122.544 343.949 121.366 343.694 120.084C343.439 118.801 343.57 117.472 344.071 116.264C344.571 115.056 345.418 114.024 346.505 113.298C347.592 112.571 348.87 112.184 350.178 112.184C351.931 112.184 353.613 112.88 354.852 114.12C356.092 115.359 356.788 117.041 356.788 118.794Z" fill="#3FA6A1"/>
<path opacity="0.2" d="M343.567 165.995C343.567 168.139 342.931 170.235 341.74 172.018C340.549 173.801 338.856 175.19 336.875 176.011C334.894 176.831 332.714 177.046 330.611 176.628C328.508 176.209 326.576 175.177 325.06 173.661C323.544 172.144 322.511 170.213 322.093 168.11C321.675 166.007 321.889 163.827 322.71 161.846C323.531 159.865 324.92 158.172 326.703 156.98C328.486 155.789 330.582 155.153 332.726 155.153C335.601 155.153 338.359 156.296 340.392 158.329C342.425 160.362 343.567 163.119 343.567 165.995Z" fill="#3FA6A1"/>
<path opacity="0.2" d="M309.126 196.898C309.126 199.761 308.276 202.56 306.686 204.941C305.095 207.322 302.834 209.177 300.189 210.273C297.543 211.369 294.632 211.655 291.824 211.097C289.016 210.538 286.436 209.159 284.412 207.135C282.387 205.11 281.008 202.531 280.45 199.722C279.891 196.914 280.178 194.003 281.273 191.358C282.369 188.712 284.225 186.451 286.605 184.861C288.986 183.27 291.785 182.421 294.648 182.421C298.488 182.421 302.17 183.946 304.885 186.661C307.6 189.376 309.126 193.058 309.126 196.898Z" fill="#3FA6A1"/>
<path d="M1133 526.087C1141.06 491.923 1119.9 457.69 1085.74 449.626C1051.57 441.563 1017.34 462.722 1009.27 496.886C1001.21 531.051 1022.37 565.284 1056.53 573.348C1090.7 581.411 1124.93 560.252 1133 526.087Z" fill="#3FA6A1"/>
<path opacity="0.3" d="M1133 526.087C1141.06 491.923 1119.9 457.69 1085.74 449.626C1051.57 441.563 1017.34 462.722 1009.27 496.886C1001.21 531.051 1022.37 565.284 1056.53 573.348C1090.7 581.411 1124.93 560.252 1133 526.087Z" fill="white"/>
<path opacity="0.4" d="M1111.28 462.273C1097.19 458.021 1082.06 458.792 1068.48 464.456C1054.89 470.12 1043.7 480.325 1036.8 493.328C1029.91 506.33 1027.74 521.324 1030.67 535.747C1033.6 550.169 1041.45 563.127 1052.88 572.405C1058.8 574.205 1064.96 575.118 1071.16 575.115C1084.28 575.112 1097.08 571.048 1107.8 563.481C1118.52 555.913 1126.63 545.214 1131.03 532.85C1135.42 520.487 1135.89 507.066 1132.35 494.429C1128.81 481.793 1121.45 470.56 1111.28 462.273Z" fill="#3FA6A1"/>
<path d="M1010.47 530.562C942.613 562.491 993.216 587.115 1088.84 552.741C1177.39 520.911 1211.13 480.785 1131.81 493.246C1136.07 509.937 1025.18 553.137 1010.47 530.562Z" fill="#3FA6A1"/>
</g>
</svg>
