<svg width="273" height="273" viewBox="0 0 273 273" fill="none" xmlns="http://www.w3.org/2000/svg">
<path d="M273 136.5C273 211.887 211.887 273 136.5 273C61.1131 273 0 211.887 0 136.5C0 61.1131 61.1131 0 136.5 0C211.887 0 273 61.1131 273 136.5Z" fill="#115E59"/>
<path d="M94.4346 98.4264C95.8442 99.3107 96.6537 100.606 97.4008 101.951C99.9254 106.496 102.419 111.058 104.985 115.579C106.024 117.41 107.236 119.142 108.34 120.937C109.692 123.137 109.554 124.691 108.014 126.327C106.099 128.362 103.883 130.112 101.83 132.02C99.9858 133.735 98.143 135.455 96.3858 137.256C95.4708 138.195 95.5848 139.39 96.1638 140.492C97.2624 142.584 98.3189 144.706 99.5538 146.716C101.21 149.413 102.958 152.059 104.785 154.644C106.031 156.409 107.399 158.104 108.856 159.7C110.584 161.593 112.35 163.483 114.306 165.129C117.125 167.499 120.043 169.775 123.081 171.854C126.091 173.914 129.288 175.705 132.437 177.556C133.159 177.981 134.002 178.246 134.822 178.448C136.178 178.782 137.18 177.939 137.973 177.077C140.011 174.858 141.868 172.472 143.908 170.255C145.401 168.633 146.979 167.061 148.688 165.674C150.017 164.595 151.65 164.873 153.055 165.678C154.826 166.692 156.476 167.914 158.232 168.956C160.779 170.467 163.372 171.9 165.95 173.359C168.612 174.866 171.305 176.322 173.929 177.894C174.622 178.31 175.108 179.072 175.76 179.693C175.831 180.945 175.831 182.178 175.751 183.536C175.382 185.118 175.141 186.585 174.795 188.027C174.128 190.801 173.153 193.439 170.796 195.269C169.414 196.342 167.976 197.346 166.524 198.321C163.666 200.241 160.563 201.629 157.212 202.442C156.048 202.725 154.88 202.987 153.714 203.258C151.593 203.258 149.473 203.258 147.226 203.178C144.314 202.429 141.487 201.899 138.755 201.058C135.878 200.172 133.1 198.967 130.264 197.94C125.862 196.345 121.636 194.367 117.679 191.877C111.476 187.972 105.869 183.292 100.568 178.248C98.7259 176.495 97.0563 174.562 95.2529 172.766C91.6584 169.186 88.5064 165.24 85.5037 161.166C82.5418 157.148 79.8994 152.91 78.039 148.289C75.8988 142.973 74.1012 137.518 72.1951 132.109C71.7116 130.737 71.3809 129.312 70.98 127.91C70.98 125.108 70.98 122.305 71.0571 119.384C71.4124 118.295 71.707 117.328 71.9661 116.352C73.028 112.35 75.0123 108.795 77.4072 105.475C78.3974 104.102 79.6058 102.852 80.8726 101.723C82.5705 100.209 84.8303 99.8698 86.9349 99.2598C88.1483 98.908 89.4033 98.6994 90.6395 98.4264C91.8726 98.4264 93.1056 98.4264 94.4346 98.4264Z" fill="#F0FDFA"/>
<path d="M163.033 131.04V114.092H146.085V104.22H163.033V87.36H172.904V104.22H189.765V114.092H172.904V131.04H163.033Z" fill="#F0FDFA"/>
</svg>
