<svg width="455" height="421" viewBox="0 0 455 421" fill="none" xmlns="http://www.w3.org/2000/svg">
<path d="M364 148.5C364 223.887 302.887 285 227.5 285C152.113 285 91 223.887 91 148.5C91 73.1131 152.113 12 227.5 12C302.887 12 364 73.1131 364 148.5Z" fill="#115E59"/>
<path d="M185.435 110.426C186.844 111.311 187.654 112.606 188.401 113.951C190.925 118.496 193.419 123.058 195.985 127.579C197.024 129.41 198.236 131.142 199.34 132.937C200.692 135.137 200.554 136.691 199.014 138.327C197.099 140.362 194.883 142.112 192.83 144.02C190.986 145.735 189.143 147.455 187.386 149.256C186.471 150.195 186.585 151.39 187.164 152.492C188.262 154.584 189.319 156.706 190.554 158.716C192.21 161.413 193.958 164.059 195.785 166.644C197.031 168.409 198.4 170.104 199.856 171.7C201.584 173.593 203.35 175.483 205.306 177.129C208.125 179.499 211.043 181.775 214.081 183.854C217.091 185.914 220.288 187.705 223.437 189.556C224.159 189.981 225.002 190.246 225.822 190.448C227.178 190.782 228.18 189.939 228.973 189.077C231.011 186.858 232.868 184.472 234.908 182.255C236.401 180.633 237.979 179.061 239.688 177.674C241.017 176.595 242.65 176.873 244.055 177.678C245.826 178.692 247.476 179.914 249.232 180.956C251.779 182.467 254.372 183.9 256.95 185.359C259.612 186.866 262.305 188.322 264.929 189.894C265.622 190.31 266.108 191.072 266.76 191.693C266.831 192.945 266.831 194.178 266.751 195.536C266.382 197.118 266.141 198.585 265.795 200.027C265.128 202.801 264.153 205.439 261.796 207.269C260.414 208.342 258.976 209.346 257.524 210.321C254.666 212.241 251.563 213.629 248.212 214.442C247.048 214.725 245.88 214.987 244.714 215.258C242.593 215.258 240.473 215.258 238.226 215.178C235.314 214.429 232.487 213.899 229.755 213.058C226.878 212.172 224.1 210.967 221.264 209.94C216.862 208.345 212.636 206.367 208.679 203.877C202.476 199.972 196.869 195.292 191.568 190.248C189.726 188.495 188.056 186.562 186.253 184.766C182.658 181.186 179.506 177.24 176.504 173.166C173.542 169.148 170.899 164.91 169.039 160.289C166.899 154.973 165.101 149.518 163.195 144.109C162.712 142.737 162.381 141.312 161.98 139.91C161.98 137.108 161.98 134.305 162.057 131.384C162.412 130.295 162.707 129.328 162.966 128.352C164.028 124.35 166.012 120.795 168.407 117.475C169.397 116.102 170.606 114.852 171.873 113.723C173.571 112.209 175.83 111.87 177.935 111.26C179.148 110.908 180.403 110.699 181.64 110.426C182.873 110.426 184.106 110.426 185.435 110.426Z" fill="white"/>
<path d="M254.033 143.04V126.092H237.085V116.22H254.033V99.36H263.904V116.22H280.765V126.092H263.904V143.04H254.033Z" fill="white"/>
<path d="M53.54 382.84C49.8067 382.84 46.3533 382.163 43.18 380.81C40.0533 379.457 37.3 377.567 34.92 375.14C32.5867 372.713 30.7667 369.867 29.46 366.6C28.1533 363.333 27.5 359.763 27.5 355.89C27.5 352.017 28.13 348.447 29.39 345.18C30.6967 341.867 32.5167 339.02 34.85 336.64C37.23 334.213 40.0067 332.347 43.18 331.04C46.3533 329.687 49.8067 329.01 53.54 329.01C57.2733 329.01 60.61 329.64 63.55 330.9C66.5367 332.16 69.0567 333.84 71.11 335.94C73.1633 337.993 74.6333 340.257 75.52 342.73L66.98 346.72C66 344.107 64.3433 341.96 62.01 340.28C59.6767 338.553 56.8533 337.69 53.54 337.69C50.2733 337.69 47.38 338.46 44.86 340C42.3867 341.54 40.45 343.663 39.05 346.37C37.6967 349.077 37.02 352.25 37.02 355.89C37.02 359.53 37.6967 362.727 39.05 365.48C40.45 368.187 42.3867 370.31 44.86 371.85C47.38 373.39 50.2733 374.16 53.54 374.16C56.8533 374.16 59.6767 373.32 62.01 371.64C64.3433 369.913 66 367.743 66.98 365.13L75.52 369.12C74.6333 371.593 73.1633 373.88 71.11 375.98C69.0567 378.033 66.5367 379.69 63.55 380.95C60.61 382.21 57.2733 382.84 53.54 382.84ZM93.3454 382.84C90.6854 382.84 88.3754 382.397 86.4154 381.51C84.4554 380.623 82.9387 379.363 81.8654 377.73C80.7921 376.05 80.2554 374.113 80.2554 371.92C80.2554 369.82 80.7221 367.953 81.6554 366.32C82.5887 364.64 84.0354 363.24 85.9954 362.12C87.9554 361 90.4287 360.207 93.4154 359.74L105.875 357.71V364.71L95.1654 366.53C93.3454 366.857 91.9921 367.44 91.1054 368.28C90.2187 369.12 89.7754 370.217 89.7754 371.57C89.7754 372.877 90.2654 373.927 91.2454 374.72C92.2721 375.467 93.5321 375.84 95.0254 375.84C96.9387 375.84 98.6187 375.443 100.065 374.65C101.559 373.81 102.702 372.667 103.495 371.22C104.335 369.773 104.755 368.187 104.755 366.46V356.66C104.755 355.027 104.102 353.673 102.795 352.6C101.535 351.48 99.8554 350.92 97.7554 350.92C95.7954 350.92 94.0454 351.457 92.5054 352.53C91.0121 353.557 89.9154 354.933 89.2154 356.66L81.7254 353.02C82.4721 351.013 83.6387 349.287 85.2254 347.84C86.8587 346.347 88.7721 345.18 90.9654 344.34C93.1587 343.5 95.5387 343.08 98.1054 343.08C101.232 343.08 103.985 343.663 106.365 344.83C108.745 345.95 110.589 347.537 111.895 349.59C113.249 351.597 113.925 353.953 113.925 356.66V382H105.245V375.49L107.205 375.35C106.225 376.983 105.059 378.36 103.705 379.48C102.352 380.553 100.812 381.393 99.0854 382C97.3587 382.56 95.4454 382.84 93.3454 382.84ZM122.401 382V343.92H131.011V352.39L130.311 351.13C131.198 348.283 132.574 346.3 134.441 345.18C136.354 344.06 138.641 343.5 141.301 343.5H143.541V351.62H140.251C137.638 351.62 135.538 352.437 133.951 354.07C132.364 355.657 131.571 357.897 131.571 360.79V382H122.401ZM166.293 382.84C162.606 382.84 159.316 381.977 156.423 380.25C153.529 378.477 151.243 376.073 149.563 373.04C147.883 370.007 147.043 366.647 147.043 362.96C147.043 359.227 147.883 355.867 149.563 352.88C151.243 349.893 153.529 347.513 156.423 345.74C159.363 343.967 162.629 343.08 166.223 343.08C169.116 343.08 171.683 343.663 173.923 344.83C176.209 345.95 178.006 347.537 179.312 349.59L177.913 351.48V329.01H187.083V382H178.403V374.65L179.383 376.47C178.076 378.523 176.256 380.11 173.923 381.23C171.589 382.303 169.046 382.84 166.293 382.84ZM167.273 374.44C169.373 374.44 171.216 373.95 172.803 372.97C174.389 371.99 175.626 370.637 176.513 368.91C177.446 367.183 177.913 365.2 177.913 362.96C177.913 360.767 177.446 358.807 176.513 357.08C175.626 355.307 174.389 353.93 172.803 352.95C171.216 351.97 169.373 351.48 167.273 351.48C165.219 351.48 163.376 351.993 161.743 353.02C160.109 354 158.826 355.353 157.893 357.08C157.006 358.76 156.563 360.72 156.563 362.96C156.563 365.2 157.006 367.183 157.893 368.91C158.826 370.637 160.109 371.99 161.743 372.97C163.376 373.95 165.219 374.44 167.273 374.44ZM195.614 382V343.92H204.784V382H195.614ZM195.614 339.65V329.85H204.784V339.65H195.614ZM238.52 382.84C234.787 382.84 231.334 382.163 228.16 380.81C225.034 379.457 222.28 377.567 219.9 375.14C217.567 372.713 215.747 369.867 214.44 366.6C213.134 363.333 212.48 359.763 212.48 355.89C212.48 352.017 213.11 348.447 214.37 345.18C215.677 341.867 217.497 339.02 219.83 336.64C222.21 334.213 224.987 332.347 228.16 331.04C231.334 329.687 234.787 329.01 238.52 329.01C242.254 329.01 245.59 329.64 248.53 330.9C251.517 332.16 254.037 333.84 256.09 335.94C258.144 337.993 259.614 340.257 260.5 342.73L251.96 346.72C250.98 344.107 249.324 341.96 246.99 340.28C244.657 338.553 241.834 337.69 238.52 337.69C235.254 337.69 232.36 338.46 229.84 340C227.367 341.54 225.43 343.663 224.03 346.37C222.677 349.077 222 352.25 222 355.89C222 359.53 222.677 362.727 224.03 365.48C225.43 368.187 227.367 370.31 229.84 371.85C232.36 373.39 235.254 374.16 238.52 374.16C241.834 374.16 244.657 373.32 246.99 371.64C249.324 369.913 250.98 367.743 251.96 365.13L260.5 369.12C259.614 371.593 258.144 373.88 256.09 375.98C254.037 378.033 251.517 379.69 248.53 380.95C245.59 382.21 242.254 382.84 238.52 382.84ZM267.459 382V329.01H276.629V351.41L275.369 350.08C276.256 347.793 277.703 346.067 279.709 344.9C281.763 343.687 284.143 343.08 286.849 343.08C289.649 343.08 292.123 343.687 294.269 344.9C296.463 346.113 298.166 347.817 299.379 350.01C300.593 352.157 301.199 354.653 301.199 357.5V382H292.029V359.67C292.029 357.99 291.703 356.543 291.049 355.33C290.396 354.117 289.486 353.183 288.319 352.53C287.199 351.83 285.869 351.48 284.329 351.48C282.836 351.48 281.506 351.83 280.339 352.53C279.173 353.183 278.263 354.117 277.609 355.33C276.956 356.543 276.629 357.99 276.629 359.67V382H267.459ZM327.014 382.84C323.094 382.84 319.664 381.953 316.724 380.18C313.784 378.407 311.497 376.003 309.864 372.97C308.23 369.937 307.414 366.577 307.414 362.89C307.414 359.063 308.23 355.68 309.864 352.74C311.544 349.753 313.807 347.397 316.654 345.67C319.547 343.943 322.767 343.08 326.314 343.08C329.3 343.08 331.914 343.57 334.154 344.55C336.44 345.53 338.377 346.883 339.964 348.61C341.55 350.337 342.764 352.32 343.604 354.56C344.444 356.753 344.864 359.133 344.864 361.7C344.864 362.353 344.817 363.03 344.724 363.73C344.677 364.43 344.56 365.037 344.374 365.55H314.974V358.55H339.194L334.854 361.84C335.274 359.693 335.157 357.78 334.504 356.1C333.897 354.42 332.87 353.09 331.424 352.11C330.024 351.13 328.32 350.64 326.314 350.64C324.4 350.64 322.697 351.13 321.204 352.11C319.71 353.043 318.567 354.443 317.774 356.31C317.027 358.13 316.747 360.347 316.934 362.96C316.747 365.293 317.05 367.37 317.844 369.19C318.684 370.963 319.897 372.34 321.484 373.32C323.117 374.3 324.984 374.79 327.084 374.79C329.184 374.79 330.957 374.347 332.404 373.46C333.897 372.573 335.064 371.383 335.904 369.89L343.324 373.53C342.577 375.35 341.41 376.96 339.824 378.36C338.237 379.76 336.347 380.857 334.154 381.65C332.007 382.443 329.627 382.84 327.014 382.84ZM370.155 382.84C366.375 382.84 362.968 381.977 359.935 380.25C356.948 378.477 354.592 376.097 352.865 373.11C351.138 370.077 350.275 366.67 350.275 362.89C350.275 359.11 351.138 355.727 352.865 352.74C354.592 349.753 356.948 347.397 359.935 345.67C362.968 343.943 366.375 343.08 370.155 343.08C372.862 343.08 375.382 343.57 377.715 344.55C380.048 345.483 382.055 346.79 383.735 348.47C385.462 350.103 386.698 352.063 387.445 354.35L379.395 357.85C378.695 355.937 377.505 354.397 375.825 353.23C374.192 352.063 372.302 351.48 370.155 351.48C368.148 351.48 366.352 351.97 364.765 352.95C363.225 353.93 362.012 355.283 361.125 357.01C360.238 358.737 359.795 360.72 359.795 362.96C359.795 365.2 360.238 367.183 361.125 368.91C362.012 370.637 363.225 371.99 364.765 372.97C366.352 373.95 368.148 374.44 370.155 374.44C372.348 374.44 374.262 373.857 375.895 372.69C377.528 371.523 378.695 369.96 379.395 368L387.445 371.64C386.698 373.787 385.485 375.723 383.805 377.45C382.125 379.13 380.118 380.46 377.785 381.44C375.452 382.373 372.908 382.84 370.155 382.84ZM394.403 382V329.01H403.573V363.73L400.073 362.68L417.993 343.92H429.403L415.333 359.25L429.683 382H419.183L406.723 362.26L412.183 361.14L400.703 373.46L403.573 367.86V382H394.403Z" fill="#115E59"/>
</svg>
