<svg width="19" height="18" viewBox="0 0 19 18" fill="none" xmlns="http://www.w3.org/2000/svg">
<g clip-path="url(#clip0_1503_62391)">
<path d="M17.0709 14.1505H16.0887V6.95601H18.5L9.5 0.355347L0.5 6.95601H2.91125V14.1505H1.9291C1.35979 14.1505 0.896691 14.6136 0.896691 15.1829V17.6446H18.1032V15.1829C18.1033 14.6136 17.6402 14.1505 17.0709 14.1505ZM2.60208 6.26776L9.5 1.20898L16.3979 6.26776H2.60208ZM15.4005 6.95601V14.1505H13.5909V6.95601H15.4005ZM12.9027 6.95601V14.1505H11.0931V6.95601H12.9027ZM10.4048 6.95601V14.1505H8.5953V6.95601H10.4048ZM7.90705 6.95601V14.1505H6.09733V6.95601H7.90705ZM5.40908 6.95601V14.1505H3.59954V6.95601H5.40908ZM17.415 16.9563H1.58498V15.1829C1.58498 14.993 1.73939 14.8388 1.9291 14.8388H17.0709C17.2606 14.8388 17.415 14.993 17.415 15.1829V16.9563Z" fill="#666666"/>
<path d="M9.49999 2.80737C8.7252 2.80737 8.09473 3.43345 8.09473 4.20271C8.09473 4.97198 8.72517 5.59805 9.49999 5.59805C10.2748 5.59805 10.9053 4.97198 10.9053 4.20271C10.9053 3.43348 10.2748 2.80737 9.49999 2.80737ZM9.49999 4.9098C9.10459 4.9098 8.78301 4.59255 8.78301 4.20271C8.78301 3.81287 9.10463 3.49562 9.49999 3.49562C9.89539 3.49562 10.217 3.81287 10.217 4.20271C10.217 4.59255 9.89536 4.9098 9.49999 4.9098Z" fill="#666666"/>
</g>
<defs>
<clipPath id="clip0_1503_62391">
<rect width="18" height="18" fill="white" transform="translate(0.5)"/>
</clipPath>
</defs>
</svg>
