<svg width="34" height="32" viewBox="0 0 34 32" fill="none" xmlns="http://www.w3.org/2000/svg">
<path d="M16.1333 1.83186C16.2038 1.65991 16.3238 1.51282 16.4781 1.40929C16.6325 1.30577 16.8141 1.25049 16.9999 1.25049C17.1858 1.25049 17.3674 1.30577 17.5217 1.40929C17.6761 1.51282 17.7961 1.65991 17.8666 1.83186L21.4083 10.3502C21.4746 10.5096 21.5835 10.6476 21.7232 10.749C21.8629 10.8505 22.0278 10.9114 22.1999 10.9252L31.3966 11.6619C32.2283 11.7285 32.5649 12.7669 31.9316 13.3085L24.9249 19.3119C24.794 19.4238 24.6965 19.5697 24.643 19.7334C24.5895 19.8972 24.5821 20.0725 24.6216 20.2402L26.7633 29.2152C26.8063 29.3952 26.795 29.584 26.7308 29.7577C26.6667 29.9313 26.5525 30.0821 26.4027 30.1909C26.2528 30.2997 26.0742 30.3616 25.8892 30.3689C25.7042 30.3762 25.5212 30.3285 25.3633 30.2319L17.4883 25.4235C17.3412 25.3339 17.1722 25.2864 16.9999 25.2864C16.8277 25.2864 16.6587 25.3339 16.5116 25.4235L8.63659 30.2335C8.47869 30.3302 8.29568 30.3779 8.11069 30.3706C7.9257 30.3633 7.74701 30.3013 7.59721 30.1925C7.4474 30.0837 7.3332 29.933 7.26901 29.7594C7.20483 29.5857 7.19355 29.3969 7.23659 29.2168L9.37826 20.2402C9.41798 20.0725 9.41068 19.8971 9.35716 19.7334C9.30364 19.5696 9.20598 19.4237 9.07493 19.3119L2.06826 13.3085C1.92795 13.1879 1.82644 13.0284 1.77651 12.8502C1.72657 12.6721 1.73044 12.4831 1.78762 12.3071C1.8448 12.1311 1.95274 11.9759 2.09787 11.8611C2.243 11.7463 2.41883 11.677 2.60326 11.6619L11.7999 10.9252C11.972 10.9114 12.137 10.8505 12.2766 10.749C12.4163 10.6476 12.5253 10.5096 12.5916 10.3502L16.1333 1.83186Z" stroke="#999999" stroke-width="1.5" stroke-linecap="round" stroke-linejoin="round"/>
</svg>
